<?xml version="1.0" standalone="no"?>
<!DOCTYPE svg PUBLIC "-//W3C//DTD SVG 1.1//EN" "http://www.w3.org/Graphics/SVG/1.1/DTD/svg11.dtd" >
<svg xmlns="http://www.w3.org/2000/svg" xmlns:xlink="http://www.w3.org/1999/xlink" version="1.1">
<metadata>
Created by FontForge 20170731 at Thu Dec 20 12:38:48 2018
 By Aleksey,,,
Copyright (c) 2018 ParaType Inc., ParaType Ltd. All rights reserved.
</metadata>
<defs>
<font id="PTRootUI-Medium" horiz-adv-x="590" >
  <font-face 
    font-family="PT Root UI Medium"
    font-weight="500"
    font-stretch="normal"
    units-per-em="1000"
    panose-1="2 11 5 3 2 2 2 2 2 4"
    ascent="772"
    descent="-228"
    x-height="500"
    cap-height="700"
    bbox="-400 -267 1660 991"
    underline-thickness="50"
    underline-position="-200"
    unicode-range="U+000D-FEFF"
  />
<missing-glyph horiz-adv-x="650" 
d="M75 700h500v-700h-500v700zM499 128v446l-130 -222zM151 571v-446l130 223zM326 425l118 203h-236zM205 72h236l-118 202z" />
    <glyph glyph-name="afii10017.var.accented" unicode="&#x410;`" horiz-adv-x="650" 
d="M465 192h-284l-68 -192h-98l255 700h110l255 -700h-102zM212 278h222l-59 168l-51 149l-52 -149zM391 910h108l-128 -150h-92z" />
    <glyph glyph-name="afii10022.var.accented" unicode="&#x415;`" horiz-adv-x="560" 
d="M80 700h435v-86h-341v-211h281v-86h-281v-231h341v-86h-435v700zM363 910h108l-128 -150h-92z" />
    <glyph glyph-name="afii10026.var.accented" unicode="&#x418;`" horiz-adv-x="710" 
d="M536 593l-52 -103l-276 -490h-128v700h94v-593l52 103l276 490h128v-700h-94v593zM421 910h108l-128 -150h-92z" />
    <glyph glyph-name="afii10032.var.accented" unicode="&#x41e;`" horiz-adv-x="710" 
d="M355 -8q-67 0 -122 22.5t-94.5 64.5t-61.5 103t-22 139v58q0 77 22 138t62 103.5t95 65t121 22.5q67 0 122 -22.5t94.5 -64.5t61.5 -103t22 -139v-58q0 -77 -22 -138t-62 -103.5t-95 -65t-121 -22.5zM355 82q44 0 81 15.5t64 45.5t42 74.5t15 103.5v58q0 58 -15 102.5
t-42 75t-64 46t-81 15.5t-81 -15.5t-64 -45.5t-42 -75t-15 -103v-58q0 -58 15 -102.5t42 -75t64 -46t81 -15.5zM421 910h108l-128 -150h-92z" />
    <glyph glyph-name="afii10037.var.accented" unicode="&#x423;`" horiz-adv-x="610" 
d="M271 197l-251 503h106l195 -400l167 400h102l-303 -700h-102zM373 910h108l-128 -150h-92z" />
    <glyph glyph-name="afii10045.var.accented" unicode="&#x42b;`" horiz-adv-x="830" 
d="M80 700h94v-252h125q132 0 196.5 -60t64.5 -165q0 -107 -63 -165t-198 -58h-219v700zM174 362v-276h125q89 0 126.5 34t37.5 103q0 68 -38.5 103.5t-125.5 35.5h-125zM656 700h94v-700h-94v700zM481 910h108l-128 -150h-92z" />
    <glyph glyph-name="afii10047.var.accented" unicode="&#x42d;`" horiz-adv-x="670" 
d="M235 398h282q-4 109 -58 164.5t-139 55.5q-35 0 -64 -10.5t-50.5 -27.5t-36.5 -39t-22 -46h-102q7 42 29.5 80.5t57.5 68t82.5 47t105.5 17.5q64 0 118.5 -22.5t93.5 -64.5t61 -102t22 -135v-58q0 -79 -22 -141t-61 -105t-93.5 -65.5t-118.5 -22.5q-57 0 -104.5 18
t-83 49.5t-58 74t-29.5 91.5h102q15 -63 59 -103t114 -40q85 0 139 56.5t58 173.5h-282v86zM386 910h108l-128 -150h-92z" />
    <glyph glyph-name="afii10048.var.accented" unicode="&#x42e;`" horiz-adv-x="905" 
d="M568 -8q-63 0 -114 20.5t-88 61t-58 101.5t-22 142h-112v-317h-94v700h94v-297h112q2 73 23 130t58 96t88 59t113 20q63 0 115 -21t89 -61.5t57.5 -100t20.5 -136.5v-58q0 -84 -20.5 -147.5t-57.5 -106t-89 -64t-115 -21.5zM568 82q40 0 74 14.5t58.5 45t38 77.5
t13.5 112v58q0 57 -13.5 100t-38 71.5t-58.5 43t-74 14.5q-81 0 -132.5 -57t-51.5 -172v-58q0 -65 13.5 -111.5t38 -77.5t58.5 -45.5t74 -14.5zM531 910h108l-128 -150h-92z" />
    <glyph glyph-name="afii10049.var.accented" unicode="&#x42f;`" horiz-adv-x="620" 
d="M190 290q-72 23 -106 74t-34 123q0 99 63 156t197 57h230v-700h-94v274h-136h-15t-15 1l-146 -275h-104zM148 487q0 -60 38 -93.5t124 -33.5h136v254h-136q-86 0 -124 -33.5t-38 -93.5zM396 910h108l-128 -150h-92z" />
    <glyph glyph-name="afii10023.var.accented" unicode="&#x401;`" horiz-adv-x="560" 
d="M80 700h435v-86h-341v-211h281v-86h-281v-231h341v-86h-435v700zM162 775q-26 0 -43 17t-17 43t17 43t43 17t43 -17t17 -43t-17 -43t-43 -17zM432 775q-26 0 -43 17t-17 43t17 43t43 17t43 -17t17 -43t-17 -43t-43 -17zM288 910h94l-90 -150h-80z" />
    <glyph glyph-name="afii10065.var.accented" unicode="&#x430;`" horiz-adv-x="520" 
d="M200 -8q-78 0 -119 39.5t-41 108.5q0 38 12 68.5t38.5 51.5t68 32t101.5 11h100v37q0 42 -24.5 65t-75.5 23t-73.5 -19t-26.5 -49h-100q4 64 52.5 106t147.5 42q94 0 142 -45t48 -123v-340h-70l-11 82q-27 -43 -70.5 -66.5t-98.5 -23.5zM210 72q33 0 60.5 11t47.5 29.5
t31 43.5t11 53v18h-100q-69 0 -97.5 -23.5t-28.5 -61.5q0 -32 20 -51t56 -19zM326 710h104l-130 -150h-90z" />
    <glyph glyph-name="afii10070.var.accented" unicode="&#x435;`" horiz-adv-x="540" 
d="M270 -8q-50 0 -91.5 16.5t-71 47.5t-46 75t-16.5 100v38q0 55 16.5 99t46.5 75t71 48t91 17t91.5 -16.5t71 -47.5t46 -75.5t16.5 -99.5v-48h-356q2 -73 38 -110t93 -37q59 0 86 21t42 60h92q-15 -74 -67 -118.5t-153 -44.5zM270 426q-54 0 -88.5 -31.5t-41.5 -95.5h259
q-6 66 -39 96.5t-90 30.5zM341 710h104l-130 -150h-90z" />
    <glyph glyph-name="afii10074.var.accented" unicode="&#x438;`" horiz-adv-x="580" 
d="M415 393l-55 -103l-169 -290h-116v500h90v-393l55 103l169 290h116v-500h-90v393zM361 710h104l-130 -150h-90z" />
    <glyph glyph-name="afii10080.var.accented" unicode="&#x43e;`" horiz-adv-x="550" 
d="M275 -8q-53 0 -95.5 16.5t-72.5 47t-46 75t-16 100.5v38q0 55 16.5 99.5t46.5 75.5t72.5 47.5t94.5 16.5t94.5 -16.5t72.5 -47t46.5 -75t16.5 -100.5v-38q0 -56 -16.5 -100t-46.5 -75t-72.5 -47.5t-94.5 -16.5zM275 78q63 0 99.5 38.5t36.5 114.5v38q0 75 -36.5 114
t-99.5 39t-99.5 -38.5t-36.5 -114.5v-38q0 -75 36.5 -114t99.5 -39zM346 710h104l-130 -150h-90z" />
    <glyph glyph-name="afii10085.var.accented" unicode="&#x443;`" horiz-adv-x="520" 
d="M217 0l-202 500h98l152 -387l144 387h96l-269 -700h-96zM332 710h104l-130 -150h-90z" />
    <glyph glyph-name="afii10093.var.accented" unicode="&#x44b;`" horiz-adv-x="710" 
d="M75 500h90v-160h95q113 0 164 -45.5t51 -124.5q0 -80 -51 -125t-164 -45h-185v500zM545 500h90v-500h-90v500zM165 258v-176h100q66 0 92 22.5t26 65.5t-26 65.5t-92 22.5h-100zM426 710h104l-130 -150h-90z" />
    <glyph glyph-name="afii10095.var.accented" unicode="&#x44d;`" horiz-adv-x="505" 
d="M180 296h185q-6 62 -40.5 94t-89.5 32q-45 0 -71.5 -20t-37.5 -47h-96q7 32 24 60t42.5 48.5t60 32.5t78.5 12q51 0 93 -16t71 -46t45 -73.5t16 -98.5v-38q0 -118 -61 -181t-164 -63q-88 0 -139 45.5t-66 117.5h96q11 -35 36 -56t73 -21q56 0 90.5 33.5t39.5 102.5h-185
v82zM306 710h104l-130 -150h-90z" />
    <glyph glyph-name="afii10096.var.accented" unicode="&#x44e;`" horiz-adv-x="740" 
d="M476 -8q-95 0 -153.5 57t-63.5 165h-94v-214h-90v500h90v-204h95q8 102 66 157t150 55q100 0 159.5 -62t59.5 -177v-38q0 -57 -15.5 -101.5t-44.5 -75t-69.5 -46.5t-89.5 -16zM476 78q56 0 90.5 38t34.5 115v38q0 76 -35 114.5t-90 38.5q-54 0 -88.5 -38t-34.5 -115v-38
q0 -76 34.5 -114.5t88.5 -38.5zM456 710h104l-130 -150h-90z" />
    <glyph glyph-name="afii10097.var.accented" unicode="&#x44f;`" horiz-adv-x="510" 
d="M45 336q0 79 49 121.5t166 42.5h175v-500h-90v174h-85h-21.5t-20.5 1l-93 -175h-100l108 193q-48 20 -68 56t-20 87zM139 336q0 -39 25.5 -59.5t95.5 -20.5h85v162h-85q-70 0 -95.5 -20.5t-25.5 -61.5zM341 710h104l-130 -150h-90z" />
    <glyph glyph-name="afii10071.var.accented" unicode="&#x451;`" horiz-adv-x="540" 
d="M270 -8q-50 0 -91.5 16.5t-71 47.5t-46 75t-16.5 100v38q0 55 16.5 99t46.5 75t71 48t91 17t91.5 -16.5t71 -47.5t46 -75.5t16.5 -99.5v-48h-356q2 -73 38 -110t93 -37q59 0 86 21t42 60h92q-15 -74 -67 -118.5t-153 -44.5zM270 426q-54 0 -88.5 -31.5t-41.5 -95.5h259
q-6 66 -39 96.5t-90 30.5zM175 565q-26 0 -43 17t-17 43t17 43t43 17t43 -17t17 -43t-17 -43t-43 -17zM365 565q-26 0 -43 17t-17 43t17 43t43 17t43 -17t17 -43t-17 -43t-43 -17zM319 810h100l-108 -120h-82z" />
    <glyph glyph-name=".notdef" horiz-adv-x="650" 
d="M75 700h500v-700h-500v700zM499 128v446l-130 -222zM151 571v-446l130 223zM326 425l118 203h-236zM205 72h236l-118 202z" />
    <glyph glyph-name=".null" horiz-adv-x="0" 
 />
    <glyph glyph-name=".null" horiz-adv-x="0" 
 />
    <glyph glyph-name="uni000D" unicode="&#xd;" horiz-adv-x="250" 
 />
    <glyph glyph-name="space" unicode=" " horiz-adv-x="250" 
 />
    <glyph glyph-name="exclam" unicode="!" horiz-adv-x="300" 
d="M150 -8q-31 0 -50.5 20.5t-19.5 49.5t19.5 49.5t50.5 20.5t50.5 -20.5t19.5 -49.5t-19.5 -49.5t-50.5 -20.5zM103 700h94v-500h-94v500z" />
    <glyph glyph-name="quotedbl" unicode="&#x22;" horiz-adv-x="400" 
d="M253 700h94v-250h-94v250zM53 700h94v-250h-94v250z" />
    <glyph glyph-name="numbersign" unicode="#" 
d="M337 200h-139l-35 -200h-84l35 200h-99l16 80h98l28 160h-98l14 80h99l32 180h84l-32 -180h139l32 180h84l-32 -180h96l-14 -80h-97l-28 -160h96l-15 -80h-96l-35 -200h-84zM213 280h139l28 160h-139z" />
    <glyph glyph-name="dollar" unicode="$" horiz-adv-x="610" 
d="M263 -6q-103 9 -154.5 66t-58.5 165h100q5 -66 32 -99t81 -41v239q-38 10 -74.5 23.5t-65 35.5t-46 54.5t-17.5 80.5q0 74 51 126t152 62v94h84v-94q100 -9 148 -62.5t55 -148.5h-100q-8 54 -30.5 83t-72.5 37v-220q39 -11 77 -24.5t68.5 -36t49 -57t18.5 -86.5
q0 -80 -52.5 -134t-160.5 -63v-94h-84v94zM462 192q0 23 -9 40t-24.5 29.5t-36.5 21.5t-45 17v-216q60 8 87.5 38t27.5 70zM158 518q0 -41 30 -63t75 -36v196q-55 -8 -80 -35t-25 -62z" />
    <glyph glyph-name="percent" unicode="%" horiz-adv-x="900" 
d="M210 342q-38 0 -69.5 12t-54 34t-34.5 52t-12 66v38q0 36 12 66t34.5 52t54 34t69.5 12t69 -12t53.5 -34t35 -52t12.5 -66v-38q0 -36 -12.5 -66t-35 -52t-53.5 -34t-69 -12zM210 420q39 0 61.5 22t22.5 64v38q0 42 -22.5 64t-61.5 22t-61.5 -22t-22.5 -64v-38
q0 -42 22.5 -64t61.5 -22zM690 -8q-38 0 -69.5 12t-54 34t-34.5 52t-12 66v38q0 36 12 66t34.5 52t54 34t69.5 12t69 -12t53.5 -34t35 -52t12.5 -66v-38q0 -36 -12.5 -66t-35 -52t-53.5 -34t-69 -12zM690 70q39 0 61.5 22t22.5 64v38q0 42 -22.5 64t-61.5 22t-61.5 -22
t-22.5 -64v-38q0 -42 22.5 -64t61.5 -22zM604 700h96l-404 -700h-96z" />
    <glyph glyph-name="ampersand" unicode="&#x26;" horiz-adv-x="640" 
d="M466 67q-40 -36 -89.5 -55.5t-106.5 -19.5q-51 0 -92 14.5t-69.5 40.5t-43.5 61t-15 76q0 25 5 48.5t18.5 47.5t36 48.5t58.5 51.5q-27 29 -43 52t-25 43.5t-12 39.5t-3 40q0 33 12 61t34 48.5t53.5 32t70.5 11.5t70.5 -11.5t53.5 -32t34 -48.5t12 -61q0 -20 -5.5 -41.5
t-19 -45t-37.5 -48t-61 -50.5l151 -161q11 26 17 56t6 65h94q0 -57 -13 -105.5t-36 -88.5l129 -136h-120zM270 78q37 0 71 14t61 41l-177 185q-27 -21 -43.5 -38.5t-24.5 -34t-10.5 -31t-2.5 -29.5q0 -45 33.5 -76t92.5 -31zM179 555q0 -15 2.5 -28t9 -26.5t19 -29.5
t33.5 -39q29 21 46.5 38t26.5 32t12 28t3 25q0 28 -20.5 47.5t-55.5 19.5t-55.5 -19.5t-20.5 -47.5z" />
    <glyph glyph-name="quotesingle" unicode="'" horiz-adv-x="200" 
d="M53 700h94v-250h-94v250z" />
    <glyph glyph-name="parenleft" unicode="(" horiz-adv-x="400" 
d="M80 250q0 52 7.5 99.5t20 89t28.5 77t33 64.5q39 68 89 120h112q-54 -52 -96 -120q-18 -29 -35.5 -64.5t-31 -77t-21.5 -89t-8 -99.5q0 -53 8 -100t21.5 -88.5t31 -77t35.5 -64.5q42 -69 96 -120h-116q-49 51 -87 120q-33 58 -60 141t-27 189z" />
    <glyph glyph-name="parenright" unicode=")" horiz-adv-x="400" 
d="M320.01 250.03q0 -51.9932 -7.49902 -99.4873t-19.998 -88.9893q-12.498 -41.4951 -28.4961 -76.9912q-15.998 -35.4951 -32.9961 -64.4922q-38.9951 -67.9912 -88.9893 -119.984h-111.986q53.9941 51.9932 95.9883 119.984q17.998 28.9971 35.4961 64.4922
q17.498 35.4961 30.9961 76.9912t21.4971 88.9893t7.99902 99.4873q0 52.9941 -7.99902 99.9883t-21.4971 88.4893q-13.498 41.4941 -30.9961 76.9902t-35.4961 64.4922q-41.9941 68.9912 -95.9883 119.985h115.986q48.9941 -50.9941 86.9893 -119.985
q32.9961 -57.9932 59.9922 -140.982q26.9971 -82.9902 26.9971 -188.978z" />
    <glyph glyph-name="asterisk" unicode="*" horiz-adv-x="390" 
d="M20 568h123l-63 110l52 30l63 -110l63 110l52 -30l-63 -110h123v-60h-124l63 -110l-51 -30l-63 109l-63 -109l-52 30l63 110h-123v60z" />
    <glyph glyph-name="plus" unicode="+" 
d="M70 403h180v184h90v-184h180v-86h-180v-184h-90v184h-180v86z" />
    <glyph glyph-name="comma" unicode="," horiz-adv-x="250" 
d="M83 105h102l-79 -255h-71z" />
    <glyph glyph-name="hyphen" unicode="-" horiz-adv-x="400" 
d="M45 303h310v-86h-310v86z" />
    <glyph glyph-name="period" unicode="." horiz-adv-x="250" 
d="M125 -8q-31 0 -50.5 20.5t-19.5 49.5t19.5 49.5t50.5 20.5t50.5 -20.5t19.5 -49.5t-19.5 -49.5t-50.5 -20.5z" />
    <glyph glyph-name="slash" unicode="/" horiz-adv-x="450" 
d="M339 700h96l-324 -900h-96z" />
    <glyph glyph-name="zero" unicode="0" horiz-adv-x="610" 
d="M305 -8q-55 0 -99.5 18t-75.5 57.5t-48 102t-17 151.5v58q0 88 17 150.5t48.5 102t76 58t98.5 18.5q55 0 99.5 -18t75.5 -57.5t48 -102t17 -151.5v-58q0 -88 -17 -150.5t-48.5 -102t-76 -58t-98.5 -18.5zM305 82q33 0 59.5 11.5t44.5 39t28 73.5t10 115v58
q0 69 -10 114.5t-28.5 73.5t-45 39.5t-58.5 11.5q-33 0 -59.5 -11.5t-44.5 -39t-28 -73.5t-10 -115v-58q0 -69 10 -114.5t28.5 -73.5t45 -39.5t58.5 -11.5z" />
    <glyph glyph-name="one" unicode="1" horiz-adv-x="350" 
d="M20 599l146 101h94v-700h-94v596l-146 -99v102z" />
    <glyph glyph-name="two" unicode="2" horiz-adv-x="550" 
d="M40 86l239 231q64 63 93.5 103.5t29.5 78.5q0 53 -36 86t-96 33t-96 -33.5t-36 -89.5h-98q0 47 16.5 86t46.5 67.5t72.5 44t94.5 15.5t94.5 -15.5t72.5 -43.5t46.5 -66.5t16.5 -83.5q0 -56 -39 -113t-113 -126l-184 -174h336v-86h-460v86z" />
    <glyph glyph-name="three" unicode="3" horiz-adv-x="580" 
d="M285 -8q-112 0 -174.5 61t-65.5 172h98q8 -143 142 -143q71 0 106.5 32.5t35.5 86.5q0 52 -34.5 84t-98.5 32h-94v86h94q57 0 87.5 29.5t30.5 77.5q0 49 -32 78.5t-95 29.5q-57 0 -89.5 -31.5t-37.5 -91.5h-98q3 100 61.5 156.5t163.5 56.5q54 0 96 -14.5t70.5 -40
t43.5 -62t15 -79.5q0 -50 -22 -89t-66 -62q51 -24 77 -66t26 -96q0 -46 -15.5 -84t-46 -65.5t-75.5 -42.5t-103 -15z" />
    <glyph glyph-name="four" unicode="4" horiz-adv-x="565" 
d="M20 243l310 457h122v-457h88v-86h-88v-157h-94v157h-338v86zM358 243v352l-235 -352h235z" />
    <glyph glyph-name="five" unicode="5" horiz-adv-x="565" 
d="M95 700h385v-86h-299l-16 -192q55 47 137 47q48 0 89 -17t71 -48.5t46.5 -75t16.5 -97.5t-17 -98.5t-48.5 -75.5t-75.5 -48t-99 -17q-91 0 -156 46t-84 134h98q17 -45 53 -67.5t89 -22.5q66 0 104 39t38 110q0 70 -38 109t-104 39q-45 0 -77.5 -18t-49.5 -44h-93z" />
    <glyph glyph-name="six" unicode="6" horiz-adv-x="595" 
d="M305 -8q-54 0 -98.5 17t-76 53t-48.5 92.5t-17 136.5v58q0 98 17.5 166.5t50 111t77.5 62t100 19.5q42 0 76 -12.5t60 -34t43 -51.5t26 -65h-99q-11 30 -36 51.5t-70 21.5q-32 0 -59 -10.5t-46.5 -36t-31 -67.5t-14.5 -105q27 33 65.5 51t85.5 18q106 0 165.5 -60
t59.5 -169v-18q0 -52 -17.5 -94.5t-48.5 -72.5t-73 -46t-91 -16zM304 378q-66 0 -103.5 -36t-37.5 -98v-18q0 -71 40 -107.5t102 -36.5q61 0 96.5 37t35.5 102v18q0 66 -36 102.5t-97 36.5z" />
    <glyph glyph-name="seven" unicode="7" horiz-adv-x="480" 
d="M15 700h450v-86l-253 -614h-102l255 614h-350v86z" />
    <glyph glyph-name="eight" unicode="8" 
d="M295 -8q-59 0 -103.5 15t-75 41.5t-46 63.5t-15.5 81q0 60 31.5 103.5t83.5 68.5q-44 23 -69.5 61t-25.5 93q0 40 16 74.5t44.5 60t69 40t90.5 14.5q51 0 91.5 -14t69 -39t44 -60t15.5 -76q0 -54 -26.5 -92t-70.5 -61q53 -25 85 -68.5t32 -104.5q0 -43 -16 -79.5
t-46.5 -63.5t-75.5 -42.5t-102 -15.5zM295 82q34 0 60.5 9t44.5 24.5t27.5 36t9.5 42.5q0 30 -12 53t-31.5 39.5t-45 26.5t-53.5 13q-29 -3 -55 -12.5t-45.5 -26t-30.5 -39.5t-11 -54q0 -23 9.5 -43t27.5 -35.5t44.5 -24.5t60.5 -9zM295 403q22 3 44 10.5t39.5 21t28 34
t10.5 49.5q0 19 -8 37t-23.5 32t-38.5 22.5t-52 8.5t-52 -8.5t-38.5 -22.5t-23.5 -32t-8 -37q0 -28 11.5 -48t29 -34t39 -22t42.5 -11z" />
    <glyph glyph-name="nine" unicode="9" horiz-adv-x="595" 
d="M285 -8q-42 0 -76 12t-60 34t-43 52t-26 65h99q11 -30 36 -51.5t70 -21.5q32 0 58.5 10.5t46 36t31.5 67.5t15 105q-27 -34 -65.5 -51.5t-85.5 -17.5q-106 0 -165.5 60t-59.5 169v18q0 52 17.5 94.5t48.5 72.5t73 46t91 16q54 0 98 -17t75.5 -53t49 -92.5t17.5 -136.5
v-58q0 -98 -18 -166.5t-50 -111t-77 -62t-100 -19.5zM291 322q66 0 103.5 36t37.5 98v18q0 71 -40 107.5t-102 36.5q-61 0 -96.5 -37t-35.5 -102v-18q0 -66 36 -102.5t97 -36.5z" />
    <glyph glyph-name="colon" unicode=":" horiz-adv-x="250" 
d="M125 368q-31 0 -50.5 20.5t-19.5 49.5t19.5 49.5t50.5 20.5t50.5 -20.5t19.5 -49.5t-19.5 -49.5t-50.5 -20.5zM125 -8q-31 0 -50.5 20.5t-19.5 49.5t19.5 49.5t50.5 20.5t50.5 -20.5t19.5 -49.5t-19.5 -49.5t-50.5 -20.5z" />
    <glyph glyph-name="semicolon" unicode=";" horiz-adv-x="250" 
d="M74 105h102l-79 -255h-71zM125 368q-31 0 -50.5 20.5t-19.5 49.5t19.5 49.5t50.5 20.5t50.5 -20.5t19.5 -49.5t-19.5 -49.5t-50.5 -20.5z" />
    <glyph glyph-name="less" unicode="&#x3c;" 
d="M172 362l348 -157v-100l-450 205v100l450 205v-96z" />
    <glyph glyph-name="equal" unicode="=" 
d="M70 503h450v-86h-450v86zM70 303h450v-86h-450v86z" />
    <glyph glyph-name="greater" unicode="&#x3e;" 
d="M418.021 358.044l-347.958 156.981v99.9873l449.945 -204.975v-99.9883l-449.945 -204.975v95.9883z" />
    <glyph glyph-name="question" unicode="?" horiz-adv-x="500" 
d="M198 204q0 53 12.5 87.5t31.5 58.5t40.5 41t40.5 34.5t31.5 39t12.5 55.5q0 43 -30 70.5t-87 27.5q-62 0 -92.5 -29t-34.5 -84h-98q2 45 18 82.5t44 64.5t68 41.5t90 14.5q53 0 94 -14t69 -38.5t42.5 -58t14.5 -72.5q0 -46 -13 -76t-32 -52t-41.5 -39.5t-41.5 -38
t-32 -47.5t-13 -68h-94zM245 -8q-31 0 -50.5 20.5t-19.5 49.5t19.5 49.5t50.5 20.5t50.5 -20.5t19.5 -49.5t-19.5 -49.5t-50.5 -20.5z" />
    <glyph glyph-name="at" unicode="@" horiz-adv-x="1050" 
d="M525 -208q-96 0 -179.5 36t-146 98t-98.5 145.5t-36 178.5t36 178.5t98.5 145.5t146 98t179.5 36q103 0 188 -32.5t145.5 -88t93.5 -129.5t33 -157q0 -69 -18 -122t-49.5 -89t-75 -54.5t-94.5 -18.5q-54 0 -88.5 21t-47.5 56q-30 -37 -70.5 -57t-90.5 -20
q-71 0 -115.5 45.5t-44.5 126.5q0 16 3.5 37t7.5 44q8 46 28.5 85.5t50 67.5t66.5 44t79 16t74 -14t52 -43l9 49h90l-53 -301q-1 -6 -2 -11t-1 -11q0 -22 14.5 -35.5t40.5 -13.5q27 0 52.5 13t45.5 38.5t32.5 62.5t12.5 84q0 67 -26 125.5t-74 102t-116 68.5t-152 25
q-77 0 -144.5 -28.5t-117.5 -78.5t-79 -118t-29 -147q0 -78 29 -146t79 -118.5t117.5 -79t144.5 -28.5q69 0 126 11t104 30v-91q-37 -15 -99 -25.5t-131 -10.5zM480 104q53 0 89 35t47 91q5 26 8.5 47t3.5 32q0 40 -27 64t-72 24q-51 0 -86.5 -35t-46.5 -92
q-6 -29 -8.5 -48.5t-2.5 -30.5q0 -38 23.5 -62.5t71.5 -24.5z" />
    <glyph glyph-name="A" unicode="A" horiz-adv-x="650" 
d="M465 192h-284l-68 -192h-98l255 700h110l255 -700h-102zM212 278h222l-59 168l-51 149l-52 -149z" />
    <glyph glyph-name="B" unicode="B" horiz-adv-x="620" 
d="M80 700h225q131 0 188 -49.5t57 -137.5q0 -48 -22 -86.5t-68 -62.5q57 -23 83.5 -66t26.5 -101q0 -95 -57 -146t-188 -51h-245v700zM174 318v-232h151q81 0 114 29t33 87t-33 87t-114 29h-151zM174 614v-212h131q81 0 114 27.5t33 78.5t-33 78.5t-114 27.5h-131z" />
    <glyph glyph-name="C" unicode="C" horiz-adv-x="670" 
d="M350 -8q-65 0 -119 22.5t-93 64.5t-61 103t-22 139v58q0 77 22 138t61 103.5t93 65t119 22.5q58 0 105 -17.5t82.5 -47t57.5 -68t30 -80.5h-102q-8 24 -22.5 46t-36.5 39t-50.5 27.5t-63.5 10.5q-42 0 -78.5 -15.5t-62.5 -46t-41 -75t-15 -102.5v-58q0 -58 15 -102.5
t41.5 -75t62.5 -46t78 -15.5q70 0 114 40t59 103h102q-8 -49 -30 -91.5t-57.5 -74t-83 -49.5t-104.5 -18z" />
    <glyph glyph-name="D" unicode="D" horiz-adv-x="680" 
d="M80 700h220q157 0 241 -83.5t84 -236.5v-60q0 -75 -22 -134.5t-63.5 -101t-102 -63t-137.5 -21.5h-220v700zM174 614v-528h126q112 0 169.5 58t57.5 176v60q0 116 -58.5 175t-168.5 59h-126z" />
    <glyph glyph-name="E" unicode="E" horiz-adv-x="560" 
d="M80 700h435v-86h-341v-211h281v-86h-281v-231h341v-86h-435v700z" />
    <glyph glyph-name="F" unicode="F" horiz-adv-x="540" 
d="M80 700h435v-86h-341v-216h281v-86h-281v-312h-94v700z" />
    <glyph glyph-name="G" unicode="G" horiz-adv-x="680" 
d="M340 353h285v-43q0 -78 -20 -137.5t-56 -99.5t-86.5 -60.5t-112.5 -20.5q-66 0 -120 22t-93 64t-60.5 103.5t-21.5 139.5v58q0 78 21.5 139t60.5 103.5t93.5 64.5t119.5 22q58 0 104.5 -16.5t81 -45.5t55.5 -68t29 -83h-100q-8 25 -22 47.5t-35 39t-49.5 26.5t-63.5 10
q-44 0 -80 -15t-62 -45t-40.5 -75t-14.5 -104v-58q0 -58 15 -102.5t41 -75t62.5 -46t78.5 -15.5q82 0 129 43t55 142h-194v86z" />
    <glyph glyph-name="H" unicode="H" horiz-adv-x="710" 
d="M536 317h-362v-317h-94v700h94v-297h362v297h94v-700h-94v317z" />
    <glyph glyph-name="I" unicode="I" horiz-adv-x="270" 
d="M88 700h94v-700h-94v700z" />
    <glyph glyph-name="J" unicode="J" horiz-adv-x="535" 
d="M240 -8q-99 0 -155.5 62t-64.5 171h94q4 -69 36 -106t90 -37t92 39.5t34 128.5v450h94v-450q0 -65 -15.5 -113t-44 -80.5t-69.5 -48.5t-91 -16z" />
    <glyph glyph-name="K" unicode="K" horiz-adv-x="635" 
d="M267 319l-93 -110v-209h-94v700h94v-367l300 367h116l-258 -311l278 -389h-118z" />
    <glyph glyph-name="L" unicode="L" horiz-adv-x="515" 
d="M80 700h94v-614h321v-86h-415v700z" />
    <glyph glyph-name="M" unicode="M" horiz-adv-x="810" 
d="M218 490l-44 105v-595h-94v700h134l193 -405l191 405h132v-700h-94v596l-45 -106l-139 -295h-94z" />
    <glyph glyph-name="N" unicode="N" horiz-adv-x="710" 
d="M225 490l-51 102v-592h-94v700h134l271 -490l51 -102v592h94v-700h-134z" />
    <glyph glyph-name="O" unicode="O" horiz-adv-x="710" 
d="M355 -8q-67 0 -122 22.5t-94.5 64.5t-61.5 103t-22 139v58q0 77 22 138t62 103.5t95 65t121 22.5q67 0 122 -22.5t94.5 -64.5t61.5 -103t22 -139v-58q0 -77 -22 -138t-62 -103.5t-95 -65t-121 -22.5zM355 82q44 0 81 15.5t64 45.5t42 74.5t15 103.5v58q0 58 -15 102.5
t-42 75t-64 46t-81 15.5t-81 -15.5t-64 -45.5t-42 -75t-15 -103v-58q0 -58 15 -102.5t42 -75t64 -46t81 -15.5z" />
    <glyph glyph-name="P" unicode="P" horiz-adv-x="600" 
d="M80 700h230q135 0 197.5 -58t62.5 -166q0 -105 -64 -164.5t-196 -59.5h-136v-252h-94v700zM174 614v-276h136q87 0 125 35t38 103q0 69 -37.5 103.5t-125.5 34.5h-136z" />
    <glyph glyph-name="Q" unicode="Q" horiz-adv-x="710" 
d="M355 -8q-67 0 -122 22.5t-94.5 64.5t-61.5 103t-22 139v58q0 77 22 138t62 103.5t95 65t121 22.5q67 0 122 -22.5t94.5 -64.5t61.5 -103t22 -139v-58q0 -81 -24 -143.5t-68 -105.5l92 -122h-108l-54 72q-62 -30 -138 -30zM355 82q45 0 81 15l-91 123h108l53 -71
q24 30 37.5 73t13.5 99v58q0 58 -15 102.5t-42 75t-64 46t-81 15.5t-81 -15.5t-64 -45.5t-42 -75t-15 -103v-58q0 -58 15 -102.5t42 -75t64 -46t81 -15.5z" />
    <glyph glyph-name="R" unicode="R" horiz-adv-x="620" 
d="M346 275q-9 -1 -18 -1h-18h-136v-274h-94v700h230q134 0 197 -57t63 -156q0 -71 -32.5 -121t-100.5 -73l153 -293h-106zM174 614v-254h136q86 0 124 33.5t38 93.5t-38 93.5t-124 33.5h-136z" />
    <glyph glyph-name="S" unicode="S" horiz-adv-x="610" 
d="M305 -8q-124 0 -185.5 57.5t-69.5 175.5h100q7 -77 43 -110t112 -33q81 0 119 32t38 78q0 33 -17.5 53.5t-45.5 35t-64 24t-74 20t-74 24t-64 35.5t-45.5 54t-17.5 80q0 40 15.5 75t46 60.5t76.5 40t107 14.5q121 0 179 -54t66 -159h-100q-8 64 -40 93.5t-105 29.5
q-77 0 -112 -29t-35 -71q0 -31 17.5 -50.5t45.5 -33t64 -22.5t74 -19.5t74 -24.5t64 -37t45.5 -56.5t17.5 -83.5q0 -44 -15.5 -80.5t-47 -63t-79.5 -41t-113 -14.5z" />
    <glyph glyph-name="T" unicode="T" horiz-adv-x="580" 
d="M20 700h540v-86h-223v-614h-94v614h-223v86z" />
    <glyph glyph-name="U" unicode="U" horiz-adv-x="690" 
d="M345 -8q-62 0 -112 19.5t-85 56t-54 90t-19 122.5v420h94v-420q0 -97 47.5 -147.5t128.5 -50.5t128.5 50.5t47.5 147.5v420h94v-420q0 -68 -19 -121.5t-54.5 -90.5t-85.5 -56.5t-111 -19.5z" />
    <glyph glyph-name="V" unicode="V" horiz-adv-x="660" 
d="M20 700h104l216 -585l200 585h100l-245 -700h-110z" />
    <glyph glyph-name="W" unicode="W" horiz-adv-x="970" 
d="M485 586l-145 -586h-120l-190 700h98l151 -589l146 589h120l156 -590l143 590h96l-180 -700h-120z" />
    <glyph glyph-name="X" unicode="X" horiz-adv-x="650" 
d="M324 286l-185 -286h-114l239 363l-219 337h113l168 -257l167 257h112l-219 -333l239 -367h-116z" />
    <glyph glyph-name="Y" unicode="Y" horiz-adv-x="650" 
d="M283 245l-263 455h108l202 -355l196 355h104l-253 -455v-245h-94v245z" />
    <glyph glyph-name="Z" unicode="Z" horiz-adv-x="585" 
d="M55 700h490v-86l-392 -528h392v-86h-500v86l392 528h-382v86z" />
    <glyph glyph-name="bracketleft" unicode="[" horiz-adv-x="400" 
d="M110 700h250v-86h-156v-728h156v-86h-250v900z" />
    <glyph glyph-name="backslash" unicode="\" horiz-adv-x="450" 
d="M15 700h100l320 -900h-100z" />
    <glyph glyph-name="bracketright" unicode="]" horiz-adv-x="400" 
d="M290.014 -199.914h-249.97v85.9893h155.981v727.911h-155.981v85.9893h249.97v-899.89z" />
    <glyph glyph-name="asciicircum" unicode="^" 
d="M290 630l-122 -230h-98l165 300h110l175 -300h-102z" />
    <glyph glyph-name="underscore" unicode="_" 
d="M0 -57h590v-86h-590v86z" />
    <glyph glyph-name="grave" unicode="`" horiz-adv-x="250" 
d="M15 710h104l116 -150h-90z" />
    <glyph glyph-name="a" unicode="a" horiz-adv-x="520" 
d="M200 -8q-78 0 -119 39.5t-41 108.5q0 38 12 68.5t38.5 51.5t68 32t101.5 11h100v37q0 42 -24.5 65t-75.5 23t-73.5 -19t-26.5 -49h-100q4 64 52.5 106t147.5 42q94 0 142 -45t48 -123v-340h-70l-11 82q-27 -43 -70.5 -66.5t-98.5 -23.5zM210 72q33 0 60.5 11t47.5 29.5
t31 43.5t11 53v18h-100q-69 0 -97.5 -23.5t-28.5 -61.5q0 -32 20 -51t56 -19z" />
    <glyph glyph-name="b" unicode="b" horiz-adv-x="560" 
d="M318 -8q-54 0 -96 19.5t-68 59.5l-9 -71h-70v700h90v-258q26 33 65 49.5t88 16.5q42 0 78.5 -15.5t62.5 -46t41 -75t15 -102.5v-38q0 -58 -15 -102.5t-41.5 -75t-62.5 -46t-78 -15.5zM293 78q60 0 94 37.5t34 115.5v38q0 78 -34.5 115.5t-93.5 37.5q-54 0 -90 -37
t-38 -109v-45q0 -75 36 -114t92 -39z" />
    <glyph glyph-name="c" unicode="c" horiz-adv-x="505" 
d="M270 -8q-104 0 -164.5 62t-60.5 177v38q0 57 16 101t45 75t71 47t93 16q44 0 78.5 -12t60 -32.5t42 -48.5t24.5 -60h-96q-11 26 -37.5 46.5t-76.5 20.5q-57 0 -91.5 -38t-34.5 -115v-38q0 -76 35 -114.5t91 -38.5q51 0 77 21t37 56h96q-15 -72 -66 -117.5t-139 -45.5z
" />
    <glyph glyph-name="d" unicode="d" horiz-adv-x="560" 
d="M242 -8q-43 0 -79 15.5t-62.5 45.5t-41 74.5t-14.5 103.5v38q0 58 15 102.5t41.5 75t62.5 46t79 15.5q98 0 152 -66v258h90v-700h-70l-10 71q-26 -40 -67.5 -59.5t-95.5 -19.5zM267 78q54 0 90 37t38 108v53q-2 72 -38 109t-90 37q-60 0 -94 -37.5t-34 -115.5v-38
q0 -77 34.5 -115t93.5 -38z" />
    <glyph glyph-name="e" unicode="e" horiz-adv-x="540" 
d="M270 -8q-50 0 -91.5 16.5t-71 47.5t-46 75t-16.5 100v38q0 55 16.5 99t46.5 75t71 48t91 17t91.5 -16.5t71 -47.5t46 -75.5t16.5 -99.5v-48h-356q2 -73 38 -110t93 -37q59 0 86 21t42 60h92q-15 -74 -67 -118.5t-153 -44.5zM270 426q-54 0 -88.5 -31.5t-41.5 -95.5h259
q-6 66 -39 96.5t-90 30.5z" />
    <glyph glyph-name="f" unicode="f" horiz-adv-x="335" 
d="M20 500h90v53q0 72 37.5 109.5t109.5 37.5h83v-82h-71q-69 0 -69 -74v-44h120v-82h-120v-418h-90v418h-90v82z" />
    <glyph glyph-name="g" unicode="g" horiz-adv-x="560" 
d="M243 12q-43 0 -79.5 15t-62.5 44.5t-41 72t-15 97.5v38q0 54 15 97t41.5 72t62.5 44.5t79 15.5q109 0 162 -79l10 71h70v-500q0 -102 -53.5 -155t-158.5 -53q-100 0 -147.5 42.5t-55.5 115.5h90q8 -38 32 -58t81 -20q65 0 93.5 29.5t28.5 98.5v76q-55 -64 -152 -64z
M267 98q56 0 92 38t36 105v38q0 67 -36 105t-92 38q-60 0 -94 -36.5t-34 -106.5v-38q0 -71 34.5 -107t93.5 -36z" />
    <glyph glyph-name="h" unicode="h" horiz-adv-x="575" 
d="M75 700h90v-259q25 32 63 49.5t87 17.5q87 0 138.5 -54.5t51.5 -158.5v-295h-90v295q0 64 -30 95.5t-85 31.5q-61 0 -97 -34t-38 -88v-300h-90v700z" />
    <glyph glyph-name="i" unicode="i" horiz-adv-x="256" 
d="M83 500h90v-500h-90v500zM128 576q-26 0 -43 17t-17 43t17 43t43 17t43 -17t17 -43t-17 -43t-43 -17z" />
    <glyph glyph-name="j" unicode="j" horiz-adv-x="256" 
d="M-27 -118h33q40 0 58.5 23t18.5 80v515h90v-515q0 -50 -10 -85.5t-30 -57.5t-52 -32t-75 -10h-33v82zM128 576q-26 0 -43 17t-17 43t17 43t43 17t43 -17t17 -43t-17 -43t-43 -17z" />
    <glyph glyph-name="k" unicode="k" horiz-adv-x="510" 
d="M243 215l-78 -96v-119h-90v700h90v-457l202 257h108l-173 -219l193 -281h-110z" />
    <glyph glyph-name="l" unicode="l" horiz-adv-x="285" 
d="M221 0q-71 0 -108.5 37.5t-37.5 109.5v553h90v-543q0 -75 69 -75h31v-82h-44v0z" />
    <glyph glyph-name="m" unicode="m" horiz-adv-x="875" 
d="M75 500h70l9 -68q26 37 64.5 56.5t86.5 19.5q51 0 91 -23t63 -68q26 43 69 67t97 24q39 0 72 -14t57 -41t37.5 -66.5t13.5 -91.5v-295h-90v295q0 64 -29.5 95.5t-80.5 31.5t-84.5 -34t-35.5 -88v-300h-90v295q0 64 -29.5 95.5t-80.5 31.5t-84.5 -33t-35.5 -89v-300h-90
v500z" />
    <glyph glyph-name="n" unicode="n" horiz-adv-x="575" 
d="M75 500h70l9 -69q26 37 67 57t94 20q87 0 138.5 -54.5t51.5 -158.5v-295h-90v295q0 64 -30 95.5t-85 31.5q-61 0 -97 -34t-38 -88v-300h-90v500z" />
    <glyph glyph-name="o" unicode="o" horiz-adv-x="550" 
d="M275 -8q-53 0 -95.5 16.5t-72.5 47t-46 75t-16 100.5v38q0 55 16.5 99.5t46.5 75.5t72.5 47.5t94.5 16.5t94.5 -16.5t72.5 -47t46.5 -75t16.5 -100.5v-38q0 -56 -16.5 -100t-46.5 -75t-72.5 -47.5t-94.5 -16.5zM275 78q63 0 99.5 38.5t36.5 114.5v38q0 75 -36.5 114
t-99.5 39t-99.5 -38.5t-36.5 -114.5v-38q0 -75 36.5 -114t99.5 -39z" />
    <glyph glyph-name="p" unicode="p" horiz-adv-x="560" 
d="M317 -8q-99 0 -152 65v-257h-90v700h70l9 -72q26 40 68 60t96 20q42 0 78.5 -15.5t62.5 -46t41 -75t15 -102.5v-38q0 -58 -15 -102.5t-41.5 -75t-63 -46t-78.5 -15.5zM293 78q60 0 94 37t34 116v38q0 78 -34 115.5t-94 37.5q-54 0 -90 -37t-38 -109v-45q0 -74 36 -113.5
t92 -39.5z" />
    <glyph glyph-name="q" unicode="q" horiz-adv-x="560" 
d="M243 -8q-43 0 -79.5 15.5t-62.5 45.5t-41 74.5t-15 103.5v38q0 58 15 102.5t41.5 75t62.5 46t79 15.5q109 0 162 -80l10 72h70v-700h-90v257q-54 -65 -152 -65zM267 78q56 0 92 39t36 114v45q-2 72 -38 109t-90 37q-60 0 -94 -37.5t-34 -115.5v-38q0 -78 34.5 -115.5
t93.5 -37.5z" />
    <glyph glyph-name="r" unicode="r" horiz-adv-x="380" 
d="M75 500h70l9 -68q26 37 66 56.5t90 19.5h50v-86h-50q-69 0 -106 -34t-39 -88v-300h-90v500z" />
    <glyph glyph-name="s" unicode="s" horiz-adv-x="490" 
d="M245 -8q-97 0 -144.5 43t-55.5 120h94q4 -22 10.5 -38t18.5 -26t31 -14.5t46 -4.5q61 0 83.5 17.5t22.5 50.5q0 30 -22 45.5t-55 24.5t-71 16.5t-71 22.5t-55 41.5t-22 74.5q0 31 11.5 57t35 45t59.5 30t84 11q90 0 136 -41.5t54 -111.5h-94q-8 37 -28 55t-68 18
q-54 0 -75 -17t-21 -46q0 -27 22 -39.5t55 -20.5t71 -15.5t71 -23.5t55 -45.5t22 -80.5q0 -65 -48 -106.5t-152 -41.5z" />
    <glyph glyph-name="t" unicode="t" horiz-adv-x="360" 
d="M15 500h90v140h90v-140h130v-82h-130v-261q0 -75 70 -75h70v-82h-83q-71 0 -109 38t-38 109v271h-90v82z" />
    <glyph glyph-name="u" unicode="u" horiz-adv-x="565" 
d="M255 -8q-83 0 -134 54.5t-51 158.5v295h90v-295q0 -64 29.5 -95.5t80.5 -31.5q57 0 92.5 33.5t37.5 87.5v301h90v-500h-70l-9 69q-26 -37 -66 -57t-90 -20z" />
    <glyph glyph-name="v" unicode="v" horiz-adv-x="510" 
d="M15 500h98l147 -400l139 400h96l-180 -500h-110z" />
    <glyph glyph-name="w" unicode="w" horiz-adv-x="770" 
d="M384 398l-104 -398h-110l-145 500h94l108 -389l102 389h110l114 -394l102 394h90l-135 -500h-110z" />
    <glyph glyph-name="x" unicode="x" horiz-adv-x="500" 
d="M250 191l-133 -191h-102l179 256l-169 244h102l123 -181l125 181h100l-169 -245l179 -255h-104z" />
    <glyph glyph-name="y" unicode="y" horiz-adv-x="520" 
d="M217 0l-202 500h98l152 -387l144 387h96l-269 -700h-96z" />
    <glyph glyph-name="z" unicode="z" horiz-adv-x="455" 
d="M45 500h380v-82l-286 -336h286v-82h-390v82l286 336h-276v82z" />
    <glyph glyph-name="braceleft" unicode="{" horiz-adv-x="400" 
d="M370 614h-41q-59 0 -87 -28.5t-28 -91.5v-103q0 -23 -2.5 -43.5t-10 -38.5t-22 -33t-38.5 -27q24 -12 38.5 -27t22 -32.5t10 -38t2.5 -42.5v-103q0 -63 28 -91.5t87 -28.5h41v-86h-49q-201 0 -201 201v104q0 54 -23 77t-57 27v82q34 4 57 27t23 76v105q0 201 201 201h49
v-86z" />
    <glyph glyph-name="bar" unicode="|" horiz-adv-x="300" 
d="M103 700h94v-900h-94v900z" />
    <glyph glyph-name="braceright" unicode="}" horiz-adv-x="400" 
d="M30.0449 -113.925h40.9951q58.9932 0 86.9893 28.4961q27.9971 28.4971 27.9971 91.4893v102.987q0 22.9971 2.49902 43.4941q2.5 20.498 9.99902 38.4961q7.49902 17.9971 21.9971 32.9951q14.499 14.999 38.4961 26.9971q-23.9971 11.999 -38.4961 26.9971
q-14.498 14.998 -21.9971 32.4961t-9.99902 37.9951q-2.49902 20.4971 -2.49902 42.4951v102.987q0 62.9922 -27.9971 91.4883q-27.9961 28.4971 -86.9893 28.4971h-40.9951v85.9893h48.9941q200.976 0 200.976 -200.976v-103.987q0 -53.9932 22.9971 -76.9902
t56.9932 -26.9971v-81.9902q-33.9961 -3.99902 -56.9932 -26.9961t-22.9971 -75.9912v-104.987q0 -200.975 -200.976 -200.975h-48.9941v85.9893z" />
    <glyph glyph-name="asciitilde" unicode="~" 
d="M401 265q-40 0 -69 15.5t-53 34.5t-45 34.5t-45 15.5q-26 0 -41 -16t-15 -44h-88q0 33 11 60.5t30.5 47.5t45.5 31t57 11q40 0 69 -15.5t53 -34.5t45 -34.5t45 -15.5q27 0 41.5 16.5t14.5 43.5h88q0 -33 -11 -60.5t-30.5 -47.5t-45.5 -31t-57 -11z" />
    <glyph glyph-name="uni00A0" unicode="&#xa0;" horiz-adv-x="250" 
 />
    <glyph glyph-name="exclamdown" unicode="&#xa1;" horiz-adv-x="300" 
d="M150.019 507.999q30.9961 0 50.4932 -20.4971q19.498 -20.498 19.498 -49.4941q0 -28.9971 -19.498 -49.4941q-19.4971 -20.498 -50.4932 -20.498t-50.4941 20.498q-19.4971 20.4971 -19.4971 49.4941q0 28.9961 19.4971 49.4941q19.498 20.4971 50.4941 20.4971z
M197.013 -199.914h-93.9883v499.938h93.9883v-499.938z" />
    <glyph glyph-name="cent" unicode="&#xa2;" horiz-adv-x="505" 
d="M228 -5q-86 12 -134.5 72.5t-48.5 163.5v38q0 102 49 162.5t134 73.5v95h84v-95q34 -6 61.5 -19.5t47.5 -33.5t33.5 -44.5t20.5 -52.5h-96q-11 26 -37.5 46.5t-76.5 20.5q-57 0 -91.5 -38t-34.5 -115v-38q0 -76 35 -114.5t91 -38.5q51 0 77 21t37 56h96q-14 -63 -54 -106
t-109 -54v-95h-84v95z" />
    <glyph glyph-name="sterling" unicode="&#xa3;" horiz-adv-x="580" 
d="M45 367h90v138q0 44 15.5 81t42.5 64t64.5 42.5t81.5 15.5q94 0 148 -56.5t58 -156.5h-98q-7 123 -108 123q-50 0 -80 -30.5t-30 -82.5v-138h181v-74h-181v-31q0 -72 -13.5 -111t-45.5 -65h375v-86h-500v86q22 15 39 29t28 33.5t17 46.5t6 67v31h-90v74z" />
    <glyph glyph-name="currency" unicode="&#xa4;" 
d="M405 187q-49 -32 -110 -32q-63 0 -112 34l-84 -84l-59 59l84 84q-34 49 -34 112q0 61 32 110l-82 82l63 63l82 -83q50 33 110 33q31 0 59 -9t52 -25l84 84l60 -60l-84 -84q16 -24 25 -52t9 -59t-8.5 -58.5t-23.5 -51.5l82 -82l-63 -63zM295 242q23 0 43.5 9.5t35.5 25.5
t24 37.5t9 45.5t-9 45.5t-24 37.5t-35.5 25.5t-43.5 9.5t-43.5 -9.5t-35.5 -25.5t-24 -37.5t-9 -45.5t9 -45.5t24 -37.5t35.5 -25.5t43.5 -9.5z" />
    <glyph glyph-name="yen" unicode="&#xa5;" horiz-adv-x="650" 
d="M85 337h142l-207 363h108l203 -363l195 363h104l-200 -363h145v-74h-198v-71h198v-74h-198v-118h-94v118h-198v74h198v71h-198v74z" />
    <glyph glyph-name="brokenbar" unicode="&#xa6;" horiz-adv-x="300" 
d="M103 170h94v-370h-94v370zM103 700h94v-370h-94v370z" />
    <glyph glyph-name="section" unicode="&#xa7;" horiz-adv-x="480" 
d="M240 708q40 0 71.5 -12t55 -32t37 -48t17.5 -59h-99q-4 29 -24 46.5t-58 17.5q-42 0 -62.5 -18t-20.5 -50q0 -30 21 -50.5t52.5 -38t68 -35.5t68 -42.5t52.5 -59.5t21 -86q0 -46 -23.5 -84t-68.5 -68q35 -23 59 -55t24 -83q0 -34 -12.5 -63t-37 -50.5t-60 -33.5
t-81.5 -12q-42 0 -75.5 12t-57.5 34t-38.5 51t-18.5 64h100q3 -32 26 -53t64 -21q46 0 69.5 20.5t23.5 51.5q0 29 -21.5 49t-54.5 37t-70.5 34.5t-70.5 42t-54.5 59t-21.5 86.5q0 47 25 86t73 69q-34 23 -56.5 55.5t-22.5 83.5q0 68 47 111.5t134 43.5zM137 260
q0 -24 10.5 -42t28 -33t40.5 -27t48 -24q38 23 58 46.5t20 59.5q0 24 -10 42.5t-27.5 33.5t-39.5 27.5t-46 24.5q-41 -24 -61.5 -48.5t-20.5 -59.5z" />
    <glyph glyph-name="dieresis" unicode="&#xa8;" horiz-adv-x="340" 
d="M75 575q-26 0 -43 17t-17 43t17 43t43 17t43 -17t17 -43t-17 -43t-43 -17zM265 575q-26 0 -43 17t-17 43t17 43t43 17t43 -17t17 -43t-17 -43t-43 -17z" />
    <glyph glyph-name="copyright" unicode="&#xa9;" horiz-adv-x="850" 
d="M425 -8q-76 0 -141.5 28t-114 76t-76.5 113.5t-28 140.5q0 74 28 139.5t77 114t114.5 76.5t140.5 28t141 -28t114.5 -76t76.5 -113.5t28 -140.5q0 -74 -28.5 -139.5t-77 -114t-114 -76.5t-140.5 -28zM425 68q59 0 110 21.5t88.5 59.5t59 89.5t21.5 111.5t-21.5 111.5
t-59.5 89.5t-89 59.5t-109 21.5q-59 0 -109.5 -21.5t-88.5 -59.5t-59.5 -89.5t-21.5 -111.5t21.5 -111.5t59.5 -89.5t88.5 -59.5t109.5 -21.5zM425 142q-84 0 -132.5 50t-48.5 143v30q0 91 49.5 142t131.5 51q38 0 68.5 -10.5t52 -27.5t34.5 -38.5t17 -44.5h-85
q-8 16 -28.5 31.5t-58.5 15.5q-47 0 -73.5 -29.5t-26.5 -89.5v-30q0 -59 27.5 -89t72.5 -30q43 0 63 16.5t28 40.5h81q-4 -26 -17 -49.5t-35 -41.5t-52.5 -29t-67.5 -11z" />
    <glyph glyph-name="ordfeminine" unicode="&#xaa;" horiz-adv-x="350" 
d="M138 372q-56 0 -84.5 26.5t-28.5 71.5q0 49 34.5 77.5t121.5 28.5h57v14q0 30 -13 43t-45 13q-29 0 -42 -10.5t-17 -26.5h-78q4 43 37 71t100 28q69 0 102 -30.5t33 -87.5v-210h-61l-8 48q-34 -56 -108 -56zM152 434q40 0 63 23t23 58v9h-58q-42 0 -58 -12t-16 -34
q0 -23 12.5 -33.5t33.5 -10.5z" />
    <glyph glyph-name="guillemotleft" unicode="&#xab;" horiz-adv-x="505" 
d="M357 460h98l-120 -198l120 -202h-101l-119 198zM152 460h98l-120 -198l120 -202h-101l-119 198z" />
    <glyph glyph-name="logicalnot" unicode="&#xac;" 
d="M70 402h450v-270h-90v184h-360v86z" />
    <glyph glyph-name="uni00AD" unicode="&#xad;" horiz-adv-x="400" 
d="M45 303h310v-86h-310v86z" />
    <glyph glyph-name="registered" unicode="&#xae;" horiz-adv-x="650" 
d="M325 142q-59 0 -111 22.5t-90.5 60.5t-61 89.5t-22.5 110.5q0 58 22.5 110t61 90t90.5 60.5t111 22.5t111 -22.5t90.5 -60.5t61 -90t22.5 -110q0 -59 -22.5 -110.5t-61 -89.5t-90.5 -60.5t-111 -22.5zM325 205q45 0 84.5 17t69 47t46.5 70t17 86t-17 86t-46.5 70t-69 47
t-84.5 17t-84.5 -17t-69 -47t-46.5 -70t-17 -86t17 -86t46.5 -70t69 -47t84.5 -17zM332 374h-47v-99h-66v300h111q64 0 92.5 -25.5t28.5 -75.5q0 -72 -60 -92l54 -107h-68zM285 515v-82h45q30 0 41 10.5t11 30.5t-11 30.5t-41 10.5h-45z" />
    <glyph glyph-name="macron" unicode="&#xaf;" horiz-adv-x="300" 
d="M10 672h280v-74h-280v74z" />
    <glyph glyph-name="degree" unicode="&#xb0;" horiz-adv-x="360" 
d="M180 386q-35 0 -65 12.5t-52.5 34.5t-35 51.5t-12.5 62.5t12.5 62.5t35 51.5t52.5 34.5t65 12.5q34 0 64.5 -12.5t52.5 -34.5t35 -51.5t13 -62.5t-13 -62.5t-35 -51.5t-52.5 -34.5t-64.5 -12.5zM180 461q36 0 61 25t25 61t-25 61t-61 25t-61 -25t-25 -61t25 -61t61 -25z
" />
    <glyph glyph-name="plusminus" unicode="&#xb1;" 
d="M70 455h180v189h90v-189h180v-86h-180v-138h-90v138h-180v86zM70 161h450v-86h-450v86z" />
    <glyph glyph-name="twosuperior" unicode="&#xb2;" horiz-adv-x="355" 
d="M21 452l144 134q25 24 40 40.5t23 29.5t11 24.5t3 23.5q0 28 -17 43.5t-52 15.5t-52 -15.5t-17 -43.5h-83q0 58 40 96t112 38q71 0 111.5 -38t40.5 -96q0 -22 -6 -41.5t-19 -39.5t-33.5 -42t-48.5 -48l-89 -81h196v-72h-304v72z" />
    <glyph glyph-name="threesuperior" unicode="&#xb3;" horiz-adv-x="370" 
d="M180 372q-77 0 -117 38t-43 110h83q6 -73 77 -73q38 0 57.5 18t19.5 46q0 27 -19.5 45.5t-57.5 18.5h-58v70h58q34 0 50.5 16t16.5 43q0 28 -16.5 43.5t-50.5 15.5q-32 0 -48 -14.5t-19 -44.5h-83q3 61 41.5 97.5t108.5 36.5q71 0 110.5 -36t39.5 -89q0 -34 -14 -59.5
t-43 -39.5q33 -17 50 -45t17 -62q0 -60 -41 -97.5t-119 -37.5z" />
    <glyph glyph-name="acute" unicode="&#xb4;" horiz-adv-x="250" 
d="M131 710h104l-130 -150h-90z" />
    <glyph glyph-name="mu" unicode="&#xb5;" horiz-adv-x="570" 
d="M260 -8q-54 0 -95 29v-221h-90v700h90v-295q0 -64 29.5 -95.5t80.5 -31.5q59 0 94.5 35t35.5 92v295h90v-500h-70l-9 69q-26 -37 -66 -57t-90 -20z" />
    <glyph glyph-name="paragraph" unicode="&#xb6;" horiz-adv-x="660" 
d="M449 614h-138v-814h-93v464q-38 7 -70.5 27t-56.5 48.5t-37.5 64.5t-13.5 76q0 45 17.5 85t47.5 70t70 47.5t85 17.5h380v-86h-97v-814h-94v814z" />
    <glyph glyph-name="periodcentered" unicode="&#xb7;" horiz-adv-x="250" 
d="M125 190q-31 0 -50.5 20.5t-19.5 49.5t19.5 49.5t50.5 20.5t50.5 -20.5t19.5 -49.5t-19.5 -49.5t-50.5 -20.5z" />
    <glyph glyph-name="cedilla" unicode="&#xb8;" horiz-adv-x="190" 
d="M68 11h60l-12 -46q32 -7 48 -26.5t16 -48.5q0 -41 -25 -65.5t-70 -24.5h-75v66h65q27 0 27 24t-27 24h-32z" />
    <glyph glyph-name="onesuperior" unicode="&#xb9;" horiz-adv-x="260" 
d="M15 758l117 72h78v-450h-78v364l-117 -73v87z" />
    <glyph glyph-name="ordmasculine" unicode="&#xba;" horiz-adv-x="360" 
d="M180 372q-71 0 -113 41.5t-42 111.5v30q0 70 42 111.5t113 41.5q72 0 113.5 -41.5t41.5 -111.5v-30q0 -70 -41.5 -111.5t-113.5 -41.5zM180 446q35 0 55 20.5t20 58.5v30q0 38 -20 58.5t-55 20.5t-55 -20.5t-20 -58.5v-30q0 -38 20 -58.5t55 -20.5z" />
    <glyph glyph-name="guillemotright" unicode="&#xbb;" horiz-adv-x="505" 
d="M353.019 60.0566h-97.9883l119.985 197.976l-119.985 201.976h100.988l118.985 -197.977zM148.019 60.0566h-97.9883l119.985 197.976l-119.985 201.976h100.988l118.985 -197.977z" />
    <glyph glyph-name="onequarter" unicode="&#xbc;" horiz-adv-x="850" 
d="M579 700h96l-404 -700h-96zM40 634l108 66h77v-400h-77v315l-108 -67v86zM490 150l166 251h107v-251h47v-69h-47v-80h-76v80h-197v69zM687 150v174l-115 -174h115z" />
    <glyph glyph-name="onehalf" unicode="&#xbd;" horiz-adv-x="880" 
d="M579 700h96l-404 -700h-96zM40 634l108 66h77v-400h-77v315l-108 -67v86zM550 71l133 110q26 21 41 36t23 26.5t10 21.5t2 21q0 23 -15 36.5t-49 13.5t-49 -13.5t-15 -37.5h-81q0 58 35.5 91t109.5 33t109.5 -33t35.5 -90q0 -20 -5.5 -38t-17.5 -36.5t-31.5 -38
t-48.5 -42.5l-75 -60h178v-70h-290v70z" />
    <glyph glyph-name="threequarters" unicode="&#xbe;" horiz-adv-x="900" 
d="M629 700h96l-404 -700h-96zM540 150l166 251h107v-251h47v-69h-47v-80h-76v80h-197v69zM737 150v174l-115 -174h115zM195 292q-75 0 -113.5 35t-41.5 98h81q3 -29 20.5 -44.5t53.5 -15.5q39 0 56.5 15t17.5 38t-17.5 38t-56.5 15h-53v68h53q34 0 49 13.5t15 34.5
q0 22 -15 35t-49 13q-32 0 -46.5 -12.5t-17.5 -38.5h-81q3 57 38 90.5t107 33.5t108.5 -33t36.5 -82q0 -26 -12.5 -47.5t-38.5 -35.5q31 -15 46 -41t15 -57q0 -53 -38 -86.5t-117 -33.5z" />
    <glyph glyph-name="questiondown" unicode="&#xbf;" horiz-adv-x="500" 
d="M302.024 296.025q0 -52.9941 -12.499 -87.4902q-12.498 -34.4951 -31.4961 -58.4922q-18.9971 -23.9971 -40.4951 -40.9951q-21.4971 -16.998 -40.4951 -34.4961q-18.9971 -17.498 -31.4961 -38.9951q-12.498 -21.4971 -12.498 -55.4932q0 -42.9951 29.9961 -70.4912
q29.9961 -27.4971 86.9893 -27.4971q61.9932 0 92.4893 28.9971q30.4961 28.9961 34.4951 83.9893h97.9883q-2 -44.9941 -17.998 -82.4902q-15.998 -37.4951 -43.9941 -64.4912q-27.9971 -26.9971 -67.9922 -41.4951q-39.9951 -14.499 -89.9883 -14.499
q-52.9941 0 -93.9893 13.999q-40.9941 13.998 -68.9912 38.4951t-42.4951 57.9932q-14.498 33.4951 -14.498 72.4912q0 45.9941 12.998 75.9902q12.999 29.9961 31.9961 51.9941q18.998 21.9971 41.4951 39.4951q22.4971 17.4971 41.4951 37.9951
q18.998 20.4971 31.9961 47.4941t12.998 67.9922h93.9893zM255.03 507.999q30.9961 0 50.4932 -20.4971q19.498 -20.498 19.498 -49.4941q0 -28.9971 -19.498 -49.4941q-19.4971 -20.498 -50.4932 -20.498q-30.9971 0 -50.4941 20.498q-19.498 20.4971 -19.498 49.4941
q0 28.9961 19.498 49.4941q19.4971 20.4971 50.4941 20.4971z" />
    <glyph glyph-name="Agrave" unicode="&#xc0;" horiz-adv-x="650" 
d="M465 192h-284l-68 -192h-98l255 700h110l255 -700h-102zM212 278h222l-59 168l-51 149l-52 -149zM150 910h108l112 -150h-92z" />
    <glyph glyph-name="Aacute" unicode="&#xc1;" horiz-adv-x="650" 
d="M465 192h-284l-68 -192h-98l255 700h110l255 -700h-102zM212 278h222l-59 168l-51 149l-52 -149zM391 910h108l-128 -150h-92z" />
    <glyph glyph-name="Acircumflex" unicode="&#xc2;" horiz-adv-x="650" 
d="M465 192h-284l-68 -192h-98l255 700h110l255 -700h-102zM212 278h222l-59 168l-51 149l-52 -149zM325 846l-73 -86h-92l112 150h106l112 -150h-92z" />
    <glyph glyph-name="Atilde" unicode="&#xc3;" horiz-adv-x="650" 
d="M465 192h-284l-68 -192h-98l255 700h110l255 -700h-102zM212 278h222l-59 168l-51 149l-52 -149zM395 765q-28 0 -48 10.5t-35.5 23t-28.5 23t-28 10.5q-17 0 -27 -12t-10 -40h-63q0 66 26.5 95.5t73.5 29.5q28 0 47.5 -10t35 -22.5t29 -22.5t28.5 -10q17 0 27 12t10 38
h63q0 -66 -26.5 -95.5t-73.5 -29.5z" />
    <glyph glyph-name="Adieresis" unicode="&#xc4;" horiz-adv-x="650" 
d="M465 192h-284l-68 -192h-98l255 700h110l255 -700h-102zM212 278h222l-59 168l-51 149l-52 -149zM220 775q-26 0 -43 17t-17 43t17 43t43 17t43 -17t17 -43t-17 -43t-43 -17zM430 775q-26 0 -43 17t-17 43t17 43t43 17t43 -17t17 -43t-17 -43t-43 -17z" />
    <glyph glyph-name="Aring" unicode="&#xc5;" horiz-adv-x="650" 
d="M465 192h-284l-68 -192h-98l255 700h110l255 -700h-102zM212 278h222l-59 168l-51 149l-52 -149zM325 730q-24 0 -44 8t-35 22.5t-23 33.5t-8 41t8 41t23 33.5t35 22.5t44 8t44 -8t35 -22.5t23 -33.5t8 -41t-8 -41t-23 -33.5t-35 -22.5t-44 -8zM325 790q19 0 31.5 12.5
t12.5 32.5t-12.5 32.5t-31.5 12.5t-31.5 -12.5t-12.5 -32.5t12.5 -32.5t31.5 -12.5z" />
    <glyph glyph-name="AE" unicode="&#xc6;" horiz-adv-x="930" 
d="M400 700h485v-86h-341v-211h281v-86h-281v-231h341v-86h-435v192h-231l-105 -192h-104zM450 278v334l-184 -334h184z" />
    <glyph glyph-name="Ccedilla" unicode="&#xc7;" horiz-adv-x="670" 
d="M317 -6q-58 5 -106.5 29.5t-83 66.5t-53.5 100t-19 131v58q0 77 22 138t61 103.5t93 65t119 22.5q58 0 105 -17.5t82.5 -47t57.5 -68t30 -80.5h-102q-8 24 -22.5 46t-36.5 39t-50.5 27.5t-63.5 10.5q-42 0 -78.5 -15.5t-62.5 -46t-41 -75t-15 -102.5v-58q0 -58 15 -102.5
t41.5 -75t62.5 -46t78 -15.5q70 0 114 40t59 103h102q-7 -46 -27.5 -86.5t-52 -71.5t-74 -50.5t-94.5 -23.5l-7 -28q33 -7 49 -26.5t16 -48.5q0 -41 -25 -65.5t-70 -24.5h-75v66h65q27 0 27 24q0 22 -22 24h-37z" />
    <glyph glyph-name="Egrave" unicode="&#xc8;" horiz-adv-x="560" 
d="M80 700h435v-86h-341v-211h281v-86h-281v-231h341v-86h-435v700zM123 910h108l112 -150h-92z" />
    <glyph glyph-name="Eacute" unicode="&#xc9;" horiz-adv-x="560" 
d="M80 700h435v-86h-341v-211h281v-86h-281v-231h341v-86h-435v700zM363 910h108l-128 -150h-92z" />
    <glyph glyph-name="Ecircumflex" unicode="&#xca;" horiz-adv-x="560" 
d="M80 700h435v-86h-341v-211h281v-86h-281v-231h341v-86h-435v700zM297 846l-73 -86h-92l112 150h106l112 -150h-92z" />
    <glyph glyph-name="Edieresis" unicode="&#xcb;" horiz-adv-x="560" 
d="M80 700h435v-86h-341v-211h281v-86h-281v-231h341v-86h-435v700zM192 775q-26 0 -43 17t-17 43t17 43t43 17t43 -17t17 -43t-17 -43t-43 -17zM402 775q-26 0 -43 17t-17 43t17 43t43 17t43 -17t17 -43t-17 -43t-43 -17z" />
    <glyph glyph-name="Igrave" unicode="&#xcc;" horiz-adv-x="270" 
d="M88 700h94v-700h-94v700zM-38 910h108l112 -150h-92z" />
    <glyph glyph-name="Iacute" unicode="&#xcd;" horiz-adv-x="270" 
d="M88 700h94v-700h-94v700zM201 910h108l-128 -150h-92z" />
    <glyph glyph-name="Icircumflex" unicode="&#xce;" horiz-adv-x="270" 
d="M88 700h94v-700h-94v700zM136 846l-73 -86h-92l112 150h106l112 -150h-92z" />
    <glyph glyph-name="Idieresis" unicode="&#xcf;" horiz-adv-x="270" 
d="M88 700h94v-700h-94v700zM31 775q-26 0 -43 17t-17 43t17 43t43 17t43 -17t17 -43t-17 -43t-43 -17zM241 775q-26 0 -43 17t-17 43t17 43t43 17t43 -17t17 -43t-17 -43t-43 -17z" />
    <glyph glyph-name="Eth" unicode="&#xd0;" horiz-adv-x="705" 
d="M15 388h90v312h220q157 0 241 -83.5t84 -236.5v-60q0 -75 -22 -134.5t-63.5 -101t-102 -63t-137.5 -21.5h-220v312h-90v76zM199 614v-226h176v-76h-176v-226h126q112 0 169.5 58t57.5 176v60q0 116 -58.5 175t-168.5 59h-126z" />
    <glyph glyph-name="Ntilde" unicode="&#xd1;" horiz-adv-x="710" 
d="M225 490l-51 102v-592h-94v700h134l271 -490l51 -102v592h94v-700h-134zM425 765q-28 0 -48 10.5t-35.5 23t-28.5 23t-28 10.5q-17 0 -27 -12t-10 -40h-63q0 66 26.5 95.5t73.5 29.5q28 0 47.5 -10t35 -22.5t29 -22.5t28.5 -10q17 0 27 12t10 38h63q0 -66 -26.5 -95.5
t-73.5 -29.5z" />
    <glyph glyph-name="Ograve" unicode="&#xd2;" horiz-adv-x="710" 
d="M355 -8q-67 0 -122 22.5t-94.5 64.5t-61.5 103t-22 139v58q0 77 22 138t62 103.5t95 65t121 22.5q67 0 122 -22.5t94.5 -64.5t61.5 -103t22 -139v-58q0 -77 -22 -138t-62 -103.5t-95 -65t-121 -22.5zM355 82q44 0 81 15.5t64 45.5t42 74.5t15 103.5v58q0 58 -15 102.5
t-42 75t-64 46t-81 15.5t-81 -15.5t-64 -45.5t-42 -75t-15 -103v-58q0 -58 15 -102.5t42 -75t64 -46t81 -15.5zM181 910h108l112 -150h-92z" />
    <glyph glyph-name="Oacute" unicode="&#xd3;" horiz-adv-x="710" 
d="M355 -8q-67 0 -122 22.5t-94.5 64.5t-61.5 103t-22 139v58q0 77 22 138t62 103.5t95 65t121 22.5q67 0 122 -22.5t94.5 -64.5t61.5 -103t22 -139v-58q0 -77 -22 -138t-62 -103.5t-95 -65t-121 -22.5zM355 82q44 0 81 15.5t64 45.5t42 74.5t15 103.5v58q0 58 -15 102.5
t-42 75t-64 46t-81 15.5t-81 -15.5t-64 -45.5t-42 -75t-15 -103v-58q0 -58 15 -102.5t42 -75t64 -46t81 -15.5zM421 910h108l-128 -150h-92z" />
    <glyph glyph-name="Ocircumflex" unicode="&#xd4;" horiz-adv-x="710" 
d="M355 -8q-67 0 -122 22.5t-94.5 64.5t-61.5 103t-22 139v58q0 77 22 138t62 103.5t95 65t121 22.5q67 0 122 -22.5t94.5 -64.5t61.5 -103t22 -139v-58q0 -77 -22 -138t-62 -103.5t-95 -65t-121 -22.5zM355 82q44 0 81 15.5t64 45.5t42 74.5t15 103.5v58q0 58 -15 102.5
t-42 75t-64 46t-81 15.5t-81 -15.5t-64 -45.5t-42 -75t-15 -103v-58q0 -58 15 -102.5t42 -75t64 -46t81 -15.5zM355 846l-73 -86h-92l112 150h106l112 -150h-92z" />
    <glyph glyph-name="Otilde" unicode="&#xd5;" horiz-adv-x="710" 
d="M355 -8q-67 0 -122 22.5t-94.5 64.5t-61.5 103t-22 139v58q0 77 22 138t62 103.5t95 65t121 22.5q67 0 122 -22.5t94.5 -64.5t61.5 -103t22 -139v-58q0 -77 -22 -138t-62 -103.5t-95 -65t-121 -22.5zM355 82q44 0 81 15.5t64 45.5t42 74.5t15 103.5v58q0 58 -15 102.5
t-42 75t-64 46t-81 15.5t-81 -15.5t-64 -45.5t-42 -75t-15 -103v-58q0 -58 15 -102.5t42 -75t64 -46t81 -15.5zM425 765q-28 0 -48 10.5t-35.5 23t-28.5 23t-28 10.5q-17 0 -27 -12t-10 -40h-63q0 66 26.5 95.5t73.5 29.5q28 0 47.5 -10t35 -22.5t29 -22.5t28.5 -10
q17 0 27 12t10 38h63q0 -66 -26.5 -95.5t-73.5 -29.5z" />
    <glyph glyph-name="Odieresis" unicode="&#xd6;" horiz-adv-x="710" 
d="M355 -8q-67 0 -122 22.5t-94.5 64.5t-61.5 103t-22 139v58q0 77 22 138t62 103.5t95 65t121 22.5q67 0 122 -22.5t94.5 -64.5t61.5 -103t22 -139v-58q0 -77 -22 -138t-62 -103.5t-95 -65t-121 -22.5zM355 82q44 0 81 15.5t64 45.5t42 74.5t15 103.5v58q0 58 -15 102.5
t-42 75t-64 46t-81 15.5t-81 -15.5t-64 -45.5t-42 -75t-15 -103v-58q0 -58 15 -102.5t42 -75t64 -46t81 -15.5zM250 775q-26 0 -43 17t-17 43t17 43t43 17t43 -17t17 -43t-17 -43t-43 -17zM460 775q-26 0 -43 17t-17 43t17 43t43 17t43 -17t17 -43t-17 -43t-43 -17z" />
    <glyph glyph-name="multiply" unicode="&#xd7;" 
d="M95 221l138 138l-138 139l61 61l139 -138l138 138l62 -61l-139 -139l139 -138l-62 -62l-138 139l-139 -139z" />
    <glyph glyph-name="Oslash" unicode="&#xd8;" horiz-adv-x="710" 
d="M55 34l60 73q-29 42 -44.5 95t-15.5 119v58q0 77 22 138t62 103.5t95 65t121 22.5q117 0 194 -66l54 66l52 -42l-60 -74q29 -41 44.5 -94t15.5 -119v-58q0 -77 -22 -138t-62 -103.5t-95 -65t-121 -22.5q-118 0 -195 65l-53 -65zM153 321q0 -40 7 -73t20 -60l308 379
q-53 51 -133 51q-44 0 -81 -15.5t-64 -45.5t-42 -75t-15 -103v-58zM355 82q44 0 81 15.5t63.5 45.5t41.5 74.5t15 103.5v58q0 39 -7 72t-20 60l-308 -379q53 -50 134 -50z" />
    <glyph glyph-name="Ugrave" unicode="&#xd9;" horiz-adv-x="690" 
d="M345 -8q-62 0 -112 19.5t-85 56t-54 90t-19 122.5v420h94v-420q0 -97 47.5 -147.5t128.5 -50.5t128.5 50.5t47.5 147.5v420h94v-420q0 -68 -19 -121.5t-54.5 -90.5t-85.5 -56.5t-111 -19.5zM171 910h108l112 -150h-92z" />
    <glyph glyph-name="Uacute" unicode="&#xda;" horiz-adv-x="690" 
d="M345 -8q-62 0 -112 19.5t-85 56t-54 90t-19 122.5v420h94v-420q0 -97 47.5 -147.5t128.5 -50.5t128.5 50.5t47.5 147.5v420h94v-420q0 -68 -19 -121.5t-54.5 -90.5t-85.5 -56.5t-111 -19.5zM411 910h108l-128 -150h-92z" />
    <glyph glyph-name="Ucircumflex" unicode="&#xdb;" horiz-adv-x="690" 
d="M345 -8q-62 0 -112 19.5t-85 56t-54 90t-19 122.5v420h94v-420q0 -97 47.5 -147.5t128.5 -50.5t128.5 50.5t47.5 147.5v420h94v-420q0 -68 -19 -121.5t-54.5 -90.5t-85.5 -56.5t-111 -19.5zM345 846l-73 -86h-92l112 150h106l112 -150h-92z" />
    <glyph glyph-name="Udieresis" unicode="&#xdc;" horiz-adv-x="690" 
d="M345 -8q-62 0 -112 19.5t-85 56t-54 90t-19 122.5v420h94v-420q0 -97 47.5 -147.5t128.5 -50.5t128.5 50.5t47.5 147.5v420h94v-420q0 -68 -19 -121.5t-54.5 -90.5t-85.5 -56.5t-111 -19.5zM240 775q-26 0 -43 17t-17 43t17 43t43 17t43 -17t17 -43t-17 -43t-43 -17z
M450 775q-26 0 -43 17t-17 43t17 43t43 17t43 -17t17 -43t-17 -43t-43 -17z" />
    <glyph glyph-name="Yacute" unicode="&#xdd;" horiz-adv-x="650" 
d="M283 245l-263 455h108l202 -355l196 355h104l-253 -455v-245h-94v245zM393 910h108l-128 -150h-92z" />
    <glyph glyph-name="Thorn" unicode="&#xde;" horiz-adv-x="600" 
d="M80 700h94v-116h136q135 0 197.5 -58t62.5 -166q0 -105 -64 -164.5t-196 -59.5h-136v-136h-94v700zM174 498v-276h136q87 0 125 35t38 103q0 69 -37.5 103.5t-125.5 34.5h-136z" />
    <glyph glyph-name="germandbls" unicode="&#xdf;" horiz-adv-x="560" 
d="M75 490q0 50 15 90.5t43 69t68 43.5t89 15q46 0 84 -14.5t65 -40t41.5 -60.5t14.5 -76q0 -43 -21 -79.5t-59 -61.5q50 -21 75 -60.5t25 -92.5v-38q0 -86 -52.5 -135.5t-157.5 -49.5h-60v82h60q56 0 86 28.5t30 75.5v37q0 47 -30 75.5t-86 28.5h-60v84h45q51 0 81 29
t30 77q0 47 -30 76t-81 29q-57 0 -91 -34.5t-34 -97.5v-490h-90v490z" />
    <glyph glyph-name="agrave" unicode="&#xe0;" horiz-adv-x="520" 
d="M200 -8q-78 0 -119 39.5t-41 108.5q0 38 12 68.5t38.5 51.5t68 32t101.5 11h100v37q0 42 -24.5 65t-75.5 23t-73.5 -19t-26.5 -49h-100q4 64 52.5 106t147.5 42q94 0 142 -45t48 -123v-340h-70l-11 82q-27 -43 -70.5 -66.5t-98.5 -23.5zM210 72q33 0 60.5 11t47.5 29.5
t31 43.5t11 53v18h-100q-69 0 -97.5 -23.5t-28.5 -61.5q0 -32 20 -51t56 -19zM80 710h104l116 -150h-90z" />
    <glyph glyph-name="aacute" unicode="&#xe1;" horiz-adv-x="520" 
d="M200 -8q-78 0 -119 39.5t-41 108.5q0 38 12 68.5t38.5 51.5t68 32t101.5 11h100v37q0 42 -24.5 65t-75.5 23t-73.5 -19t-26.5 -49h-100q4 64 52.5 106t147.5 42q94 0 142 -45t48 -123v-340h-70l-11 82q-27 -43 -70.5 -66.5t-98.5 -23.5zM210 72q33 0 60.5 11t47.5 29.5
t31 43.5t11 53v18h-100q-69 0 -97.5 -23.5t-28.5 -61.5q0 -32 20 -51t56 -19zM326 710h104l-130 -150h-90z" />
    <glyph glyph-name="acircumflex" unicode="&#xe2;" horiz-adv-x="520" 
d="M200 -8q-78 0 -119 39.5t-41 108.5q0 38 12 68.5t38.5 51.5t68 32t101.5 11h100v37q0 42 -24.5 65t-75.5 23t-73.5 -19t-26.5 -49h-100q4 64 52.5 106t147.5 42q94 0 142 -45t48 -123v-340h-70l-11 82q-27 -43 -70.5 -66.5t-98.5 -23.5zM210 72q33 0 60.5 11t47.5 29.5
t31 43.5t11 53v18h-100q-69 0 -97.5 -23.5t-28.5 -61.5q0 -32 20 -51t56 -19zM255 647l-77 -87h-88l116 150h98l116 -150h-88z" />
    <glyph glyph-name="atilde" unicode="&#xe3;" horiz-adv-x="520" 
d="M200 -8q-78 0 -119 39.5t-41 108.5q0 38 12 68.5t38.5 51.5t68 32t101.5 11h100v37q0 42 -24.5 65t-75.5 23t-73.5 -19t-26.5 -49h-100q4 64 52.5 106t147.5 42q94 0 142 -45t48 -123v-340h-70l-11 82q-27 -43 -70.5 -66.5t-98.5 -23.5zM210 72q33 0 60.5 11t47.5 29.5
t31 43.5t11 53v18h-100q-69 0 -97.5 -23.5t-28.5 -61.5q0 -32 20 -51t56 -19zM320 565q-26 0 -44.5 10.5t-33 22.5t-27 22.5t-25.5 10.5q-14 0 -23 -11.5t-9 -39.5h-63q0 65 26.5 95t68.5 30q26 0 44.5 -10.5t33 -22.5t26.5 -22.5t26 -10.5t23 11.5t9 39.5h63
q0 -65 -26.5 -95t-68.5 -30z" />
    <glyph glyph-name="adieresis" unicode="&#xe4;" horiz-adv-x="520" 
d="M200 -8q-78 0 -119 39.5t-41 108.5q0 38 12 68.5t38.5 51.5t68 32t101.5 11h100v37q0 42 -24.5 65t-75.5 23t-73.5 -19t-26.5 -49h-100q4 64 52.5 106t147.5 42q94 0 142 -45t48 -123v-340h-70l-11 82q-27 -43 -70.5 -66.5t-98.5 -23.5zM210 72q33 0 60.5 11t47.5 29.5
t31 43.5t11 53v18h-100q-69 0 -97.5 -23.5t-28.5 -61.5q0 -32 20 -51t56 -19zM160 575q-26 0 -43 17t-17 43t17 43t43 17t43 -17t17 -43t-17 -43t-43 -17zM350 575q-26 0 -43 17t-17 43t17 43t43 17t43 -17t17 -43t-17 -43t-43 -17z" />
    <glyph glyph-name="aring" unicode="&#xe5;" horiz-adv-x="520" 
d="M200 -8q-78 0 -119 39.5t-41 108.5q0 38 12 68.5t38.5 51.5t68 32t101.5 11h100v37q0 42 -24.5 65t-75.5 23t-73.5 -19t-26.5 -49h-100q4 64 52.5 106t147.5 42q94 0 142 -45t48 -123v-340h-70l-11 82q-27 -43 -70.5 -66.5t-98.5 -23.5zM210 72q33 0 60.5 11t47.5 29.5
t31 43.5t11 53v18h-100q-69 0 -97.5 -23.5t-28.5 -61.5q0 -32 20 -51t56 -19zM255 530q-24 0 -44 8t-35 22.5t-23 33.5t-8 41t8 41t23 33.5t35 22.5t44 8t44 -8t35 -22.5t23 -33.5t8 -41t-8 -41t-23 -33.5t-35 -22.5t-44 -8zM255 586q21 0 34.5 13.5t13.5 35.5t-13.5 35.5
t-34.5 13.5t-34.5 -13.5t-13.5 -35.5t13.5 -35.5t34.5 -13.5z" />
    <glyph glyph-name="ae" unicode="&#xe6;" horiz-adv-x="855" 
d="M212 -8q-88 0 -130 39.5t-42 108.5q0 37 12 66t38.5 49.5t68.5 31.5t103 11h102v42q0 42 -24.5 65t-77.5 23q-52 0 -75 -19t-27 -49h-100q2 32 15 59t37.5 47t62 31t87.5 11q58 0 98 -21t60 -59q29 38 71 59t94 21q50 0 91.5 -16.5t71 -47.5t46 -75.5t16.5 -99.5v-47
h-356q2 -74 38 -111t93 -37q30 0 50.5 5.5t35.5 15t24.5 23.5t17.5 32h92q-15 -70 -67 -114t-153 -44q-61 0 -108.5 27.5t-74.5 78.5q-28 -50 -78 -78t-112 -28zM212 72q33 0 60.5 11t48 29.5t32 43.5t11.5 54v12h-102q-37 0 -61.5 -5.5t-39.5 -16t-21 -25t-6 -33.5
q0 -32 20 -51t58 -19zM585 426q-54 0 -88.5 -31.5t-41.5 -96.5h259q-6 66 -39 97t-90 31z" />
    <glyph glyph-name="ccedilla" unicode="&#xe7;" horiz-adv-x="505" 
d="M238 -6q-90 9 -141.5 70t-51.5 167v38q0 57 16 101t45 75t71 47t93 16q44 0 78.5 -12t60 -32.5t42 -48.5t24.5 -60h-96q-11 26 -37.5 46.5t-76.5 20.5q-57 0 -91.5 -38t-34.5 -115v-38q0 -76 35 -114.5t91 -38.5q51 0 77 21t37 56h96q-14 -66 -58 -110t-119 -51l-7 -29
q32 -7 48 -26.5t16 -48.5q0 -41 -25 -65.5t-70 -24.5h-75v66h65q27 0 27 24t-27 24h-32z" />
    <glyph glyph-name="egrave" unicode="&#xe8;" horiz-adv-x="540" 
d="M270 -8q-50 0 -91.5 16.5t-71 47.5t-46 75t-16.5 100v38q0 55 16.5 99t46.5 75t71 48t91 17t91.5 -16.5t71 -47.5t46 -75.5t16.5 -99.5v-48h-356q2 -73 38 -110t93 -37q59 0 86 21t42 60h92q-15 -74 -67 -118.5t-153 -44.5zM270 426q-54 0 -88.5 -31.5t-41.5 -95.5h259
q-6 66 -39 96.5t-90 30.5zM95 710h104l116 -150h-90z" />
    <glyph glyph-name="eacute" unicode="&#xe9;" horiz-adv-x="540" 
d="M270 -8q-50 0 -91.5 16.5t-71 47.5t-46 75t-16.5 100v38q0 55 16.5 99t46.5 75t71 48t91 17t91.5 -16.5t71 -47.5t46 -75.5t16.5 -99.5v-48h-356q2 -73 38 -110t93 -37q59 0 86 21t42 60h92q-15 -74 -67 -118.5t-153 -44.5zM270 426q-54 0 -88.5 -31.5t-41.5 -95.5h259
q-6 66 -39 96.5t-90 30.5zM341 710h104l-130 -150h-90z" />
    <glyph glyph-name="ecircumflex" unicode="&#xea;" horiz-adv-x="540" 
d="M270 -8q-50 0 -91.5 16.5t-71 47.5t-46 75t-16.5 100v38q0 55 16.5 99t46.5 75t71 48t91 17t91.5 -16.5t71 -47.5t46 -75.5t16.5 -99.5v-48h-356q2 -73 38 -110t93 -37q59 0 86 21t42 60h92q-15 -74 -67 -118.5t-153 -44.5zM270 426q-54 0 -88.5 -31.5t-41.5 -95.5h259
q-6 66 -39 96.5t-90 30.5zM270 647l-77 -87h-88l116 150h98l116 -150h-88z" />
    <glyph glyph-name="edieresis" unicode="&#xeb;" horiz-adv-x="540" 
d="M270 -8q-50 0 -91.5 16.5t-71 47.5t-46 75t-16.5 100v38q0 55 16.5 99t46.5 75t71 48t91 17t91.5 -16.5t71 -47.5t46 -75.5t16.5 -99.5v-48h-356q2 -73 38 -110t93 -37q59 0 86 21t42 60h92q-15 -74 -67 -118.5t-153 -44.5zM270 426q-54 0 -88.5 -31.5t-41.5 -95.5h259
q-6 66 -39 96.5t-90 30.5zM175 575q-26 0 -43 17t-17 43t17 43t43 17t43 -17t17 -43t-17 -43t-43 -17zM365 575q-26 0 -43 17t-17 43t17 43t43 17t43 -17t17 -43t-17 -43t-43 -17z" />
    <glyph glyph-name="igrave" unicode="&#xec;" horiz-adv-x="256" 
d="M83 500h90v-500h-90v500zM-46 710h104l116 -150h-90z" />
    <glyph glyph-name="iacute" unicode="&#xed;" horiz-adv-x="256" 
d="M83 500h90v-500h-90v500zM199 710h104l-130 -150h-90z" />
    <glyph glyph-name="icircumflex" unicode="&#xee;" horiz-adv-x="256" 
d="M83 500h90v-500h-90v500zM129 647l-77 -87h-88l116 150h98l116 -150h-88z" />
    <glyph glyph-name="idieresis" unicode="&#xef;" horiz-adv-x="256" 
d="M83 500h90v-500h-90v500zM34 575q-26 0 -43 17t-17 43t17 43t43 17t43 -17t17 -43t-17 -43t-43 -17zM224 575q-26 0 -43 17t-17 43t17 43t43 17t43 -17t17 -43t-17 -43t-43 -17z" />
    <glyph glyph-name="eth" unicode="&#xf0;" horiz-adv-x="545" 
d="M155 579l67 36q-24 22 -48 43.5t-49 41.5h113q13 -11 26 -23t27 -25l104 56v-61l-64 -35q32 -34 62 -73t52.5 -83t36 -93.5t13.5 -103.5v-38q0 -52 -16.5 -94t-46 -72t-71 -46.5t-91.5 -16.5q-51 0 -92.5 16t-71 46t-45.5 72.5t-16 94.5v38q0 52 16 94t44.5 72t67 46.5
t82.5 16.5q55 0 98 -23q-19 29 -42 56t-49 54l-107 -57v61zM270 78q60 0 95.5 37t35.5 106v45q-2 66 -37 101t-94 35q-60 0 -95.5 -37t-35.5 -106v-38q0 -68 36.5 -105.5t94.5 -37.5z" />
    <glyph glyph-name="ntilde" unicode="&#xf1;" horiz-adv-x="575" 
d="M75 500h70l9 -69q26 37 67 57t94 20q87 0 138.5 -54.5t51.5 -158.5v-295h-90v295q0 64 -30 95.5t-85 31.5q-61 0 -97 -34t-38 -88v-300h-90v500zM355 565q-26 0 -44.5 10.5t-33 22.5t-27 22.5t-25.5 10.5q-14 0 -23 -11.5t-9 -39.5h-63q0 65 26.5 95t68.5 30
q26 0 44.5 -10.5t33 -22.5t26.5 -22.5t26 -10.5t23 11.5t9 39.5h63q0 -65 -26.5 -95t-68.5 -30z" />
    <glyph glyph-name="ograve" unicode="&#xf2;" horiz-adv-x="550" 
d="M275 -8q-53 0 -95.5 16.5t-72.5 47t-46 75t-16 100.5v38q0 55 16.5 99.5t46.5 75.5t72.5 47.5t94.5 16.5t94.5 -16.5t72.5 -47t46.5 -75t16.5 -100.5v-38q0 -56 -16.5 -100t-46.5 -75t-72.5 -47.5t-94.5 -16.5zM275 78q63 0 99.5 38.5t36.5 114.5v38q0 75 -36.5 114
t-99.5 39t-99.5 -38.5t-36.5 -114.5v-38q0 -75 36.5 -114t99.5 -39zM100 710h104l116 -150h-90z" />
    <glyph glyph-name="oacute" unicode="&#xf3;" horiz-adv-x="550" 
d="M275 -8q-53 0 -95.5 16.5t-72.5 47t-46 75t-16 100.5v38q0 55 16.5 99.5t46.5 75.5t72.5 47.5t94.5 16.5t94.5 -16.5t72.5 -47t46.5 -75t16.5 -100.5v-38q0 -56 -16.5 -100t-46.5 -75t-72.5 -47.5t-94.5 -16.5zM275 78q63 0 99.5 38.5t36.5 114.5v38q0 75 -36.5 114
t-99.5 39t-99.5 -38.5t-36.5 -114.5v-38q0 -75 36.5 -114t99.5 -39zM346 710h104l-130 -150h-90z" />
    <glyph glyph-name="ocircumflex" unicode="&#xf4;" horiz-adv-x="550" 
d="M275 -8q-53 0 -95.5 16.5t-72.5 47t-46 75t-16 100.5v38q0 55 16.5 99.5t46.5 75.5t72.5 47.5t94.5 16.5t94.5 -16.5t72.5 -47t46.5 -75t16.5 -100.5v-38q0 -56 -16.5 -100t-46.5 -75t-72.5 -47.5t-94.5 -16.5zM275 78q63 0 99.5 38.5t36.5 114.5v38q0 75 -36.5 114
t-99.5 39t-99.5 -38.5t-36.5 -114.5v-38q0 -75 36.5 -114t99.5 -39zM275 647l-77 -87h-88l116 150h98l116 -150h-88z" />
    <glyph glyph-name="otilde" unicode="&#xf5;" horiz-adv-x="550" 
d="M275 -8q-53 0 -95.5 16.5t-72.5 47t-46 75t-16 100.5v38q0 55 16.5 99.5t46.5 75.5t72.5 47.5t94.5 16.5t94.5 -16.5t72.5 -47t46.5 -75t16.5 -100.5v-38q0 -56 -16.5 -100t-46.5 -75t-72.5 -47.5t-94.5 -16.5zM275 78q63 0 99.5 38.5t36.5 114.5v38q0 75 -36.5 114
t-99.5 39t-99.5 -38.5t-36.5 -114.5v-38q0 -75 36.5 -114t99.5 -39zM340 565q-26 0 -44.5 10.5t-33 22.5t-27 22.5t-25.5 10.5q-14 0 -23 -11.5t-9 -39.5h-63q0 65 26.5 95t68.5 30q26 0 44.5 -10.5t33 -22.5t26.5 -22.5t26 -10.5t23 11.5t9 39.5h63q0 -65 -26.5 -95
t-68.5 -30z" />
    <glyph glyph-name="odieresis" unicode="&#xf6;" horiz-adv-x="550" 
d="M275 -8q-53 0 -95.5 16.5t-72.5 47t-46 75t-16 100.5v38q0 55 16.5 99.5t46.5 75.5t72.5 47.5t94.5 16.5t94.5 -16.5t72.5 -47t46.5 -75t16.5 -100.5v-38q0 -56 -16.5 -100t-46.5 -75t-72.5 -47.5t-94.5 -16.5zM275 78q63 0 99.5 38.5t36.5 114.5v38q0 75 -36.5 114
t-99.5 39t-99.5 -38.5t-36.5 -114.5v-38q0 -75 36.5 -114t99.5 -39zM180 575q-26 0 -43 17t-17 43t17 43t43 17t43 -17t17 -43t-17 -43t-43 -17zM370 575q-26 0 -43 17t-17 43t17 43t43 17t43 -17t17 -43t-17 -43t-43 -17z" />
    <glyph glyph-name="divide" unicode="&#xf7;" 
d="M70 403h450v-86h-450v86zM295 490q-31 0 -50.5 20.5t-19.5 49.5t19.5 49.5t50.5 20.5t50.5 -20.5t19.5 -49.5t-19.5 -49.5t-50.5 -20.5zM295 90q-31 0 -50.5 20.5t-19.5 49.5t19.5 49.5t50.5 20.5t50.5 -20.5t19.5 -49.5t-19.5 -49.5t-50.5 -20.5z" />
    <glyph glyph-name="oslash" unicode="&#xf8;" horiz-adv-x="550" 
d="M45 33l41 48q-41 59 -41 150v38q0 56 16 100.5t46 75t72.5 47t95.5 16.5q44 0 80 -11.5t65 -32.5l38 44l47 -42l-42 -48q20 -29 31 -66.5t11 -82.5v-38q0 -56 -16.5 -100.5t-46.5 -75t-72.5 -47t-94.5 -16.5q-87 0 -145 43l-38 -43zM139 231q0 -45 13 -75l208 239
q-33 27 -85 27q-63 0 -99.5 -39t-36.5 -114v-38zM275 78q63 0 99.5 39t36.5 114v38q0 44 -13 74l-208 -239q34 -26 85 -26z" />
    <glyph glyph-name="ugrave" unicode="&#xf9;" horiz-adv-x="565" 
d="M255 -8q-83 0 -134 54.5t-51 158.5v295h90v-295q0 -64 29.5 -95.5t80.5 -31.5q57 0 92.5 33.5t37.5 87.5v301h90v-500h-70l-9 69q-26 -37 -66 -57t-90 -20zM105 710h104l116 -150h-90z" />
    <glyph glyph-name="uacute" unicode="&#xfa;" horiz-adv-x="565" 
d="M255 -8q-83 0 -134 54.5t-51 158.5v295h90v-295q0 -64 29.5 -95.5t80.5 -31.5q57 0 92.5 33.5t37.5 87.5v301h90v-500h-70l-9 69q-26 -37 -66 -57t-90 -20zM351 710h104l-130 -150h-90z" />
    <glyph glyph-name="ucircumflex" unicode="&#xfb;" horiz-adv-x="565" 
d="M255 -8q-83 0 -134 54.5t-51 158.5v295h90v-295q0 -64 29.5 -95.5t80.5 -31.5q57 0 92.5 33.5t37.5 87.5v301h90v-500h-70l-9 69q-26 -37 -66 -57t-90 -20zM280 647l-77 -87h-88l116 150h98l116 -150h-88z" />
    <glyph glyph-name="udieresis" unicode="&#xfc;" horiz-adv-x="565" 
d="M255 -8q-83 0 -134 54.5t-51 158.5v295h90v-295q0 -64 29.5 -95.5t80.5 -31.5q57 0 92.5 33.5t37.5 87.5v301h90v-500h-70l-9 69q-26 -37 -66 -57t-90 -20zM185 575q-26 0 -43 17t-17 43t17 43t43 17t43 -17t17 -43t-17 -43t-43 -17zM375 575q-26 0 -43 17t-17 43t17 43
t43 17t43 -17t17 -43t-17 -43t-43 -17z" />
    <glyph glyph-name="yacute" unicode="&#xfd;" horiz-adv-x="520" 
d="M217 0l-202 500h98l152 -387l144 387h96l-269 -700h-96zM332 710h104l-130 -150h-90z" />
    <glyph glyph-name="thorn" unicode="&#xfe;" horiz-adv-x="560" 
d="M317 -8q-99 0 -152 65v-257h-90v900h90v-258q26 33 65 49.5t88 16.5q43 0 79 -15.5t62 -45.5t41 -75t15 -103v-38q0 -58 -15 -102.5t-41.5 -75t-62.5 -46t-79 -15.5zM293 78q59 0 93.5 37.5t34.5 115.5v38q0 78 -34 115.5t-94 37.5q-54 0 -90 -37t-38 -109v-45
q0 -74 36 -113.5t92 -39.5z" />
    <glyph glyph-name="ydieresis" unicode="&#xff;" horiz-adv-x="520" 
d="M217 0l-202 500h98l152 -387l144 387h96l-269 -700h-96zM166 575q-26 0 -43 17t-17 43t17 43t43 17t43 -17t17 -43t-17 -43t-43 -17zM356 575q-26 0 -43 17t-17 43t17 43t43 17t43 -17t17 -43t-17 -43t-43 -17z" />
    <glyph glyph-name="Amacron" unicode="&#x100;" horiz-adv-x="650" 
d="M465 192h-284l-68 -192h-98l255 700h110l255 -700h-102zM212 278h222l-59 168l-51 149l-52 -149zM175 873h300v-76h-300v76z" />
    <glyph glyph-name="amacron" unicode="&#x101;" horiz-adv-x="520" 
d="M200 -8q-78 0 -119 39.5t-41 108.5q0 38 12 68.5t38.5 51.5t68 32t101.5 11h100v37q0 42 -24.5 65t-75.5 23t-73.5 -19t-26.5 -49h-100q4 64 52.5 106t147.5 42q94 0 142 -45t48 -123v-340h-70l-11 82q-27 -43 -70.5 -66.5t-98.5 -23.5zM210 72q33 0 60.5 11t47.5 29.5
t31 43.5t11 53v18h-100q-69 0 -97.5 -23.5t-28.5 -61.5q0 -32 20 -51t56 -19zM115 672h280v-74h-280v74z" />
    <glyph glyph-name="Abreve" unicode="&#x102;" horiz-adv-x="650" 
d="M465 192h-284l-68 -192h-98l255 700h110l255 -700h-102zM212 278h222l-59 168l-51 149l-52 -149zM325 762q-74 0 -112 36.5t-38 101.5h74q0 -32 19 -50t57 -18q39 0 58.5 18t19.5 50h72q0 -65 -38 -101.5t-112 -36.5z" />
    <glyph glyph-name="abreve" unicode="&#x103;" horiz-adv-x="520" 
d="M200 -8q-78 0 -119 39.5t-41 108.5q0 38 12 68.5t38.5 51.5t68 32t101.5 11h100v37q0 42 -24.5 65t-75.5 23t-73.5 -19t-26.5 -49h-100q4 64 52.5 106t147.5 42q94 0 142 -45t48 -123v-340h-70l-11 82q-27 -43 -70.5 -66.5t-98.5 -23.5zM210 72q33 0 60.5 11t47.5 29.5
t31 43.5t11 53v18h-100q-69 0 -97.5 -23.5t-28.5 -61.5q0 -32 20 -51t56 -19zM255 562q-66 0 -103 36.5t-37 101.5h72q0 -33 18 -51.5t50 -18.5q33 0 51.5 18.5t18.5 51.5h70q0 -65 -37 -101.5t-103 -36.5z" />
    <glyph glyph-name="Aogonek" unicode="&#x104;" horiz-adv-x="650" 
d="M580 -200q-55 0 -80 22.5t-25 62.5q0 12 1.5 24t7.5 26t17.5 29.5t31.5 35.5l-68 192h-284l-68 -192h-98l255 700h110l255 -700q-27 -23 -42.5 -39t-23.5 -27t-10 -19.5t-2 -16.5q0 -28 33 -28h45v-70h-55zM212 278h222l-59 168l-51 149l-52 -149z" />
    <glyph glyph-name="aogonek" unicode="&#x105;" horiz-adv-x="520" 
d="M395 -200q-55 0 -80 22t-25 58q0 15 3 30t12 31.5t26 36.5t46 45l-8 59q-27 -43 -70.5 -66.5t-98.5 -23.5q-78 0 -119 39.5t-41 108.5q0 38 12 68.5t38.5 51.5t68 32t101.5 11h100v37q0 42 -24.5 65t-75.5 23t-73.5 -19t-26.5 -49h-100q4 64 52.5 106t147.5 42
q94 0 142 -45t48 -123v-340q-28 -23 -44.5 -39.5t-24.5 -28.5t-10.5 -21t-2.5 -16q0 -13 9 -21t28 -8h45v-66h-55zM210 72q33 0 60.5 11t47.5 29.5t31 43.5t11 53v18h-100q-69 0 -97.5 -23.5t-28.5 -61.5q0 -32 20 -51t56 -19z" />
    <glyph glyph-name="Cacute" unicode="&#x106;" horiz-adv-x="670" 
d="M350 -8q-65 0 -119 22.5t-93 64.5t-61 103t-22 139v58q0 77 22 138t61 103.5t93 65t119 22.5q58 0 105 -17.5t82.5 -47t57.5 -68t30 -80.5h-102q-8 24 -22.5 46t-36.5 39t-50.5 27.5t-63.5 10.5q-42 0 -78.5 -15.5t-62.5 -46t-41 -75t-15 -102.5v-58q0 -58 15 -102.5
t41.5 -75t62.5 -46t78 -15.5q70 0 114 40t59 103h102q-8 -49 -30 -91.5t-57.5 -74t-83 -49.5t-104.5 -18zM416 910h108l-128 -150h-92z" />
    <glyph glyph-name="cacute" unicode="&#x107;" horiz-adv-x="505" 
d="M270 -8q-104 0 -164.5 62t-60.5 177v38q0 57 16 101t45 75t71 47t93 16q44 0 78.5 -12t60 -32.5t42 -48.5t24.5 -60h-96q-11 26 -37.5 46.5t-76.5 20.5q-57 0 -91.5 -38t-34.5 -115v-38q0 -76 35 -114.5t91 -38.5q51 0 77 21t37 56h96q-15 -72 -66 -117.5t-139 -45.5z
M341 710h104l-130 -150h-90z" />
    <glyph glyph-name="Ccircumflex" unicode="&#x108;" horiz-adv-x="670" 
d="M350 -8q-65 0 -119 22.5t-93 64.5t-61 103t-22 139v58q0 77 22 138t61 103.5t93 65t119 22.5q58 0 105 -17.5t82.5 -47t57.5 -68t30 -80.5h-102q-8 24 -22.5 46t-36.5 39t-50.5 27.5t-63.5 10.5q-42 0 -78.5 -15.5t-62.5 -46t-41 -75t-15 -102.5v-58q0 -58 15 -102.5
t41.5 -75t62.5 -46t78 -15.5q70 0 114 40t59 103h102q-8 -49 -30 -91.5t-57.5 -74t-83 -49.5t-104.5 -18zM350 846l-73 -86h-92l112 150h106l112 -150h-92z" />
    <glyph glyph-name="ccircumflex" unicode="&#x109;" horiz-adv-x="505" 
d="M270 -8q-104 0 -164.5 62t-60.5 177v38q0 57 16 101t45 75t71 47t93 16q44 0 78.5 -12t60 -32.5t42 -48.5t24.5 -60h-96q-11 26 -37.5 46.5t-76.5 20.5q-57 0 -91.5 -38t-34.5 -115v-38q0 -76 35 -114.5t91 -38.5q51 0 77 21t37 56h96q-15 -72 -66 -117.5t-139 -45.5z
M270 647l-77 -87h-88l116 150h98l116 -150h-88z" />
    <glyph glyph-name="Cdotaccent" unicode="&#x10a;" horiz-adv-x="670" 
d="M350 -8q-65 0 -119 22.5t-93 64.5t-61 103t-22 139v58q0 77 22 138t61 103.5t93 65t119 22.5q58 0 105 -17.5t82.5 -47t57.5 -68t30 -80.5h-102q-8 24 -22.5 46t-36.5 39t-50.5 27.5t-63.5 10.5q-42 0 -78.5 -15.5t-62.5 -46t-41 -75t-15 -102.5v-58q0 -58 15 -102.5
t41.5 -75t62.5 -46t78 -15.5q70 0 114 40t59 103h102q-8 -49 -30 -91.5t-57.5 -74t-83 -49.5t-104.5 -18zM350 775q-26 0 -43 17t-17 43t17 43t43 17t43 -17t17 -43t-17 -43t-43 -17z" />
    <glyph glyph-name="cdotaccent" unicode="&#x10b;" horiz-adv-x="505" 
d="M270 -8q-104 0 -164.5 62t-60.5 177v38q0 57 16 101t45 75t71 47t93 16q44 0 78.5 -12t60 -32.5t42 -48.5t24.5 -60h-96q-11 26 -37.5 46.5t-76.5 20.5q-57 0 -91.5 -38t-34.5 -115v-38q0 -76 35 -114.5t91 -38.5q51 0 77 21t37 56h96q-15 -72 -66 -117.5t-139 -45.5z
M270 576q-26 0 -43 17t-17 43t17 43t43 17t43 -17t17 -43t-17 -43t-43 -17z" />
    <glyph glyph-name="Ccaron" unicode="&#x10c;" horiz-adv-x="670" 
d="M350 -8q-65 0 -119 22.5t-93 64.5t-61 103t-22 139v58q0 77 22 138t61 103.5t93 65t119 22.5q58 0 105 -17.5t82.5 -47t57.5 -68t30 -80.5h-102q-8 24 -22.5 46t-36.5 39t-50.5 27.5t-63.5 10.5q-42 0 -78.5 -15.5t-62.5 -46t-41 -75t-15 -102.5v-58q0 -58 15 -102.5
t41.5 -75t62.5 -46t78 -15.5q70 0 114 40t59 103h102q-8 -49 -30 -91.5t-57.5 -74t-83 -49.5t-104.5 -18zM185 910h92l73 -87l73 87h92l-112 -150h-106z" />
    <glyph glyph-name="ccaron" unicode="&#x10d;" horiz-adv-x="505" 
d="M270 -8q-104 0 -164.5 62t-60.5 177v38q0 57 16 101t45 75t71 47t93 16q44 0 78.5 -12t60 -32.5t42 -48.5t24.5 -60h-96q-11 26 -37.5 46.5t-76.5 20.5q-57 0 -91.5 -38t-34.5 -115v-38q0 -76 35 -114.5t91 -38.5q51 0 77 21t37 56h96q-15 -72 -66 -117.5t-139 -45.5z
M105 710h88l77 -88l77 88h88l-116 -150h-98z" />
    <glyph glyph-name="Dcaron" unicode="&#x10e;" horiz-adv-x="680" 
d="M80 700h220q157 0 241 -83.5t84 -236.5v-60q0 -75 -22 -134.5t-63.5 -101t-102 -63t-137.5 -21.5h-220v700zM174 614v-528h126q112 0 169.5 58t57.5 176v60q0 116 -58.5 175t-168.5 59h-126zM155 910h92l73 -87l73 87h92l-112 -150h-106z" />
    <glyph glyph-name="dcaron" unicode="&#x10f;" horiz-adv-x="560" 
d="M242 -8q-43 0 -79 15.5t-62.5 45.5t-41 74.5t-14.5 103.5v38q0 58 15 102.5t41.5 75t62.5 46t79 15.5q98 0 152 -66v258h90v-700h-70l-10 71q-26 -40 -67.5 -59.5t-95.5 -19.5zM267 78q56 0 92 39t36 114v45q-2 72 -38 109t-90 37q-60 0 -94 -37.5t-34 -115.5v-38
q0 -77 34.5 -115t93.5 -38zM545 700h90l-20 -170h-70v170z" />
    <glyph glyph-name="Dcroat" unicode="&#x110;" horiz-adv-x="705" 
d="M15 388h90v312h220q157 0 241 -83.5t84 -236.5v-60q0 -75 -22 -134.5t-63.5 -101t-102 -63t-137.5 -21.5h-220v312h-90v76zM199 614v-226h176v-76h-176v-226h126q112 0 169.5 58t57.5 176v60q0 116 -58.5 175t-168.5 59h-126z" />
    <glyph glyph-name="dcroat" unicode="&#x111;" horiz-adv-x="560" 
d="M225 596h160v104h90v-104h85v-72h-85v-524h-70l-10 69q-54 -77 -163 -77q-42 0 -78.5 15.5t-62.5 44t-41 70t-15 94.5v38q0 52 15 94t41.5 70.5t62.5 44t79 15.5q97 0 152 -64v110h-160v72zM257 78q56 0 92 37.5t36 100.5v44q-2 60 -38 96t-90 36q-59 0 -93.5 -36
t-34.5 -102v-38q0 -66 34 -102t94 -36z" />
    <glyph glyph-name="Emacron" unicode="&#x112;" horiz-adv-x="560" 
d="M80 700h435v-86h-341v-211h281v-86h-281v-231h341v-86h-435v700zM147 873h300v-76h-300v76z" />
    <glyph glyph-name="emacron" unicode="&#x113;" horiz-adv-x="540" 
d="M270 -8q-50 0 -91.5 16.5t-71 47.5t-46 75t-16.5 100v38q0 55 16.5 99t46.5 75t71 48t91 17t91.5 -16.5t71 -47.5t46 -75.5t16.5 -99.5v-48h-356q2 -73 38 -110t93 -37q59 0 86 21t42 60h92q-15 -74 -67 -118.5t-153 -44.5zM270 426q-54 0 -88.5 -31.5t-41.5 -95.5h259
q-6 66 -39 96.5t-90 30.5zM130 672h280v-74h-280v74z" />
    <glyph glyph-name="Ebreve" unicode="&#x114;" horiz-adv-x="560" 
d="M80 700h435v-86h-341v-211h281v-86h-281v-231h341v-86h-435v700zM297 762q-74 0 -112 36.5t-38 101.5h74q0 -32 19 -50t57 -18q39 0 58.5 18t19.5 50h72q0 -65 -38 -101.5t-112 -36.5z" />
    <glyph glyph-name="ebreve" unicode="&#x115;" horiz-adv-x="540" 
d="M270 -8q-50 0 -91.5 16.5t-71 47.5t-46 75t-16.5 100v38q0 55 16.5 99t46.5 75t71 48t91 17t91.5 -16.5t71 -47.5t46 -75.5t16.5 -99.5v-48h-356q2 -73 38 -110t93 -37q59 0 86 21t42 60h92q-15 -74 -67 -118.5t-153 -44.5zM270 426q-54 0 -88.5 -31.5t-41.5 -95.5h259
q-6 66 -39 96.5t-90 30.5zM270 562q-66 0 -103 36.5t-37 101.5h72q0 -33 18 -51.5t50 -18.5q33 0 51.5 18.5t18.5 51.5h70q0 -65 -37 -101.5t-103 -36.5z" />
    <glyph glyph-name="Edotaccent" unicode="&#x116;" horiz-adv-x="560" 
d="M80 700h435v-86h-341v-211h281v-86h-281v-231h341v-86h-435v700zM297 775q-26 0 -43 17t-17 43t17 43t43 17t43 -17t17 -43t-17 -43t-43 -17z" />
    <glyph glyph-name="edotaccent" unicode="&#x117;" horiz-adv-x="540" 
d="M270 -8q-50 0 -91.5 16.5t-71 47.5t-46 75t-16.5 100v38q0 55 16.5 99t46.5 75t71 48t91 17t91.5 -16.5t71 -47.5t46 -75.5t16.5 -99.5v-48h-356q2 -73 38 -110t93 -37q59 0 86 21t42 60h92q-15 -74 -67 -118.5t-153 -44.5zM270 426q-54 0 -88.5 -31.5t-41.5 -95.5h259
q-6 66 -39 96.5t-90 30.5zM270 576q-26 0 -43 17t-17 43t17 43t43 17t43 -17t17 -43t-17 -43t-43 -17z" />
    <glyph glyph-name="Eogonek" unicode="&#x118;" horiz-adv-x="560" 
d="M80 700h435v-86h-341v-211h281v-86h-281v-231h341v-86q-27 -23 -42.5 -39t-23.5 -27t-10 -19.5t-2 -16.5q0 -28 33 -28h45v-70h-55q-55 0 -80 22.5t-25 62.5q0 12 1.5 24t7.5 26t17.5 29.5t31.5 35.5h-333v700z" />
    <glyph glyph-name="eogonek" unicode="&#x119;" horiz-adv-x="540" 
d="M400 -200q-55 0 -80 22t-25 58q0 15 2 28.5t7.5 27.5t14 30t21.5 37q-17 -6 -34 -8.5t-36 -2.5q-50 0 -91.5 16.5t-71 47.5t-46 75t-16.5 100v38q0 55 16.5 99t46.5 75t71 48t91 17t91.5 -16.5t71 -47.5t46 -75.5t16.5 -99.5v-48h-356q2 -73 38 -110t93 -37
q30 0 50.5 5.5t35.5 15t24.5 23.5t17.5 32h92q-4 -19 -10 -35t-18 -36q-23 -37 -39.5 -64t-27.5 -48t-16.5 -38t-5.5 -34q0 -13 9 -21t28 -8h45v-66h-55zM270 426q-54 0 -88.5 -31.5t-41.5 -95.5h259q-6 66 -39 96.5t-90 30.5z" />
    <glyph glyph-name="Ecaron" unicode="&#x11a;" horiz-adv-x="560" 
d="M80 700h435v-86h-341v-211h281v-86h-281v-231h341v-86h-435v700zM132 910h92l73 -87l73 87h92l-112 -150h-106z" />
    <glyph glyph-name="ecaron" unicode="&#x11b;" horiz-adv-x="540" 
d="M270 -8q-50 0 -91.5 16.5t-71 47.5t-46 75t-16.5 100v38q0 55 16.5 99t46.5 75t71 48t91 17t91.5 -16.5t71 -47.5t46 -75.5t16.5 -99.5v-48h-356q2 -73 38 -110t93 -37q59 0 86 21t42 60h92q-15 -74 -67 -118.5t-153 -44.5zM270 426q-54 0 -88.5 -31.5t-41.5 -95.5h259
q-6 66 -39 96.5t-90 30.5zM105 710h88l77 -88l77 88h88l-116 -150h-98z" />
    <glyph glyph-name="Gcircumflex" unicode="&#x11c;" horiz-adv-x="680" 
d="M340 353h285v-43q0 -78 -20 -137.5t-56 -99.5t-86.5 -60.5t-112.5 -20.5q-66 0 -120 22t-93 64t-60.5 103.5t-21.5 139.5v58q0 78 21.5 139t60.5 103.5t93.5 64.5t119.5 22q58 0 104.5 -16.5t81 -45.5t55.5 -68t29 -83h-100q-8 25 -22 47.5t-35 39t-49.5 26.5t-63.5 10
q-44 0 -80 -15t-62 -45t-40.5 -75t-14.5 -104v-58q0 -58 15 -102.5t41 -75t62.5 -46t78.5 -15.5q82 0 129 43t55 142h-194v86zM350 846l-73 -86h-92l112 150h106l112 -150h-92z" />
    <glyph glyph-name="gcircumflex" unicode="&#x11d;" horiz-adv-x="560" 
d="M243 12q-43 0 -79.5 15t-62.5 44.5t-41 72t-15 97.5v38q0 54 15 97t41.5 72t62.5 44.5t79 15.5q109 0 162 -79l10 71h70v-500q0 -102 -53.5 -155t-158.5 -53q-100 0 -147.5 42.5t-55.5 115.5h90q8 -38 32 -58t81 -20q65 0 93.5 29.5t28.5 98.5v76q-55 -64 -152 -64z
M267 98q56 0 92 38t36 105v38q0 67 -36 105t-92 38q-60 0 -94 -36.5t-34 -106.5v-38q0 -71 34.5 -107t93.5 -36zM267 647l-77 -87h-88l116 150h98l116 -150h-88z" />
    <glyph glyph-name="Gbreve" unicode="&#x11e;" horiz-adv-x="680" 
d="M340 353h285v-43q0 -78 -20 -137.5t-56 -99.5t-86.5 -60.5t-112.5 -20.5q-66 0 -120 22t-93 64t-60.5 103.5t-21.5 139.5v58q0 78 21.5 139t60.5 103.5t93.5 64.5t119.5 22q58 0 104.5 -16.5t81 -45.5t55.5 -68t29 -83h-100q-8 25 -22 47.5t-35 39t-49.5 26.5t-63.5 10
q-44 0 -80 -15t-62 -45t-40.5 -75t-14.5 -104v-58q0 -58 15 -102.5t41 -75t62.5 -46t78.5 -15.5q82 0 129 43t55 142h-194v86zM350 762q-74 0 -112 36.5t-38 101.5h74q0 -32 19 -50t57 -18q39 0 58.5 18t19.5 50h72q0 -65 -38 -101.5t-112 -36.5z" />
    <glyph glyph-name="gbreve" unicode="&#x11f;" horiz-adv-x="560" 
d="M243 12q-43 0 -79.5 15t-62.5 44.5t-41 72t-15 97.5v38q0 54 15 97t41.5 72t62.5 44.5t79 15.5q109 0 162 -79l10 71h70v-500q0 -102 -53.5 -155t-158.5 -53q-100 0 -147.5 42.5t-55.5 115.5h90q8 -38 32 -58t81 -20q65 0 93.5 29.5t28.5 98.5v76q-55 -64 -152 -64z
M267 98q56 0 92 38t36 105v38q0 67 -36 105t-92 38q-60 0 -94 -36.5t-34 -106.5v-38q0 -71 34.5 -107t93.5 -36zM265 562q-66 0 -103 36.5t-37 101.5h72q0 -33 18 -51.5t50 -18.5q33 0 51.5 18.5t18.5 51.5h70q0 -65 -37 -101.5t-103 -36.5z" />
    <glyph glyph-name="Gdotaccent" unicode="&#x120;" horiz-adv-x="680" 
d="M340 353h285v-43q0 -78 -20 -137.5t-56 -99.5t-86.5 -60.5t-112.5 -20.5q-66 0 -120 22t-93 64t-60.5 103.5t-21.5 139.5v58q0 78 21.5 139t60.5 103.5t93.5 64.5t119.5 22q58 0 104.5 -16.5t81 -45.5t55.5 -68t29 -83h-100q-8 25 -22 47.5t-35 39t-49.5 26.5t-63.5 10
q-44 0 -80 -15t-62 -45t-40.5 -75t-14.5 -104v-58q0 -58 15 -102.5t41 -75t62.5 -46t78.5 -15.5q82 0 129 43t55 142h-194v86zM350 775q-26 0 -43 17t-17 43t17 43t43 17t43 -17t17 -43t-17 -43t-43 -17z" />
    <glyph glyph-name="gdotaccent" unicode="&#x121;" horiz-adv-x="560" 
d="M243 12q-43 0 -79.5 15t-62.5 44.5t-41 72t-15 97.5v38q0 54 15 97t41.5 72t62.5 44.5t79 15.5q109 0 162 -79l10 71h70v-500q0 -102 -53.5 -155t-158.5 -53q-100 0 -147.5 42.5t-55.5 115.5h90q8 -38 32 -58t81 -20q65 0 93.5 29.5t28.5 98.5v76q-55 -64 -152 -64z
M267 98q56 0 92 38t36 105v38q0 67 -36 105t-92 38q-60 0 -94 -36.5t-34 -106.5v-38q0 -71 34.5 -107t93.5 -36zM265 576q-26 0 -43 17t-17 43t17 43t43 17t43 -17t17 -43t-17 -43t-43 -17z" />
    <glyph glyph-name="Gcommaaccent" unicode="&#x122;" horiz-adv-x="680" 
d="M340 353h285v-43q0 -78 -20 -137.5t-56 -99.5t-86.5 -60.5t-112.5 -20.5q-66 0 -120 22t-93 64t-60.5 103.5t-21.5 139.5v58q0 78 21.5 139t60.5 103.5t93.5 64.5t119.5 22q58 0 104.5 -16.5t81 -45.5t55.5 -68t29 -83h-100q-8 25 -22 47.5t-35 39t-49.5 26.5t-63.5 10
q-44 0 -80 -15t-62 -45t-40.5 -75t-14.5 -104v-58q0 -58 15 -102.5t41 -75t62.5 -46t78.5 -15.5q82 0 129 43t55 142h-194v86zM298 -50h104l-96 -150h-74z" />
    <glyph glyph-name="gcommaaccent" unicode="&#x123;" horiz-adv-x="560" 
d="M243 12q-43 0 -79.5 15t-62.5 44.5t-41 72t-15 97.5v38q0 54 15 97t41.5 72t62.5 44.5t79 15.5q109 0 162 -79l10 71h70v-500q0 -102 -53.5 -155t-158.5 -53q-100 0 -147.5 42.5t-55.5 115.5h90q8 -38 32 -58t81 -20q65 0 93.5 29.5t28.5 98.5v76q-55 -64 -152 -64z
M267 98q56 0 92 38t36 105v38q0 67 -36 105t-92 38q-60 0 -94 -36.5t-34 -106.5v-38q0 -71 34.5 -107t93.5 -36zM315.011 549.994h-99.9883l99.9883 149.981h69.9912z" />
    <glyph glyph-name="Hcircumflex" unicode="&#x124;" horiz-adv-x="710" 
d="M536 317h-362v-317h-94v700h94v-297h362v297h94v-700h-94v317zM355 846l-73 -86h-92l112 150h106l112 -150h-92z" />
    <glyph glyph-name="hcircumflex" unicode="&#x125;" horiz-adv-x="575" 
d="M75 700h90v-259q25 32 63 49.5t87 17.5q87 0 138.5 -54.5t51.5 -158.5v-295h-90v295q0 64 -30 95.5t-85 31.5q-61 0 -97 -34t-38 -88v-300h-90v700zM121 847l-77 -87h-88l116 150h98l116 -150h-88z" />
    <glyph glyph-name="Hbar" unicode="&#x126;" horiz-adv-x="760" 
d="M10 597h95v103h94v-103h362v103h94v-103h95v-74h-95v-523h-94v317h-362v-317h-94v523h-95v74zM561 403v120h-362v-120h362z" />
    <glyph glyph-name="hbar" unicode="&#x127;" horiz-adv-x="575" 
d="M415 265q0 64 -30 95.5t-85 31.5q-61 0 -97 -34t-38 -88v-270h-90v524h-85v72h85v104h90v-104h160v-72h-160v-113q25 32 63 49.5t87 17.5q87 0 138.5 -54.5t51.5 -158.5v-265h-90v265z" />
    <glyph glyph-name="Itilde" unicode="&#x128;" horiz-adv-x="270" 
d="M88 700h94v-700h-94v700zM206 765q-28 0 -48 10.5t-35.5 23t-28.5 23t-28 10.5q-17 0 -27 -12t-10 -40h-63q0 66 26.5 95.5t73.5 29.5q28 0 47.5 -10t35 -22.5t29 -22.5t28.5 -10q17 0 27 12t10 38h63q0 -66 -26.5 -95.5t-73.5 -29.5z" />
    <glyph glyph-name="itilde" unicode="&#x129;" horiz-adv-x="256" 
d="M83 500h90v-500h-90v500zM194 565q-26 0 -44.5 10.5t-33 22.5t-27 22.5t-25.5 10.5q-14 0 -23 -11.5t-9 -39.5h-63q0 65 26.5 95t68.5 30q26 0 44.5 -10.5t33 -22.5t26.5 -22.5t26 -10.5t23 11.5t9 39.5h63q0 -65 -26.5 -95t-68.5 -30z" />
    <glyph glyph-name="Imacron" unicode="&#x12a;" horiz-adv-x="270" 
d="M88 700h94v-700h-94v700zM-14 873h300v-76h-300v76z" />
    <glyph glyph-name="imacron" unicode="&#x12b;" horiz-adv-x="256" 
d="M83 500h90v-500h-90v500zM-11 672h280v-74h-280v74z" />
    <glyph glyph-name="Ibreve" unicode="&#x12c;" horiz-adv-x="270" 
d="M88 700h94v-700h-94v700zM136 762q-74 0 -112 36.5t-38 101.5h74q0 -32 19 -50t57 -18q39 0 58.5 18t19.5 50h72q0 -65 -38 -101.5t-112 -36.5z" />
    <glyph glyph-name="ibreve" unicode="&#x12d;" horiz-adv-x="256" 
d="M83 500h90v-500h-90v500zM129 562q-66 0 -103 36.5t-37 101.5h72q0 -33 18 -51.5t50 -18.5q33 0 51.5 18.5t18.5 51.5h70q0 -65 -37 -101.5t-103 -36.5z" />
    <glyph glyph-name="Iogonek" unicode="&#x12e;" horiz-adv-x="270" 
d="M127 -200q-55 0 -80 22.5t-25 62.5q0 12 2 25t8.5 27.5t19.5 32t36 38.5v692h94v-700q-27 -23 -42.5 -39t-23.5 -27t-10 -19.5t-2 -16.5q0 -28 33 -28h45v-70h-55z" />
    <glyph glyph-name="iogonek" unicode="&#x12f;" horiz-adv-x="256" 
d="M118 -200q-55 0 -80 22t-25 58q0 14 2 28t9.5 29t21.5 32.5t37 38.5v492h90v-500q-28 -23 -44.5 -39.5t-24.5 -28.5t-10.5 -21t-2.5 -16q0 -13 9 -21t28 -8h45v-66h-55zM129 576q-26 0 -43 17t-17 43t17 43t43 17t43 -17t17 -43t-17 -43t-43 -17z" />
    <glyph glyph-name="Idotaccent" unicode="&#x130;" horiz-adv-x="270" 
d="M88 700h94v-700h-94v700zM135 775q-26 0 -43 17t-17 43t17 43t43 17t43 -17t17 -43t-17 -43t-43 -17z" />
    <glyph glyph-name="dotlessi" unicode="&#x131;" horiz-adv-x="256" 
d="M83 500h90v-500h-90v500z" />
    <glyph glyph-name="IJ" unicode="&#x132;" horiz-adv-x="800" 
d="M88 700h94v-700h-94v700zM505 -8q-99 0 -155.5 62t-64.5 171h94q4 -69 36 -106t90 -37t92 39.5t34 128.5v450h94v-450q0 -65 -15.5 -113t-44 -80.5t-69.5 -48.5t-91 -16z" />
    <glyph glyph-name="ij" unicode="&#x133;" horiz-adv-x="492" 
d="M83 500h90v-500h-90v500zM128 576q-26 0 -43 17t-17 43t17 43t43 17t43 -17t17 -43t-17 -43t-43 -17zM208 -118h33q40 0 58.5 23t18.5 80v515h90v-515q0 -50 -10 -85.5t-30 -57.5t-52 -32t-75 -10h-33v82zM363 576q-26 0 -43 17t-17 43t17 43t43 17t43 -17t17 -43
t-17 -43t-43 -17z" />
    <glyph glyph-name="Jcircumflex" unicode="&#x134;" horiz-adv-x="535" 
d="M240 -8q-99 0 -155.5 62t-64.5 171h94q4 -69 36 -106t90 -37t92 39.5t34 128.5v450h94v-450q0 -65 -15.5 -113t-44 -80.5t-69.5 -48.5t-91 -16zM413 846l-73 -86h-92l112 150h106l112 -150h-92z" />
    <glyph glyph-name="jcircumflex" unicode="&#x135;" horiz-adv-x="256" 
d="M-27 -118h33q40 0 58.5 23t18.5 80v515h90v-515q0 -50 -10 -85.5t-30 -57.5t-52 -32t-75 -10h-33v82zM129 647l-77 -87h-88l116 150h98l116 -150h-88z" />
    <glyph glyph-name="Kcommaaccent" unicode="&#x136;" horiz-adv-x="635" 
d="M267 319l-93 -110v-209h-94v700h94v-367l300 367h116l-258 -311l278 -389h-118zM281 -50h104l-96 -150h-74z" />
    <glyph glyph-name="kcommaaccent" unicode="&#x137;" horiz-adv-x="510" 
d="M243 215l-78 -96v-119h-90v700h90v-457l202 257h108l-173 -219l193 -281h-110zM225 -50h100l-100 -150h-70z" />
    <glyph glyph-name="kgreenlandic" unicode="&#x138;" horiz-adv-x="510" 
d="M243 215l-78 -96v-119h-90v500h90v-257l202 257h108l-173 -219l193 -281h-110z" />
    <glyph glyph-name="Lacute" unicode="&#x139;" horiz-adv-x="515" 
d="M80 700h94v-614h321v-86h-415v700zM193 910h108l-128 -150h-92z" />
    <glyph glyph-name="lacute" unicode="&#x13a;" horiz-adv-x="285" 
d="M221 0q-71 0 -108.5 37.5t-37.5 109.5v553h90v-543q0 -75 69 -75h31v-82h-44v0zM191 910h104l-130 -150h-90z" />
    <glyph glyph-name="Lcommaaccent" unicode="&#x13b;" horiz-adv-x="515" 
d="M80 700h94v-614h321v-86h-415v700zM235 -50h104l-96 -150h-74z" />
    <glyph glyph-name="lcommaaccent" unicode="&#x13c;" horiz-adv-x="285" 
d="M221 0q-71 0 -108.5 37.5t-37.5 109.5v553h90v-543q0 -75 69 -75h31v-82h-44v0zM130 -50h100l-100 -150h-70z" />
    <glyph glyph-name="Lcaron" unicode="&#x13d;" horiz-adv-x="515" 
d="M294 700h94l-25 -250h-69v250zM80 700h94v-614h321v-86h-415v700z" />
    <glyph glyph-name="lcaron" unicode="&#x13e;" horiz-adv-x="285" 
d="M225 700h90l-20 -170h-70v170zM221 0q-71 0 -108.5 37.5t-37.5 109.5v553h90v-543q0 -75 69 -75h31v-82h-44z" />
    <glyph glyph-name="Ldot" unicode="&#x13f;" horiz-adv-x="515" 
d="M80 700h94v-614h321v-86h-415v700zM384 336q-26 0 -43 17t-17 43t17 43t43 17t43 -17t17 -43t-17 -43t-43 -17z" />
    <glyph glyph-name="ldot" unicode="&#x140;" horiz-adv-x="325" 
d="M221 0q-71 0 -108.5 37.5t-37.5 109.5v553h90v-543q0 -75 69 -75h31v-82h-44v0zM282 306q-26 0 -43 17t-17 43t17 43t43 17t43 -17t17 -43t-17 -43t-43 -17z" />
    <glyph glyph-name="Lslash" unicode="&#x141;" horiz-adv-x="540" 
d="M10 307l95 54v339h94v-286l166 94v-84l-166 -94v-244h321v-86h-415v277l-95 -54v84z" />
    <glyph glyph-name="lslash" unicode="&#x142;" horiz-adv-x="305" 
d="M10 357l85 49v294h90v-242l85 50v-84l-85 -50v-217q0 -75 69 -75h31v-82h-44q-71 0 -108.5 37.5t-37.5 109.5v175l-85 -49v84z" />
    <glyph glyph-name="Nacute" unicode="&#x143;" horiz-adv-x="710" 
d="M225 490l-51 102v-592h-94v700h134l271 -490l51 -102v592h94v-700h-134zM421 910h108l-128 -150h-92z" />
    <glyph glyph-name="nacute" unicode="&#x144;" horiz-adv-x="575" 
d="M75 500h70l9 -69q26 37 67 57t94 20q87 0 138.5 -54.5t51.5 -158.5v-295h-90v295q0 64 -30 95.5t-85 31.5q-61 0 -97 -34t-38 -88v-300h-90v500zM361 710h104l-130 -150h-90z" />
    <glyph glyph-name="Ncommaaccent" unicode="&#x145;" horiz-adv-x="710" 
d="M225 490l-51 102v-592h-94v700h134l271 -490l51 -102v592h94v-700h-134zM303 -50h104l-96 -150h-74z" />
    <glyph glyph-name="ncommaaccent" unicode="&#x146;" horiz-adv-x="575" 
d="M75 500h70l9 -69q26 37 67 57t94 20q87 0 138.5 -54.5t51.5 -158.5v-295h-90v295q0 64 -30 95.5t-85 31.5q-61 0 -97 -34t-38 -88v-300h-90v500zM240 -50h100l-100 -150h-70z" />
    <glyph glyph-name="Ncaron" unicode="&#x147;" horiz-adv-x="710" 
d="M225 490l-51 102v-592h-94v700h134l271 -490l51 -102v592h94v-700h-134zM190 910h92l73 -87l73 87h92l-112 -150h-106z" />
    <glyph glyph-name="ncaron" unicode="&#x148;" horiz-adv-x="575" 
d="M75 500h70l9 -69q26 37 67 57t94 20q87 0 138.5 -54.5t51.5 -158.5v-295h-90v295q0 64 -30 95.5t-85 31.5q-61 0 -97 -34t-38 -88v-300h-90v500zM125 710h88l77 -88l77 88h88l-116 -150h-98z" />
    <glyph glyph-name="napostrophe" unicode="&#x149;" horiz-adv-x="660" 
d="M160 500h70l9 -69q26 37 67 57t94 20q87 0 138.5 -54.5t51.5 -158.5v-295h-90v295q0 64 -30 95.5t-85 31.5q-61 0 -97 -34t-38 -88v-300h-90v500zM63 700h98l-78 -250h-82z" />
    <glyph glyph-name="Eng" unicode="&#x14a;" horiz-adv-x="710" 
d="M430 -114h33q38 0 55.5 22t17.5 77v15l-302 490l-60 100v-590h-94v700h133l265 -430l58 -102v532h94v-715q0 -50 -10 -85.5t-30 -57.5t-52 -32t-75 -10h-33v86z" />
    <glyph glyph-name="eng" unicode="&#x14b;" horiz-adv-x="575" 
d="M305 -118h33q40 0 58.5 23t18.5 80v310q0 64 -30 95.5t-85 31.5q-61 0 -97 -34t-38 -88v-300h-90v500h70l9 -69q26 37 67 57t94 20q87 0 138.5 -54.5t51.5 -158.5v-310q0 -50 -10 -85.5t-30 -57.5t-52 -32t-75 -10h-33v82z" />
    <glyph glyph-name="Omacron" unicode="&#x14c;" horiz-adv-x="710" 
d="M355 -8q-67 0 -122 22.5t-94.5 64.5t-61.5 103t-22 139v58q0 77 22 138t62 103.5t95 65t121 22.5q67 0 122 -22.5t94.5 -64.5t61.5 -103t22 -139v-58q0 -77 -22 -138t-62 -103.5t-95 -65t-121 -22.5zM355 82q44 0 81 15.5t64 45.5t42 74.5t15 103.5v58q0 58 -15 102.5
t-42 75t-64 46t-81 15.5t-81 -15.5t-64 -45.5t-42 -75t-15 -103v-58q0 -58 15 -102.5t42 -75t64 -46t81 -15.5zM205 873h300v-76h-300v76z" />
    <glyph glyph-name="omacron" unicode="&#x14d;" horiz-adv-x="550" 
d="M275 -8q-53 0 -95.5 16.5t-72.5 47t-46 75t-16 100.5v38q0 55 16.5 99.5t46.5 75.5t72.5 47.5t94.5 16.5t94.5 -16.5t72.5 -47t46.5 -75t16.5 -100.5v-38q0 -56 -16.5 -100t-46.5 -75t-72.5 -47.5t-94.5 -16.5zM275 78q63 0 99.5 38.5t36.5 114.5v38q0 75 -36.5 114
t-99.5 39t-99.5 -38.5t-36.5 -114.5v-38q0 -75 36.5 -114t99.5 -39zM135 672h280v-74h-280v74z" />
    <glyph glyph-name="Obreve" unicode="&#x14e;" horiz-adv-x="710" 
d="M355 -8q-67 0 -122 22.5t-94.5 64.5t-61.5 103t-22 139v58q0 77 22 138t62 103.5t95 65t121 22.5q67 0 122 -22.5t94.5 -64.5t61.5 -103t22 -139v-58q0 -77 -22 -138t-62 -103.5t-95 -65t-121 -22.5zM355 82q44 0 81 15.5t64 45.5t42 74.5t15 103.5v58q0 58 -15 102.5
t-42 75t-64 46t-81 15.5t-81 -15.5t-64 -45.5t-42 -75t-15 -103v-58q0 -58 15 -102.5t42 -75t64 -46t81 -15.5zM355 762q-74 0 -112 36.5t-38 101.5h74q0 -32 19 -50t57 -18q39 0 58.5 18t19.5 50h72q0 -65 -38 -101.5t-112 -36.5z" />
    <glyph glyph-name="obreve" unicode="&#x14f;" horiz-adv-x="550" 
d="M275 -8q-53 0 -95.5 16.5t-72.5 47t-46 75t-16 100.5v38q0 55 16.5 99.5t46.5 75.5t72.5 47.5t94.5 16.5t94.5 -16.5t72.5 -47t46.5 -75t16.5 -100.5v-38q0 -56 -16.5 -100t-46.5 -75t-72.5 -47.5t-94.5 -16.5zM275 78q63 0 99.5 38.5t36.5 114.5v38q0 75 -36.5 114
t-99.5 39t-99.5 -38.5t-36.5 -114.5v-38q0 -75 36.5 -114t99.5 -39zM275 562q-66 0 -103 36.5t-37 101.5h72q0 -33 18 -51.5t50 -18.5q33 0 51.5 18.5t18.5 51.5h70q0 -65 -37 -101.5t-103 -36.5z" />
    <glyph glyph-name="Ohungarumlaut" unicode="&#x150;" horiz-adv-x="710" 
d="M355 -8q-67 0 -122 22.5t-94.5 64.5t-61.5 103t-22 139v58q0 77 22 138t62 103.5t95 65t121 22.5q67 0 122 -22.5t94.5 -64.5t61.5 -103t22 -139v-58q0 -77 -22 -138t-62 -103.5t-95 -65t-121 -22.5zM355 82q44 0 81 15.5t64 45.5t42 74.5t15 103.5v58q0 58 -15 102.5
t-42 75t-64 46t-81 15.5t-81 -15.5t-64 -45.5t-42 -75t-15 -103v-58q0 -58 15 -102.5t42 -75t64 -46t81 -15.5zM335 910h102l-112 -150h-86zM491 910h108l-128 -150h-92z" />
    <glyph glyph-name="ohungarumlaut" unicode="&#x151;" horiz-adv-x="550" 
d="M275 -8q-53 0 -95.5 16.5t-72.5 47t-46 75t-16 100.5v38q0 55 16.5 99.5t46.5 75.5t72.5 47.5t94.5 16.5t94.5 -16.5t72.5 -47t46.5 -75t16.5 -100.5v-38q0 -56 -16.5 -100t-46.5 -75t-72.5 -47.5t-94.5 -16.5zM275 78q63 0 99.5 38.5t36.5 114.5v38q0 75 -36.5 114
t-99.5 39t-99.5 -38.5t-36.5 -114.5v-38q0 -75 36.5 -114t99.5 -39zM262 710h98l-116 -150h-84zM416 710h104l-130 -150h-90z" />
    <glyph glyph-name="OE" unicode="&#x152;" horiz-adv-x="960" 
d="M483 18q-24 -11 -55 -18.5t-70 -7.5q-68 0 -124 22.5t-95.5 64.5t-61.5 103t-22 139v58q0 77 22 138t62 103.5t96 65t123 22.5q39 0 70 -7.5t55 -18.5v18h432v-86h-338v-211h278v-86h-278v-231h338v-86h-432v18zM358 82q39 0 70 10.5t55 25.5v463q-24 15 -55 26t-70 11
q-45 0 -83 -15.5t-65 -45.5t-42 -75t-15 -103v-58q0 -58 15.5 -102.5t42.5 -75t64.5 -46t82.5 -15.5z" />
    <glyph glyph-name="oe" unicode="&#x153;" horiz-adv-x="910" 
d="M638 -8q-58 0 -104.5 24.5t-75.5 70.5q-29 -46 -76 -70.5t-107 -24.5q-53 0 -95.5 16.5t-72.5 47t-46 75t-16 100.5v38q0 56 16 100.5t46 75t72.5 47t95.5 16.5q60 0 107 -25t76 -72q29 47 76 72t104 25q50 0 92 -16.5t72 -47.5t46.5 -75.5t16.5 -99.5v-48h-360
q2 -73 39 -110t94 -37q60 0 87.5 20.5t42.5 55.5h92q-8 -35 -24.5 -64t-43.5 -50t-65 -32.5t-89 -11.5zM275 78q63 0 99.5 39t36.5 114v38q0 75 -36.5 114t-99.5 39t-99.5 -39t-36.5 -114v-38q0 -75 36.5 -114t99.5 -39zM638 426q-54 0 -89 -31.5t-43 -95.5h263
q-6 66 -40 96.5t-91 30.5z" />
    <glyph glyph-name="Racute" unicode="&#x154;" horiz-adv-x="620" 
d="M346 275q-9 -1 -18 -1h-18h-136v-274h-94v700h230q134 0 197 -57t63 -156q0 -71 -32.5 -121t-100.5 -73l153 -293h-106zM174 614v-254h136q86 0 124 33.5t38 93.5t-38 93.5t-124 33.5h-136zM356 910h108l-128 -150h-92z" />
    <glyph glyph-name="racute" unicode="&#x155;" horiz-adv-x="380" 
d="M75 500h70l9 -68q26 37 66 56.5t90 19.5h50v-86h-50q-69 0 -106 -34t-39 -88v-300h-90v500zM288 710h104l-130 -150h-90z" />
    <glyph glyph-name="Rcommaaccent" unicode="&#x156;" horiz-adv-x="620" 
d="M346 275q-9 -1 -18 -1h-18h-136v-274h-94v700h230q134 0 197 -57t63 -156q0 -71 -32.5 -121t-100.5 -73l153 -293h-106zM174 614v-254h136q86 0 124 33.5t38 93.5t-38 93.5t-124 33.5h-136zM277 -50h104l-96 -150h-74z" />
    <glyph glyph-name="rcommaaccent" unicode="&#x157;" horiz-adv-x="380" 
d="M75 500h70l9 -68q26 37 66 56.5t90 19.5h50v-86h-50q-69 0 -106 -34t-39 -88v-300h-90v500zM71 -50h100l-100 -150h-70z" />
    <glyph glyph-name="Rcaron" unicode="&#x158;" horiz-adv-x="620" 
d="M346 275q-9 -1 -18 -1h-18h-136v-274h-94v700h230q134 0 197 -57t63 -156q0 -71 -32.5 -121t-100.5 -73l153 -293h-106zM174 614v-254h136q86 0 124 33.5t38 93.5t-38 93.5t-124 33.5h-136zM125 910h92l73 -87l73 87h92l-112 -150h-106z" />
    <glyph glyph-name="rcaron" unicode="&#x159;" horiz-adv-x="380" 
d="M75 500h70l9 -68q26 37 66 56.5t90 19.5h50v-86h-50q-69 0 -106 -34t-39 -88v-300h-90v500zM52 710h88l77 -88l77 88h88l-116 -150h-98z" />
    <glyph glyph-name="Sacute" unicode="&#x15a;" horiz-adv-x="610" 
d="M305 -8q-124 0 -185.5 57.5t-69.5 175.5h100q7 -77 43 -110t112 -33q81 0 119 32t38 78q0 33 -17.5 53.5t-45.5 35t-64 24t-74 20t-74 24t-64 35.5t-45.5 54t-17.5 80q0 40 15.5 75t46 60.5t76.5 40t107 14.5q121 0 179 -54t66 -159h-100q-8 64 -40 93.5t-105 29.5
q-77 0 -112 -29t-35 -71q0 -31 17.5 -50.5t45.5 -33t64 -22.5t74 -19.5t74 -24.5t64 -37t45.5 -56.5t17.5 -83.5q0 -44 -15.5 -80.5t-47 -63t-79.5 -41t-113 -14.5zM371 910h108l-128 -150h-92z" />
    <glyph glyph-name="sacute" unicode="&#x15b;" horiz-adv-x="490" 
d="M245 -8q-97 0 -144.5 43t-55.5 120h94q4 -22 10.5 -38t18.5 -26t31 -14.5t46 -4.5q61 0 83.5 17.5t22.5 50.5q0 30 -22 45.5t-55 24.5t-71 16.5t-71 22.5t-55 41.5t-22 74.5q0 31 11.5 57t35 45t59.5 30t84 11q90 0 136 -41.5t54 -111.5h-94q-8 37 -28 55t-68 18
q-54 0 -75 -17t-21 -46q0 -27 22 -39.5t55 -20.5t71 -15.5t71 -23.5t55 -45.5t22 -80.5q0 -65 -48 -106.5t-152 -41.5zM316 710h104l-130 -150h-90z" />
    <glyph glyph-name="Scircumflex" unicode="&#x15c;" horiz-adv-x="610" 
d="M305 -8q-124 0 -185.5 57.5t-69.5 175.5h100q7 -77 43 -110t112 -33q81 0 119 32t38 78q0 33 -17.5 53.5t-45.5 35t-64 24t-74 20t-74 24t-64 35.5t-45.5 54t-17.5 80q0 40 15.5 75t46 60.5t76.5 40t107 14.5q121 0 179 -54t66 -159h-100q-8 64 -40 93.5t-105 29.5
q-77 0 -112 -29t-35 -71q0 -31 17.5 -50.5t45.5 -33t64 -22.5t74 -19.5t74 -24.5t64 -37t45.5 -56.5t17.5 -83.5q0 -44 -15.5 -80.5t-47 -63t-79.5 -41t-113 -14.5zM305 846l-73 -86h-92l112 150h106l112 -150h-92z" />
    <glyph glyph-name="scircumflex" unicode="&#x15d;" horiz-adv-x="490" 
d="M245 -8q-97 0 -144.5 43t-55.5 120h94q4 -22 10.5 -38t18.5 -26t31 -14.5t46 -4.5q61 0 83.5 17.5t22.5 50.5q0 30 -22 45.5t-55 24.5t-71 16.5t-71 22.5t-55 41.5t-22 74.5q0 31 11.5 57t35 45t59.5 30t84 11q90 0 136 -41.5t54 -111.5h-94q-8 37 -28 55t-68 18
q-54 0 -75 -17t-21 -46q0 -27 22 -39.5t55 -20.5t71 -15.5t71 -23.5t55 -45.5t22 -80.5q0 -65 -48 -106.5t-152 -41.5zM245 647l-77 -87h-88l116 150h98l116 -150h-88z" />
    <glyph glyph-name="Scedilla" unicode="&#x15e;" horiz-adv-x="610" 
d="M272 -7q-107 7 -161 64t-61 168h100q7 -77 43 -110t112 -33q81 0 119 32t38 78q0 33 -17.5 53.5t-45.5 35t-64 24t-74 20t-74 24t-64 35.5t-45.5 54t-17.5 80q0 40 15.5 75t46 60.5t76.5 40t107 14.5q121 0 179 -54t66 -159h-100q-8 64 -40 93.5t-105 29.5
q-77 0 -112 -29t-35 -71q0 -31 17.5 -50.5t45.5 -33t64 -22.5t74 -19.5t74 -24.5t64 -37t45.5 -56.5t17.5 -83.5q0 -42 -14 -77t-42.5 -61t-71 -41.5t-100.5 -18.5l-7 -28q33 -7 49 -26.5t16 -48.5q0 -41 -25 -65.5t-70 -24.5h-75v66h65q27 0 27 24t-27 24h-32z" />
    <glyph glyph-name="scedilla" unicode="&#x15f;" horiz-adv-x="490" 
d="M213 -6q-81 7 -121 48.5t-47 112.5h94q4 -22 10.5 -38t18.5 -26t31 -14.5t46 -4.5q61 0 83.5 17.5t22.5 50.5q0 30 -22 45.5t-55 24.5t-71 16.5t-71 22.5t-55 41.5t-22 74.5q0 31 11.5 57t35 45t59.5 30t84 11q90 0 136 -41.5t54 -111.5h-94q-8 37 -28 55t-68 18
q-54 0 -75 -17t-21 -46q0 -27 22 -39.5t55 -20.5t71 -15.5t71 -23.5t55 -45.5t22 -80.5q0 -61 -41 -101t-131 -46l-7 -28q32 -7 48 -26.5t16 -48.5q0 -41 -25 -65.5t-70 -24.5h-75v66h65q27 0 27 24t-27 24h-32z" />
    <glyph glyph-name="Scaron" unicode="&#x160;" horiz-adv-x="610" 
d="M305 -8q-124 0 -185.5 57.5t-69.5 175.5h100q7 -77 43 -110t112 -33q81 0 119 32t38 78q0 33 -17.5 53.5t-45.5 35t-64 24t-74 20t-74 24t-64 35.5t-45.5 54t-17.5 80q0 40 15.5 75t46 60.5t76.5 40t107 14.5q121 0 179 -54t66 -159h-100q-8 64 -40 93.5t-105 29.5
q-77 0 -112 -29t-35 -71q0 -31 17.5 -50.5t45.5 -33t64 -22.5t74 -19.5t74 -24.5t64 -37t45.5 -56.5t17.5 -83.5q0 -44 -15.5 -80.5t-47 -63t-79.5 -41t-113 -14.5zM140 910h92l73 -87l73 87h92l-112 -150h-106z" />
    <glyph glyph-name="scaron" unicode="&#x161;" horiz-adv-x="490" 
d="M245 -8q-97 0 -144.5 43t-55.5 120h94q4 -22 10.5 -38t18.5 -26t31 -14.5t46 -4.5q61 0 83.5 17.5t22.5 50.5q0 30 -22 45.5t-55 24.5t-71 16.5t-71 22.5t-55 41.5t-22 74.5q0 31 11.5 57t35 45t59.5 30t84 11q90 0 136 -41.5t54 -111.5h-94q-8 37 -28 55t-68 18
q-54 0 -75 -17t-21 -46q0 -27 22 -39.5t55 -20.5t71 -15.5t71 -23.5t55 -45.5t22 -80.5q0 -65 -48 -106.5t-152 -41.5zM80 710h88l77 -88l77 88h88l-116 -150h-98z" />
    <glyph glyph-name="Tcedilla" unicode="&#x162;" horiz-adv-x="580" 
d="M259 0h-16v614h-223v86h540v-86h-223v-614h-18l-9 -35q33 -7 49 -26.5t16 -48.5q0 -41 -25 -65.5t-70 -24.5h-75v66h65q27 0 27 24t-27 24h-32z" />
    <glyph glyph-name="tcedilla" unicode="&#x163;" horiz-adv-x="360" 
d="M202 6q-97 25 -97 141v271h-90v82h90v140h90v-140h130v-82h-130v-261q0 -75 70 -75h70v-82h-75l-9 -35q32 -7 48 -26.5t16 -48.5q0 -41 -25 -65.5t-70 -24.5h-75v66h65q27 0 27 24t-27 24h-32z" />
    <glyph glyph-name="Tcaron" unicode="&#x164;" horiz-adv-x="580" 
d="M20 700h540v-86h-223v-614h-94v614h-223v86zM125 910h92l73 -87l73 87h92l-112 -150h-106z" />
    <glyph glyph-name="tcaron" unicode="&#x165;" horiz-adv-x="360" 
d="M15 500h90v140h90v-140h130v-82h-130v-261q0 -75 70 -75h70v-82h-83q-71 0 -109 38t-38 109v271h-90v82zM255 720h90l-20 -170h-70v170z" />
    <glyph glyph-name="Tbar" unicode="&#x166;" horiz-adv-x="580" 
d="M20 700h540v-86h-223v-227h113v-74h-113v-313h-94v313h-113v74h113v227h-223v86z" />
    <glyph glyph-name="tbar" unicode="&#x167;" horiz-adv-x="380" 
d="M25 500h90v140h90v-140h130v-82h-130v-117h130v-82h-130v-62q0 -75 70 -75h70v-82h-83q-71 0 -109 38t-38 109v72h-90v82h90v117h-90v82z" />
    <glyph glyph-name="Utilde" unicode="&#x168;" horiz-adv-x="690" 
d="M345 -8q-62 0 -112 19.5t-85 56t-54 90t-19 122.5v420h94v-420q0 -97 47.5 -147.5t128.5 -50.5t128.5 50.5t47.5 147.5v420h94v-420q0 -68 -19 -121.5t-54.5 -90.5t-85.5 -56.5t-111 -19.5zM415 765q-28 0 -48 10.5t-35.5 23t-28.5 23t-28 10.5q-17 0 -27 -12t-10 -40
h-63q0 66 26.5 95.5t73.5 29.5q28 0 47.5 -10t35 -22.5t29 -22.5t28.5 -10q17 0 27 12t10 38h63q0 -66 -26.5 -95.5t-73.5 -29.5z" />
    <glyph glyph-name="utilde" unicode="&#x169;" horiz-adv-x="565" 
d="M255 -8q-83 0 -134 54.5t-51 158.5v295h90v-295q0 -64 29.5 -95.5t80.5 -31.5q57 0 92.5 33.5t37.5 87.5v301h90v-500h-70l-9 69q-26 -37 -66 -57t-90 -20zM345 565q-26 0 -44.5 10.5t-33 22.5t-27 22.5t-25.5 10.5q-14 0 -23 -11.5t-9 -39.5h-63q0 65 26.5 95t68.5 30
q26 0 44.5 -10.5t33 -22.5t26.5 -22.5t26 -10.5t23 11.5t9 39.5h63q0 -65 -26.5 -95t-68.5 -30z" />
    <glyph glyph-name="Umacron" unicode="&#x16a;" horiz-adv-x="690" 
d="M345 -8q-62 0 -112 19.5t-85 56t-54 90t-19 122.5v420h94v-420q0 -97 47.5 -147.5t128.5 -50.5t128.5 50.5t47.5 147.5v420h94v-420q0 -68 -19 -121.5t-54.5 -90.5t-85.5 -56.5t-111 -19.5zM195 873h300v-76h-300v76z" />
    <glyph glyph-name="umacron" unicode="&#x16b;" horiz-adv-x="565" 
d="M255 -8q-83 0 -134 54.5t-51 158.5v295h90v-295q0 -64 29.5 -95.5t80.5 -31.5q57 0 92.5 33.5t37.5 87.5v301h90v-500h-70l-9 69q-26 -37 -66 -57t-90 -20zM140 672h280v-74h-280v74z" />
    <glyph glyph-name="Ubreve" unicode="&#x16c;" horiz-adv-x="690" 
d="M345 -8q-62 0 -112 19.5t-85 56t-54 90t-19 122.5v420h94v-420q0 -97 47.5 -147.5t128.5 -50.5t128.5 50.5t47.5 147.5v420h94v-420q0 -68 -19 -121.5t-54.5 -90.5t-85.5 -56.5t-111 -19.5zM345 762q-74 0 -112 36.5t-38 101.5h74q0 -32 19 -50t57 -18q39 0 58.5 18
t19.5 50h72q0 -65 -38 -101.5t-112 -36.5z" />
    <glyph glyph-name="ubreve" unicode="&#x16d;" horiz-adv-x="565" 
d="M255 -8q-83 0 -134 54.5t-51 158.5v295h90v-295q0 -64 29.5 -95.5t80.5 -31.5q57 0 92.5 33.5t37.5 87.5v301h90v-500h-70l-9 69q-26 -37 -66 -57t-90 -20zM280 562q-66 0 -103 36.5t-37 101.5h72q0 -33 18 -51.5t50 -18.5q33 0 51.5 18.5t18.5 51.5h70q0 -65 -37 -101.5
t-103 -36.5z" />
    <glyph glyph-name="Uring" unicode="&#x16e;" horiz-adv-x="690" 
d="M345 -8q-62 0 -112 19.5t-85 56t-54 90t-19 122.5v420h94v-420q0 -97 47.5 -147.5t128.5 -50.5t128.5 50.5t47.5 147.5v420h94v-420q0 -68 -19 -121.5t-54.5 -90.5t-85.5 -56.5t-111 -19.5zM345 730q-24 0 -44 8t-35 22.5t-23 33.5t-8 41t8 41t23 33.5t35 22.5t44 8
t44 -8t35 -22.5t23 -33.5t8 -41t-8 -41t-23 -33.5t-35 -22.5t-44 -8zM345 790q19 0 31.5 12.5t12.5 32.5t-12.5 32.5t-31.5 12.5t-31.5 -12.5t-12.5 -32.5t12.5 -32.5t31.5 -12.5z" />
    <glyph glyph-name="uring" unicode="&#x16f;" horiz-adv-x="565" 
d="M255 -8q-83 0 -134 54.5t-51 158.5v295h90v-295q0 -64 29.5 -95.5t80.5 -31.5q57 0 92.5 33.5t37.5 87.5v301h90v-500h-70l-9 69q-26 -37 -66 -57t-90 -20zM280 530q-24 0 -44 8t-35 22.5t-23 33.5t-8 41t8 41t23 33.5t35 22.5t44 8t44 -8t35 -22.5t23 -33.5t8 -41
t-8 -41t-23 -33.5t-35 -22.5t-44 -8zM280 586q21 0 34.5 13.5t13.5 35.5t-13.5 35.5t-34.5 13.5t-34.5 -13.5t-13.5 -35.5t13.5 -35.5t34.5 -13.5z" />
    <glyph glyph-name="Uhungarumlaut" unicode="&#x170;" horiz-adv-x="690" 
d="M345 -8q-62 0 -112 19.5t-85 56t-54 90t-19 122.5v420h94v-420q0 -97 47.5 -147.5t128.5 -50.5t128.5 50.5t47.5 147.5v420h94v-420q0 -68 -19 -121.5t-54.5 -90.5t-85.5 -56.5t-111 -19.5zM325 910h102l-112 -150h-86zM481 910h108l-128 -150h-92z" />
    <glyph glyph-name="uhungarumlaut" unicode="&#x171;" horiz-adv-x="565" 
d="M255 -8q-83 0 -134 54.5t-51 158.5v295h90v-295q0 -64 29.5 -95.5t80.5 -31.5q57 0 92.5 33.5t37.5 87.5v301h90v-500h-70l-9 69q-26 -37 -66 -57t-90 -20zM267 710h98l-116 -150h-84zM421 710h104l-130 -150h-90z" />
    <glyph glyph-name="Uogonek" unicode="&#x172;" horiz-adv-x="690" 
d="M345 -8q-62 0 -112 19.5t-85 56t-54 90t-19 122.5v420h94v-420q0 -97 47.5 -147.5t128.5 -50.5t128.5 50.5t47.5 147.5v420h94v-420q0 -85 -29 -146.5t-82 -97.5q-60 -50 -88.5 -80.5t-28.5 -57.5q0 -28 33 -28h45v-70h-55q-55 0 -80 22.5t-25 62.5q0 26 13.5 52t41.5 56
q-4 0 -7.5 -0.5t-7.5 -0.5z" />
    <glyph glyph-name="uogonek" unicode="&#x173;" horiz-adv-x="565" 
d="M435 -200q-55 0 -80 22t-25 58q0 15 3 30t12 31.5t26 36.5t46 45l-6 46q-26 -37 -66 -57t-90 -20q-83 0 -134 54.5t-51 158.5v295h90v-295q0 -64 29.5 -95.5t80.5 -31.5q57 0 92.5 33.5t37.5 87.5v301h90v-500q-28 -23 -44.5 -39.5t-24.5 -28.5t-10.5 -21t-2.5 -16
q0 -13 9 -21t28 -8h45v-66h-55z" />
    <glyph glyph-name="Wcircumflex" unicode="&#x174;" horiz-adv-x="970" 
d="M485 586l-145 -586h-120l-190 700h98l151 -589l146 589h120l156 -590l143 590h96l-180 -700h-120zM485 846l-73 -86h-92l112 150h106l112 -150h-92z" />
    <glyph glyph-name="wcircumflex" unicode="&#x175;" horiz-adv-x="770" 
d="M384 398l-104 -398h-110l-145 500h94l108 -389l102 389h110l114 -394l102 394h90l-135 -500h-110zM385 647l-77 -87h-88l116 150h98l116 -150h-88z" />
    <glyph glyph-name="Ycircumflex" unicode="&#x176;" horiz-adv-x="650" 
d="M283 245l-263 455h108l202 -355l196 355h104l-253 -455v-245h-94v245zM327 846l-73 -86h-92l112 150h106l112 -150h-92z" />
    <glyph glyph-name="ycircumflex" unicode="&#x177;" horiz-adv-x="520" 
d="M217 0l-202 500h98l152 -387l144 387h96l-269 -700h-96zM261 647l-77 -87h-88l116 150h98l116 -150h-88z" />
    <glyph glyph-name="Ydieresis" unicode="&#x178;" horiz-adv-x="650" 
d="M283 245l-263 455h108l202 -355l196 355h104l-253 -455v-245h-94v245zM222 775q-26 0 -43 17t-17 43t17 43t43 17t43 -17t17 -43t-17 -43t-43 -17zM432 775q-26 0 -43 17t-17 43t17 43t43 17t43 -17t17 -43t-17 -43t-43 -17z" />
    <glyph glyph-name="Zacute" unicode="&#x179;" horiz-adv-x="585" 
d="M55 700h490v-86l-392 -528h392v-86h-500v86l392 528h-382v86zM366 910h108l-128 -150h-92z" />
    <glyph glyph-name="zacute" unicode="&#x17a;" horiz-adv-x="455" 
d="M45 500h380v-82l-286 -336h286v-82h-390v82l286 336h-276v82zM306 710h104l-130 -150h-90z" />
    <glyph glyph-name="Zdotaccent" unicode="&#x17b;" horiz-adv-x="585" 
d="M55 700h490v-86l-392 -528h392v-86h-500v86l392 528h-382v86zM300 775q-26 0 -43 17t-17 43t17 43t43 17t43 -17t17 -43t-17 -43t-43 -17z" />
    <glyph glyph-name="zdotaccent" unicode="&#x17c;" horiz-adv-x="455" 
d="M45 500h380v-82l-286 -336h286v-82h-390v82l286 336h-276v82zM235 576q-26 0 -43 17t-17 43t17 43t43 17t43 -17t17 -43t-17 -43t-43 -17z" />
    <glyph glyph-name="Zcaron" unicode="&#x17d;" horiz-adv-x="585" 
d="M55 700h490v-86l-392 -528h392v-86h-500v86l392 528h-382v86zM135 910h92l73 -87l73 87h92l-112 -150h-106z" />
    <glyph glyph-name="zcaron" unicode="&#x17e;" horiz-adv-x="455" 
d="M45 500h380v-82l-286 -336h286v-82h-390v82l286 336h-276v82zM70 710h88l77 -88l77 88h88l-116 -150h-98z" />
    <glyph glyph-name="longs" unicode="&#x17f;" horiz-adv-x="305" 
d="M20 500h90v53q0 72 37.5 109.5t109.5 37.5h83v-82h-71q-69 0 -69 -74v-544h-90v418h-90v82z" />
    <glyph glyph-name="uni018F" unicode="&#x18f;" horiz-adv-x="710" 
d="M355 -8q-67 0 -122 22.5t-94.5 64.5t-61.5 103t-22 139v67h502q-1 55 -16.5 98t-42.5 72t-63.5 44.5t-79.5 15.5q-37 0 -66.5 -10t-52 -27.5t-37.5 -39.5t-22 -46h-106q9 37 29.5 75t55 68.5t84 50t115.5 19.5t121.5 -22.5t95 -64.5t61.5 -103t22 -139v-58
q0 -77 -22.5 -138t-62 -103.5t-94.5 -65t-121 -22.5zM355 82q85 0 140.5 56.5t60.5 163.5h-403q3 -53 19 -94t43 -69t63 -42.5t77 -14.5z" />
    <glyph glyph-name="florin" unicode="&#x192;" horiz-adv-x="480" 
d="M99 500h108l8 45q13 78 55.5 116.5t132.5 38.5h62l-15 -82h-57q-74 0 -86 -73l-8 -45h130l-12 -72h-130l-73 -423q-14 -78 -56 -116t-131 -38h-42l15 82h37q73 0 85 72l73 423h-109z" />
    <glyph glyph-name="uni01CF" unicode="&#x1cf;" horiz-adv-x="270" 
d="M88 700h94v-700h-94v700zM-29 910h92l73 -87l73 87h92l-112 -150h-106z" />
    <glyph glyph-name="uni01D0" unicode="&#x1d0;" horiz-adv-x="256" 
d="M83 500h90v-500h-90v500zM-36 710h88l77 -88l77 88h88l-116 -150h-98z" />
    <glyph glyph-name="uni01DD" unicode="&#x1dd;" horiz-adv-x="540" 
d="M270 -8q-50 0 -91.5 16.5t-71 47.5t-46 75.5t-16.5 99.5v48h356q-3 72 -39 109.5t-92 37.5q-29 0 -49.5 -5.5t-35 -15.5t-24.5 -22.5t-17 -27.5h-94q7 32 24 60t44 48.5t64.5 32.5t87.5 12t91.5 -16.5t71 -47.5t46 -75.5t16.5 -99.5v-38q0 -55 -16.5 -99t-46.5 -75
t-71.5 -48t-90.5 -17zM270 74q54 0 88 31.5t41 95.5h-259q7 -66 40 -96.5t90 -30.5z" />
    <glyph glyph-name="Gcaron" unicode="&#x1e6;" horiz-adv-x="680" 
d="M340 353h285v-43q0 -78 -20 -137.5t-56 -99.5t-86.5 -60.5t-112.5 -20.5q-66 0 -120 22t-93 64t-60.5 103.5t-21.5 139.5v58q0 78 21.5 139t60.5 103.5t93.5 64.5t119.5 22q58 0 104.5 -16.5t81 -45.5t55.5 -68t29 -83h-100q-8 25 -22 47.5t-35 39t-49.5 26.5t-63.5 10
q-44 0 -80 -15t-62 -45t-40.5 -75t-14.5 -104v-58q0 -58 15 -102.5t41 -75t62.5 -46t78.5 -15.5q82 0 129 43t55 142h-194v86zM185 910h92l73 -87l73 87h92l-112 -150h-106z" />
    <glyph glyph-name="gcaron" unicode="&#x1e7;" horiz-adv-x="560" 
d="M243 12q-43 0 -79.5 15t-62.5 44.5t-41 72t-15 97.5v38q0 54 15 97t41.5 72t62.5 44.5t79 15.5q109 0 162 -79l10 71h70v-500q0 -102 -53.5 -155t-158.5 -53q-100 0 -147.5 42.5t-55.5 115.5h90q8 -38 32 -58t81 -20q65 0 93.5 29.5t28.5 98.5v76q-55 -64 -152 -64z
M267 98q56 0 92 38t36 105v38q0 67 -36 105t-92 38q-60 0 -94 -36.5t-34 -106.5v-38q0 -71 34.5 -107t93.5 -36zM100 710h88l77 -88l77 88h88l-116 -150h-98z" />
    <glyph glyph-name="Aringacute" unicode="&#x1fa;" horiz-adv-x="650" 
d="M465 192h-284l-68 -192h-98l241 662q-41 30 -41 83q0 22 8 41t23 33.5t35 22.5t44 8t44 -8t35 -22.5t23 -33.5t8 -41q0 -26 -11 -47.5t-30 -35.5l241 -662h-102zM212 278h222l-59 168l-51 149l-52 -149zM390 991h120l-140 -106h-90zM325 700q19 0 31.5 12.5t12.5 32.5
t-12.5 32.5t-31.5 12.5t-31.5 -12.5t-12.5 -32.5t12.5 -32.5t31.5 -12.5z" />
    <glyph glyph-name="aringacute" unicode="&#x1fb;" horiz-adv-x="520" 
d="M329 900h104l-126 -130h-84zM200 -8q-78 0 -119 39.5t-41 108.5q0 38 12 68.5t38.5 51.5t68 32t101.5 11h100v37q0 42 -24.5 65t-75.5 23t-73.5 -19t-26.5 -49h-100q4 64 52.5 106t147.5 42q94 0 142 -45t48 -123v-340h-70l-11 82q-27 -43 -70.5 -66.5t-98.5 -23.5z
M210 72q33 0 60.5 11t47.5 29.5t31 43.5t11 53v18h-100q-69 0 -97.5 -23.5t-28.5 -61.5q0 -32 20 -51t56 -19zM265 530q-24 0 -44 8t-35 22.5t-23 33.5t-8 41t8 41t23 33.5t35 22.5t44 8t44 -8t35 -22.5t23 -33.5t8 -41t-8 -41t-23 -33.5t-35 -22.5t-44 -8zM265 586
q21 0 34.5 13.5t13.5 35.5t-13.5 35.5t-34.5 13.5t-34.5 -13.5t-13.5 -35.5t13.5 -35.5t34.5 -13.5z" />
    <glyph glyph-name="AEacute" unicode="&#x1fc;" horiz-adv-x="930" 
d="M400 700h485v-86h-341v-211h281v-86h-281v-231h341v-86h-435v192h-231l-105 -192h-104zM450 278v334l-184 -334h184zM708 910h108l-128 -150h-92z" />
    <glyph glyph-name="aeacute" unicode="&#x1fd;" horiz-adv-x="855" 
d="M212 -8q-88 0 -130 39.5t-42 108.5q0 37 12 66t38.5 49.5t68.5 31.5t103 11h102v42q0 42 -24.5 65t-77.5 23q-52 0 -75 -19t-27 -49h-100q2 32 15 59t37.5 47t62 31t87.5 11q58 0 98 -21t60 -59q29 38 71 59t94 21q50 0 91.5 -16.5t71 -47.5t46 -75.5t16.5 -99.5v-47
h-356q2 -74 38 -111t93 -37q30 0 50.5 5.5t35.5 15t24.5 23.5t17.5 32h92q-15 -70 -67 -114t-153 -44q-61 0 -108.5 27.5t-74.5 78.5q-28 -50 -78 -78t-112 -28zM212 72q33 0 60.5 11t48 29.5t32 43.5t11.5 54v12h-102q-37 0 -61.5 -5.5t-39.5 -16t-21 -25t-6 -33.5
q0 -32 20 -51t58 -19zM585 426q-54 0 -88.5 -31.5t-41.5 -96.5h259q-6 66 -39 97t-90 31zM496 710h104l-130 -150h-90z" />
    <glyph glyph-name="Oslashacute" unicode="&#x1fe;" horiz-adv-x="710" 
d="M55 34l60 73q-29 42 -44.5 95t-15.5 119v58q0 77 22 138t62 103.5t95 65t121 22.5q117 0 194 -66l54 66l52 -42l-60 -74q29 -41 44.5 -94t15.5 -119v-58q0 -77 -22 -138t-62 -103.5t-95 -65t-121 -22.5q-118 0 -195 65l-53 -65zM153 321q0 -40 7 -73t20 -60l308 379
q-53 51 -133 51q-44 0 -81 -15.5t-64 -45.5t-42 -75t-15 -103v-58zM355 82q44 0 81 15.5t63.5 45.5t41.5 74.5t15 103.5v58q0 39 -7 72t-20 60l-308 -379q53 -50 134 -50zM421 910h108l-128 -150h-92z" />
    <glyph glyph-name="oslashacute" unicode="&#x1ff;" horiz-adv-x="550" 
d="M45 33l41 48q-41 59 -41 150v38q0 56 16 100.5t46 75t72.5 47t95.5 16.5q44 0 80 -11.5t65 -32.5l38 44l47 -42l-42 -48q20 -29 31 -66.5t11 -82.5v-38q0 -56 -16.5 -100.5t-46.5 -75t-72.5 -47t-94.5 -16.5q-87 0 -145 43l-38 -43zM139 231q0 -45 13 -75l208 239
q-33 27 -85 27q-63 0 -99.5 -39t-36.5 -114v-38zM275 78q63 0 99.5 39t36.5 114v38q0 44 -13 74l-208 -239q34 -26 85 -26zM346 710h104l-130 -150h-90z" />
    <glyph glyph-name="Scommaaccent" unicode="&#x218;" horiz-adv-x="610" 
d="M305 -8q-124 0 -185.5 57.5t-69.5 175.5h100q7 -77 43 -110t112 -33q81 0 119 32t38 78q0 33 -17.5 53.5t-45.5 35t-64 24t-74 20t-74 24t-64 35.5t-45.5 54t-17.5 80q0 40 15.5 75t46 60.5t76.5 40t107 14.5q121 0 179 -54t66 -159h-100q-8 64 -40 93.5t-105 29.5
q-77 0 -112 -29t-35 -71q0 -31 17.5 -50.5t45.5 -33t64 -22.5t74 -19.5t74 -24.5t64 -37t45.5 -56.5t17.5 -83.5q0 -44 -15.5 -80.5t-47 -63t-79.5 -41t-113 -14.5zM253 -50h104l-96 -150h-74z" />
    <glyph glyph-name="scommaaccent" unicode="&#x219;" horiz-adv-x="490" 
d="M245 -8q-97 0 -144.5 43t-55.5 120h94q4 -22 10.5 -38t18.5 -26t31 -14.5t46 -4.5q61 0 83.5 17.5t22.5 50.5q0 30 -22 45.5t-55 24.5t-71 16.5t-71 22.5t-55 41.5t-22 74.5q0 31 11.5 57t35 45t59.5 30t84 11q90 0 136 -41.5t54 -111.5h-94q-8 37 -28 55t-68 18
q-54 0 -75 -17t-21 -46q0 -27 22 -39.5t55 -20.5t71 -15.5t71 -23.5t55 -45.5t22 -80.5q0 -65 -48 -106.5t-152 -41.5zM195 -50h100l-100 -150h-70z" />
    <glyph glyph-name="Tcommaaccent" unicode="&#x21a;" horiz-adv-x="580" 
d="M20 700h540v-86h-223v-614h-94v614h-223v86zM238 -50h104l-96 -150h-74z" />
    <glyph glyph-name="tcommaaccent" unicode="&#x21b;" horiz-adv-x="360" 
d="M15 500h90v140h90v-140h130v-82h-130v-261q0 -75 70 -75h70v-82h-83q-71 0 -109 38t-38 109v271h-90v82zM180 -50h100l-100 -150h-70z" />
    <glyph glyph-name="uni0237" unicode="&#x237;" horiz-adv-x="256" 
d="M-27 -118h33q40 0 58.5 23t18.5 80v515h90v-515q0 -50 -10 -85.5t-30 -57.5t-52 -32t-75 -10h-33v82z" />
    <glyph glyph-name="uni0259" unicode="&#x259;" horiz-adv-x="540" 
d="M270 -8q-50 0 -91.5 16.5t-71 47.5t-46 75.5t-16.5 99.5v48h356q-3 72 -39 109.5t-92 37.5q-29 0 -49.5 -5.5t-35 -15.5t-24.5 -22.5t-17 -27.5h-94q7 32 24 60t44 48.5t64.5 32.5t87.5 12t91.5 -16.5t71 -47.5t46 -75.5t16.5 -99.5v-38q0 -55 -16.5 -99t-46.5 -75
t-71.5 -48t-90.5 -17zM270 74q54 0 88 31.5t41 95.5h-259q7 -66 40 -96.5t90 -30.5z" />
    <glyph glyph-name="uni027C" unicode="&#x27c;" horiz-adv-x="370" 
d="M75 500h70l9 -68q26 37 66 56.5t90 19.5h50v-86h-50q-69 0 -106 -34t-39 -88v-500h-90v700z" />
    <glyph glyph-name="afii57929" unicode="&#x2bc;" horiz-adv-x="190" 
d="M77 700h98l-78 -250h-82z" />
    <glyph glyph-name="circumflex" unicode="&#x2c6;" horiz-adv-x="360" 
d="M180 647l-77 -87h-88l116 150h98l116 -150h-88z" />
    <glyph glyph-name="caron" unicode="&#x2c7;" horiz-adv-x="360" 
d="M15 710h88l77 -88l77 88h88l-116 -150h-98z" />
    <glyph glyph-name="breve" unicode="&#x2d8;" horiz-adv-x="300" 
d="M150 562q-66 0 -103 36.5t-37 101.5h72q0 -33 18 -51.5t50 -18.5q33 0 51.5 18.5t18.5 51.5h70q0 -65 -37 -101.5t-103 -36.5z" />
    <glyph glyph-name="dotaccent" unicode="&#x2d9;" horiz-adv-x="160" 
d="M80 576q-26 0 -43 17t-17 43t17 43t43 17t43 -17t17 -43t-17 -43t-43 -17z" />
    <glyph glyph-name="ring" unicode="&#x2da;" horiz-adv-x="240" 
d="M120 530q-24 0 -44 8t-35 22.5t-23 33.5t-8 41t8 41t23 33.5t35 22.5t44 8t44 -8t35 -22.5t23 -33.5t8 -41t-8 -41t-23 -33.5t-35 -22.5t-44 -8zM120 586q21 0 34.5 13.5t13.5 35.5t-13.5 35.5t-34.5 13.5t-34.5 -13.5t-13.5 -35.5t13.5 -35.5t34.5 -13.5z" />
    <glyph glyph-name="ogonek" unicode="&#x2db;" horiz-adv-x="180" 
d="M115 -200q-55 0 -80 22t-25 58q0 17 3.5 33.5t15.5 35.5t34.5 42.5t60.5 54.5l46 -46q-28 -23 -44.5 -39.5t-24.5 -28.5t-10.5 -21t-2.5 -16q0 -13 9 -21t28 -8h45v-66h-55z" />
    <glyph glyph-name="tilde" unicode="&#x2dc;" horiz-adv-x="340" 
d="M235 565q-26 0 -44.5 10.5t-33 22.5t-27 22.5t-25.5 10.5q-14 0 -23 -11.5t-9 -39.5h-63q0 65 26.5 95t68.5 30q26 0 44.5 -10.5t33 -22.5t26.5 -22.5t26 -10.5t23 11.5t9 39.5h63q0 -65 -26.5 -95t-68.5 -30z" />
    <glyph glyph-name="hungarumlaut" unicode="&#x2dd;" horiz-adv-x="390" 
d="M117 710h98l-116 -150h-84zM271 710h104l-130 -150h-90z" />
    <glyph glyph-name="acutecomb" unicode="&#x301;" horiz-adv-x="0" 
d="M-203 710h104l-130 -150h-90z" />
    <glyph glyph-name="uni039E" unicode="&#x39e;" horiz-adv-x="510" 
d="M35 86h440v-86h-440v86zM115 403h280v-86h-280v86zM35 700h440v-86h-440v86z" />
    <glyph glyph-name="pi" unicode="&#x3c0;" horiz-adv-x="620" 
d="M566 0q-72 0 -109 37.5t-37 107.5v273h-220v-418h-90v418h-90v82h580v-82h-90v-261q0 -75 70 -75h30v-82h-44v0z" />
    <glyph glyph-name="uni0400" unicode="&#x400;" horiz-adv-x="560" 
d="M80 700h435v-86h-341v-211h281v-86h-281v-231h341v-86h-435v700zM123 910h108l112 -150h-92z" />
    <glyph glyph-name="afii10023" unicode="&#x401;" horiz-adv-x="560" 
d="M80 700h435v-86h-341v-211h281v-86h-281v-231h341v-86h-435v700zM192 775q-26 0 -43 17t-17 43t17 43t43 17t43 -17t17 -43t-17 -43t-43 -17zM402 775q-26 0 -43 17t-17 43t17 43t43 17t43 -17t17 -43t-17 -43t-43 -17z" />
    <glyph glyph-name="afii10051" unicode="&#x402;" horiz-adv-x="740" 
d="M20 700h540v-86h-223v-192h123q126 0 188 -57t62 -154t-62 -154t-188 -57h-50v86h50q78 0 115 33.5t37 91.5t-37 91.5t-115 33.5h-123v-336h-94v614h-223v86z" />
    <glyph glyph-name="afii10052" unicode="&#x403;" horiz-adv-x="515" 
d="M80 700h415v-86h-321v-614h-94v700zM353 910h108l-128 -150h-92z" />
    <glyph glyph-name="afii10053" unicode="&#x404;" horiz-adv-x="670" 
d="M350 -8q-65 0 -119 22.5t-93 65.5t-61 105t-22 141v58q0 75 22 135t61 102t93 64.5t119 22.5q58 0 105 -17.5t82.5 -47t57.5 -68t30 -80.5h-102q-8 24 -22.5 46t-36.5 39t-50.5 27.5t-63.5 10.5q-86 0 -140 -55.5t-57 -164.5h282v-86h-282q3 -116 57 -173t140 -57
q70 0 114 40t59 103h102q-8 -49 -30 -91.5t-57.5 -74t-83 -49.5t-104.5 -18z" />
    <glyph glyph-name="afii10054" unicode="&#x405;" horiz-adv-x="610" 
d="M305 -8q-124 0 -185.5 57.5t-69.5 175.5h100q7 -77 43 -110t112 -33q81 0 119 32t38 78q0 33 -17.5 53.5t-45.5 35t-64 24t-74 20t-74 24t-64 35.5t-45.5 54t-17.5 80q0 40 15.5 75t46 60.5t76.5 40t107 14.5q121 0 179 -54t66 -159h-100q-8 64 -40 93.5t-105 29.5
q-77 0 -112 -29t-35 -71q0 -31 17.5 -50.5t45.5 -33t64 -22.5t74 -19.5t74 -24.5t64 -37t45.5 -56.5t17.5 -83.5q0 -44 -15.5 -80.5t-47 -63t-79.5 -41t-113 -14.5z" />
    <glyph glyph-name="afii10055" unicode="&#x406;" horiz-adv-x="270" 
d="M88 700h94v-700h-94v700z" />
    <glyph glyph-name="afii10056" unicode="&#x407;" horiz-adv-x="270" 
d="M88 700h94v-700h-94v700zM31 775q-26 0 -43 17t-17 43t17 43t43 17t43 -17t17 -43t-17 -43t-43 -17zM241 775q-26 0 -43 17t-17 43t17 43t43 17t43 -17t17 -43t-17 -43t-43 -17z" />
    <glyph glyph-name="afii10057" unicode="&#x408;" horiz-adv-x="535" 
d="M240 -8q-99 0 -155.5 62t-64.5 171h94q4 -69 36 -106t90 -37t92 39.5t34 128.5v450h94v-450q0 -65 -15.5 -113t-44 -80.5t-69.5 -48.5t-91 -16z" />
    <glyph glyph-name="afii10058" unicode="&#x409;" horiz-adv-x="1020" 
d="M15 82h21q24 0 43 10t32.5 39t21 80.5t7.5 134.5v354h457v-252h133q132 0 196 -59.5t64 -165.5q0 -107 -62.5 -165t-197.5 -58h-227v614h-269v-268q0 -107 -12.5 -175.5t-37.5 -108.5t-62 -55t-86 -15h-21v90zM597 362v-276h138q85 0 121.5 34t36.5 103t-37.5 104
t-120.5 35h-138z" />
    <glyph glyph-name="afii10059" unicode="&#x40a;" horiz-adv-x="1030" 
d="M525 337h-351v-337h-94v700h94v-277h351v277h95v-277h130q129 0 189.5 -56t60.5 -156q0 -98 -61 -154.5t-189 -56.5h-225v337zM620 337v-251h135q77 0 113 32.5t36 92.5q0 59 -37 92.5t-112 33.5h-135z" />
    <glyph glyph-name="afii10060" unicode="&#x40b;" horiz-adv-x="775" 
d="M20 700h540v-86h-223v-230q53 74 162 74q100 0 153 -58.5t53 -189.5v-210h-94v210q0 86 -33 122t-99 36q-65 0 -102.5 -38t-39.5 -113v-217h-94v614h-223v86z" />
    <glyph glyph-name="afii10061" unicode="&#x40c;" horiz-adv-x="635" 
d="M263 317h-89v-317h-94v700h94v-297h91l211 297h114l-245 -339l265 -361h-118zM396 910h108l-128 -150h-92z" />
    <glyph glyph-name="uni040D" unicode="&#x40d;" horiz-adv-x="710" 
d="M536 593l-52 -103l-276 -490h-128v700h94v-593l52 103l276 490h128v-700h-94v593zM181 910h108l112 -150h-92z" />
    <glyph glyph-name="afii10062" unicode="&#x40e;" horiz-adv-x="610" 
d="M271 197l-251 503h106l195 -400l167 400h102l-303 -700h-102zM307 762q-74 0 -112 36.5t-38 101.5h82q0 -74 68 -74q70 0 70 74h80q0 -65 -38 -101.5t-112 -36.5z" />
    <glyph glyph-name="afii10145" unicode="&#x40f;" horiz-adv-x="700" 
d="M80 700h94v-614h352v614h94v-700h-224v-150h-92v150h-224v700z" />
    <glyph glyph-name="afii10017" unicode="&#x410;" horiz-adv-x="650" 
d="M465 192h-284l-68 -192h-98l255 700h110l255 -700h-102zM212 278h222l-59 168l-51 149l-52 -149z" />
    <glyph glyph-name="afii10018" unicode="&#x411;" horiz-adv-x="610" 
d="M80 700h440v-86h-346v-186h145q125 0 188 -58.5t63 -156.5q0 -100 -61.5 -156.5t-189.5 -56.5h-239v700zM174 342v-256h145q81 0 117.5 33t36.5 94t-37 95t-117 34h-145z" />
    <glyph glyph-name="afii10019" unicode="&#x412;" horiz-adv-x="620" 
d="M80 700h225q131 0 188 -49.5t57 -137.5q0 -48 -22 -86.5t-68 -62.5q57 -23 83.5 -66t26.5 -101q0 -95 -57 -146t-188 -51h-245v700zM174 318v-232h151q81 0 114 29t33 87t-33 87t-114 29h-151zM174 614v-212h131q81 0 114 27.5t33 78.5t-33 78.5t-114 27.5h-131z" />
    <glyph glyph-name="afii10020" unicode="&#x413;" horiz-adv-x="515" 
d="M80 700h415v-86h-321v-614h-94v700z" />
    <glyph glyph-name="afii10021" unicode="&#x414;" horiz-adv-x="690" 
d="M576 0h-467v-150h-94v236h59q22 28 36 58.5t22 73.5t10.5 103.5t2.5 148.5v230h455v-614h70v-236h-94v150zM239 470q0 -76 -2 -134t-8 -104t-17.5 -81t-30.5 -65h325v528h-267v-144z" />
    <glyph glyph-name="afii10022" unicode="&#x415;" horiz-adv-x="560" 
d="M80 700h435v-86h-341v-211h281v-86h-281v-231h341v-86h-435v700z" />
    <glyph glyph-name="afii10024" unicode="&#x416;" horiz-adv-x="920" 
d="M597 316h-90v-316h-94v316h-90l-186 -316h-112l215 357l-195 343h112l166 -298h90v298h94v-298h90l168 298h110l-194 -338l214 -362h-114z" />
    <glyph glyph-name="afii10025" unicode="&#x417;" horiz-adv-x="595" 
d="M300 -8q-121 0 -184 60.5t-71 172.5h98q8 -72 45 -107.5t112 -35.5t111 32.5t36 85.5q0 52 -36 84.5t-111 32.5h-85v86h85q67 0 99.5 29.5t32.5 78.5q0 48 -32.5 77.5t-99.5 29.5t-100.5 -31.5t-41.5 -91.5h-98q8 100 68 156.5t172 56.5q56 0 99 -14.5t72 -40t44 -60.5
t15 -77q0 -51 -22.5 -91t-67.5 -64q53 -24 79 -67t26 -99q0 -44 -16 -81.5t-46.5 -64.5t-76.5 -42t-106 -15z" />
    <glyph glyph-name="afii10026" unicode="&#x418;" horiz-adv-x="710" 
d="M536 593l-52 -103l-276 -490h-128v700h94v-593l52 103l276 490h128v-700h-94v593z" />
    <glyph glyph-name="afii10027" unicode="&#x419;" horiz-adv-x="710" 
d="M536 593l-52 -103l-276 -490h-128v700h94v-593l52 103l276 490h128v-700h-94v593zM355 762q-74 0 -112 36.5t-38 101.5h82q0 -74 68 -74q70 0 70 74h80q0 -65 -38 -101.5t-112 -36.5z" />
    <glyph glyph-name="afii10028" unicode="&#x41a;" horiz-adv-x="635" 
d="M263 317h-89v-317h-94v700h94v-297h91l211 297h114l-245 -339l265 -361h-118z" />
    <glyph glyph-name="afii10029" unicode="&#x41b;" horiz-adv-x="680" 
d="M15 82h20q23 0 42.5 10t33.5 39t21.5 80t7.5 134v355h460v-700h-94v614h-272v-269q0 -107 -13 -175t-38 -108t-62 -55t-86 -15h-20v90z" />
    <glyph glyph-name="afii10030" unicode="&#x41c;" horiz-adv-x="810" 
d="M218 490l-44 105v-595h-94v700h134l193 -405l191 405h132v-700h-94v596l-45 -106l-139 -295h-94z" />
    <glyph glyph-name="afii10031" unicode="&#x41d;" horiz-adv-x="710" 
d="M536 317h-362v-317h-94v700h94v-297h362v297h94v-700h-94v317z" />
    <glyph glyph-name="afii10032" unicode="&#x41e;" horiz-adv-x="710" 
d="M355 -8q-67 0 -122 22.5t-94.5 64.5t-61.5 103t-22 139v58q0 77 22 138t62 103.5t95 65t121 22.5q67 0 122 -22.5t94.5 -64.5t61.5 -103t22 -139v-58q0 -77 -22 -138t-62 -103.5t-95 -65t-121 -22.5zM355 82q44 0 81 15.5t64 45.5t42 74.5t15 103.5v58q0 58 -15 102.5
t-42 75t-64 46t-81 15.5t-81 -15.5t-64 -45.5t-42 -75t-15 -103v-58q0 -58 15 -102.5t42 -75t64 -46t81 -15.5z" />
    <glyph glyph-name="afii10033" unicode="&#x41f;" horiz-adv-x="700" 
d="M526 614h-352v-614h-94v700h540v-700h-94v614z" />
    <glyph glyph-name="afii10034" unicode="&#x420;" horiz-adv-x="600" 
d="M80 700h230q135 0 197.5 -58t62.5 -166q0 -105 -64 -164.5t-196 -59.5h-136v-252h-94v700zM174 614v-276h136q87 0 125 35t38 103q0 69 -37.5 103.5t-125.5 34.5h-136z" />
    <glyph glyph-name="afii10035" unicode="&#x421;" horiz-adv-x="670" 
d="M350 -8q-65 0 -119 22.5t-93 64.5t-61 103t-22 139v58q0 77 22 138t61 103.5t93 65t119 22.5q58 0 105 -17.5t82.5 -47t57.5 -68t30 -80.5h-102q-8 24 -22.5 46t-36.5 39t-50.5 27.5t-63.5 10.5q-42 0 -78.5 -15.5t-62.5 -46t-41 -75t-15 -102.5v-58q0 -58 15 -102.5
t41.5 -75t62.5 -46t78 -15.5q70 0 114 40t59 103h102q-8 -49 -30 -91.5t-57.5 -74t-83 -49.5t-104.5 -18z" />
    <glyph glyph-name="afii10036" unicode="&#x422;" horiz-adv-x="580" 
d="M20 700h540v-86h-223v-614h-94v614h-223v86z" />
    <glyph glyph-name="afii10037" unicode="&#x423;" horiz-adv-x="610" 
d="M271 197l-251 503h106l195 -400l167 400h102l-303 -700h-102z" />
    <glyph glyph-name="afii10038" unicode="&#x424;" horiz-adv-x="840" 
d="M795 331q0 -63 -21.5 -116t-63 -90.5t-101.5 -58.5t-137 -21h-5v-53h-94v53h-6q-78 0 -138 21t-101 58.5t-62 90t-21 116.5v38q0 63 21.5 116t62.5 90.5t101 58.5t137 21h6v53h94v-53h5q78 0 138 -21t101.5 -58.5t62.5 -90.5t21 -116v-38zM143 331q0 -90 56.5 -143
t167.5 -53h6v430h-6q-111 0 -167.5 -53t-56.5 -143v-38zM467 565v-430h5q112 0 168.5 53t56.5 143v38q0 90 -56.5 143t-168.5 53h-5z" />
    <glyph glyph-name="afii10039" unicode="&#x425;" horiz-adv-x="650" 
d="M324 286l-185 -286h-114l239 363l-219 337h113l168 -257l167 257h112l-219 -333l239 -367h-116z" />
    <glyph glyph-name="afii10040" unicode="&#x426;" horiz-adv-x="720" 
d="M80 700h94v-614h352v614h94v-614h80v-236h-94v150h-526v700z" />
    <glyph glyph-name="afii10041" unicode="&#x427;" horiz-adv-x="630" 
d="M456 268q-29 -8 -69.5 -14.5t-86.5 -6.5q-66 0 -113.5 14t-78 45t-44.5 78.5t-14 115.5v200h94v-200q0 -91 36.5 -129t119.5 -38q45 0 86 6.5t70 14.5v346h94v-700h-94v268z" />
    <glyph glyph-name="afii10042" unicode="&#x428;" horiz-adv-x="940" 
d="M80 700h94v-614h249v614h94v-614h249v614h94v-700h-780v700z" />
    <glyph glyph-name="afii10043" unicode="&#x429;" horiz-adv-x="960" 
d="M80 700h94v-614h249v614h94v-614h249v614h94v-614h80v-236h-94v150h-766v700z" />
    <glyph glyph-name="afii10044" unicode="&#x42a;" horiz-adv-x="715" 
d="M20 700h269v-252h136q132 0 196 -59.5t64 -165.5q0 -107 -62.5 -165t-197.5 -58h-230v614h-175v86zM289 362v-276h141q85 0 121.5 34t36.5 103t-37.5 104t-120.5 35h-141z" />
    <glyph glyph-name="afii10045" unicode="&#x42b;" horiz-adv-x="830" 
d="M80 700h94v-252h125q132 0 196.5 -60t64.5 -165q0 -107 -63 -165t-198 -58h-219v700zM174 362v-276h125q89 0 126.5 34t37.5 103q0 68 -38.5 103.5t-125.5 35.5h-125zM656 700h94v-700h-94v700z" />
    <glyph glyph-name="afii10046" unicode="&#x42c;" horiz-adv-x="600" 
d="M80 700h94v-252h136q132 0 196 -59.5t64 -165.5q0 -107 -62.5 -165t-197.5 -58h-230v700zM174 362v-276h141q85 0 121.5 34t36.5 103t-37.5 104t-120.5 35h-141z" />
    <glyph glyph-name="afii10047" unicode="&#x42d;" horiz-adv-x="670" 
d="M235 398h282q-4 109 -58 164.5t-139 55.5q-35 0 -64 -10.5t-50.5 -27.5t-36.5 -39t-22 -46h-102q7 42 29.5 80.5t57.5 68t82.5 47t105.5 17.5q64 0 118.5 -22.5t93.5 -64.5t61 -102t22 -135v-58q0 -79 -22 -141t-61 -105t-93.5 -65.5t-118.5 -22.5q-57 0 -104.5 18
t-83 49.5t-58 74t-29.5 91.5h102q15 -63 59 -103t114 -40q85 0 139 56.5t58 173.5h-282v86z" />
    <glyph glyph-name="afii10048" unicode="&#x42e;" horiz-adv-x="905" 
d="M568 -8q-63 0 -114 20.5t-88 61t-58 101.5t-22 142h-112v-317h-94v700h94v-297h112q2 73 23 130t58 96t88 59t113 20q63 0 115 -21t89 -61.5t57.5 -100t20.5 -136.5v-58q0 -84 -20.5 -147.5t-57.5 -106t-89 -64t-115 -21.5zM568 82q40 0 74 14.5t58.5 45t38 77.5
t13.5 112v58q0 57 -13.5 100t-38 71.5t-58.5 43t-74 14.5q-81 0 -132.5 -57t-51.5 -172v-58q0 -65 13.5 -111.5t38 -77.5t58.5 -45.5t74 -14.5z" />
    <glyph glyph-name="afii10049" unicode="&#x42f;" horiz-adv-x="620" 
d="M190 290q-72 23 -106 74t-34 123q0 99 63 156t197 57h230v-700h-94v274h-136h-15t-15 1l-146 -275h-104zM148 487q0 -60 38 -93.5t124 -33.5h136v254h-136q-86 0 -124 -33.5t-38 -93.5z" />
    <glyph glyph-name="afii10065" unicode="&#x430;" horiz-adv-x="520" 
d="M200 -8q-78 0 -119 39.5t-41 108.5q0 38 12 68.5t38.5 51.5t68 32t101.5 11h100v37q0 42 -24.5 65t-75.5 23t-73.5 -19t-26.5 -49h-100q4 64 52.5 106t147.5 42q94 0 142 -45t48 -123v-340h-70l-11 82q-27 -43 -70.5 -66.5t-98.5 -23.5zM210 72q33 0 60.5 11t47.5 29.5
t31 43.5t11 53v18h-100q-69 0 -97.5 -23.5t-28.5 -61.5q0 -32 20 -51t56 -19z" />
    <glyph glyph-name="afii10066" unicode="&#x431;" horiz-adv-x="550" 
d="M275 -8q-107 0 -168.5 68t-61.5 211v58q0 52 5.5 100.5t19.5 90.5t37.5 75t59.5 54q32 19 63.5 25t66.5 8.5t75.5 6.5t91.5 19v-81q-38 -14 -73.5 -17.5t-68.5 -5.5t-62 -6.5t-53 -19.5q-32 -21 -49.5 -56t-25.5 -93q28 35 68 52t90 17q48 0 87.5 -16t68 -46t44 -73.5
t15.5 -98.5v-38q0 -54 -16.5 -97.5t-46.5 -73.5t-72.5 -46.5t-94.5 -16.5zM275 412q-61 0 -97.5 -35.5t-38.5 -101.5v-45q0 -74 37.5 -113t98.5 -39q63 0 99.5 38t36.5 110v38q0 71 -37 109.5t-99 38.5z" />
    <glyph glyph-name="afii10067" unicode="&#x432;" horiz-adv-x="520" 
d="M75 500h190q101 0 145.5 -38t44.5 -101q0 -31 -15 -57t-47 -44q42 -17 62 -47.5t20 -67.5q0 -68 -44.5 -106.5t-145.5 -38.5h-210v500zM165 216v-134h120q54 0 75 17.5t21 50.5q0 32 -21 49t-75 17h-120zM165 418v-124h100q55 0 75.5 16.5t20.5 45.5t-20.5 45.5
t-75.5 16.5h-100z" />
    <glyph glyph-name="afii10068" unicode="&#x433;" horiz-adv-x="430" 
d="M75 500h335v-82h-245v-418h-90v500z" />
    <glyph glyph-name="afii10069" unicode="&#x434;" horiz-adv-x="550" 
d="M445 0h-345v-130h-90v212h54q16 22 26.5 45.5t16.5 54.5t8.5 71.5t2.5 96.5v150h352v-418h65v-212h-90v130zM206 350q0 -60 -3 -103t-9 -74t-14.5 -52.5t-18.5 -38.5h219v336h-174v-68z" />
    <glyph glyph-name="afii10070" unicode="&#x435;" horiz-adv-x="540" 
d="M270 -8q-50 0 -91.5 16.5t-71 47.5t-46 75t-16.5 100v38q0 55 16.5 99t46.5 75t71 48t91 17t91.5 -16.5t71 -47.5t46 -75.5t16.5 -99.5v-48h-356q2 -73 38 -110t93 -37q59 0 86 21t42 60h92q-15 -74 -67 -118.5t-153 -44.5zM270 426q-54 0 -88.5 -31.5t-41.5 -95.5h259
q-6 66 -39 96.5t-90 30.5z" />
    <glyph glyph-name="afii10072" unicode="&#x436;" horiz-adv-x="720" 
d="M475 219h-70v-219h-90v219h-70l-122 -219h-108l150 257l-131 243h108l102 -199h71v199h90v-199h69l105 199h106l-130 -237l150 -263h-110z" />
    <glyph glyph-name="afii10073" unicode="&#x437;" horiz-adv-x="485" 
d="M240 508q94 0 139.5 -40t45.5 -103q0 -36 -16 -64.5t-48 -45.5q41 -18 60 -47.5t19 -67.5q0 -65 -48.5 -106.5t-151.5 -41.5q-104 0 -153 43.5t-57 119.5h92q7 -38 33 -58.5t85 -20.5q60 0 84 19.5t24 49.5q0 32 -24 50.5t-84 18.5h-55v82h55q51 0 72 17t21 47
q0 29 -21 46.5t-72 17.5t-73 -18.5t-30 -50.5h-92q8 70 54.5 111.5t140.5 41.5z" />
    <glyph glyph-name="afii10074" unicode="&#x438;" horiz-adv-x="580" 
d="M415 393l-55 -103l-169 -290h-116v500h90v-393l55 103l169 290h116v-500h-90v393z" />
    <glyph glyph-name="afii10075" unicode="&#x439;" horiz-adv-x="580" 
d="M415 393l-55 -103l-169 -290h-116v500h90v-393l55 103l169 290h116v-500h-90v393zM290 562q-66 0 -103 36.5t-37 101.5h78q0 -39 16.5 -57.5t45.5 -18.5q30 0 47 18.5t17 57.5h76q0 -65 -37 -101.5t-103 -36.5z" />
    <glyph glyph-name="afii10076" unicode="&#x43a;" horiz-adv-x="510" 
d="M234 219h-69v-219h-90v500h90v-199h70l134 199h106l-166 -238l186 -262h-110z" />
    <glyph glyph-name="afii10077" unicode="&#x43b;" horiz-adv-x="545" 
d="M15 78h15q16 0 30.5 8t25.5 28t17.5 54t6.5 86v246h360v-500h-90v418h-180v-164q0 -74 -12 -124t-34 -81t-53.5 -44t-70.5 -13h-15v86z" />
    <glyph glyph-name="afii10078" unicode="&#x43c;" horiz-adv-x="680" 
d="M214 290l-49 108v-398h-90v500h132l135 -284l135 284h128v-500h-90v399l-50 -109l-80 -170h-90z" />
    <glyph glyph-name="afii10079" unicode="&#x43d;" horiz-adv-x="580" 
d="M415 214h-250v-214h-90v500h90v-204h250v204h90v-500h-90v214z" />
    <glyph glyph-name="afii10080" unicode="&#x43e;" horiz-adv-x="550" 
d="M275 -8q-53 0 -95.5 16.5t-72.5 47t-46 75t-16 100.5v38q0 55 16.5 99.5t46.5 75.5t72.5 47.5t94.5 16.5t94.5 -16.5t72.5 -47t46.5 -75t16.5 -100.5v-38q0 -56 -16.5 -100t-46.5 -75t-72.5 -47.5t-94.5 -16.5zM275 78q63 0 99.5 38.5t36.5 114.5v38q0 75 -36.5 114
t-99.5 39t-99.5 -38.5t-36.5 -114.5v-38q0 -75 36.5 -114t99.5 -39z" />
    <glyph glyph-name="afii10081" unicode="&#x43f;" horiz-adv-x="560" 
d="M395 418h-230v-418h-90v500h410v-500h-90v418z" />
    <glyph glyph-name="afii10082" unicode="&#x440;" horiz-adv-x="560" 
d="M317 -8q-99 0 -152 65v-257h-90v700h70l9 -72q26 40 68 60t96 20q42 0 78.5 -15.5t62.5 -46t41 -75t15 -102.5v-38q0 -58 -15 -102.5t-41.5 -75t-63 -46t-78.5 -15.5zM293 78q60 0 94 37t34 116v38q0 78 -34 115.5t-94 37.5q-54 0 -90 -37t-38 -109v-45q0 -74 36 -113.5
t92 -39.5z" />
    <glyph glyph-name="afii10083" unicode="&#x441;" horiz-adv-x="505" 
d="M270 -8q-104 0 -164.5 62t-60.5 177v38q0 57 16 101t45 75t71 47t93 16q44 0 78.5 -12t60 -32.5t42 -48.5t24.5 -60h-96q-11 26 -37.5 46.5t-76.5 20.5q-57 0 -91.5 -38t-34.5 -115v-38q0 -76 35 -114.5t91 -38.5q51 0 77 21t37 56h96q-15 -72 -66 -117.5t-139 -45.5z
" />
    <glyph glyph-name="afii10084" unicode="&#x442;" horiz-adv-x="450" 
d="M20 500h410v-82h-160v-418h-90v418h-160v82z" />
    <glyph glyph-name="afii10085" unicode="&#x443;" horiz-adv-x="520" 
d="M217 0l-202 500h98l152 -387l144 387h96l-269 -700h-96z" />
    <glyph glyph-name="afii10086" unicode="&#x444;" horiz-adv-x="700" 
d="M270 -8q-51 0 -92.5 16.5t-71 47t-45.5 75t-16 100.5v38q0 55 16.5 99.5t46 75.5t71 47.5t91.5 16.5h35v192h90v-192h35q51 0 92.5 -16.5t71 -47t45.5 -75t16 -100.5v-38q0 -56 -16.5 -100t-46 -75t-71 -47.5t-91.5 -16.5h-35v-192h-90v192h-35zM139 231
q0 -76 35.5 -114.5t95.5 -38.5h35v344h-35q-60 0 -95.5 -38t-35.5 -115v-38zM395 422v-344h35q60 0 95.5 38t35.5 115v38q0 76 -35.5 114.5t-95.5 38.5h-35z" />
    <glyph glyph-name="afii10087" unicode="&#x445;" horiz-adv-x="500" 
d="M250 191l-133 -191h-102l179 256l-169 244h102l123 -181l125 181h100l-169 -245l179 -255h-104z" />
    <glyph glyph-name="afii10088" unicode="&#x446;" horiz-adv-x="565" 
d="M75 500h90v-418h225v418h90v-418h70v-212h-90v130h-385v500z" />
    <glyph glyph-name="afii10089" unicode="&#x447;" horiz-adv-x="520" 
d="M355 171q-22 -5 -49.5 -8.5t-60.5 -3.5q-106 0 -153 46t-47 145v150h90v-150q0 -31 5.5 -52t18.5 -33.5t34 -18t52 -5.5q32 0 60.5 3.5t49.5 8.5v247h90v-500h-90v171z" />
    <glyph glyph-name="afii10090" unicode="&#x448;" horiz-adv-x="760" 
d="M75 500h90v-418h170v418h90v-418h170v418h90v-500h-610v500z" />
    <glyph glyph-name="afii10091" unicode="&#x449;" horiz-adv-x="770" 
d="M75 500h90v-418h170v418h90v-418h170v418h90v-418h70v-212h-90v130h-590v500z" />
    <glyph glyph-name="afii10092" unicode="&#x44a;" horiz-adv-x="575" 
d="M10 500h230v-160h95q113 0 164 -45.5t51 -124.5q0 -80 -51 -125t-164 -45h-185v419h-140v81zM240 258v-176h100q66 0 92 22.5t26 65.5t-26 65.5t-92 22.5h-100z" />
    <glyph glyph-name="afii10093" unicode="&#x44b;" horiz-adv-x="710" 
d="M75 500h90v-160h95q113 0 164 -45.5t51 -124.5q0 -80 -51 -125t-164 -45h-185v500zM545 500h90v-500h-90v500zM165 258v-176h100q66 0 92 22.5t26 65.5t-26 65.5t-92 22.5h-100z" />
    <glyph glyph-name="afii10094" unicode="&#x44c;" horiz-adv-x="500" 
d="M75 500h90v-160h95q113 0 164 -45.5t51 -124.5q0 -80 -51 -125t-164 -45h-185v500zM165 258v-176h100q66 0 92 22.5t26 65.5t-26 65.5t-92 22.5h-100z" />
    <glyph glyph-name="afii10095" unicode="&#x44d;" horiz-adv-x="505" 
d="M180 296h185q-6 62 -40.5 94t-89.5 32q-45 0 -71.5 -20t-37.5 -47h-96q7 32 24 60t42.5 48.5t60 32.5t78.5 12q51 0 93 -16t71 -46t45 -73.5t16 -98.5v-38q0 -118 -61 -181t-164 -63q-88 0 -139 45.5t-66 117.5h96q11 -35 36 -56t73 -21q56 0 90.5 33.5t39.5 102.5h-185
v82z" />
    <glyph glyph-name="afii10096" unicode="&#x44e;" horiz-adv-x="740" 
d="M476 -8q-95 0 -153.5 57t-63.5 165h-94v-214h-90v500h90v-204h95q8 102 66 157t150 55q100 0 159.5 -62t59.5 -177v-38q0 -57 -15.5 -101.5t-44.5 -75t-69.5 -46.5t-89.5 -16zM476 78q56 0 90.5 38t34.5 115v38q0 76 -35 114.5t-90 38.5q-54 0 -88.5 -38t-34.5 -115v-38
q0 -76 34.5 -114.5t88.5 -38.5z" />
    <glyph glyph-name="afii10097" unicode="&#x44f;" horiz-adv-x="510" 
d="M45 336q0 79 49 121.5t166 42.5h175v-500h-90v174h-85h-21.5t-20.5 1l-93 -175h-100l108 193q-48 20 -68 56t-20 87zM139 336q0 -39 25.5 -59.5t95.5 -20.5h85v162h-85q-70 0 -95.5 -20.5t-25.5 -61.5z" />
    <glyph glyph-name="uni0450" unicode="&#x450;" horiz-adv-x="540" 
d="M270 -8q-50 0 -91.5 16.5t-71 47.5t-46 75t-16.5 100v38q0 55 16.5 99t46.5 75t71 48t91 17t91.5 -16.5t71 -47.5t46 -75.5t16.5 -99.5v-48h-356q2 -73 38 -110t93 -37q59 0 86 21t42 60h92q-15 -74 -67 -118.5t-153 -44.5zM270 426q-54 0 -88.5 -31.5t-41.5 -95.5h259
q-6 66 -39 96.5t-90 30.5zM95 710h104l116 -150h-90z" />
    <glyph glyph-name="afii10071" unicode="&#x451;" horiz-adv-x="540" 
d="M270 -8q-50 0 -91.5 16.5t-71 47.5t-46 75t-16.5 100v38q0 55 16.5 99t46.5 75t71 48t91 17t91.5 -16.5t71 -47.5t46 -75.5t16.5 -99.5v-48h-356q2 -73 38 -110t93 -37q59 0 86 21t42 60h92q-15 -74 -67 -118.5t-153 -44.5zM270 426q-54 0 -88.5 -31.5t-41.5 -95.5h259
q-6 66 -39 96.5t-90 30.5zM175 575q-26 0 -43 17t-17 43t17 43t43 17t43 -17t17 -43t-17 -43t-43 -17zM365 575q-26 0 -43 17t-17 43t17 43t43 17t43 -17t17 -43t-17 -43t-43 -17z" />
    <glyph glyph-name="afii10099" unicode="&#x452;" horiz-adv-x="575" 
d="M305 -118h33q40 0 58.5 23t18.5 80v280q0 64 -30 95.5t-85 31.5q-63 0 -99 -35.5t-36 -91.5v-265h-90v524h-85v72h85v104h90v-104h160v-72h-160v-113q25 32 63 49.5t87 17.5q87 0 138.5 -54.5t51.5 -158.5v-280q0 -50 -10 -85.5t-30 -57.5t-52 -32t-75 -10h-33v82z" />
    <glyph glyph-name="afii10100" unicode="&#x453;" horiz-adv-x="430" 
d="M75 500h335v-82h-245v-418h-90v500zM313 710h104l-130 -150h-90z" />
    <glyph glyph-name="afii10101" unicode="&#x454;" horiz-adv-x="505" 
d="M270 -8q-103 0 -164 63t-61 181v38q0 55 16 98.5t45 73.5t70.5 46t92.5 16q44 0 79 -12t60.5 -32.5t42 -48.5t24.5 -60h-96q-11 27 -36 47t-73 20q-56 0 -90.5 -32t-39.5 -94h185v-82h-185q5 -69 39 -102.5t91 -33.5q48 0 73 21t36 56h96q-15 -72 -66 -117.5t-139 -45.5z
" />
    <glyph glyph-name="afii10102" unicode="&#x455;" horiz-adv-x="490" 
d="M245 -8q-97 0 -144.5 43t-55.5 120h94q4 -22 10.5 -38t18.5 -26t31 -14.5t46 -4.5q61 0 83.5 17.5t22.5 50.5q0 30 -22 45.5t-55 24.5t-71 16.5t-71 22.5t-55 41.5t-22 74.5q0 31 11.5 57t35 45t59.5 30t84 11q90 0 136 -41.5t54 -111.5h-94q-8 37 -28 55t-68 18
q-54 0 -75 -17t-21 -46q0 -27 22 -39.5t55 -20.5t71 -15.5t71 -23.5t55 -45.5t22 -80.5q0 -65 -48 -106.5t-152 -41.5z" />
    <glyph glyph-name="afii10103" unicode="&#x456;" horiz-adv-x="256" 
d="M83 500h90v-500h-90v500zM128 576q-26 0 -43 17t-17 43t17 43t43 17t43 -17t17 -43t-17 -43t-43 -17z" />
    <glyph glyph-name="afii10104" unicode="&#x457;" horiz-adv-x="256" 
d="M83 500h90v-500h-90v500zM34 575q-26 0 -43 17t-17 43t17 43t43 17t43 -17t17 -43t-17 -43t-43 -17zM224 575q-26 0 -43 17t-17 43t17 43t43 17t43 -17t17 -43t-17 -43t-43 -17z" />
    <glyph glyph-name="afii10105" unicode="&#x458;" horiz-adv-x="256" 
d="M-27 -118h33q40 0 58.5 23t18.5 80v515h90v-515q0 -50 -10 -85.5t-30 -57.5t-52 -32t-75 -10h-33v82zM128 576q-26 0 -43 17t-17 43t17 43t43 17t43 -17t17 -43t-17 -43t-43 -17z" />
    <glyph glyph-name="afii10106" unicode="&#x459;" horiz-adv-x="800" 
d="M15 78h15q16 0 30.5 8t25.5 28t17.5 54t6.5 87v245h357v-160h93q113 0 164 -45.5t51 -124.5q0 -80 -51 -125t-164 -45h-183v418h-177v-163q0 -74 -12 -124.5t-34 -81.5t-53.5 -44t-70.5 -13h-15v86zM467 258v-176h98q66 0 92 22.5t26 65.5t-26 65.5t-92 22.5h-98z" />
    <glyph glyph-name="afii10107" unicode="&#x45a;" horiz-adv-x="820" 
d="M410 234h-245v-234h-90v500h90v-184h245v184h90v-184h95q105 0 152.5 -42.5t47.5 -115.5t-47.5 -115.5t-152.5 -42.5h-185v234zM500 234v-152h100q57 0 80 19.5t23 56.5t-23 56.5t-80 19.5h-100z" />
    <glyph glyph-name="afii10108" unicode="&#x45b;" horiz-adv-x="575" 
d="M415 265q0 64 -30 95.5t-85 31.5q-61 0 -97 -34t-38 -88v-270h-90v524h-85v72h85v104h90v-104h160v-72h-160v-113q25 32 63 49.5t87 17.5q87 0 138.5 -54.5t51.5 -158.5v-265h-90v265z" />
    <glyph glyph-name="afii10109" unicode="&#x45c;" horiz-adv-x="510" 
d="M234 219h-69v-219h-90v500h90v-199h70l134 199h106l-166 -238l186 -262h-110zM337 710h104l-130 -150h-90z" />
    <glyph glyph-name="uni045D" unicode="&#x45d;" horiz-adv-x="565" 
d="M255 -8q-83 0 -134 54.5t-51 158.5v295h90v-295q0 -64 29.5 -95.5t80.5 -31.5q57 0 92.5 33.5t37.5 87.5v301h90v-500h-70l-9 69q-26 -37 -66 -57t-90 -20zM105 710h104l116 -150h-90z" />
    <glyph glyph-name="afii10110" unicode="&#x45e;" horiz-adv-x="520" 
d="M217 0l-202 500h98l152 -387l144 387h96l-269 -700h-96zM261 562q-66 0 -103 36.5t-37 101.5h78q0 -39 16.5 -57.5t45.5 -18.5q30 0 47 18.5t17 57.5h76q0 -65 -37 -101.5t-103 -36.5z" />
    <glyph glyph-name="afii10193" unicode="&#x45f;" horiz-adv-x="560" 
d="M75 500h90v-418h230v418h90v-500h-161v-130h-88v130h-161v500z" />
    <glyph glyph-name="afii10146" unicode="&#x462;" horiz-adv-x="635" 
d="M10 597h105v103h94v-103h161v-74h-161v-75h136q132 0 196 -59.5t64 -165.5q0 -107 -62.5 -165t-197.5 -58h-230v523h-105v74zM209 362v-276h141q85 0 121.5 34t36.5 103t-37.5 104t-120.5 35h-141z" />
    <glyph glyph-name="afii10194" unicode="&#x463;" horiz-adv-x="540" 
d="M10 500h105v200h90v-200h150v-81h-150v-79h95q113 0 164 -45.5t51 -124.5q0 -80 -51 -125t-164 -45h-185v419h-105v81zM205 258v-176h100q66 0 92 22.5t26 65.5t-26 65.5t-92 22.5h-100z" />
    <glyph glyph-name="afii10147" unicode="&#x472;" horiz-adv-x="710" 
d="M355 -8q-67 0 -122 22.5t-94.5 64.5t-61.5 103t-22 139v58q0 77 22 138t62 103.5t95 65t121 22.5q67 0 122 -22.5t94.5 -64.5t61.5 -103t22 -139v-58q0 -77 -22 -138t-62 -103.5t-95 -65t-121 -22.5zM455 360q17 0 34.5 4.5t31.5 10t24 10.5l12 6q-4 110 -60 168.5
t-142 58.5q-43 0 -79.5 -14.5t-63 -43t-42.5 -71t-17 -97.5q1 1 10.5 5.5t24 9.5t32 9t34.5 4q37 0 63.5 -9.5t48 -20.5t42 -20.5t47.5 -9.5zM355 82q43 0 79 14.5t63 43t42.5 70.5t17.5 97q-2 -1 -11.5 -5t-24 -9t-32 -9t-34.5 -4q-38 0 -64 9.5t-47.5 20.5t-42 20.5
t-47.5 9.5q-17 0 -34 -4.5t-31.5 -10t-24 -11t-11.5 -6.5q1 -55 17 -97t43 -70.5t63.5 -43.5t78.5 -15z" />
    <glyph glyph-name="afii10195" unicode="&#x473;" horiz-adv-x="550" 
d="M275 -8q-53 0 -95.5 16.5t-72.5 47t-46 75t-16 100.5v38q0 55 16.5 99.5t46.5 75.5t72.5 47.5t94.5 16.5t94.5 -16.5t72.5 -47t46.5 -75t16.5 -100.5v-38q0 -56 -16.5 -100t-46.5 -75t-72.5 -47.5t-94.5 -16.5zM344 268q23 0 41.5 8t24.5 11q-5 66 -41 100.5t-94 34.5
q-59 0 -94.5 -33t-40.5 -99q4 2 22 10t44 8q25 0 43.5 -6.5t34 -14t29.5 -13.5t31 -6zM275 78q59 0 94.5 33t40.5 99q-5 -2 -23 -10t-43 -8q-26 0 -44.5 6t-33.5 13.5t-29 14t-31 6.5q-24 0 -42.5 -8t-23.5 -12q5 -66 40.5 -100t94.5 -34z" />
    <glyph glyph-name="afii10148" unicode="&#x474;" horiz-adv-x="710" 
d="M20 700h104l209 -577l126 419q16 53 33 85.5t40 50.5t55 24t78 6h45v-86h-45q-28 0 -45.5 -4t-29.5 -13.5t-19.5 -25t-14.5 -37.5l-166 -542h-110z" />
    <glyph glyph-name="afii10196" unicode="&#x475;" horiz-adv-x="555" 
d="M15 500h98l148 -402l77 244q16 52 33 84.5t39 50.5t50.5 24.5t69.5 6.5h35v-82h-35q-23 0 -39.5 -4t-28.5 -13.5t-20.5 -25.5t-16.5 -41l-110 -342h-110z" />
    <glyph glyph-name="afii10050" unicode="&#x490;" horiz-adv-x="515" 
d="M80 700h323v120h92v-206h-321v-614h-94v700z" />
    <glyph glyph-name="afii10098" unicode="&#x491;" horiz-adv-x="430" 
d="M75 500h247v100h88v-182h-245v-418h-90v500z" />
    <glyph glyph-name="uni0492" unicode="&#x492;" horiz-adv-x="540" 
d="M10 357h95v343h415v-86h-321v-257h161v-74h-161v-283h-94v283h-95v74z" />
    <glyph glyph-name="uni0493" unicode="&#x493;" horiz-adv-x="450" 
d="M10 254h85v246h335v-82h-245v-164h125v-68h-125v-186h-90v186h-85v68z" />
    <glyph glyph-name="uni0496" unicode="&#x496;" horiz-adv-x="945" 
d="M597 316h-90v-316h-94v316h-90l-186 -316h-112l215 357l-195 343h112l166 -298h90v298h94v-298h90l168 298h110l-194 -338l163 -276h91v-236h-92v150h-62z" />
    <glyph glyph-name="uni0497" unicode="&#x497;" horiz-adv-x="760" 
d="M475 219h-70v-219h-90v219h-70l-122 -219h-108l150 257l-131 243h108l102 -199h71v199h90v-199h69l105 199h106l-130 -237l103 -181h92v-211h-90v129h-65z" />
    <glyph glyph-name="uni0498" unicode="&#x498;" horiz-adv-x="595" 
d="M248 -4q-96 12 -146 71t-57 158h98q8 -72 45 -107.5t112 -35.5t111 32.5t36 85.5q0 52 -36 84.5t-111 32.5h-85v86h85q67 0 99.5 29.5t32.5 78.5q0 48 -32.5 77.5t-99.5 29.5t-100.5 -31.5t-41.5 -91.5h-98q8 100 68 156.5t172 56.5q56 0 99 -14.5t72 -40t44 -60.5
t15 -77q0 -51 -22.5 -91t-67.5 -64q53 -24 79 -67t26 -99q0 -81 -51.5 -135.5t-151.5 -65.5v-143h-94v145z" />
    <glyph glyph-name="uni0499" unicode="&#x499;" horiz-adv-x="485" 
d="M240 508q94 0 139.5 -40t45.5 -103q0 -36 -16 -64.5t-48 -45.5q41 -18 60 -47.5t19 -67.5q0 -58 -38.5 -98t-121.5 -48v-124h-90v125q-78 10 -116 52t-44 108h92q7 -38 33 -58.5t85 -20.5q60 0 84 19.5t24 49.5q0 32 -24 50.5t-84 18.5h-55v82h55q51 0 72 17t21 47
q0 29 -21 46.5t-72 17.5t-73 -18.5t-30 -50.5h-92q8 70 54.5 111.5t140.5 41.5z" />
    <glyph glyph-name="uni049A" unicode="&#x49a;" horiz-adv-x="655" 
d="M253 317h-89v-317h-94v700h94v-297h91l211 297h114l-245 -339l202 -275h108v-236h-92v150h-71z" />
    <glyph glyph-name="uni049B" unicode="&#x49b;" horiz-adv-x="545" 
d="M234 219h-69v-219h-90v500h90v-199h70l134 199h106l-166 -238l128 -180h98v-211h-90v129h-60z" />
    <glyph glyph-name="uni049C" unicode="&#x49c;" horiz-adv-x="705" 
d="M226 317h-52v-317h-94v700h94v-297h52v122h78v-122h31l211 297h114l-245 -339l265 -361h-118l-229 317h-29v-112h-78v112z" />
    <glyph glyph-name="uni049D" unicode="&#x49d;" horiz-adv-x="580" 
d="M208 219h-43v-219h-90v500h90v-199h43v104h74v-104h23l134 199h106l-166 -238l186 -262h-110l-151 219h-22v-94h-74v94z" />
    <glyph glyph-name="uni04A0" unicode="&#x4a0;" horiz-adv-x="750" 
d="M20 700h269v-297h91l211 297h114l-245 -339l265 -361h-118l-229 317h-89v-317h-94v614h-175v86z" />
    <glyph glyph-name="uni04A1" unicode="&#x4a1;" horiz-adv-x="585" 
d="M10 500h230v-199h70l134 199h106l-166 -238l186 -262h-110l-151 219h-69v-219h-90v419h-140v81z" />
    <glyph glyph-name="uni04A2" unicode="&#x4a2;" horiz-adv-x="735" 
d="M536 317h-362v-317h-94v700h94v-297h362v297h94v-614h85v-236h-94v150h-85v317z" />
    <glyph glyph-name="uni04A3" unicode="&#x4a3;" horiz-adv-x="595" 
d="M415 214h-250v-214h-90v500h90v-204h250v204h90v-418h75v-211h-90v129h-75v214z" />
    <glyph glyph-name="uni04A4" unicode="&#x4a4;" horiz-adv-x="975" 
d="M536 317h-362v-317h-94v700h94v-297h362v297h419v-86h-325v-614h-94v317z" />
    <glyph glyph-name="uni04A5" unicode="&#x4a5;" horiz-adv-x="770" 
d="M410 214h-245v-214h-90v500h90v-204h245v204h340v-82h-250v-418h-90v214z" />
    <glyph glyph-name="uni04AA" unicode="&#x4aa;" horiz-adv-x="670" 
d="M303 -5q-56 7 -101.5 32.5t-78 67.5t-50.5 98.5t-18 127.5v58q0 77 22 138t61 103.5t93 65t119 22.5q58 0 105 -17.5t82.5 -47t57.5 -68t30 -80.5h-102q-8 24 -22.5 46t-36.5 39t-50.5 27.5t-63.5 10.5q-42 0 -78.5 -15.5t-62.5 -46t-41 -75t-15 -102.5v-58
q0 -58 15 -102.5t41.5 -75t62.5 -46t78 -15.5q70 0 114 40t59 103h102q-7 -44 -25.5 -82.5t-47.5 -69t-68 -50.5t-87 -27v-146h-94v145z" />
    <glyph glyph-name="uni04AB" unicode="&#x4ab;" horiz-adv-x="505" 
d="M227 -5q-85 12 -133.5 72.5t-48.5 163.5v38q0 57 16 101t45 75t71 47t93 16q44 0 78.5 -12t60 -32.5t42 -48.5t24.5 -60h-96q-11 26 -37.5 46.5t-76.5 20.5q-57 0 -91.5 -38t-34.5 -115v-38q0 -76 35 -114.5t91 -38.5q51 0 77 21t37 56h96q-13 -63 -52.5 -105.5
t-105.5 -53.5v-126h-90v125z" />
    <glyph glyph-name="uni04AE" unicode="&#x4ae;" horiz-adv-x="650" 
d="M283 245l-263 455h108l202 -355l196 355h104l-253 -455v-245h-94v245z" />
    <glyph glyph-name="uni04AF" unicode="&#x4af;" horiz-adv-x="510" 
d="M215 0l-200 500h98l148 -386l138 386h96l-190 -500v-200h-90v200z" />
    <glyph glyph-name="uni04B0" unicode="&#x4b0;" horiz-adv-x="650" 
d="M120 245h163l-263 455h108l202 -355l196 355h104l-253 -455h153v-74h-153v-171h-94v171h-163v74z" />
    <glyph glyph-name="uni04B1" unicode="&#x4b1;" horiz-adv-x="510" 
d="M84 0h131l-200 500h98l148 -386l138 386h96l-190 -500h129v-72h-129v-128h-90v128h-131v72z" />
    <glyph glyph-name="uni04B2" unicode="&#x4b2;" horiz-adv-x="675" 
d="M324 286l-185 -286h-114l239 363l-219 337h113l168 -257l167 257h112l-219 -333l183 -281h96v-236h-92v150h-64z" />
    <glyph glyph-name="uni04B3" unicode="&#x4b3;" horiz-adv-x="535" 
d="M250 191l-133 -191h-102l179 256l-169 244h102l123 -181l125 181h100l-169 -245l121 -173h98v-211h-90v129h-54z" />
    <glyph glyph-name="uni04B6" unicode="&#x4b6;" horiz-adv-x="655" 
d="M456 268q-29 -8 -69.5 -14.5t-86.5 -6.5q-66 0 -113.5 14t-78 45t-44.5 78.5t-14 115.5v200h94v-200q0 -91 36.5 -129t119.5 -38q45 0 86 6.5t70 14.5v346h94v-614h85v-236h-94v150h-85v268z" />
    <glyph glyph-name="uni04B7" unicode="&#x4b7;" horiz-adv-x="535" 
d="M355 171q-22 -5 -49.5 -8.5t-60.5 -3.5q-106 0 -153 46t-47 145v150h90v-150q0 -31 5.5 -52t18.5 -33.5t34 -18t52 -5.5q32 0 60.5 3.5t49.5 8.5v247h90v-418h75v-211h-90v129h-75v171z" />
    <glyph glyph-name="uni04B8" unicode="&#x4b8;" horiz-adv-x="630" 
d="M456 268q-23 -6 -53 -11.5t-64 -8.5v-113h-78v113q-112 8 -161.5 67.5t-49.5 184.5v200h94v-200q0 -80 27.5 -118.5t89.5 -46.5v120h78v-121q34 3 64 8.5t53 11.5v346h94v-700h-94v268z" />
    <glyph glyph-name="uni04B9" unicode="&#x4b9;" horiz-adv-x="520" 
d="M355 171q-17 -4 -36 -6.5t-42 -4.5v-95h-74v96q-83 9 -120.5 55t-37.5 134v150h90v-150q0 -50 15 -74.5t53 -31.5v101h74v-103q44 3 78 11v247h90v-500h-90v171z" />
    <glyph glyph-name="uni04BA" unicode="&#x4ba;" horiz-adv-x="615" 
d="M451 210q0 86 -33 122t-101 36q-66 0 -103.5 -38t-39.5 -113v-217h-94v700h94v-316q53 74 163 74q101 0 154.5 -58.5t53.5 -189.5v-210h-94v210z" />
    <glyph glyph-name="uni04BB" unicode="&#x4bb;" horiz-adv-x="575" 
d="M75 700h90v-259q25 32 63 49.5t87 17.5q87 0 138.5 -54.5t51.5 -158.5v-295h-90v295q0 64 -30 95.5t-85 31.5q-61 0 -97 -34t-38 -88v-300h-90v700z" />
    <glyph glyph-name="uni04C0" unicode="&#x4c0;" horiz-adv-x="270" 
d="M88 700h94v-700h-94v700z" />
    <glyph glyph-name="uni04C1" unicode="&#x4c1;" horiz-adv-x="920" 
d="M597 316h-90v-316h-94v316h-90l-186 -316h-112l215 357l-195 343h112l166 -298h90v298h94v-298h90l168 298h110l-194 -338l214 -362h-114zM460 762q-74 0 -112 36.5t-38 101.5h82q0 -74 68 -74q70 0 70 74h80q0 -65 -38 -101.5t-112 -36.5z" />
    <glyph glyph-name="uni04C2" unicode="&#x4c2;" horiz-adv-x="720" 
d="M475 219h-70v-219h-90v219h-70l-122 -219h-108l150 257l-131 243h108l102 -199h71v199h90v-199h69l105 199h106l-130 -237l150 -263h-110zM360 562q-66 0 -103 36.5t-37 101.5h78q0 -39 16.5 -57.5t45.5 -18.5q30 0 47 18.5t17 57.5h76q0 -65 -37 -101.5t-103 -36.5z" />
    <glyph glyph-name="uni04C7" unicode="&#x4c7;" horiz-adv-x="710" 
d="M430 -114h33q38 0 55.5 22t17.5 77v332h-362v-317h-94v700h94v-297h362v297h94v-715q0 -50 -10 -85.5t-30 -57.5t-52 -32t-75 -10h-33v86z" />
    <glyph glyph-name="uni04C8" unicode="&#x4c8;" horiz-adv-x="580" 
d="M305 -118h33q40 0 58.5 23t18.5 80v229h-250v-214h-90v500h90v-204h250v204h90v-515q0 -50 -10 -85.5t-30 -57.5t-52 -32t-75 -10h-33v82z" />
    <glyph glyph-name="uni04CF" unicode="&#x4cf;" horiz-adv-x="256" 
d="M83 700h90v-700h-90v700z" />
    <glyph glyph-name="uni04D2" unicode="&#x4d2;" horiz-adv-x="650" 
d="M465 192h-284l-68 -192h-98l255 700h110l255 -700h-102zM212 278h222l-59 168l-51 149l-52 -149zM220 775q-26 0 -43 17t-17 43t17 43t43 17t43 -17t17 -43t-17 -43t-43 -17zM430 775q-26 0 -43 17t-17 43t17 43t43 17t43 -17t17 -43t-17 -43t-43 -17z" />
    <glyph glyph-name="uni04D3" unicode="&#x4d3;" horiz-adv-x="520" 
d="M200 -8q-78 0 -119 39.5t-41 108.5q0 38 12 68.5t38.5 51.5t68 32t101.5 11h100v37q0 42 -24.5 65t-75.5 23t-73.5 -19t-26.5 -49h-100q4 64 52.5 106t147.5 42q94 0 142 -45t48 -123v-340h-70l-11 82q-27 -43 -70.5 -66.5t-98.5 -23.5zM210 72q33 0 60.5 11t47.5 29.5
t31 43.5t11 53v18h-100q-69 0 -97.5 -23.5t-28.5 -61.5q0 -32 20 -51t56 -19zM160 575q-26 0 -43 17t-17 43t17 43t43 17t43 -17t17 -43t-17 -43t-43 -17zM350 575q-26 0 -43 17t-17 43t17 43t43 17t43 -17t17 -43t-17 -43t-43 -17z" />
    <glyph glyph-name="uni04D4" unicode="&#x4d4;" horiz-adv-x="930" 
d="M400 700h485v-86h-341v-211h281v-86h-281v-231h341v-86h-435v192h-231l-105 -192h-104zM450 278v334l-184 -334h184z" />
    <glyph glyph-name="uni04D5" unicode="&#x4d5;" horiz-adv-x="855" 
d="M212 -8q-88 0 -130 39.5t-42 108.5q0 37 12 66t38.5 49.5t68.5 31.5t103 11h102v42q0 42 -24.5 65t-77.5 23q-52 0 -75 -19t-27 -49h-100q2 32 15 59t37.5 47t62 31t87.5 11q58 0 98 -21t60 -59q29 38 71 59t94 21q50 0 91.5 -16.5t71 -47.5t46 -75.5t16.5 -99.5v-47
h-356q2 -74 38 -111t93 -37q30 0 50.5 5.5t35.5 15t24.5 23.5t17.5 32h92q-15 -70 -67 -114t-153 -44q-61 0 -108.5 27.5t-74.5 78.5q-28 -50 -78 -78t-112 -28zM212 72q33 0 60.5 11t48 29.5t32 43.5t11.5 54v12h-102q-37 0 -61.5 -5.5t-39.5 -16t-21 -25t-6 -33.5
q0 -32 20 -51t58 -19zM585 426q-54 0 -88.5 -31.5t-41.5 -96.5h259q-6 66 -39 97t-90 31z" />
    <glyph glyph-name="uni04D8" unicode="&#x4d8;" horiz-adv-x="710" 
d="M355 -8q-67 0 -122 22.5t-94.5 64.5t-61.5 103t-22 139v67h502q-1 55 -16.5 98t-42.5 72t-63.5 44.5t-79.5 15.5q-37 0 -66.5 -10t-52 -27.5t-37.5 -39.5t-22 -46h-106q9 37 29.5 75t55 68.5t84 50t115.5 19.5t121.5 -22.5t95 -64.5t61.5 -103t22 -139v-58
q0 -77 -22.5 -138t-62 -103.5t-94.5 -65t-121 -22.5zM355 82q85 0 140.5 56.5t60.5 163.5h-403q3 -53 19 -94t43 -69t63 -42.5t77 -14.5z" />
    <glyph glyph-name="afii10846" unicode="&#x4d9;" horiz-adv-x="540" 
d="M270 -8q-50 0 -91.5 16.5t-71 47.5t-46 75.5t-16.5 99.5v48h356q-3 72 -39 109.5t-92 37.5q-29 0 -49.5 -5.5t-35 -15.5t-24.5 -22.5t-17 -27.5h-94q7 32 24 60t44 48.5t64.5 32.5t87.5 12t91.5 -16.5t71 -47.5t46 -75.5t16.5 -99.5v-38q0 -55 -16.5 -99t-46.5 -75
t-71.5 -48t-90.5 -17zM270 74q54 0 88 31.5t41 95.5h-259q7 -66 40 -96.5t90 -30.5z" />
    <glyph glyph-name="uni04E2" unicode="&#x4e2;" horiz-adv-x="710" 
d="M536 593l-52 -103l-276 -490h-128v700h94v-593l52 103l276 490h128v-700h-94v593zM205 873h300v-76h-300v76z" />
    <glyph glyph-name="uni04E3" unicode="&#x4e3;" horiz-adv-x="580" 
d="M415 393l-55 -103l-169 -290h-116v500h90v-393l55 103l169 290h116v-500h-90v393zM150 672h280v-74h-280v74z" />
    <glyph glyph-name="uni04E6" unicode="&#x4e6;" horiz-adv-x="710" 
d="M355 -8q-67 0 -122 22.5t-94.5 64.5t-61.5 103t-22 139v58q0 77 22 138t62 103.5t95 65t121 22.5q67 0 122 -22.5t94.5 -64.5t61.5 -103t22 -139v-58q0 -77 -22 -138t-62 -103.5t-95 -65t-121 -22.5zM355 82q44 0 81 15.5t64 45.5t42 74.5t15 103.5v58q0 58 -15 102.5
t-42 75t-64 46t-81 15.5t-81 -15.5t-64 -45.5t-42 -75t-15 -103v-58q0 -58 15 -102.5t42 -75t64 -46t81 -15.5zM250 775q-26 0 -43 17t-17 43t17 43t43 17t43 -17t17 -43t-17 -43t-43 -17zM460 775q-26 0 -43 17t-17 43t17 43t43 17t43 -17t17 -43t-17 -43t-43 -17z" />
    <glyph glyph-name="uni04E7" unicode="&#x4e7;" horiz-adv-x="550" 
d="M275 -8q-53 0 -95.5 16.5t-72.5 47t-46 75t-16 100.5v38q0 55 16.5 99.5t46.5 75.5t72.5 47.5t94.5 16.5t94.5 -16.5t72.5 -47t46.5 -75t16.5 -100.5v-38q0 -56 -16.5 -100t-46.5 -75t-72.5 -47.5t-94.5 -16.5zM275 78q63 0 99.5 38.5t36.5 114.5v38q0 75 -36.5 114
t-99.5 39t-99.5 -38.5t-36.5 -114.5v-38q0 -75 36.5 -114t99.5 -39zM180 575q-26 0 -43 17t-17 43t17 43t43 17t43 -17t17 -43t-17 -43t-43 -17zM370 575q-26 0 -43 17t-17 43t17 43t43 17t43 -17t17 -43t-17 -43t-43 -17z" />
    <glyph glyph-name="uni04E8" unicode="&#x4e8;" horiz-adv-x="710" 
d="M355 -8q-67 0 -122 22.5t-94.5 64.5t-61.5 103t-22 139v58q0 77 22 138t62 103.5t95 65t121 22.5q67 0 122 -22.5t94.5 -64.5t61.5 -103t22 -139v-58q0 -77 -22 -138t-62 -103.5t-95 -65t-121 -22.5zM355 618q-44 0 -80.5 -15t-63 -44t-42 -72t-16.5 -99h404
q-1 55 -16.5 98t-42.5 72.5t-63.5 44.5t-79.5 15zM355 82q43 0 79.5 15t63.5 44t42.5 72t16.5 99h-404q1 -56 16.5 -99t42.5 -72t63.5 -44t79.5 -15z" />
    <glyph glyph-name="uni04E9" unicode="&#x4e9;" horiz-adv-x="550" 
d="M275 -8q-53 0 -95.5 16.5t-72.5 47t-46 75t-16 100.5v38q0 55 16.5 99.5t46.5 75.5t72.5 47.5t94.5 16.5t94.5 -16.5t72.5 -47t46.5 -75t16.5 -100.5v-38q0 -56 -16.5 -100t-46.5 -75t-72.5 -47.5t-94.5 -16.5zM275 422q-60 0 -95.5 -34t-40.5 -102h271
q-5 67 -40.5 101.5t-94.5 34.5zM275 78q60 0 95.5 34t39.5 102h-271q5 -67 41 -101.5t95 -34.5z" />
    <glyph glyph-name="uni04EE" unicode="&#x4ee;" horiz-adv-x="610" 
d="M271 197l-251 503h106l195 -400l167 400h102l-303 -700h-102zM157 873h300v-76h-300v76z" />
    <glyph glyph-name="uni04EF" unicode="&#x4ef;" horiz-adv-x="520" 
d="M217 0l-202 500h98l152 -387l144 387h96l-269 -700h-96zM121 672h280v-74h-280v74z" />
    <glyph glyph-name="uni04F0" unicode="&#x4f0;" horiz-adv-x="610" 
d="M271 197l-251 503h106l195 -400l167 400h102l-303 -700h-102zM202 775q-26 0 -43 17t-17 43t17 43t43 17t43 -17t17 -43t-17 -43t-43 -17zM412 775q-26 0 -43 17t-17 43t17 43t43 17t43 -17t17 -43t-17 -43t-43 -17z" />
    <glyph glyph-name="uni04F1" unicode="&#x4f1;" horiz-adv-x="520" 
d="M217 0l-202 500h98l152 -387l144 387h96l-269 -700h-96zM166 575q-26 0 -43 17t-17 43t17 43t43 17t43 -17t17 -43t-17 -43t-43 -17zM356 575q-26 0 -43 17t-17 43t17 43t43 17t43 -17t17 -43t-17 -43t-43 -17z" />
    <glyph glyph-name="uni1E9E" unicode="&#x1e9e;" horiz-adv-x="610" 
d="M75 487q0 50 15.5 90.5t44 69.5t68 45t87.5 16q46 0 83.5 -15t65.5 -41t45.5 -60t25.5 -73l-97 -113q49 -38 80.5 -65.5t49.5 -52.5t25 -50.5t7 -57.5q0 -39 -14.5 -72t-41 -57t-64.5 -37.5t-85 -13.5h-120v86h120q47 0 77 26t30 68q0 21 -5 39t-21.5 38.5t-47.5 45
t-83 59.5v67l86 102q-10 35 -38 61t-78 26q-54 0 -87.5 -34.5t-33.5 -96.5v-487h-94v487z" />
    <glyph glyph-name="Ygrave" unicode="&#x1ef2;" horiz-adv-x="650" 
d="M283 245l-263 455h108l202 -355l196 355h104l-253 -455v-245h-94v245zM153 910h108l112 -150h-92z" />
    <glyph glyph-name="ygrave" unicode="&#x1ef3;" horiz-adv-x="520" 
d="M217 0l-202 500h98l152 -387l144 387h96l-269 -700h-96zM86 710h104l116 -150h-90z" />
    <glyph glyph-name="uni2010" unicode="&#x2010;" horiz-adv-x="400" 
d="M45 303h310v-86h-310v86z" />
    <glyph glyph-name="uni2011" unicode="&#x2011;" horiz-adv-x="400" 
d="M45 303h310v-86h-310v86z" />
    <glyph glyph-name="figuredash" unicode="&#x2012;" 
d="M45 363h500v-86h-500v86z" />
    <glyph glyph-name="endash" unicode="&#x2013;" 
d="M45 303h500v-86h-500v86z" />
    <glyph glyph-name="emdash" unicode="&#x2014;" horiz-adv-x="700" 
d="M45 303h610v-86h-610v86z" />
    <glyph glyph-name="afii00208" unicode="&#x2015;" horiz-adv-x="700" 
d="M45 303h610v-86h-610v86z" />
    <glyph glyph-name="quoteleft" unicode="&#x2018;" horiz-adv-x="250" 
d="M152 445h-102l79 255h71z" />
    <glyph glyph-name="quoteright" unicode="&#x2019;" horiz-adv-x="250" 
d="M98 700h102l-79 -255h-71z" />
    <glyph glyph-name="quotesinglbase" unicode="&#x201a;" horiz-adv-x="250" 
d="M83 105h102l-79 -255h-71z" />
    <glyph glyph-name="quotedblleft" unicode="&#x201c;" horiz-adv-x="420" 
d="M322 445h-102l79 255h71zM152 445h-102l79 255h71z" />
    <glyph glyph-name="quotedblright" unicode="&#x201d;" horiz-adv-x="420" 
d="M268 700h102l-79 -255h-71zM98 700h102l-79 -255h-71z" />
    <glyph glyph-name="quotedblbase" unicode="&#x201e;" horiz-adv-x="420" 
d="M253 105h102l-79 -255h-71zM83 105h102l-79 -255h-71z" />
    <glyph glyph-name="dagger" unicode="&#x2020;" horiz-adv-x="460" 
d="M25 500h158v200h94v-200h158v-86h-158v-614h-94v614h-158v86z" />
    <glyph glyph-name="daggerdbl" unicode="&#x2021;" horiz-adv-x="460" 
d="M25 500h158v200h94v-200h158v-86h-158v-328h158v-86h-158v-200h-94v200h-158v86h158v328h-158v86z" />
    <glyph glyph-name="bullet" unicode="&#x2022;" horiz-adv-x="450" 
d="M225 131q-27 0 -50.5 10t-41 27.5t-27.5 41t-10 50.5t10 50.5t27.5 41t41 27.5t50.5 10t50.5 -10t41 -27.5t27.5 -41t10 -50.5t-10 -50.5t-27.5 -41t-41 -27.5t-50.5 -10z" />
    <glyph glyph-name="uni2023" unicode="&#x2023;" horiz-adv-x="450" 
d="M117 424l265 -164l-265 -164v328z" />
    <glyph glyph-name="onedotenleader" unicode="&#x2024;" horiz-adv-x="250" 
d="M125 -8q-31 0 -50.5 20.5t-19.5 49.5t19.5 49.5t50.5 20.5t50.5 -20.5t19.5 -49.5t-19.5 -49.5t-50.5 -20.5z" />
    <glyph glyph-name="twodotenleader" unicode="&#x2025;" horiz-adv-x="555" 
d="M125 -8q-31 0 -50.5 20.5t-19.5 49.5t19.5 49.5t50.5 20.5t50.5 -20.5t19.5 -49.5t-19.5 -49.5t-50.5 -20.5zM430 -8q-31 0 -50.5 20.5t-19.5 49.5t19.5 49.5t50.5 20.5t50.5 -20.5t19.5 -49.5t-19.5 -49.5t-50.5 -20.5z" />
    <glyph glyph-name="ellipsis" unicode="&#x2026;" horiz-adv-x="860" 
d="M125 -8q-31 0 -50.5 20.5t-19.5 49.5t19.5 49.5t50.5 20.5t50.5 -20.5t19.5 -49.5t-19.5 -49.5t-50.5 -20.5zM430 -8q-31 0 -50.5 20.5t-19.5 49.5t19.5 49.5t50.5 20.5t50.5 -20.5t19.5 -49.5t-19.5 -49.5t-50.5 -20.5zM735 -8q-31 0 -50.5 20.5t-19.5 49.5t19.5 49.5
t50.5 20.5t50.5 -20.5t19.5 -49.5t-19.5 -49.5t-50.5 -20.5z" />
    <glyph glyph-name="uni2027" unicode="&#x2027;" horiz-adv-x="250" 
d="M125 190q-31 0 -50.5 20.5t-19.5 49.5t19.5 49.5t50.5 20.5t50.5 -20.5t19.5 -49.5t-19.5 -49.5t-50.5 -20.5z" />
    <glyph glyph-name="perthousand" unicode="&#x2030;" horiz-adv-x="1300" 
d="M210 342q-38 0 -69.5 12t-54 34t-34.5 52t-12 66v38q0 36 12 66t34.5 52t54 34t69.5 12t69 -12t53.5 -34t35 -52t12.5 -66v-38q0 -36 -12.5 -66t-35 -52t-53.5 -34t-69 -12zM210 420q39 0 61.5 22t22.5 64v38q0 42 -22.5 64t-61.5 22t-61.5 -22t-22.5 -64v-38
q0 -42 22.5 -64t61.5 -22zM690 -8q-38 0 -69.5 12t-54 34t-34.5 52t-12 66v38q0 36 12 66t34.5 52t54 34t69.5 12t69 -12t53.5 -34t35 -52t12.5 -66v-38q0 -36 -12.5 -66t-35 -52t-53.5 -34t-69 -12zM690 70q39 0 61.5 22t22.5 64v38q0 42 -22.5 64t-61.5 22t-61.5 -22
t-22.5 -64v-38q0 -42 22.5 -64t61.5 -22zM1090 -8q-38 0 -69.5 12t-54 34t-34.5 52t-12 66v38q0 36 12 66t34.5 52t54 34t69.5 12t69 -12t53.5 -34t35 -52t12.5 -66v-38q0 -36 -12.5 -66t-35 -52t-53.5 -34t-69 -12zM1090 70q39 0 61.5 22t22.5 64v38q0 42 -22.5 64
t-61.5 22t-61.5 -22t-22.5 -64v-38q0 -42 22.5 -64t61.5 -22zM604 700h96l-404 -700h-96z" />
    <glyph glyph-name="uni2031" unicode="&#x2031;" horiz-adv-x="1700" 
d="M210 342q-38 0 -69.5 12t-54 34t-34.5 52t-12 66v38q0 36 12 66t34.5 52t54 34t69.5 12t69 -12t53.5 -34t35 -52t12.5 -66v-38q0 -36 -12.5 -66t-35 -52t-53.5 -34t-69 -12zM210 420q39 0 61.5 22t22.5 64v38q0 42 -22.5 64t-61.5 22t-61.5 -22t-22.5 -64v-38
q0 -42 22.5 -64t61.5 -22zM690 -8q-38 0 -69.5 12t-54 34t-34.5 52t-12 66v38q0 36 12 66t34.5 52t54 34t69.5 12t69 -12t53.5 -34t35 -52t12.5 -66v-38q0 -36 -12.5 -66t-35 -52t-53.5 -34t-69 -12zM690 70q39 0 61.5 22t22.5 64v38q0 42 -22.5 64t-61.5 22t-61.5 -22
t-22.5 -64v-38q0 -42 22.5 -64t61.5 -22zM1090 -8q-38 0 -69.5 12t-54 34t-34.5 52t-12 66v38q0 36 12 66t34.5 52t54 34t69.5 12t69 -12t53.5 -34t35 -52t12.5 -66v-38q0 -36 -12.5 -66t-35 -52t-53.5 -34t-69 -12zM1090 70q39 0 61.5 22t22.5 64v38q0 42 -22.5 64
t-61.5 22t-61.5 -22t-22.5 -64v-38q0 -42 22.5 -64t61.5 -22zM1490 -8q-38 0 -69.5 12t-54 34t-34.5 52t-12 66v38q0 36 12 66t34.5 52t54 34t69.5 12t69 -12t53.5 -34t35 -52t12.5 -66v-38q0 -36 -12.5 -66t-35 -52t-53.5 -34t-69 -12zM1490 70q39 0 61.5 22t22.5 64v38
q0 42 -22.5 64t-61.5 22t-61.5 -22t-22.5 -64v-38q0 -42 22.5 -64t61.5 -22zM604 700h96l-404 -700h-96z" />
    <glyph glyph-name="guilsinglleft" unicode="&#x2039;" horiz-adv-x="300" 
d="M152 460h98l-120 -198l120 -202h-101l-119 198z" />
    <glyph glyph-name="guilsinglright" unicode="&#x203a;" horiz-adv-x="300" 
d="M148.019 60.0566h-97.9883l119.985 197.976l-119.985 201.976h100.988l118.985 -197.977z" />
    <glyph glyph-name="exclamdbl" unicode="&#x203c;" horiz-adv-x="550" 
d="M400 -8q-31 0 -50.5 20.5t-19.5 49.5t19.5 49.5t50.5 20.5t50.5 -20.5t19.5 -49.5t-19.5 -49.5t-50.5 -20.5zM353 700h94v-500h-94v500zM150 -8q-31 0 -50.5 20.5t-19.5 49.5t19.5 49.5t50.5 20.5t50.5 -20.5t19.5 -49.5t-19.5 -49.5t-50.5 -20.5zM103 700h94v-500h-94
v500z" />
    <glyph glyph-name="uni203D" unicode="&#x203d;" horiz-adv-x="510" 
d="M203 542h87v-160q15 16 30.5 30t28 29t20.5 34t8 45q0 43 -30.5 70.5t-91.5 27.5q-66 0 -97 -29t-35 -84h-98q2 45 18 82.5t44.5 64.5t69.5 41.5t93 14.5q55 0 97 -14t70.5 -38.5t43 -58t14.5 -72.5q0 -47 -13 -77t-33 -52t-43 -39t-43 -37t-33 -47t-13 -69h-94v338z
M250 -8q-31 0 -50.5 20.5t-19.5 49.5t19.5 49.5t50.5 20.5t50.5 -20.5t19.5 -49.5t-19.5 -49.5t-50.5 -20.5z" />
    <glyph glyph-name="uni2043" unicode="&#x2043;" horiz-adv-x="450" 
d="M50 307h350v-94h-350v94z" />
    <glyph glyph-name="fraction" unicode="&#x2044;" horiz-adv-x="150" 
d="M229 700h96l-404 -700h-96z" />
    <glyph glyph-name="uni2047" unicode="&#x2047;" horiz-adv-x="990" 
d="M688 204q0 53 12.5 87.5t31.5 58.5t40.5 41t40.5 34.5t31.5 39t12.5 55.5q0 43 -30 70.5t-87 27.5q-62 0 -92.5 -29t-34.5 -84h-98q2 45 18 82.5t44 64.5t68 41.5t90 14.5q53 0 94 -14t69 -38.5t42.5 -58t14.5 -72.5q0 -46 -13 -76t-32 -52t-41.5 -39.5t-41.5 -38
t-32 -47.5t-13 -68h-94zM735 -8q-31 0 -50.5 20.5t-19.5 49.5t19.5 49.5t50.5 20.5t50.5 -20.5t19.5 -49.5t-19.5 -49.5t-50.5 -20.5zM198 204q0 53 12.5 87.5t31.5 58.5t40.5 41t40.5 34.5t31.5 39t12.5 55.5q0 43 -30 70.5t-87 27.5q-62 0 -92.5 -29t-34.5 -84h-98
q2 45 18 82.5t44 64.5t68 41.5t90 14.5q53 0 94 -14t69 -38.5t42.5 -58t14.5 -72.5q0 -46 -13 -76t-32 -52t-41.5 -39.5t-41.5 -38t-32 -47.5t-13 -68h-94zM245 -8q-31 0 -50.5 20.5t-19.5 49.5t19.5 49.5t50.5 20.5t50.5 -20.5t19.5 -49.5t-19.5 -49.5t-50.5 -20.5z" />
    <glyph glyph-name="uni2048" unicode="&#x2048;" horiz-adv-x="750" 
d="M600 -8q-31 0 -50.5 20.5t-19.5 49.5t19.5 49.5t50.5 20.5t50.5 -20.5t19.5 -49.5t-19.5 -49.5t-50.5 -20.5zM553 700h94v-500h-94v500zM198 204q0 53 12.5 87.5t31.5 58.5t40.5 41t40.5 34.5t31.5 39t12.5 55.5q0 43 -30 70.5t-87 27.5q-62 0 -92.5 -29t-34.5 -84h-98
q2 45 18 82.5t44 64.5t68 41.5t90 14.5q53 0 94 -14t69 -38.5t42.5 -58t14.5 -72.5q0 -46 -13 -76t-32 -52t-41.5 -39.5t-41.5 -38t-32 -47.5t-13 -68h-94zM245 -8q-31 0 -50.5 20.5t-19.5 49.5t19.5 49.5t50.5 20.5t50.5 -20.5t19.5 -49.5t-19.5 -49.5t-50.5 -20.5z" />
    <glyph glyph-name="uni2049" unicode="&#x2049;" horiz-adv-x="750" 
d="M150 -8q-31 0 -50.5 20.5t-19.5 49.5t19.5 49.5t50.5 20.5t50.5 -20.5t19.5 -49.5t-19.5 -49.5t-50.5 -20.5zM103 700h94v-500h-94v500zM448 204q0 53 12.5 87.5t31.5 58.5t40.5 41t40.5 34.5t31.5 39t12.5 55.5q0 43 -30 70.5t-87 27.5q-62 0 -92.5 -29t-34.5 -84h-98
q2 45 18 82.5t44 64.5t68 41.5t90 14.5q53 0 94 -14t69 -38.5t42.5 -58t14.5 -72.5q0 -46 -13 -76t-32 -52t-41.5 -39.5t-41.5 -38t-32 -47.5t-13 -68h-94zM495 -8q-31 0 -50.5 20.5t-19.5 49.5t19.5 49.5t50.5 20.5t50.5 -20.5t19.5 -49.5t-19.5 -49.5t-50.5 -20.5z" />
    <glyph glyph-name="uni2070" unicode="&#x2070;" horiz-adv-x="390" 
d="M195 372q-72 0 -116 50.5t-44 163.5v38q0 113 44 163.5t116 50.5q73 0 116.5 -50.5t43.5 -163.5v-38q0 -57 -11 -97.5t-32 -66.5t-50.5 -38t-66.5 -12zM195 448q18 0 32 6.5t24 22.5t15.5 42.5t5.5 66.5v38q0 40 -5.5 66.5t-15.5 42.5t-24 22.5t-32 6.5q-17 0 -31.5 -6.5
t-24.5 -22.5t-15.5 -42.5t-5.5 -66.5v-38q0 -40 5.5 -66.5t15.5 -42.5t24.5 -22.5t31.5 -6.5z" />
    <glyph glyph-name="uni2074" unicode="&#x2074;" horiz-adv-x="370" 
d="M15 541l185 289h107v-289h48v-71h-48v-90h-78v90h-214v71zM229 541v212l-134 -212h134z" />
    <glyph glyph-name="uni2075" unicode="&#x2075;" horiz-adv-x="385" 
d="M55 830h272v-71h-200l-9 -102q37 31 88 31q68 0 108.5 -42.5t40.5 -115.5q0 -72 -43.5 -115t-121.5 -43q-34 0 -62 9.5t-49 25.5t-35 38t-19 46h87q5 -14 24 -29t54 -15t58.5 21.5t23.5 61.5t-23.5 61.5t-58.5 21.5q-28 0 -46 -10.5t-32 -24.5h-77z" />
    <glyph glyph-name="uni2076" unicode="&#x2076;" horiz-adv-x="390" 
d="M200 372q-77 0 -121 47t-44 147v39q0 61 12.5 105.5t34.5 72.5t52 41.5t66 13.5q63 0 98 -31.5t43 -78.5h-82q-4 13 -18.5 24.5t-41.5 11.5q-37 0 -61 -27t-28 -98q38 41 96 41q70 0 109.5 -39.5t39.5 -108.5v-10q0 -32 -11.5 -59.5t-32 -47.5t-49 -31.5t-62.5 -11.5z
M195 605q-35 0 -55 -18t-22 -49v-16q0 -36 20.5 -56t60.5 -20q33 0 53 20.5t20 55.5v10q0 33 -20.5 53t-56.5 20z" />
    <glyph glyph-name="uni2077" unicode="&#x2077;" horiz-adv-x="330" 
d="M10 830h310v-72l-161 -378h-89l164 378h-224v72z" />
    <glyph glyph-name="uni2078" unicode="&#x2078;" horiz-adv-x="380" 
d="M190 372q-78 0 -119 38t-41 95q0 35 18 64t56 47q-30 17 -44.5 42t-14.5 57q0 25 10 47.5t28.5 39.5t45.5 26.5t61 9.5t60.5 -9.5t45.5 -26.5t29 -39.5t10 -47.5q0 -32 -15 -57t-44 -42q37 -18 55.5 -47t18.5 -64q0 -57 -41 -95t-119 -38zM190 444q36 0 57.5 19.5
t21.5 44.5q0 29 -21 49.5t-58 25.5q-36 -5 -57 -25.5t-21 -49.5q0 -25 21 -44.5t57 -19.5zM190 647q29 4 47 21.5t18 43.5q0 21 -18 37.5t-47 16.5t-46.5 -16.5t-17.5 -37.5q0 -26 17.5 -43.5t46.5 -21.5z" />
    <glyph glyph-name="uni2079" unicode="&#x2079;" horiz-adv-x="390" 
d="M190 836q77 0 121 -47t44 -147v-39q0 -62 -12.5 -106t-34.5 -72t-52 -41.5t-66 -13.5q-63 0 -98 31.5t-43 78.5h82q4 -13 18.5 -24.5t41.5 -11.5q37 0 60.5 27t28.5 98q-18 -20 -42.5 -30.5t-53.5 -10.5q-70 0 -109.5 39.5t-39.5 108.5v10q0 32 11.5 59.5t32 47.5
t49 31.5t62.5 11.5zM195 603q35 0 55 18t22 49v16q0 36 -20.5 56t-60.5 20q-33 0 -53 -20.5t-20 -55.5v-10q0 -33 20.5 -53t56.5 -20z" />
    <glyph glyph-name="uni207A" unicode="&#x207a;" horiz-adv-x="400" 
d="M50 641h111v115h78v-115h111v-72h-111v-116h-78v116h-111v72z" />
    <glyph glyph-name="uni207B" unicode="&#x207b;" horiz-adv-x="400" 
d="M50 641h300v-72h-300v72z" />
    <glyph glyph-name="uni207C" unicode="&#x207c;" horiz-adv-x="400" 
d="M50 706h300v-72h-300v72zM50 577h300v-72h-300v72z" />
    <glyph glyph-name="uni207D" unicode="&#x207d;" horiz-adv-x="240" 
d="M35 605q0 54 15 96t34 71q21 33 49 58h97q-32 -25 -58 -58q-22 -29 -39.5 -71t-17.5 -96q0 -55 17.5 -96.5t39.5 -70.5q26 -33 58 -58h-101q-27 25 -47 58q-18 29 -32.5 70.5t-14.5 96.5z" />
    <glyph glyph-name="uni207E" unicode="&#x207e;" horiz-adv-x="240" 
d="M205.004 605.074q0 -53.9941 -14.998 -95.9883q-14.998 -41.9951 -33.9961 -70.9922q-20.9971 -32.9951 -48.9932 -57.9922h-96.9883q31.9961 24.9971 57.9932 57.9922q21.9971 28.9971 39.4951 70.9922q17.4971 41.9941 17.4971 95.9883q0 54.9932 -17.4971 96.4883
q-17.498 41.4941 -39.4951 70.4912q-25.9971 32.9961 -57.9932 57.9932h100.987q26.9971 -24.9971 46.9941 -57.9932q17.998 -28.9971 32.4961 -70.4912q14.498 -41.4951 14.498 -96.4883z" />
    <glyph glyph-name="uni207F" unicode="&#x207f;" horiz-adv-x="370" 
d="M40 700h61l7 -44q34 52 101 52q59 0 92.5 -36.5t33.5 -111.5v-180h-77v180q0 39 -17 57t-49 18q-36 0 -55.5 -19.5t-19.5 -55.5v-180h-77v320z" />
    <glyph glyph-name="uni2080" unicode="&#x2080;" horiz-adv-x="390" 
d="M195 -137q-72 0 -116 50.5t-44 163.5v38q0 113 44 163.5t116 50.5q73 0 116.5 -50.5t43.5 -163.5v-38q0 -57 -11 -97.5t-32 -66.5t-50.5 -38t-66.5 -12zM195 -61q18 0 32 6.5t24 22.5t15.5 42.5t5.5 66.5v38q0 40 -5.5 66.5t-15.5 42.5t-24 22.5t-32 6.5
q-17 0 -31.5 -6.5t-24.5 -22.5t-15.5 -42.5t-5.5 -66.5v-38q0 -40 5.5 -66.5t15.5 -42.5t24.5 -22.5t31.5 -6.5z" />
    <glyph glyph-name="uni2081" unicode="&#x2081;" horiz-adv-x="260" 
d="M15 249l117 72h78v-450h-78v364l-117 -73v87z" />
    <glyph glyph-name="uni2082" unicode="&#x2082;" horiz-adv-x="355" 
d="M21 -57l144 134q25 24 40 40.5t23 29.5t11 24.5t3 23.5q0 28 -17 43.5t-52 15.5t-52 -15.5t-17 -43.5h-83q0 58 40 96t112 38q71 0 111.5 -38t40.5 -96q0 -22 -6 -41.5t-19 -39.5t-33.5 -42t-48.5 -48l-89 -81h196v-72h-304v72z" />
    <glyph glyph-name="uni2083" unicode="&#x2083;" horiz-adv-x="370" 
d="M180 -137q-77 0 -117 38t-43 110h83q6 -73 77 -73q38 0 57.5 18t19.5 46q0 27 -19.5 45.5t-57.5 18.5h-58v70h58q34 0 50.5 16t16.5 43q0 28 -16.5 43.5t-50.5 15.5q-32 0 -48 -14.5t-19 -44.5h-83q3 61 41.5 97.5t108.5 36.5q71 0 110.5 -36t39.5 -89q0 -34 -14 -59.5
t-43 -39.5q33 -17 50 -45t17 -62q0 -60 -41 -97.5t-119 -37.5z" />
    <glyph glyph-name="uni2084" unicode="&#x2084;" horiz-adv-x="370" 
d="M15 32l185 289h107v-289h48v-71h-48v-90h-78v90h-214v71zM229 32v212l-134 -212h134z" />
    <glyph glyph-name="uni2085" unicode="&#x2085;" horiz-adv-x="385" 
d="M55 321h272v-71h-200l-9 -102q37 31 88 31q68 0 108.5 -42.5t40.5 -115.5q0 -72 -43.5 -115t-121.5 -43q-34 0 -62 9.5t-49 25.5t-35 38t-19 46h87q5 -14 24 -29t54 -15t58.5 21.5t23.5 61.5t-23.5 61.5t-58.5 21.5q-28 0 -46 -10.5t-32 -24.5h-77z" />
    <glyph glyph-name="uni2086" unicode="&#x2086;" horiz-adv-x="390" 
d="M200 -137q-77 0 -121 47t-44 147v39q0 61 12.5 105.5t34.5 72.5t52 41.5t66 13.5q63 0 98 -31.5t43 -78.5h-82q-4 13 -18.5 24.5t-41.5 11.5q-37 0 -61 -27t-28 -98q38 41 96 41q70 0 109.5 -39.5t39.5 -108.5v-10q0 -32 -11.5 -59.5t-32 -47.5t-49 -31.5t-62.5 -11.5z
M195 96q-35 0 -55 -18t-22 -49v-16q0 -36 20.5 -56t60.5 -20q33 0 53 20.5t20 55.5v10q0 33 -20.5 53t-56.5 20z" />
    <glyph glyph-name="uni2087" unicode="&#x2087;" horiz-adv-x="330" 
d="M10 321h310v-72l-161 -378h-89l164 378h-224v72z" />
    <glyph glyph-name="uni2088" unicode="&#x2088;" horiz-adv-x="380" 
d="M190 -137q-78 0 -119 38t-41 95q0 35 18 64t56 47q-30 17 -44.5 42t-14.5 57q0 25 10 47.5t28.5 39.5t45.5 26.5t61 9.5t60.5 -9.5t45.5 -26.5t29 -39.5t10 -47.5q0 -32 -15 -57t-44 -42q37 -18 55.5 -47t18.5 -64q0 -57 -41 -95t-119 -38zM190 -65q36 0 57.5 19.5
t21.5 44.5q0 29 -21 49.5t-58 25.5q-36 -5 -57 -25.5t-21 -49.5q0 -25 21 -44.5t57 -19.5zM190 138q29 4 47 21.5t18 43.5q0 21 -18 37.5t-47 16.5t-46.5 -16.5t-17.5 -37.5q0 -26 17.5 -43.5t46.5 -21.5z" />
    <glyph glyph-name="uni2089" unicode="&#x2089;" horiz-adv-x="390" 
d="M190 329q77 0 121 -47t44 -147v-39q0 -62 -12.5 -106t-34.5 -72t-52 -41.5t-66 -13.5q-63 0 -98 31.5t-43 78.5h82q4 -13 18.5 -24.5t41.5 -11.5q37 0 60.5 27t28.5 98q-18 -20 -42.5 -30.5t-53.5 -10.5q-70 0 -109.5 39.5t-39.5 108.5v10q0 32 11.5 59.5t32 47.5
t49 31.5t62.5 11.5zM195 96q35 0 55 18t22 49v16q0 36 -20.5 56t-60.5 20q-33 0 -53 -20.5t-20 -55.5v-10q0 -33 20.5 -53t56.5 -20z" />
    <glyph glyph-name="uni208A" unicode="&#x208a;" horiz-adv-x="400" 
d="M50 132h111v115h78v-115h111v-72h-111v-116h-78v116h-111v72z" />
    <glyph glyph-name="uni208B" unicode="&#x208b;" horiz-adv-x="400" 
d="M50 132h300v-72h-300v72z" />
    <glyph glyph-name="uni208C" unicode="&#x208c;" horiz-adv-x="400" 
d="M50 197h300v-72h-300v72zM50 68h300v-72h-300v72z" />
    <glyph glyph-name="uni208D" unicode="&#x208d;" horiz-adv-x="240" 
d="M35 96q0 54 15 96t34 71q21 33 49 58h97q-32 -25 -58 -58q-22 -29 -39.5 -71t-17.5 -96q0 -55 17.5 -96.5t39.5 -70.5q26 -33 58 -58h-101q-27 25 -47 58q-18 29 -32.5 70.5t-14.5 96.5z" />
    <glyph glyph-name="uni208E" unicode="&#x208e;" horiz-adv-x="240" 
d="M205.004 95.0742q0 -53.9941 -14.998 -95.9883q-14.998 -41.9951 -33.9961 -70.9922q-20.9971 -32.9951 -48.9932 -57.9922h-96.9883q31.9961 24.9971 57.9932 57.9922q21.9971 28.9971 39.4951 70.9922q17.4971 41.9941 17.4971 95.9883q0 54.9932 -17.4971 96.4883
q-17.498 41.4941 -39.4951 70.4912q-25.9971 32.9961 -57.9932 57.9932h100.987q26.9971 -24.9971 46.9941 -57.9932q17.998 -28.9971 32.4961 -70.4912q14.498 -41.4951 14.498 -96.4883z" />
    <glyph glyph-name="uni2090" unicode="&#x2090;" horiz-adv-x="350" 
d="M138 -137q-56 0 -84.5 26.5t-28.5 71.5q0 49 34.5 77.5t121.5 28.5h57v14q0 30 -13 43t-45 13q-29 0 -42 -10.5t-17 -26.5h-78q4 43 37 71t100 28q69 0 102 -30.5t33 -87.5v-210h-61l-8 48q-34 -56 -108 -56zM152 -75q40 0 63 23t23 58v9h-58q-42 0 -58 -12t-16 -34
q0 -23 12.5 -33.5t33.5 -10.5z" />
    <glyph glyph-name="uni2091" unicode="&#x2091;" horiz-adv-x="360" 
d="M180 -137q-72 0 -113.5 41.5t-41.5 111.5v30q0 70 41.5 111.5t113.5 41.5q71 0 113 -42.5t42 -110.5v-42h-236q6 -77 81 -77q32 0 47 11t22 28h81q-14 -51 -53.5 -77t-96.5 -26zM180 135q-75 0 -81 -75h161q-6 75 -80 75z" />
    <glyph glyph-name="uni2092" unicode="&#x2092;" horiz-adv-x="360" 
d="M180 -137q-71 0 -113 41.5t-42 111.5v30q0 70 42 111.5t113 41.5q72 0 113.5 -41.5t41.5 -111.5v-30q0 -70 -41.5 -111.5t-113.5 -41.5zM180 -63q35 0 55 20.5t20 58.5v30q0 38 -20 58.5t-55 20.5t-55 -20.5t-20 -58.5v-30q0 -38 20 -58.5t55 -20.5z" />
    <glyph glyph-name="uni2093" unicode="&#x2093;" horiz-adv-x="350" 
d="M174 -24l-70 -105h-89l115 164l-105 156h87l63 -97l66 97h84l-104 -156l114 -164h-91z" />
    <glyph glyph-name="uni2094" unicode="&#x2094;" horiz-adv-x="360" 
d="M180.021 197.045q71.9922 0 113.486 -41.4941q41.4951 -41.4951 41.4951 -111.486v-29.9971q0 -69.9912 -41.4951 -111.486q-41.4941 -41.4951 -113.486 -41.4951q-70.9912 0 -112.985 42.4951q-41.9951 42.4951 -41.9951 110.486v41.9951h235.971
q-5.99902 76.9902 -80.9902 76.9902q-31.9961 0 -46.9941 -10.998q-14.998 -10.999 -21.9971 -27.9971h-80.9902q13.999 50.9941 53.4941 76.9912q39.4951 25.9961 96.4873 25.9961zM180.021 -74.9219q74.9912 0 80.9902 74.9912h-160.98q6 -74.9912 79.9902 -74.9912z" />
    <glyph glyph-name="uni2095" unicode="&#x2095;" horiz-adv-x="370" 
d="M40 321h77v-163q33 41 92 41t92.5 -36.5t33.5 -111.5v-180h-77v180q0 39 -17 57t-49 18q-35 0 -54 -18t-21 -50v-187h-77v450z" />
    <glyph glyph-name="uni2096" unicode="&#x2096;" horiz-adv-x="340" 
d="M150 -8l-33 -40v-81h-77v450h77v-274l111 144h87l-117 -147l127 -173h-88z" />
    <glyph glyph-name="uni2097" unicode="&#x2097;" horiz-adv-x="195" 
d="M152 -129q-117 0 -117 117v333h77v-327q0 -29 11.5 -41.5t40.5 -12.5h21v-69h-33v0z" />
    <glyph glyph-name="uni2098" unicode="&#x2098;" horiz-adv-x="570" 
d="M40 191h61l7 -43q16 26 41 38.5t56 12.5q33 0 58.5 -13.5t41.5 -42.5q33 56 109 56q55 0 88 -36.5t33 -111.5v-180h-77v180q0 39 -16 57t-45 18q-32 0 -50.5 -18t-20.5 -50v-187h-77v180q0 39 -16 57t-45 18q-33 0 -52 -19.5t-19 -55.5v-180h-77v320z" />
    <glyph glyph-name="uni2099" unicode="&#x2099;" horiz-adv-x="370" 
d="M40 191h61l7 -44q34 52 101 52q59 0 92.5 -36.5t33.5 -111.5v-180h-77v180q0 39 -17 57t-49 18q-36 0 -55.5 -19.5t-19.5 -55.5v-180h-77v320z" />
    <glyph glyph-name="uni209A" unicode="&#x209a;" horiz-adv-x="365" 
d="M210 -137q-60 0 -93 40v-162h-77v450h61l7 -45q17 27 43 40t60 13q56 0 92.5 -40t36.5 -118v-20q0 -78 -36.5 -118t-93.5 -40zM188 -64q33 0 52 21.5t19 63.5v20q0 42 -19.5 63.5t-51.5 21.5q-33 0 -52 -20.5t-19 -64.5v-20q0 -44 19 -64.5t52 -20.5z" />
    <glyph glyph-name="uni209B" unicode="&#x209b;" horiz-adv-x="320" 
d="M160 -137q-69 0 -100 27.5t-35 75.5h79q3 -20 15 -29.5t41 -9.5q32 0 44 9.5t12 27.5q0 16 -14 24t-34.5 13t-45 10t-45 15t-34.5 27t-14 48q0 45 31 71.5t100 26.5q64 0 94.5 -27t35.5 -72h-79q-4 17 -15 26t-36 9q-29 0 -40.5 -9t-11.5 -23q0 -13 14 -19.5t34.5 -11
t45 -10t45 -16.5t34.5 -30t14 -50q0 -48 -31.5 -75.5t-103.5 -27.5z" />
    <glyph glyph-name="uni209C" unicode="&#x209c;" horiz-adv-x="240" 
d="M10 191h60v90h77v-90h73v-69h-73v-142q0 -20 10 -29.5t33 -9.5h40v-70h-43q-65 0 -91 25t-26 83v143h-60v69z" />
    <glyph glyph-name="franc" unicode="&#x20a3;" horiz-adv-x="565" 
d="M10 207h95v493h435v-86h-341v-216h281v-86h-281v-105h141v-74h-141v-133h-94v133h-95v74z" />
    <glyph glyph-name="Euro" unicode="&#x20ac;" horiz-adv-x="620" 
d="M32 462h94q20 120 92.5 179t187.5 59h184l-26 -89h-158q-76 0 -121.5 -35t-59.5 -114h296l-21 -74h-282v-11v-56v-9h260l-21 -74h-233q15 -81 60.5 -115.5t120.5 -34.5h175v-88h-175q-118 0 -189.5 58t-89.5 180h-116l22 74h88v9v56v11h-110z" />
    <glyph glyph-name="uni20B4" unicode="&#x20b4;" horiz-adv-x="580" 
d="M50 317h480v-74h-307q-42 -45 -42 -92q0 -38 23 -58.5t76 -20.5q48 0 78 18.5t38 60.5h95q-8 -69 -60 -114t-151 -45q-98 0 -144.5 42t-46.5 116q0 50 30 93h-69v74zM50 457h297q26 25 39.5 48.5t13.5 47.5q0 35 -23 54.5t-72 19.5q-87 0 -102 -69h-94q11 70 63 110
t128 40q98 0 145 -41.5t47 -111.5q0 -50 -37 -98h75v-74h-480v74z" />
    <glyph glyph-name="uni20BD" unicode="&#x20bd;" horiz-adv-x="620" 
d="M15 348h95v352h220q135 0 197.5 -57.5t62.5 -160.5q0 -101 -63.5 -159.5t-196.5 -58.5h-126v-67h236v-74h-236v-123h-94v123h-95v74h95v67h-95v84zM204 614v-266h126q89 0 126 33t37 100q0 66 -37.5 99.5t-125.5 33.5h-126z" />
    <glyph glyph-name="uni20BF" unicode="&#x20bf;" horiz-adv-x="620" 
d="M323 0h-66v-100h-84v100h-93v700h93v100h84v-100h48h18v100h84v-111q75 -17 109 -62t34 -114q0 -48 -22 -86.5t-68 -62.5q57 -23 83.5 -66t26.5 -101q0 -79 -38 -127.5t-125 -63.5v-106h-84v100zM174 318v-232h151q81 0 114 29t33 87t-33 87t-114 29h-151zM174 614v-212
h131q81 0 114 27.5t33 78.5t-33 78.5t-114 27.5h-131z" />
    <glyph glyph-name="uni20F0" unicode="&#x20f0;" horiz-adv-x="250" 
d="M10 747h74l-39 67l42 24l38 -65l38 65l42 -24l-39 -67h74v-44h-74l39 -67l-42 -24l-38 65l-38 -65l-42 24l39 67h-74v44z" />
    <glyph glyph-name="uni2100" unicode="&#x2100;" horiz-adv-x="850" 
d="M604 700h96l-404 -700h-96zM660 -7q-72 0 -113.5 41.5t-41.5 116.5v20q0 75 41.5 116.5t113.5 41.5q59 0 98 -28.5t52 -82.5h-85q-10 20 -26.5 29t-38.5 9q-34 0 -54 -21.5t-20 -63.5v-20q0 -42 20 -63.5t54 -21.5q24 0 41.5 11.5t25.5 35.5h83q-10 -57 -49 -88.5
t-101 -31.5zM153 372q-56 0 -84.5 26.5t-28.5 71.5q0 49 34.5 77.5t121.5 28.5h57v14q0 30 -13 43t-45 13q-29 0 -42 -10.5t-17 -26.5h-78q4 43 37 71t100 28q69 0 102 -30.5t33 -87.5v-210h-61l-8 48q-34 -56 -108 -56zM167 434q40 0 63 23t23 58v9h-58q-42 0 -58 -12
t-16 -34q0 -23 12.5 -33.5t33.5 -10.5z" />
    <glyph glyph-name="uni2101" unicode="&#x2101;" horiz-adv-x="850" 
d="M604 700h96l-404 -700h-96zM656 -7q-69 0 -100 27.5t-35 75.5h79q3 -20 15 -29.5t41 -9.5q32 0 44 9.5t12 27.5q0 16 -14 24t-34.5 13t-45 10t-45 15t-34.5 27t-14 48q0 45 31 71.5t100 26.5q64 0 94.5 -27t35.5 -72h-79q-4 17 -15 26t-36 9q-29 0 -40.5 -9t-11.5 -23
q0 -13 14 -19.5t34.5 -11t45 -10t45 -16.5t34.5 -30t14 -50q0 -48 -31.5 -75.5t-103.5 -27.5zM153 372q-56 0 -84.5 26.5t-28.5 71.5q0 49 34.5 77.5t121.5 28.5h57v14q0 30 -13 43t-45 13q-29 0 -42 -10.5t-17 -26.5h-78q4 43 37 71t100 28q69 0 102 -30.5t33 -87.5v-210
h-61l-8 48q-34 -56 -108 -56zM167 434q40 0 63 23t23 58v9h-58q-42 0 -58 -12t-16 -34q0 -23 12.5 -33.5t33.5 -10.5z" />
    <glyph glyph-name="afii61248" unicode="&#x2105;" horiz-adv-x="850" 
d="M579 700h96l-404 -700h-96zM195 372q-72 0 -113.5 41.5t-41.5 116.5v20q0 75 41.5 116.5t113.5 41.5q59 0 98 -28.5t52 -82.5h-85q-10 20 -26.5 29t-38.5 9q-34 0 -54 -21.5t-20 -63.5v-20q0 -42 20 -63.5t54 -21.5q24 0 41.5 11.5t25.5 35.5h83q-10 -57 -49 -88.5
t-101 -31.5zM655 -7q-71 0 -113 41.5t-42 111.5v30q0 70 42 111.5t113 41.5q72 0 113.5 -41.5t41.5 -111.5v-30q0 -70 -41.5 -111.5t-113.5 -41.5zM655 67q35 0 55 20.5t20 58.5v30q0 38 -20 58.5t-55 20.5t-55 -20.5t-20 -58.5v-30q0 -38 20 -58.5t55 -20.5z" />
    <glyph glyph-name="uni2106" unicode="&#x2106;" horiz-adv-x="870" 
d="M579 700h96l-404 -700h-96zM195 372q-72 0 -113.5 41.5t-41.5 116.5v20q0 75 41.5 116.5t113.5 41.5q59 0 98 -28.5t52 -82.5h-85q-10 20 -26.5 29t-38.5 9q-34 0 -54 -21.5t-20 -63.5v-20q0 -42 20 -63.5t54 -21.5q24 0 41.5 11.5t25.5 35.5h83q-10 -57 -49 -88.5
t-101 -31.5zM663 -7q-57 0 -90 36.5t-33 111.5v180h77v-180q0 -39 16.5 -57t46.5 -18q35 0 54 19.5t19 55.5v180h77v-320h-61l-8 43q-33 -51 -98 -51z" />
    <glyph glyph-name="afii61289" unicode="&#x2113;" horiz-adv-x="390" 
d="M243 0q-71 0 -108.5 37.5t-37.5 109.5v48q-17 -13 -34.5 -25t-34.5 -23v108q17 13 34.5 26t34.5 27v267q0 63 35 98t98 35q58 0 95 -34t37 -99q0 -38 -13.5 -77t-37.5 -78t-56 -76.5t-69 -72.5v-114q0 -75 70 -75h74v-82h-87zM186 394q39 45 63 90.5t24 89.5q0 50 -43 50
q-44 0 -44 -50v-180z" />
    <glyph glyph-name="afii61352" unicode="&#x2116;" horiz-adv-x="1070" 
d="M738 336h294v-72h-294v72zM225 490l-51 102v-592h-94v700h134l271 -490l51 -102v592h94v-700h-134zM885 372q-71 0 -113 41.5t-42 111.5v30q0 70 42 111.5t113 41.5q72 0 113.5 -41.5t41.5 -111.5v-30q0 -70 -41.5 -111.5t-113.5 -41.5zM885 446q35 0 55 20.5t20 58.5v30
q0 38 -20 58.5t-55 20.5t-55 -20.5t-20 -58.5v-30q0 -38 20 -58.5t55 -20.5z" />
    <glyph glyph-name="uni2117" unicode="&#x2117;" horiz-adv-x="850" 
d="M425 -8q-76 0 -141.5 28t-114 76t-76.5 113.5t-28 140.5q0 74 28 139.5t77 114t114.5 76.5t140.5 28t141 -28t114.5 -76t76.5 -113.5t28 -140.5q0 -74 -28.5 -139.5t-77 -114t-114 -76.5t-140.5 -28zM426 68q59 0 109.5 21.5t88 59.5t59 89.5t21.5 111.5t-21.5 111.5
t-59.5 89.5t-89 59.5t-109 21.5q-59 0 -109.5 -21.5t-88.5 -59.5t-59.5 -89.5t-21.5 -111.5t21.5 -111.5t59.5 -89.5t89 -59.5t110 -21.5zM304 549h132q80 0 116 -32.5t36 -93.5q0 -60 -37 -93.5t-115 -33.5h-56v-145h-76v398zM380 481v-117h56q41 0 56.5 14t15.5 45
q0 30 -15.5 44t-56.5 14h-56z" />
    <glyph glyph-name="uni2120" unicode="&#x2120;" horiz-adv-x="850" 
d="M516 563l-16 39v-302h-77v400h100l99 -209l103 209h95v-400h-77v299l-15 -36l-68 -146h-76zM187 292q-80 0 -116.5 33.5t-40.5 99.5h81q4 -33 19.5 -46.5t56.5 -13.5q45 0 60.5 11.5t15.5 34.5q0 22 -16.5 34t-41.5 19.5t-53.5 14.5t-53.5 20.5t-41.5 36.5t-16.5 63
q0 48 35.5 78.5t111.5 30.5q72 0 107 -32t39 -87h-80q-4 23 -18 34.5t-48 11.5q-38 0 -52 -11t-14 -30q0 -21 16.5 -31.5t41.5 -18t53.5 -15t53.5 -21.5t41.5 -38t16.5 -64q0 -51 -36.5 -82.5t-120.5 -31.5z" />
    <glyph glyph-name="trademark" unicode="&#x2122;" horiz-adv-x="850" 
d="M516 563l-16 39v-302h-77v400h100l99 -209l103 209h95v-400h-77v299l-15 -36l-68 -146h-76zM30 700h332v-69h-127v-331h-77v331h-128v69z" />
    <glyph glyph-name="Omega" unicode="&#x2126;" horiz-adv-x="710" 
d="M55 86h92q-45 41 -68.5 100.5t-23.5 135.5v58q0 76 22 137t61.5 103.5t94.5 65t122 22.5t122 -22.5t94.5 -64.5t61.5 -103t22 -138v-58q0 -76 -24 -135.5t-69 -100.5h93v-86h-250v86q69 17 110.5 76.5t41.5 158.5v58q0 58 -15 102.5t-42 75t-64 46t-81 15.5t-81 -15.5
t-64 -45.5t-42 -75t-15 -103v-58q0 -99 41.5 -158.5t110.5 -76.5v-86h-250v86z" />
    <glyph glyph-name="estimated" unicode="&#x212e;" horiz-adv-x="600" 
d="M300 -8q-53 0 -100 20.5t-82 55.5t-55.5 82t-20.5 100t20.5 100t55.5 82t82 55.5t100 20.5t100 -20.5t82 -55.5t55.5 -82t20.5 -100q0 -8 -0.5 -14.5t-0.5 -7.5h-394v-146q28 -23 63 -36t74 -13q65 0 116 30.5t80 86.5h49q-17 -38 -43 -67t-58 -49.5t-69 -31t-75 -10.5z
M300 467q-39 0 -74 -13t-63 -36v-147h274v147q-29 23 -64 36t-73 13z" />
    <glyph glyph-name="uni2150" unicode="&#x2150;" horiz-adv-x="890" 
d="M579 700h96l-404 -700h-96zM40 634l108 66h77v-400h-77v315l-108 -67v86zM570 401h280v-70l-144 -330h-90l151 330h-197v70z" />
    <glyph glyph-name="uni2151" unicode="&#x2151;" horiz-adv-x="880" 
d="M579 700h96l-404 -700h-96zM40 634l108 66h77v-400h-77v315l-108 -67v86zM685 409q72 0 113.5 -43.5t41.5 -130.5v-38q0 -53 -11.5 -91t-32 -63.5t-49 -37.5t-62.5 -12q-60 0 -93.5 30.5t-41.5 78.5h77q5 -17 20 -29.5t43 -12.5q31 0 52 22.5t26 81.5q-30 -35 -85 -35
q-66 0 -104.5 37t-38.5 97v10q0 62 38.5 99t106.5 37zM690 196q66 0 69 61v16q0 32 -18 50t-56 18q-30 0 -47 -18t-17 -50v-10q0 -67 69 -67z" />
    <glyph glyph-name="uni2152" unicode="&#x2152;" horiz-adv-x="1150" 
d="M574 700h96l-404 -700h-96zM545 335l108 66h77v-400h-77v315l-108 -67v86zM40 634l108 66h77v-400h-77v315l-108 -67v86zM955 -7q-69 0 -112 47t-43 142v38q0 95 43 142t112 47t112 -47t43 -142v-38q0 -95 -43 -142t-112 -47zM955 66q32 0 53 26t21 90v38q0 64 -21 90
t-53 26t-53 -26t-21 -90v-38q0 -64 21 -90t53 -26z" />
    <glyph glyph-name="onethird" unicode="&#x2153;" horiz-adv-x="890" 
d="M579 700h96l-404 -700h-96zM40 634l108 66h77v-400h-77v315l-108 -67v86zM695 -7q-75 0 -113.5 35t-41.5 98h81q3 -29 20.5 -44.5t53.5 -15.5q39 0 56.5 15t17.5 38t-17.5 38t-56.5 15h-53v68h53q34 0 49 13.5t15 34.5q0 22 -15 35t-49 13q-32 0 -46.5 -12.5t-17.5 -38.5
h-81q3 57 38 90.5t107 33.5t108.5 -33t36.5 -82q0 -26 -12.5 -47.5t-38.5 -35.5q31 -15 46 -41t15 -57q0 -53 -38 -86.5t-117 -33.5z" />
    <glyph glyph-name="twothirds" unicode="&#x2154;" horiz-adv-x="960" 
d="M649 700h96l-404 -700h-96zM40 370l133 110q26 21 41 36t23 26.5t10 21.5t2 21q0 23 -15 36.5t-49 13.5t-49 -13.5t-15 -37.5h-81q0 58 35.5 91t109.5 33t109.5 -33t35.5 -90q0 -20 -5.5 -38t-17.5 -36.5t-31.5 -38t-48.5 -42.5l-75 -60h178v-70h-290v70zM765 -7
q-75 0 -113.5 35t-41.5 98h81q3 -29 20.5 -44.5t53.5 -15.5q39 0 56.5 15t17.5 38t-17.5 38t-56.5 15h-53v68h53q34 0 49 13.5t15 34.5q0 22 -15 35t-49 13q-32 0 -46.5 -12.5t-17.5 -38.5h-81q3 57 38 90.5t107 33.5t108.5 -33t36.5 -82q0 -26 -12.5 -47.5t-38.5 -35.5
q31 -15 46 -41t15 -57q0 -53 -38 -86.5t-117 -33.5z" />
    <glyph glyph-name="uni2155" unicode="&#x2155;" horiz-adv-x="900" 
d="M579 700h96l-404 -700h-96zM40 634l108 66h77v-400h-77v315l-108 -67v86zM580 401h253v-69h-182l-6 -81q30 27 83 27q27 0 51 -10.5t42 -29.5t28.5 -45t10.5 -57t-11 -57.5t-31 -45.5t-48 -29.5t-63 -10.5q-60 0 -101 32t-51 86h86q4 -17 20.5 -31t45.5 -14q33 0 52.5 19
t19.5 51t-19.5 51t-52.5 19q-40 0 -66 -27h-76z" />
    <glyph glyph-name="uni2156" unicode="&#x2156;" horiz-adv-x="970" 
d="M649 700h96l-404 -700h-96zM40 370l133 110q26 21 41 36t23 26.5t10 21.5t2 21q0 23 -15 36.5t-49 13.5t-49 -13.5t-15 -37.5h-81q0 58 35.5 91t109.5 33t109.5 -33t35.5 -90q0 -20 -5.5 -38t-17.5 -36.5t-31.5 -38t-48.5 -42.5l-75 -60h178v-70h-290v70zM650 401h253
v-69h-182l-6 -81q30 27 83 27q27 0 51 -10.5t42 -29.5t28.5 -45t10.5 -57t-11 -57.5t-31 -45.5t-48 -29.5t-63 -10.5q-60 0 -101 32t-51 86h86q4 -17 20.5 -31t45.5 -14q33 0 52.5 19t19.5 51t-19.5 51t-52.5 19q-40 0 -66 -27h-76z" />
    <glyph glyph-name="uni2157" unicode="&#x2157;" horiz-adv-x="950" 
d="M629 700h96l-404 -700h-96zM630 401h253v-69h-182l-6 -81q30 27 83 27q27 0 51 -10.5t42 -29.5t28.5 -45t10.5 -57t-11 -57.5t-31 -45.5t-48 -29.5t-63 -10.5q-60 0 -101 32t-51 86h86q4 -17 20.5 -31t45.5 -14q33 0 52.5 19t19.5 51t-19.5 51t-52.5 19q-40 0 -66 -27
h-76zM195 292q-75 0 -113.5 35t-41.5 98h81q3 -29 20.5 -44.5t53.5 -15.5q39 0 56.5 15t17.5 38t-17.5 38t-56.5 15h-53v68h53q34 0 49 13.5t15 34.5q0 22 -15 35t-49 13q-32 0 -46.5 -12.5t-17.5 -38.5h-81q3 57 38 90.5t107 33.5t108.5 -33t36.5 -82q0 -26 -12.5 -47.5
t-38.5 -35.5q31 -15 46 -41t15 -57q0 -53 -38 -86.5t-117 -33.5z" />
    <glyph glyph-name="uni2158" unicode="&#x2158;" horiz-adv-x="970" 
d="M649 700h96l-404 -700h-96zM650 401h253v-69h-182l-6 -81q30 27 83 27q27 0 51 -10.5t42 -29.5t28.5 -45t10.5 -57t-11 -57.5t-31 -45.5t-48 -29.5t-63 -10.5q-60 0 -101 32t-51 86h86q4 -17 20.5 -31t45.5 -14q33 0 52.5 19t19.5 51t-19.5 51t-52.5 19q-40 0 -66 -27
h-76zM40 449l166 251h107v-251h47v-69h-47v-80h-76v80h-197v69zM237 449v174l-115 -174h115z" />
    <glyph glyph-name="uni2159" unicode="&#x2159;" horiz-adv-x="880" 
d="M579 700h96l-404 -700h-96zM40 634l108 66h77v-400h-77v315l-108 -67v86zM695 -7q-72 0 -113.5 43.5t-41.5 130.5v38q0 52 11.5 90.5t32 64t49 37.5t62.5 12q60 0 93.5 -30.5t41.5 -78.5h-77q-5 17 -20 29.5t-43 12.5q-31 0 -52 -22.5t-26 -81.5q30 35 85 35
q66 0 104.5 -37t38.5 -97v-10q0 -62 -38.5 -99t-106.5 -37zM690 206q-66 0 -69 -61v-16q0 -32 18 -50t56 -18q30 0 47 18t17 50v10q0 67 -69 67z" />
    <glyph glyph-name="uni215A" unicode="&#x215a;" horiz-adv-x="930" 
d="M629 700h96l-404 -700h-96zM745 -7q-72 0 -113.5 43.5t-41.5 130.5v38q0 52 11.5 90.5t32 64t49 37.5t62.5 12q60 0 93.5 -30.5t41.5 -78.5h-77q-5 17 -20 29.5t-43 12.5q-31 0 -52 -22.5t-26 -81.5q30 35 85 35q66 0 104.5 -37t38.5 -97v-10q0 -62 -38.5 -99t-106.5 -37
zM740 206q-66 0 -69 -61v-16q0 -32 18 -50t56 -18q30 0 47 18t17 50v10q0 67 -69 67zM65 700h253v-69h-182l-6 -81q30 27 83 27q27 0 51 -10.5t42 -29.5t28.5 -45t10.5 -57t-11 -57.5t-31 -45.5t-48 -29.5t-63 -10.5q-60 0 -101 32t-51 86h86q4 -17 20.5 -31t45.5 -14
q33 0 52.5 19t19.5 51t-19.5 51t-52.5 19q-40 0 -66 -27h-76z" />
    <glyph glyph-name="oneeighth" unicode="&#x215b;" horiz-adv-x="890" 
d="M579 700h96l-404 -700h-96zM40 634l108 66h77v-400h-77v315l-108 -67v86zM695 -7q-77 0 -116 34t-39 84q0 33 16 58.5t51 41.5q-28 15 -40 38t-12 52q0 22 9 41.5t27 34.5t44 23.5t60 8.5t60 -8.5t44 -23.5t27 -34.5t9 -41.5q0 -61 -53 -90q35 -16 51.5 -41.5t16.5 -58.5
q0 -50 -39 -84t-116 -34zM695 63q38 0 56 16t18 39q0 24 -18 40.5t-56 20.5q-38 -4 -56 -20.5t-18 -40.5q0 -23 18 -39t56 -16zM695 242q30 4 45 18t15 33q0 20 -15 33t-45 13q-31 0 -45.5 -13t-14.5 -33q0 -19 15.5 -33t44.5 -18z" />
    <glyph glyph-name="threeeighths" unicode="&#x215c;" horiz-adv-x="940" 
d="M629 700h96l-404 -700h-96zM745 -7q-77 0 -116 34t-39 84q0 33 16 58.5t51 41.5q-28 15 -40 38t-12 52q0 22 9 41.5t27 34.5t44 23.5t60 8.5t60 -8.5t44 -23.5t27 -34.5t9 -41.5q0 -61 -53 -90q35 -16 51.5 -41.5t16.5 -58.5q0 -50 -39 -84t-116 -34zM745 63q38 0 56 16
t18 39q0 24 -18 40.5t-56 20.5q-38 -4 -56 -20.5t-18 -40.5q0 -23 18 -39t56 -16zM745 242q30 4 45 18t15 33q0 20 -15 33t-45 13q-31 0 -45.5 -13t-14.5 -33q0 -19 15.5 -33t44.5 -18zM195 292q-75 0 -113.5 35t-41.5 98h81q3 -29 20.5 -44.5t53.5 -15.5q39 0 56.5 15
t17.5 38t-17.5 38t-56.5 15h-53v68h53q34 0 49 13.5t15 34.5q0 22 -15 35t-49 13q-32 0 -46.5 -12.5t-17.5 -38.5h-81q3 57 38 90.5t107 33.5t108.5 -33t36.5 -82q0 -26 -12.5 -47.5t-38.5 -35.5q31 -15 46 -41t15 -57q0 -53 -38 -86.5t-117 -33.5z" />
    <glyph glyph-name="fiveeighths" unicode="&#x215d;" horiz-adv-x="940" 
d="M629 700h96l-404 -700h-96zM65 700h253v-69h-182l-6 -81q30 27 83 27q27 0 51 -10.5t42 -29.5t28.5 -45t10.5 -57t-11 -57.5t-31 -45.5t-48 -29.5t-63 -10.5q-60 0 -101 32t-51 86h86q4 -17 20.5 -31t45.5 -14q33 0 52.5 19t19.5 51t-19.5 51t-52.5 19q-40 0 -66 -27h-76
zM745 -7q-77 0 -116 34t-39 84q0 33 16 58.5t51 41.5q-28 15 -40 38t-12 52q0 22 9 41.5t27 34.5t44 23.5t60 8.5t60 -8.5t44 -23.5t27 -34.5t9 -41.5q0 -61 -53 -90q35 -16 51.5 -41.5t16.5 -58.5q0 -50 -39 -84t-116 -34zM745 63q38 0 56 16t18 39q0 24 -18 40.5t-56 20.5
q-38 -4 -56 -20.5t-18 -40.5q0 -23 18 -39t56 -16zM745 242q30 4 45 18t15 33q0 20 -15 33t-45 13q-31 0 -45.5 -13t-14.5 -33q0 -19 15.5 -33t44.5 -18z" />
    <glyph glyph-name="seveneighths" unicode="&#x215e;" horiz-adv-x="860" 
d="M549 700h96l-404 -700h-96zM665 -7q-77 0 -116 34t-39 84q0 33 16 58.5t51 41.5q-28 15 -40 38t-12 52q0 22 9 41.5t27 34.5t44 23.5t60 8.5t60 -8.5t44 -23.5t27 -34.5t9 -41.5q0 -61 -53 -90q35 -16 51.5 -41.5t16.5 -58.5q0 -50 -39 -84t-116 -34zM665 63q38 0 56 16
t18 39q0 24 -18 40.5t-56 20.5q-38 -4 -56 -20.5t-18 -40.5q0 -23 18 -39t56 -16zM665 242q30 4 45 18t15 33q0 20 -15 33t-45 13q-31 0 -45.5 -13t-14.5 -33q0 -19 15.5 -33t44.5 -18zM40 700h280v-70l-144 -330h-90l151 330h-197v70z" />
    <glyph glyph-name="uni215F" unicode="&#x215f;" horiz-adv-x="500" 
d="M579 700h96l-404 -700h-96zM40 634l108 66h77v-400h-77v315l-108 -67v86z" />
    <glyph glyph-name="uni2189" unicode="&#x2189;" horiz-adv-x="930" 
d="M619 700h96l-404 -700h-96zM195 292q-69 0 -112 47t-43 142v38q0 95 43 142t112 47t112 -47t43 -142v-38q0 -95 -43 -142t-112 -47zM195 365q32 0 53 26t21 90v38q0 64 -21 90t-53 26t-53 -26t-21 -90v-38q0 -64 21 -90t53 -26zM735 -7q-75 0 -113.5 35t-41.5 98h81
q3 -29 20.5 -44.5t53.5 -15.5q39 0 56.5 15t17.5 38t-17.5 38t-56.5 15h-53v68h53q34 0 49 13.5t15 34.5q0 22 -15 35t-49 13q-32 0 -46.5 -12.5t-17.5 -38.5h-81q3 57 38 90.5t107 33.5t108.5 -33t36.5 -82q0 -26 -12.5 -47.5t-38.5 -35.5q31 -15 46 -41t15 -57
q0 -53 -38 -86.5t-117 -33.5z" />
    <glyph glyph-name="arrowleft" unicode="&#x2190;" horiz-adv-x="800" 
d="M42 250l250 250h114l-206 -206h550v-89h-547l205 -205h-116z" />
    <glyph glyph-name="arrowup" unicode="&#x2191;" horiz-adv-x="600" 
d="M50 358l250 250l250 -250v-116l-205 205v-547h-90v549l-205 -205v114z" />
    <glyph glyph-name="arrowright" unicode="&#x2192;" horiz-adv-x="800" 
d="M50 294h548l-206 206h116l250 -250l-250 -250h-114l205 205h-549v89z" />
    <glyph glyph-name="arrowdown" unicode="&#x2193;" horiz-adv-x="600" 
d="M50 142v116l205 -205v547h90v-549l205 205v-114l-250 -250z" />
    <glyph glyph-name="arrowboth" unicode="&#x2194;" horiz-adv-x="900" 
d="M698 205h-495l205 -205h-116l-250 250l250 250h114l-206 -206h497l-206 206h117l250 -250l-250 -250h-115z" />
    <glyph glyph-name="arrowupdn" unicode="&#x2195;" horiz-adv-x="600" 
d="M50 408l250 250l250 -250v-116l-205 205v-496l205 205v-114l-250 -250l-250 250v116l205 -205v496l-205 -206v115z" />
    <glyph glyph-name="uni2196" unicode="&#x2196;" horiz-adv-x="600" 
d="M60 147v353h355l81 -81h-292l364 -364l-63 -63l-362 362v-290z" />
    <glyph glyph-name="uni2197" unicode="&#x2197;" horiz-adv-x="600" 
d="M32 53l366 366h-294l81 81h355v-353l-83 -83v292l-364 -364z" />
    <glyph glyph-name="uni2198" unicode="&#x2198;" horiz-adv-x="600" 
d="M104 81h292l-364 364l63 63l362 -362v290l83 -83v-353h-355z" />
    <glyph glyph-name="uni2199" unicode="&#x2199;" horiz-adv-x="600" 
d="M60 353l83 83v-292l364 364l61 -61l-366 -366h294l-81 -81h-355v353z" />
    <glyph glyph-name="partialdiff" unicode="&#x2202;" horiz-adv-x="550" 
d="M220 -8q-85 0 -137.5 49t-52.5 140v15t1 16.5t3 22.5t6 34q9 53 31 97t54.5 75.5t73 49t87.5 17.5q50 0 89 -18t63 -53v18q0 86 -37.5 124t-122.5 38h-97v83h107q117 0 174.5 -58t57.5 -179q0 -15 -1 -29.5t-3 -34t-6 -45.5t-10 -64q-25 -149 -98 -223.5t-182 -74.5z
M232 75q33 0 61 14t50 36.5t36.5 50t19.5 54.5l2 12q3 16 5 35t2 26q0 60 -31 91.5t-80 31.5q-32 0 -59.5 -12t-49.5 -33t-37 -49.5t-21 -62.5q-3 -19 -5 -31t-2.5 -19.5t-1 -13t-0.5 -11.5q0 -57 30.5 -88t80.5 -31z" />
    <glyph glyph-name="Delta" unicode="&#x2206;" horiz-adv-x="650" 
d="M269 700h112l254 -700h-620zM143 86h360l-179 511z" />
    <glyph glyph-name="product" unicode="&#x220f;" horiz-adv-x="680" 
d="M506 614h-332v-814h-94v900h520v-900h-94v814z" />
    <glyph glyph-name="summation" unicode="&#x2211;" horiz-adv-x="570" 
d="M45 -114l196 372l-196 356v86h500v-86h-391l191 -352l-196 -376h396v-86h-500v86z" />
    <glyph glyph-name="minus" unicode="&#x2212;" 
d="M70 403h450v-86h-450v86z" />
    <glyph glyph-name="uni2215" unicode="&#x2215;" 
d="M415 700h100l-340 -700h-100z" />
    <glyph glyph-name="uni2219" unicode="&#x2219;" horiz-adv-x="350" 
d="M175 170q-21 0 -39.5 8t-32 21.5t-21 31.5t-7.5 39t7.5 39t21 31.5t32 21.5t39.5 8q42 0 71 -29t29 -71t-29 -71t-71 -29z" />
    <glyph glyph-name="radical" unicode="&#x221a;" horiz-adv-x="585" 
d="M20 393h147l126 -367l193 774h99l-232 -900h-112l-146 407h-75v86z" />
    <glyph glyph-name="infinity" unicode="&#x221e;" horiz-adv-x="780" 
d="M581 170q-29 0 -54.5 6t-49 18.5t-45.5 33.5t-44 51q-44 -59 -88 -84t-101 -25q-38 0 -71.5 14.5t-58.5 40t-39.5 60.5t-14.5 75t14.5 74.5t39.5 60t58.5 40t71.5 14.5q58 0 102.5 -24.5t90.5 -83.5q44 58 87.5 83t101.5 25q38 0 71.5 -14.5t58.5 -40t39.5 -60
t14.5 -74.5t-14.5 -75t-39.5 -60.5t-58.5 -40t-71.5 -14.5zM580 460q-17 0 -31.5 -3.5t-30.5 -14t-33.5 -29.5t-39.5 -50q22 -33 40 -53.5t33.5 -31.5t30 -14.5t31.5 -3.5q18 0 34.5 7.5t28.5 20.5t19.5 31.5t7.5 40.5t-7.5 40t-19.5 31.5t-28.5 21t-34.5 7.5zM200 260
q16 0 30.5 3.5t30.5 13.5t33.5 29t40.5 51q-23 33 -40.5 53t-33 31t-30.5 15t-31 4q-18 0 -34 -7.5t-28.5 -21t-19.5 -31.5t-7 -40q0 -45 26.5 -72.5t62.5 -27.5z" />
    <glyph glyph-name="integral" unicode="&#x222b;" 
d="M95 -200v86h66q48 0 67.5 19.5t19.5 70.5v559q0 165 167 165h80v-86h-66q-48 0 -67.5 -19.5t-19.5 -70.5v-559q0 -165 -167 -165h-80z" />
    <glyph glyph-name="similar" unicode="&#x223c;" 
d="M401 265q-40 0 -69 15.5t-53 34.5t-45 34.5t-45 15.5q-26 0 -41 -16t-15 -44h-88q0 33 11 60.5t30.5 47.5t45.5 31t57 11q40 0 69 -15.5t53 -34.5t45 -34.5t45 -15.5q27 0 41.5 16.5t14.5 43.5h88q0 -33 -11 -60.5t-30.5 -47.5t-45.5 -31t-57 -11z" />
    <glyph glyph-name="approxequal" unicode="&#x2248;" 
d="M401 365q-40 0 -69 15.5t-53 34.5t-45 34.5t-45 15.5q-26 0 -41 -16t-15 -44h-88q0 33 11 60.5t30.5 47.5t45.5 31t57 11q40 0 69 -15.5t53 -34.5t45 -34.5t45 -15.5q27 0 41.5 16.5t14.5 43.5h88q0 -33 -11 -60.5t-30.5 -47.5t-45.5 -31t-57 -11zM401 166
q-40 0 -69 15.5t-53 34.5t-45 34.5t-45 15.5q-26 0 -41 -16t-15 -44h-88q0 33 11 60.5t30.5 47.5t45.5 31t57 11q40 0 69 -15.5t53 -34.5t45 -34.5t45 -15.5q27 0 41.5 16.5t14.5 43.5h88q0 -33 -11 -60.5t-30.5 -47.5t-45.5 -31t-57 -11z" />
    <glyph glyph-name="notequal" unicode="&#x2260;" 
d="M70 503h245l50 107h90l-50 -107h115v-86h-154l-53 -114h207v-86h-246l-49 -107h-90l49 107h-114v86h153l53 114h-206v86z" />
    <glyph glyph-name="equivalence" unicode="&#x2261;" 
d="M70 194h450v-86h-450v86zM70 394h450v-86h-450v86zM70 593h450v-86h-450v86z" />
    <glyph glyph-name="lessequal" unicode="&#x2264;" 
d="M173 422l347 -155v-98l-450 203v98l450 203v-96zM70 151h450v-85h-450v85z" />
    <glyph glyph-name="greaterequal" unicode="&#x2265;" 
d="M70 673l450 -203v-98l-450 -203v96l348 155l-348 155v98zM70 151h450v-85h-450v85z" />
    <glyph glyph-name="uni228D" unicode="&#x228d;" horiz-adv-x="820" 
d="M410 -8q-74 0 -139 28t-113 76t-76 113.5t-28 140.5v350h85v-350q0 -57 21 -107t58 -87t86.5 -58t105.5 -21t105.5 21t86 58t58 87t21.5 107v350h85v-350q0 -75 -28 -140.5t-76 -113.5t-113 -76t-139 -28zM410 281q-30 0 -49.5 20t-19.5 49t19.5 49t49.5 20t49.5 -20
t19.5 -49t-19.5 -49t-49.5 -20z" />
    <glyph glyph-name="uni2299" unicode="&#x2299;" horiz-adv-x="820" 
d="M410 -8q-74 0 -139 28t-113 76t-76 113.5t-28 140.5t28 140.5t76 113.5t113 76t139 28t139 -28t113 -76t76 -113.5t28 -140.5t-28 -140.5t-76 -113.5t-113 -76t-139 -28zM410 77q56 0 105.5 21t86 58t58 87t21.5 107t-21.5 107t-58 87t-86 58t-105.5 21t-105.5 -21
t-86.5 -58t-58 -87t-21 -107t21 -107t58 -87t86.5 -58t105.5 -21zM410 281q-30 0 -49.5 20t-19.5 49t19.5 49t49.5 20t49.5 -20t19.5 -49t-19.5 -49t-49.5 -20z" />
    <glyph glyph-name="dotmath" unicode="&#x22c5;" 
d="M295 281q-31 0 -50.5 20.5t-19.5 49.5t19.5 49.5t50.5 20.5t50.5 -20.5t19.5 -49.5t-19.5 -49.5t-50.5 -20.5z" />
    <glyph glyph-name="uni2300" unicode="&#x2300;" horiz-adv-x="600" 
d="M155 142q-50 35 -79 89t-29 119q0 52 20 98.5t54 80.5t80 54t99 20q17 0 34 -2.5t34 -7.5l50 107h94l-67 -142q49 -35 78.5 -89t29.5 -119q0 -53 -20 -99t-54 -80t-80.5 -54t-98.5 -20q-37 0 -68 9l-50 -106h-94zM300 181q35 0 65.5 13.5t53.5 36.5t36.5 53.5t13.5 65.5
q0 39 -16.5 73t-44.5 57l-140 -296q15 -3 32 -3zM131 350q0 -39 16.5 -73t44.5 -57l139 296q-15 3 -31 3q-35 0 -65.5 -13.5t-53.5 -36.5t-36.5 -53.5t-13.5 -65.5z" />
    <glyph glyph-name="angleleft" unicode="&#x2329;" horiz-adv-x="400" 
d="M50 249l208 451h102l-206 -449l206 -451h-106z" />
    <glyph glyph-name="angleright" unicode="&#x232a;" horiz-adv-x="400" 
d="M350.006 251.03l-207.975 -450.944h-101.987l205.975 448.944l-205.975 450.945h105.987z" />
    <glyph glyph-name="lozenge" unicode="&#x25ca;" 
d="M40 349l199 351h112l199 -349l-199 -351h-112zM294 618l-151 -267l153 -269l152 267z" />
    <glyph glyph-name="openbullet" unicode="&#x25e6;" horiz-adv-x="450" 
d="M225 131q-27 0 -50.5 10t-41 27.5t-27.5 41t-10 50.5t10 50.5t27.5 41t41 27.5t50.5 10t50.5 -10t41 -27.5t27.5 -41t10 -50.5t-10 -50.5t-27.5 -41t-41 -27.5t-50.5 -10zM225 194q29 0 47.5 19.5t18.5 46.5t-18.5 46.5t-47.5 19.5t-47.5 -19.5t-18.5 -46.5t18.5 -46.5
t47.5 -19.5z" />
    <glyph glyph-name="uni2605" unicode="&#x2605;" horiz-adv-x="780" 
d="M156 -8l90 274l-232 168h287l89 274l89 -274h287l-232 -168l89 -274l-233 169z" />
    <glyph glyph-name="smileface" unicode="&#x263a;" horiz-adv-x="820" 
d="M410 -8q-74 0 -138.5 28t-112.5 76t-76 113.5t-28 140.5t28 140.5t76 113.5t112.5 76t138.5 28t138.5 -28t112.5 -76t76 -113.5t28 -140.5t-28 -140.5t-76 -113.5t-112.5 -76t-138.5 -28zM410 68q58 0 108.5 22t88.5 60t60 89.5t22 110.5t-22 110.5t-60 89.5t-88.5 60
t-108.5 22t-108.5 -22t-88.5 -60t-60 -89.5t-22 -110.5t22 -110.5t60 -89.5t88.5 -60t108.5 -22zM410 124q-37 0 -71 11.5t-62 32t-49 48.5t-33 61l60 20q18 -47 59.5 -76.5t95.5 -29.5t95.5 29.5t59.5 76.5l59 -20q-12 -33 -33 -61t-48.5 -48.5t-61.5 -32t-71 -11.5z
M285 379q-23 0 -39.5 16.5t-16.5 39.5t16.5 39.5t39.5 16.5t39.5 -16.5t16.5 -39.5t-16.5 -39.5t-39.5 -16.5zM535 379q-23 0 -39.5 16.5t-16.5 39.5t16.5 39.5t39.5 16.5t39.5 -16.5t16.5 -39.5t-16.5 -39.5t-39.5 -16.5z" />
    <glyph glyph-name="invsmileface" unicode="&#x263b;" horiz-adv-x="820" 
d="M410 -8q-74 0 -138.5 28t-112.5 76t-76 113.5t-28 140.5t28 140.5t76 113.5t112.5 76t138.5 28t138.5 -28t112.5 -76t76 -113.5t28 -140.5t-28 -140.5t-76 -113.5t-112.5 -76t-138.5 -28zM410 120q38 0 72 11.5t62.5 32t49.5 49t33 62.5l-55 20q-17 -51 -61.5 -81.5
t-100.5 -30.5t-100.5 30.5t-61.5 81.5l-56 -20q12 -34 33 -62.5t49.5 -49t63 -32t72.5 -11.5zM285 379q23 0 39.5 16.5t16.5 39.5t-16.5 39.5t-39.5 16.5t-39.5 -16.5t-16.5 -39.5t16.5 -39.5t39.5 -16.5zM535 379q23 0 39.5 16.5t16.5 39.5t-16.5 39.5t-39.5 16.5
t-39.5 -16.5t-16.5 -39.5t16.5 -39.5t39.5 -16.5z" />
    <glyph glyph-name="uni2713" unicode="&#x2713;" horiz-adv-x="500" 
d="M35 354h103l83 -232l146 578h98l-184 -700h-112z" />
    <glyph glyph-name="uni2726" unicode="&#x2726;" horiz-adv-x="750" 
d="M375 -8q-74 284 -358 358q284 74 358 358q38 -142 126.5 -231.5t231.5 -126.5q-143 -37 -231.5 -126.5t-126.5 -231.5z" />
    <glyph glyph-name="uni2727" unicode="&#x2727;" horiz-adv-x="750" 
d="M375 -8q-74 284 -358 358q284 74 358 358q38 -142 126.5 -231.5t231.5 -126.5q-143 -37 -231.5 -126.5t-126.5 -231.5zM375 156q18 33 37 60.5t40.5 51t47.5 44t59 38.5q-33 18 -59 37t-47.5 41t-40.5 48t-37 59q-18 -33 -37 -59t-41 -48t-48 -41t-59 -37q65 -37 107 -83
t78 -111z" />
    <glyph glyph-name="uni2729" unicode="&#x2729;" horiz-adv-x="780" 
d="M156 -8l90 274l-232 168h287l89 274l89 -274h287l-232 -168l89 -274l-233 169zM274 153l116 84l116 -84l-44 137l114 82h-142l-44 137l-45 -137h-141l113 -82z" />
    <glyph glyph-name="uni2764" unicode="&#x2764;" horiz-adv-x="930" 
d="M107 350q-29 29 -45.5 66.5t-16.5 81.5q0 43 16.5 81.5t45 67t66.5 45t82 16.5q43 0 81 -16t67 -45l62 -62l62 62q29 29 67 45t81 16t81.5 -16.5t67 -45t45 -67t16.5 -81.5q0 -44 -16.5 -81.5t-45.5 -66.5l-358 -358z" />
    <glyph glyph-name="uniF400" unicode="&#xf400;" horiz-adv-x="0" 
d="M-203 710h104l-130 -150h-90z" />
    <glyph glyph-name="uniF401" unicode="&#xf401;" horiz-adv-x="0" 
d="M-288 910h108l-128 -150h-92z" />
    <glyph glyph-name="uniF406" unicode="&#xf406;" horiz-adv-x="320" 
d="M160 762q-74 0 -112 36.5t-38 101.5h74q0 -32 19 -50t57 -18q39 0 58.5 18t19.5 50h72q0 -65 -38 -101.5t-112 -36.5z" />
    <glyph glyph-name="uniF407" unicode="&#xf407;" horiz-adv-x="190" 
d="M67 11l57 -11l-9 -35q33 -7 49 -26.5t16 -48.5q0 -41 -25 -65.5t-70 -24.5h-75v66h65q27 0 27 24t-27 24h-32z" />
    <glyph glyph-name="uniF408" unicode="&#xf408;" horiz-adv-x="360" 
d="M180 846l-73 -86h-92l112 150h106l112 -150h-92z" />
    <glyph glyph-name="uniF409" unicode="&#xf409;" horiz-adv-x="200" 
d="M81 -50h104l-96 -150h-74z" />
    <glyph glyph-name="uniF40A" unicode="&#xf40a;" horiz-adv-x="190" 
d="M73 700h102l-74 -250h-86z" />
    <glyph glyph-name="uniF40B" unicode="&#xf40b;" horiz-adv-x="160" 
d="M80 775q-26 0 -43 17t-17 43t17 43t43 17t43 -17t17 -43t-17 -43t-43 -17z" />
    <glyph glyph-name="uniF40C" unicode="&#xf40c;" horiz-adv-x="240" 
d="M120 730q-24 0 -44 8t-35 22.5t-23 33.5t-8 41t8 41t23 33.5t35 22.5t44 8t44 -8t35 -22.5t23 -33.5t8 -41t-8 -41t-23 -33.5t-35 -22.5t-44 -8zM120 790q19 0 31.5 12.5t12.5 32.5t-12.5 32.5t-31.5 12.5t-31.5 -12.5t-12.5 -32.5t12.5 -32.5t31.5 -12.5z" />
    </font>
</defs>
</svg>
