<?xml version="1.0" standalone="no"?>
<!DOCTYPE svg PUBLIC "-//W3C//DTD SVG 1.1//EN" "http://www.w3.org/Graphics/SVG/1.1/DTD/svg11.dtd" >
<svg xmlns="http://www.w3.org/2000/svg" xmlns:xlink="http://www.w3.org/1999/xlink" version="1.1">
<metadata>
Created by FontForge 20170731 at Thu Dec 20 12:38:14 2018
 By Aleksey,,,
Copyright (c) 2018 ParaType Inc., ParaType Ltd. All rights reserved.
</metadata>
<defs>
<font id="PTRootUI-Light" horiz-adv-x="590" >
  <font-face 
    font-family="PT Root UI Light"
    font-weight="300"
    font-stretch="normal"
    units-per-em="1000"
    panose-1="2 11 2 3 2 2 2 2 2 4"
    ascent="772"
    descent="-228"
    x-height="500"
    cap-height="700"
    bbox="-380 -265 1640 991"
    underline-thickness="50"
    underline-position="-200"
    unicode-range="U+000D-FEFF"
  />
<missing-glyph horiz-adv-x="650" 
d="M85 700h480v-700h-480v700zM523 70v560l-174 -280zM127 629v-560l174 280zM325 388l169 272h-338zM155 40h338l-169 271z" />
    <glyph glyph-name="afii10017.var.accented" unicode="&#x410;`" horiz-adv-x="650" 
d="M486 214h-324l-79 -214h-48l260 700h60l260 -700h-50zM177 256h293l-146 397l-65 -177zM417 910h62l-128 -150h-52z" />
    <glyph glyph-name="afii10022.var.accented" unicode="&#x415;`" horiz-adv-x="560" 
d="M100 700h405v-42h-359v-277h299v-42h-299v-297h359v-42h-405v700zM394 910h62l-128 -150h-52z" />
    <glyph glyph-name="afii10026.var.accented" unicode="&#x418;`" horiz-adv-x="710" 
d="M564 649l-58 -99l-344 -550h-62v700h46v-649l58 99l344 550h62v-700h-46v649zM447 910h62l-128 -150h-52z" />
    <glyph glyph-name="afii10032.var.accented" unicode="&#x41e;`" horiz-adv-x="710" 
d="M355 -6q-60 0 -111 22t-88.5 63.5t-59 101t-21.5 134.5v70q0 75 21.5 134.5t59 101t89 63.5t110.5 22q60 0 111 -22t88.5 -63.5t59 -101t21.5 -134.5v-70q0 -75 -21.5 -134.5t-59 -101t-89 -63.5t-110.5 -22zM355 38q49 0 91 18.5t73.5 54t49.5 87t18 117.5v70
q0 65 -18 116.5t-49.5 87t-74 54.5t-90.5 19q-49 0 -91 -18.5t-73.5 -54t-49.5 -87t-18 -117.5v-70q0 -65 18 -116.5t49.5 -87t74 -54.5t90.5 -19zM447 910h62l-128 -150h-52z" />
    <glyph glyph-name="afii10037.var.accented" unicode="&#x423;`" horiz-adv-x="610" 
d="M295 201l-255 499h54l226 -447l198 447h52l-313 -700h-52zM398 910h62l-128 -150h-52z" />
    <glyph glyph-name="afii10045.var.accented" unicode="&#x42b;`" horiz-adv-x="830" 
d="M100 700h46v-276h164q120 0 180 -56.5t60 -155.5q0 -101 -59.5 -156.5t-180.5 -55.5h-210v700zM146 382v-340h164q99 0 145.5 44t46.5 126q0 81 -47.5 125.5t-144.5 44.5h-164zM684 700h46v-700h-46v700zM507 910h62l-128 -150h-52z" />
    <glyph glyph-name="afii10047.var.accented" unicode="&#x42d;`" horiz-adv-x="670" 
d="M235 376h312v14q0 65 -17 115.5t-47.5 85t-72 52.5t-90.5 18q-42 0 -76.5 -12.5t-61 -33t-43.5 -46.5t-25 -54h-49q7 36 28 70.5t54 61.5t76.5 43t96.5 16q59 0 109.5 -21.5t87 -62t57.5 -99t21 -133.5v-70q0 -79 -20.5 -139.5t-57.5 -102t-87 -63t-110 -21.5
q-53 0 -97 16.5t-76.5 45t-53.5 67t-28 82.5h49q8 -35 25.5 -65t43.5 -52.5t60.5 -35.5t76.5 -13q49 0 90.5 18t72 53.5t47.5 88t17 121.5v14h-312v42zM412 910h62l-128 -150h-52z" />
    <glyph glyph-name="afii10048.var.accented" unicode="&#x42e;`" horiz-adv-x="905" 
d="M562 -6q-59 0 -108 21t-84.5 62t-55.5 103t-20 145v14h-148v-339h-46v700h46v-319h148v14q0 75 20 133t55.5 97.5t84.5 60t108 20.5t108 -20.5t84.5 -60t55.5 -97.5t20 -133v-70q0 -83 -20 -145t-55.5 -103t-84.5 -62t-108 -21zM562 38q48 0 88 17.5t69.5 53t46 89.5
t16.5 127v70q0 65 -16.5 115t-46 83.5t-69.5 51t-88 17.5t-88 -17.5t-69.5 -51t-46 -83.5t-16.5 -115v-70q0 -73 16.5 -127t46 -89.5t69.5 -53t88 -17.5zM557 910h62l-128 -150h-52z" />
    <glyph glyph-name="afii10049.var.accented" unicode="&#x42f;`" horiz-adv-x="620" 
d="M222 308q-76 19 -114 69.5t-38 122.5q0 91 59.5 145.5t180.5 54.5h210v-700h-46v298h-164h-21.5t-21.5 2l-167 -300h-50zM118 500q0 -71 48.5 -115.5t143.5 -44.5h164v318h-164q-97 0 -144.5 -42.5t-47.5 -115.5zM422 910h62l-128 -150h-52z" />
    <glyph glyph-name="afii10023.var.accented" unicode="&#x401;`" horiz-adv-x="560" 
d="M100 700h405v-42h-359v-277h299v-42h-299v-297h359v-42h-405v700zM182 800q-15 0 -25 10t-10 25t10 25t25 10t25 -10t10 -25t-10 -25t-25 -10zM422 800q-15 0 -25 10t-10 25t10 25t25 10t25 -10t10 -25t-10 -25t-25 -10zM316 910h56l-94 -150h-46z" />
    <glyph glyph-name="afii10065.var.accented" unicode="&#x430;`" horiz-adv-x="520" 
d="M210 -6q-72 0 -111 37.5t-39 102.5q0 69 47 110t153 41h126v55q0 64 -30 94t-96 30q-63 0 -92.5 -25.5t-33.5 -68.5h-44q4 61 45.5 98.5t124.5 37.5q170 0 170 -166v-340h-36l-6 105q-26 -52 -73 -81.5t-105 -29.5zM210 36q35 0 66.5 13t55.5 36.5t38 54.5t16 67v38h-126
q-83 0 -118.5 -30t-35.5 -81q0 -45 27 -71.5t77 -26.5zM350 710h60l-130 -150h-50z" />
    <glyph glyph-name="afii10070.var.accented" unicode="&#x435;`" horiz-adv-x="540" 
d="M270 -6q-46 0 -83.5 15.5t-64.5 44.5t-42 72t-15 99v50q0 55 15 98.5t42 72.5t64.5 44.5t83.5 15.5t83.5 -15.5t64.5 -44.5t42 -72.5t15 -98.5v-35h-364v-15q0 -94 44 -141.5t115 -47.5q69 0 102.5 27.5t48.5 76.5h46q-15 -65 -62 -105.5t-135 -40.5zM270 464
q-70 0 -113.5 -46.5t-45.5 -137.5h318q-2 91 -46 137.5t-113 46.5zM365 710h60l-130 -150h-50z" />
    <glyph glyph-name="afii10074.var.accented" unicode="&#x438;`" horiz-adv-x="580" 
d="M441 445l-61 -95l-229 -350h-56v500h44v-446l61 96l229 350h56v-500h-44v445zM385 710h60l-130 -150h-50z" />
    <glyph glyph-name="afii10080.var.accented" unicode="&#x43e;`" horiz-adv-x="550" 
d="M275 -6q-47 0 -86 15.5t-66.5 45t-42.5 72.5t-15 98v50q0 55 15 98t43 72.5t66.5 45t85.5 15.5t86 -15.5t66.5 -45t42.5 -72.5t15 -98v-50q0 -55 -15 -98t-43 -72.5t-66.5 -45t-85.5 -15.5zM275 36q73 0 118.5 48.5t45.5 140.5v50q0 91 -46 140t-118 49
q-73 0 -118.5 -48.5t-45.5 -140.5v-50q0 -91 46 -140t118 -49zM370 710h60l-130 -150h-50z" />
    <glyph glyph-name="afii10085.var.accented" unicode="&#x443;`" horiz-adv-x="520" 
d="M245 -1l-210 501h48l185 -447l171 447h46l-270 -700h-46zM356 710h60l-130 -150h-50z" />
    <glyph glyph-name="afii10093.var.accented" unicode="&#x44b;`" horiz-adv-x="710" 
d="M95 500h44v-190h126q98 0 144 -41.5t46 -113.5t-46 -113.5t-144 -41.5h-170v500zM139 270v-230h126q77 0 110.5 30t33.5 85t-33.5 85t-110.5 30h-126zM571 500h44v-500h-44v500zM450 710h60l-130 -150h-50z" />
    <glyph glyph-name="afii10095.var.accented" unicode="&#x44d;`" horiz-adv-x="505" 
d="M180 275h214v5q0 42 -12 76t-33.5 58t-50.5 37t-63 13q-55 0 -88.5 -28t-48.5 -66h-48q7 27 23 51.5t39 43.5t54 30t69 11q45 0 82.5 -16.5t64.5 -46t42.5 -71t15.5 -92.5v-50q0 -56 -15.5 -100t-42.5 -74t-64.5 -46t-82.5 -16q-78 0 -124 41.5t-61 104.5h48
q15 -47 47.5 -75.5t89.5 -28.5q34 0 63 12.5t50.5 37t33.5 61t12 83.5v5h-214v40zM330 710h60l-130 -150h-50z" />
    <glyph glyph-name="afii10096.var.accented" unicode="&#x44e;`" horiz-adv-x="740" 
d="M467 -6q-45 0 -83 16t-66 46t-43.5 72.5t-15.5 96.5v10h-120v-235h-44v500h44v-225h120q0 54 15.5 96.5t43.5 72.5t66 46t83 16t83 -16t66 -46t43.5 -72.5t15.5 -96.5v-50q0 -54 -15.5 -96.5t-43.5 -72.5t-66 -46t-83 -16zM467 36q35 0 64.5 12.5t51.5 37t34 59.5t12 80
v50q0 45 -12 80t-34 59.5t-51.5 37t-64.5 12.5t-64.5 -12.5t-51.5 -37t-34 -59.5t-12 -80v-50q0 -45 12 -80t34 -59.5t51.5 -37t64.5 -12.5zM480 710h60l-130 -150h-50z" />
    <glyph glyph-name="afii10097.var.accented" unicode="&#x44f;`" horiz-adv-x="510" 
d="M65 347q0 72 46 112.5t149 40.5h155v-500h-44v195h-111q-28 0 -52 3l-113 -198h-50l120 207q-52 16 -76 52t-24 88zM111 347q0 -53 34 -82.5t115 -29.5h111v224h-111q-81 0 -115 -29.5t-34 -82.5zM365 710h60l-130 -150h-50z" />
    <glyph glyph-name="afii10071.var.accented" unicode="&#x451;`" horiz-adv-x="540" 
d="M270 -6q-46 0 -83.5 15.5t-64.5 44.5t-42 72t-15 99v50q0 55 15 98.5t42 72.5t64.5 44.5t83.5 15.5t83.5 -15.5t64.5 -44.5t42 -72.5t15 -98.5v-35h-364v-15q0 -94 44 -141.5t115 -47.5q69 0 102.5 27.5t48.5 76.5h46q-15 -65 -62 -105.5t-135 -40.5zM270 464
q-70 0 -113.5 -46.5t-45.5 -137.5h318q-2 91 -46 137.5t-113 46.5zM170 590q-15 0 -25 10t-10 25t10 25.5t25 10.5t25 -10.5t10 -25.5t-10 -25t-25 -10zM370 590q-15 0 -25 10t-10 25t10 25.5t25 10.5t25 -10.5t10 -25.5t-10 -25t-25 -10zM357 810h58l-120 -140h-50z" />
    <glyph glyph-name=".notdef" horiz-adv-x="650" 
d="M85 700h480v-700h-480v700zM523 70v560l-174 -280zM127 629v-560l174 280zM325 388l169 272h-338zM155 40h338l-169 271z" />
    <glyph glyph-name=".null" horiz-adv-x="0" 
 />
    <glyph glyph-name=".null" horiz-adv-x="0" 
 />
    <glyph glyph-name="uni000D" unicode="&#xd;" horiz-adv-x="250" 
 />
    <glyph glyph-name="space" unicode=" " horiz-adv-x="250" 
 />
    <glyph glyph-name="exclam" unicode="!" horiz-adv-x="300" 
d="M150 -6q-17 0 -28.5 11.5t-11.5 28.5t11.5 28.5t28.5 11.5t28.5 -11.5t11.5 -28.5t-11.5 -28.5t-28.5 -11.5zM127 700h46v-500h-46v500z" />
    <glyph glyph-name="quotedbl" unicode="&#x22;" horiz-adv-x="400" 
d="M277 700h46v-230h-46v230zM77 700h46v-230h-46v230z" />
    <glyph glyph-name="numbersign" unicode="#" 
d="M357 220h-171l-39 -220h-44l39 220h-107l8 40h106l36 200h-107l7 40h107l36 200h44l-36 -200h171l36 200h44l-36 -200h104l-7 -40h-104l-36 -200h104l-7 -40h-104l-39 -220h-44zM193 260h171l36 200h-171z" />
    <glyph glyph-name="dollar" unicode="$" horiz-adv-x="610" 
d="M283 -5q-99 5 -152.5 59t-60.5 151h50q14 -155 163 -166v303q-38 12 -74.5 25.5t-65 34.5t-46 52t-17.5 76q0 36 12.5 66.5t38 54t63.5 37.5t89 17v95h44v-95q95 -5 145 -56t58 -134h-50q-8 64 -44.5 102.5t-108.5 43.5v-283q39 -12 77.5 -26t68.5 -36t48.5 -54.5
t18.5 -81.5q0 -79 -52 -129.5t-161 -55.5v-95h-44v95zM492 180q0 34 -13.5 57.5t-36.5 40.5t-52.5 29t-62.5 22v-291q84 5 124.5 44t40.5 98zM128 530q0 -31 12.5 -53t33.5 -38t49 -27.5t60 -20.5v270q-79 -5 -117 -41.5t-38 -89.5z" />
    <glyph glyph-name="percent" unicode="%" horiz-adv-x="900" 
d="M215 344q-34 0 -62.5 11.5t-49 32.5t-32 51t-11.5 66v40q0 36 11.5 66t32 51t49 32.5t62.5 11.5t62.5 -11.5t49 -32.5t32 -51t11.5 -66v-40q0 -36 -11.5 -66t-32 -51t-49 -32.5t-62.5 -11.5zM215 386q49 0 80 32t31 87v40q0 55 -31 87t-80 32t-80 -32t-31 -87v-40
q0 -55 31 -87t80 -32zM685 -6q-34 0 -62.5 11.5t-49 32.5t-32 51t-11.5 66v40q0 36 11.5 66t32 51t49 32.5t62.5 11.5t62.5 -11.5t49 -32.5t32 -51t11.5 -66v-40q0 -36 -11.5 -66t-32 -51t-49 -32.5t-62.5 -11.5zM685 36q49 0 80 32t31 87v40q0 55 -31 87t-80 32t-80 -32
t-31 -87v-40q0 -55 31 -87t80 -32zM632 700h48l-412 -700h-48z" />
    <glyph glyph-name="ampersand" unicode="&#x26;" horiz-adv-x="640" 
d="M483 90q-38 -47 -91.5 -71.5t-116.5 -24.5q-46 0 -83.5 14t-64.5 38.5t-42 58.5t-15 75q0 28 6 52.5t21 48.5t40 47.5t63 50.5q-31 32 -50.5 57t-30.5 46.5t-15 41t-4 41.5q0 31 10.5 56.5t31 44.5t49 29.5t64.5 10.5q69 0 109.5 -39.5t40.5 -101.5q0 -21 -5 -42t-20 -44
t-42 -49t-71 -57l208 -214q18 35 28.5 77.5t10.5 93.5h46q0 -62 -13.5 -113t-38.5 -92l122 -125h-58zM275 36q52 0 97.5 22t78.5 65l-221 225q-35 -24 -57 -45t-35 -40.5t-17.5 -40t-4.5 -42.5q0 -31 11.5 -57t32.5 -45.5t50.5 -30.5t64.5 -11zM146 565q0 -19 3.5 -35.5
t13.5 -34.5t27.5 -39.5t45.5 -51.5q41 29 65.5 51t37 40.5t16.5 35t4 34.5q0 43 -28.5 71t-75.5 28q-51 0 -80 -28t-29 -71z" />
    <glyph glyph-name="quotesingle" unicode="'" horiz-adv-x="200" 
d="M77 700h46v-230h-46v230z" />
    <glyph glyph-name="parenleft" unicode="(" horiz-adv-x="400" 
d="M100 250q0 52 8 99.5t21.5 89t31 77t35.5 64.5q42 68 96 120h58q-57 -52 -101 -120q-19 -29 -37 -64.5t-32.5 -77t-23 -89t-8.5 -99.5q0 -53 8.5 -100t23 -88.5t32.5 -77t37 -64.5q44 -69 101 -120h-60q-54 51 -95 120q-18 29 -35 64.5t-30.5 77t-21.5 88.5t-8 100z" />
    <glyph glyph-name="parenright" unicode=")" horiz-adv-x="400" 
d="M300.012 250.03q0 -51.9932 -7.99805 -99.4873q-8 -47.4941 -21.498 -88.9893t-30.9961 -76.9912q-17.498 -35.4951 -35.4961 -64.4922q-41.9941 -67.9912 -95.9883 -119.984h-57.9922q56.9932 51.9932 100.987 119.984q18.998 28.9971 36.9951 64.4922
q17.998 35.4961 32.4961 76.9912q14.499 41.4951 22.998 88.9893q8.49805 47.4941 8.49805 99.4873q0 52.9941 -8.49805 99.9883q-8.49902 46.9941 -22.998 88.4893q-14.498 41.4941 -32.4961 76.9902q-17.9971 35.4961 -36.9951 64.4922q-43.9941 68.9912 -100.987 119.985
h59.9922q53.9941 -50.9941 94.9883 -119.985q17.998 -28.9961 34.9961 -64.4922t30.4961 -76.9902q13.498 -41.4951 21.498 -88.4893q7.99805 -46.9941 7.99805 -99.9883z" />
    <glyph glyph-name="asterisk" unicode="*" horiz-adv-x="390" 
d="M35 573h131l-66 115l30 18l66 -116l67 116l29 -18l-66 -115h129v-34h-129l66 -115l-29 -18l-67 115l-66 -115l-30 18l66 115h-131v34z" />
    <glyph glyph-name="plus" unicode="+" 
d="M80 381h192v194h46v-194h192v-42h-192v-194h-46v194h-192v42z" />
    <glyph glyph-name="comma" unicode="," horiz-adv-x="250" 
d="M109 65h56l-71 -215h-39z" />
    <glyph glyph-name="hyphen" unicode="-" horiz-adv-x="400" 
d="M55 281h290v-42h-290v42z" />
    <glyph glyph-name="period" unicode="." horiz-adv-x="250" 
d="M125 -6q-17 0 -28.5 11.5t-11.5 28.5t11.5 28.5t28.5 11.5t28.5 -11.5t11.5 -28.5t-11.5 -28.5t-28.5 -11.5z" />
    <glyph glyph-name="slash" unicode="/" horiz-adv-x="450" 
d="M367 700h48l-332 -900h-48z" />
    <glyph glyph-name="zero" unicode="0" horiz-adv-x="610" 
d="M305 -6q-50 0 -91 17t-69.5 55.5t-44 99.5t-15.5 149v70q0 88 15.5 149t44.5 99t69.5 55.5t90.5 17.5q51 0 91.5 -17t69 -55.5t44 -99.5t15.5 -149v-70q0 -88 -15.5 -149t-44 -99.5t-69.5 -55.5t-91 -17zM305 38q39 0 71 13.5t54.5 46t34.5 85.5t12 132v70
q0 78 -12.5 131.5t-35 85.5t-54 46t-70.5 14t-71 -14t-54.5 -46t-34.5 -85t-12 -132v-70q0 -78 12 -131.5t34.5 -85.5t54.5 -46t71 -14z" />
    <glyph glyph-name="one" unicode="1" horiz-adv-x="350" 
d="M40 596l154 104h46v-700h-46v647l-154 -103v52z" />
    <glyph glyph-name="two" unicode="2" horiz-adv-x="550" 
d="M50 44l259 258q33 33 57 59.5t39.5 51.5t23.5 49.5t8 52.5q0 30 -12 56t-34 46t-53 31.5t-68 11.5t-67.5 -11.5t-52.5 -31.5t-34.5 -46t-12.5 -56h-48q0 39 15.5 74t44 61t68 41t87.5 15t87.5 -15t68 -41t44 -61t15.5 -74q0 -33 -9.5 -61.5t-27.5 -57t-44.5 -58.5
t-60.5 -64l-232 -230h379v-44h-440v44z" />
    <glyph glyph-name="three" unicode="3" horiz-adv-x="580" 
d="M285 -6q-98 0 -156 57t-64 154h48q5 -78 50.5 -122.5t121.5 -44.5q83 0 127.5 42t44.5 110q0 32 -11.5 59.5t-32.5 47.5t-51 31t-67 11h-95v42h95q32 0 59 11t46.5 29.5t30.5 44t11 55.5q0 64 -41 102.5t-116 38.5q-35 0 -63 -11t-49 -30.5t-34 -46.5t-16 -59h-48
q3 42 19 77t43 60.5t64.5 39.5t83.5 14q48 0 86.5 -13.5t64.5 -38t40 -58.5t14 -75q0 -54 -29 -96.5t-80 -63.5q59 -20 91.5 -65.5t32.5 -105.5q0 -43 -15 -79t-43 -62t-69 -40.5t-93 -14.5z" />
    <glyph glyph-name="four" unicode="4" horiz-adv-x="565" 
d="M30 221l346 479h52v-479h102v-42h-102v-179h-46v179h-352v42zM382 221v420l-300 -420h300z" />
    <glyph glyph-name="five" unicode="5" horiz-adv-x="565" 
d="M120 700h340v-42h-298l-22 -274q26 30 65 48t90 18q45 0 83.5 -16t66.5 -46t44 -72t16 -94q0 -51 -16.5 -93t-45.5 -72t-69.5 -46.5t-88.5 -16.5q-81 0 -140 39t-80 116h48q20 -57 64.5 -84t107.5 -27q37 0 69 13t54.5 37t35.5 58t13 76q0 43 -12.5 77t-34.5 58t-53 36.5
t-67 12.5q-29 0 -53 -7.5t-43.5 -19.5t-34 -27.5t-23.5 -31.5h-46z" />
    <glyph glyph-name="six" unicode="6" horiz-adv-x="595" 
d="M305 -6q-48 0 -88.5 16.5t-70 51.5t-45.5 90t-16 133v70q0 102 18 169.5t49 108t72 57t86 16.5q75 0 121.5 -41.5t63.5 -104.5h-48q-15 44 -48.5 73t-88.5 29q-35 0 -66.5 -13t-56 -46.5t-40 -90.5t-17.5 -145q26 47 71 73t104 26q47 0 85.5 -15.5t66.5 -44t43 -69.5
t15 -92v-30q0 -50 -16.5 -90.5t-45 -69.5t-66.5 -45t-82 -16zM305 422q-38 0 -69 -12t-53.5 -33t-35.5 -50.5t-14 -64.5v-37q0 -45 13 -80t35.5 -58.5t54 -36t69.5 -12.5q35 0 64.5 12.5t51.5 35.5t34 55.5t12 73.5v30q0 41 -12 73.5t-34 55.5t-51.5 35.5t-64.5 12.5z" />
    <glyph glyph-name="seven" unicode="7" horiz-adv-x="480" 
d="M25 700h430v-42l-276 -658h-49l276 658h-381v42z" />
    <glyph glyph-name="eight" unicode="8" 
d="M295 -6q-51 0 -92 15t-69.5 41t-43.5 61t-15 76q0 65 37 111t100 68q-54 20 -85.5 61t-31.5 99q0 37 15 70t41.5 57.5t63 38.5t80.5 14q45 0 81.5 -14t63 -38t41 -57t14.5 -71q0 -57 -32 -98.5t-86 -61.5q63 -21 100.5 -67.5t37.5 -111.5q0 -40 -15.5 -75t-44 -61.5
t-69 -41.5t-91.5 -15zM295 38q39 0 70.5 12t54 32t35 47.5t12.5 57.5q0 34 -13 62t-36 49t-54.5 33t-68.5 15q-38 -3 -69.5 -15t-54 -32.5t-35.5 -48.5t-13 -63q0 -31 12 -58t34.5 -47.5t54.5 -32t71 -11.5zM295 384q31 3 58.5 13.5t48.5 28.5t33 43t12 57q0 27 -11 51.5
t-31 43.5t-48 30t-62 11t-62 -11t-48 -30t-31 -43.5t-11 -51.5q0 -31 12.5 -56t33.5 -43t48.5 -29t57.5 -14z" />
    <glyph glyph-name="nine" unicode="9" horiz-adv-x="595" 
d="M285 -6q-75 0 -121.5 41.5t-63.5 104.5h48q15 -44 48.5 -73t88.5 -29q34 0 66 13t56.5 46t40 90t17.5 145q-26 -46 -71.5 -72t-103.5 -26q-47 0 -85.5 15.5t-66.5 44t-43 69.5t-15 92v30q0 50 16.5 90.5t45 69.5t66.5 45t82 16q48 0 88.5 -16.5t70 -51.5t45.5 -90
t16 -133v-70q0 -102 -18 -169.5t-49 -108t-72 -57t-86 -16.5zM290 278q39 0 70.5 12.5t54 34.5t35 52.5t12.5 67.5v30q0 45 -13 80t-35.5 58.5t-54.5 36t-69 12.5q-35 0 -64.5 -12.5t-51.5 -35.5t-34 -56t-12 -73v-30q0 -41 12 -73.5t34 -55.5t51.5 -35.5t64.5 -12.5z" />
    <glyph glyph-name="colon" unicode=":" horiz-adv-x="250" 
d="M125 426q-17 0 -28.5 11.5t-11.5 28.5t11.5 28.5t28.5 11.5t28.5 -11.5t11.5 -28.5t-11.5 -28.5t-28.5 -11.5zM125 -6q-17 0 -28.5 11.5t-11.5 28.5t11.5 28.5t28.5 11.5t28.5 -11.5t11.5 -28.5t-11.5 -28.5t-28.5 -11.5z" />
    <glyph glyph-name="semicolon" unicode=";" horiz-adv-x="250" 
d="M97 65h56l-71 -215h-39zM125 426q-17 0 -28.5 11.5t-11.5 28.5t11.5 28.5t28.5 11.5t28.5 -11.5t11.5 -28.5t-11.5 -28.5t-28.5 -11.5z" />
    <glyph glyph-name="less" unicode="&#x3c;" 
d="M129 361l381 -171v-50l-430 195v50l430 195v-48z" />
    <glyph glyph-name="equal" unicode="=" 
d="M80 481h430v-42h-430v42zM80 281h430v-42h-430v42z" />
    <glyph glyph-name="greater" unicode="&#x3e;" 
d="M461.016 359.044l-380.953 170.979v49.9941l429.947 -194.977v-49.9941l-429.947 -194.977v47.9941z" />
    <glyph glyph-name="question" unicode="?" horiz-adv-x="500" 
d="M222 174q0 59 13.5 97.5t34.5 64.5t44.5 44t44.5 37.5t34.5 44t13.5 63.5q0 60 -40.5 97.5t-121.5 37.5q-75 0 -116.5 -39.5t-45.5 -105.5h-48q4 87 58.5 139t151.5 52q51 0 90 -13t66 -37t40.5 -57.5t13.5 -73.5q0 -45 -14 -74t-34.5 -50t-45 -39.5t-45 -42t-34.5 -58
t-14 -87.5h-46zM245 -6q-17 0 -28.5 11.5t-11.5 28.5t11.5 28.5t28.5 11.5t28.5 -11.5t11.5 -28.5t-11.5 -28.5t-28.5 -11.5z" />
    <glyph glyph-name="at" unicode="@" horiz-adv-x="1050" 
d="M525 -206q-97 0 -181 35t-146 96.5t-97.5 145t-35.5 179.5q0 95 35.5 178t98 145t146.5 97.5t180 35.5q104 0 189 -32t145 -87.5t93 -129t33 -157.5q0 -67 -18.5 -119t-49.5 -88t-72 -55t-87 -19q-56 0 -87.5 27t-36.5 75q-29 -48 -74.5 -75t-102.5 -27q-68 0 -110 43
t-42 120q0 17 3.5 36.5t9.5 56.5q8 45 27.5 83t48 65.5t64.5 42.5t77 15q51 0 86.5 -22.5t52.5 -67.5l15 84h44l-53 -297q-3 -17 -3 -33q0 -42 21 -63t60 -21q34 0 66.5 16t58 47t41 75t15.5 101q0 76 -29.5 142.5t-83.5 116t-130.5 78t-170.5 28.5q-87 0 -162.5 -32
t-131.5 -88t-88 -132t-32 -163q0 -88 31.5 -164t87 -131.5t131 -87t164.5 -31.5q61 0 120.5 10t109.5 31v-46q-44 -17 -105 -27t-125 -10zM469 61q68 0 114.5 44.5t60.5 119.5q7 38 10 58.5t3 34.5q0 56 -34 88.5t-89 32.5q-65 0 -111 -44.5t-59 -119.5q-8 -40 -10.5 -59.5
t-2.5 -33.5q0 -57 30.5 -89t87.5 -32z" />
    <glyph glyph-name="A" unicode="A" horiz-adv-x="650" 
d="M486 214h-324l-79 -214h-48l260 700h60l260 -700h-50zM177 256h293l-146 397l-65 -177z" />
    <glyph glyph-name="B" unicode="B" horiz-adv-x="620" 
d="M100 700h210q113 0 166.5 -48.5t53.5 -132.5q0 -54 -26.5 -94.5t-80.5 -61.5q64 -18 95.5 -63t31.5 -109q0 -91 -53.5 -141t-166.5 -50h-230v700zM146 339v-296h184q89 0 130.5 38.5t41.5 109.5t-41.5 109.5t-130.5 38.5h-184zM146 657v-276h164q89 0 130.5 37.5
t41.5 100.5t-41.5 100.5t-130.5 37.5h-164z" />
    <glyph glyph-name="C" unicode="C" horiz-adv-x="670" 
d="M350 -6q-59 0 -109.5 21.5t-87.5 62.5t-57.5 100.5t-20.5 136.5v70q0 76 20.5 136t57.5 101t87.5 62.5t109.5 21.5q53 0 96.5 -16t76.5 -43t53.5 -61.5t28.5 -70.5h-50q-8 28 -25 54t-43 46.5t-60.5 33t-76.5 12.5q-49 0 -90.5 -18t-72 -53t-47.5 -86.5t-17 -118.5v-70
q0 -67 17 -118.5t47.5 -86.5t72 -53t90.5 -18q42 0 76.5 13t60.5 35.5t43 52.5t25 65h50q-8 -44 -28.5 -82.5t-53 -67t-76.5 -45t-97 -16.5z" />
    <glyph glyph-name="D" unicode="D" horiz-adv-x="680" 
d="M100 700h200q146 0 225.5 -80.5t79.5 -235.5v-68q0 -154 -79.5 -235t-225.5 -81h-200v700zM146 658v-616h154q125 0 191 68.5t66 205.5v68q0 137 -66.5 205.5t-190.5 68.5h-154z" />
    <glyph glyph-name="E" unicode="E" horiz-adv-x="560" 
d="M100 700h405v-42h-359v-277h299v-42h-299v-297h359v-42h-405v700z" />
    <glyph glyph-name="F" unicode="F" horiz-adv-x="540" 
d="M100 700h405v-42h-359v-277h299v-42h-299v-339h-46v700z" />
    <glyph glyph-name="G" unicode="G" horiz-adv-x="680" 
d="M340 331h265v-21q0 -79 -19 -138t-52.5 -98.5t-80.5 -59.5t-103 -20q-60 0 -110 21.5t-87 62.5t-57.5 100.5t-20.5 136.5v70q0 76 20.5 136t57.5 101t87.5 62.5t109.5 21.5q51 0 93.5 -15.5t74 -42t51.5 -61t28 -72.5h-48q-8 28 -24.5 55t-42 47t-59 32.5t-73.5 12.5
q-49 0 -90.5 -18t-72 -53t-47.5 -87t-17 -119v-70q0 -68 17 -119.5t47.5 -86.5t72 -53t90.5 -18q92 0 148.5 60t61.5 191h-220v42z" />
    <glyph glyph-name="H" unicode="H" horiz-adv-x="710" 
d="M564 339h-418v-339h-46v700h46v-319h418v319h46v-700h-46v339z" />
    <glyph glyph-name="I" unicode="I" horiz-adv-x="270" 
d="M112 700h46v-700h-46v700z" />
    <glyph glyph-name="J" unicode="J" horiz-adv-x="535" 
d="M240 -6q-88 0 -140.5 54t-59.5 157h46q5 -84 45 -125.5t109 -41.5q36 0 64.5 11.5t48.5 37t30.5 66t10.5 97.5v450h46v-450q0 -67 -14 -115t-40 -79.5t-63 -46.5t-83 -15z" />
    <glyph glyph-name="K" unicode="K" horiz-adv-x="635" 
d="M264 356l-118 -132v-224h-46v700h46v-412l364 412h60l-274 -310l294 -390h-60z" />
    <glyph glyph-name="L" unicode="L" horiz-adv-x="515" 
d="M100 700h46v-658h339v-42h-385v700z" />
    <glyph glyph-name="M" unicode="M" horiz-adv-x="810" 
d="M196 550l-50 91v-641h-46v700h64l242 -435l242 435h62v-700h-46v641l-50 -91l-186 -335h-46z" />
    <glyph glyph-name="N" unicode="N" horiz-adv-x="710" 
d="M204 550l-58 99v-649h-46v700h64l342 -550l58 -99v649h46v-700h-64z" />
    <glyph glyph-name="O" unicode="O" horiz-adv-x="710" 
d="M355 -6q-60 0 -111 22t-88.5 63.5t-59 101t-21.5 134.5v70q0 75 21.5 134.5t59 101t89 63.5t110.5 22q60 0 111 -22t88.5 -63.5t59 -101t21.5 -134.5v-70q0 -75 -21.5 -134.5t-59 -101t-89 -63.5t-110.5 -22zM355 38q49 0 91 18.5t73.5 54t49.5 87t18 117.5v70
q0 65 -18 116.5t-49.5 87t-74 54.5t-90.5 19q-49 0 -91 -18.5t-73.5 -54t-49.5 -87t-18 -117.5v-70q0 -65 18 -116.5t49.5 -87t74 -54.5t90.5 -19z" />
    <glyph glyph-name="P" unicode="P" horiz-adv-x="600" 
d="M100 700h210q121 0 180.5 -56t59.5 -156q0 -99 -60 -155.5t-180 -56.5h-164v-276h-46v700zM146 658v-340h164q97 0 144.5 44.5t47.5 125.5q0 82 -46.5 126t-145.5 44h-164z" />
    <glyph glyph-name="Q" unicode="Q" horiz-adv-x="710" 
d="M355 -6q-60 0 -111 22t-88.5 63.5t-59 101t-21.5 134.5v70q0 75 21.5 134.5t59 101t89 63.5t110.5 22q60 0 111 -22t88.5 -63.5t59 -101t21.5 -134.5v-70q0 -82 -25.5 -145t-70.5 -105l96 -115h-55l-74 89q-32 -22 -70.5 -33.5t-80.5 -11.5zM355 38q69 0 122 36l-112 136
h55l90 -109q35 35 56 89t21 125v70q0 65 -18 116.5t-49.5 87t-74 54.5t-90.5 19q-49 0 -91 -18.5t-73.5 -54t-49.5 -87t-18 -117.5v-70q0 -65 18 -116.5t49.5 -87t74 -54.5t90.5 -19z" />
    <glyph glyph-name="R" unicode="R" horiz-adv-x="620" 
d="M359 301q-23 -3 -49 -3h-164v-298h-46v700h210q121 0 180.5 -54.5t59.5 -146.5q0 -70 -36 -119.5t-108 -69.5l164 -310h-52zM146 658v-318h164q95 0 143.5 44.5t48.5 114.5q0 74 -47.5 116.5t-144.5 42.5h-164z" />
    <glyph glyph-name="S" unicode="S" horiz-adv-x="610" 
d="M305 -6q-109 0 -168 54.5t-67 156.5h50q8 -82 54 -124.5t131 -42.5q96 0 141.5 40t45.5 102q0 52 -30.5 81.5t-76.5 48t-99 32.5t-99 35.5t-76.5 56.5t-30.5 96q0 37 14 69.5t42.5 56t70.5 37t98 13.5q106 0 161.5 -51.5t63.5 -139.5h-50q-8 69 -50 108t-125 39
q-45 0 -78.5 -10t-55 -28t-32.5 -42t-11 -52q0 -50 30.5 -77.5t76.5 -45t99 -31.5t99 -36.5t76.5 -59.5t30.5 -100q0 -41 -14.5 -75.5t-43.5 -59t-73 -38t-104 -13.5z" />
    <glyph glyph-name="T" unicode="T" horiz-adv-x="580" 
d="M30 700h520v-42h-238v-658h-44v658h-238v42z" />
    <glyph glyph-name="U" unicode="U" horiz-adv-x="690" 
d="M345 -6q-57 0 -103 18t-79 53t-50.5 86.5t-17.5 118.5v430h46v-430q0 -114 55.5 -173t148.5 -59q94 0 149 58.5t55 173.5v430h46v-430q0 -66 -17.5 -117.5t-50.5 -87t-79 -53.5t-103 -18z" />
    <glyph glyph-name="V" unicode="V" horiz-adv-x="660" 
d="M40 700h52l248 -649l230 649h50l-250 -700h-60z" />
    <glyph glyph-name="W" unicode="W" horiz-adv-x="970" 
d="M485 639l-175 -639h-60l-200 700h48l182 -639l175 639h60l185 -641l174 641h46l-190 -700h-60z" />
    <glyph glyph-name="X" unicode="X" horiz-adv-x="650" 
d="M324 328l-223 -328h-56l251 364l-231 336h56l204 -299l205 299h55l-231 -334l251 -366h-57z" />
    <glyph glyph-name="Y" unicode="Y" horiz-adv-x="650" 
d="M307 265l-267 435h54l236 -387l228 387h52l-257 -435v-265h-46v265z" />
    <glyph glyph-name="Z" unicode="Z" horiz-adv-x="585" 
d="M65 700h470v-42l-429 -616h429v-42h-480v42l429 616h-419v42z" />
    <glyph glyph-name="bracketleft" unicode="[" horiz-adv-x="400" 
d="M130 700h210v-42h-164v-816h164v-42h-210v900z" />
    <glyph glyph-name="backslash" unicode="\" horiz-adv-x="450" 
d="M35 700h50l330 -900h-50z" />
    <glyph glyph-name="bracketright" unicode="]" horiz-adv-x="400" 
d="M270.016 -199.914h-209.975v41.9941h163.98v815.9h-163.98v41.9951h209.975v-899.89z" />
    <glyph glyph-name="asciicircum" unicode="^" 
d="M290 661l-150 -261h-50l175 300h50l185 -300h-52z" />
    <glyph glyph-name="underscore" unicode="_" 
d="M0 -79h590v-42h-590v42z" />
    <glyph glyph-name="grave" unicode="`" horiz-adv-x="250" 
d="M35 710h60l120 -150h-50z" />
    <glyph glyph-name="a" unicode="a" horiz-adv-x="520" 
d="M210 -6q-72 0 -111 37.5t-39 102.5q0 69 47 110t153 41h126v55q0 64 -30 94t-96 30q-63 0 -92.5 -25.5t-33.5 -68.5h-44q4 61 45.5 98.5t124.5 37.5q170 0 170 -166v-340h-36l-6 105q-26 -52 -73 -81.5t-105 -29.5zM210 36q35 0 66.5 13t55.5 36.5t38 54.5t16 67v38h-126
q-83 0 -118.5 -30t-35.5 -81q0 -45 27 -71.5t77 -26.5z" />
    <glyph glyph-name="b" unicode="b" horiz-adv-x="560" 
d="M299 -6q-54 0 -96.5 25t-66.5 74l-5 -93h-36v700h44v-289q25 47 66.5 71t95.5 24q43 0 78.5 -15t61 -44t40 -72t14.5 -100v-50q0 -57 -14.5 -100t-40 -72t-62 -44t-79.5 -15zM294 36q69 0 112 47.5t43 141.5v50q0 94 -43 141.5t-112 47.5q-32 0 -59.5 -12t-48.5 -35
t-33.5 -56.5t-13.5 -76.5v-59q0 -45 12 -80.5t33 -59.5t49 -36.5t61 -12.5z" />
    <glyph glyph-name="c" unicode="c" horiz-adv-x="505" 
d="M270 -6q-45 0 -82.5 15.5t-64.5 45.5t-42.5 73t-15.5 97v50q0 54 15.5 97t42.5 73t64.5 45.5t82.5 15.5q38 0 69 -11t54 -30t38.5 -43.5t23.5 -51.5h-48q-15 38 -48.5 66t-88.5 28q-34 0 -63 -12.5t-50.5 -36.5t-33.5 -59.5t-12 -80.5v-50q0 -45 12 -80.5t33.5 -59.5
t50.5 -36.5t63 -12.5q57 0 89.5 28.5t47.5 75.5h48q-15 -63 -61 -104.5t-124 -41.5z" />
    <glyph glyph-name="d" unicode="d" horiz-adv-x="560" 
d="M261 -6q-44 0 -80 15t-61.5 44t-40 72t-14.5 100v50q0 57 14.5 100t40 72t61 44t78.5 15q53 0 95 -23.5t67 -70.5v288h44v-700h-36l-5 93q-25 -49 -67 -74t-96 -25zM266 36q33 0 61 12.5t49 36.5t33 59.5t12 80.5v59q-3 87 -47 133.5t-108 46.5q-69 0 -112 -47.5
t-43 -141.5v-50q0 -94 43 -141.5t112 -47.5z" />
    <glyph glyph-name="e" unicode="e" horiz-adv-x="540" 
d="M270 -6q-46 0 -83.5 15.5t-64.5 44.5t-42 72t-15 99v50q0 55 15 98.5t42 72.5t64.5 44.5t83.5 15.5t83.5 -15.5t64.5 -44.5t42 -72.5t15 -98.5v-35h-364v-15q0 -94 44 -141.5t115 -47.5q69 0 102.5 27.5t48.5 76.5h46q-15 -65 -62 -105.5t-135 -40.5zM270 464
q-70 0 -113.5 -46.5t-45.5 -137.5h318q-2 91 -46 137.5t-113 46.5z" />
    <glyph glyph-name="f" unicode="f" horiz-adv-x="335" 
d="M40 500h90v80q0 120 120 120h70v-42h-65q-42 0 -61.5 -19.5t-19.5 -63.5v-75h126v-40h-126v-460h-44v460h-90v40z" />
    <glyph glyph-name="g" unicode="g" horiz-adv-x="560" 
d="M259 14q-43 0 -78.5 14.5t-61 43t-40 69.5t-14.5 94v50q0 53 14.5 94t40 69.5t61.5 43t80 14.5q54 0 96 -24.5t67 -72.5l5 91h36v-500q0 -98 -50.5 -152t-141.5 -54q-88 0 -131.5 39.5t-51.5 106.5h44q8 -49 40.5 -76.5t98.5 -27.5q73 0 110.5 41.5t37.5 122.5v105
q-26 -45 -67.5 -68t-94.5 -23zM266 56q32 0 59.5 12t48.5 34t33 53.5t14 71.5v58q0 42 -12 75t-33 56t-49.5 35.5t-61.5 12.5q-68 0 -111 -46t-43 -133v-50q0 -87 43 -133t112 -46z" />
    <glyph glyph-name="h" unicode="h" horiz-adv-x="575" 
d="M95 700h44v-283q25 42 68 65.5t100 23.5q82 0 130 -50.5t48 -150.5v-305h-44v305q0 80 -37.5 119.5t-103.5 39.5q-35 0 -64 -11t-50 -31.5t-33.5 -48.5t-13.5 -61v-312h-44v700z" />
    <glyph glyph-name="i" unicode="i" horiz-adv-x="256" 
d="M106 500h44v-500h-44v500zM128 600q-15 0 -25 10t-10 25t10 25t25 10t25 -10t10 -25t-10 -25t-25 -10z" />
    <glyph glyph-name="j" unicode="j" horiz-adv-x="256" 
d="M-10 -158h36q42 0 61 24t19 89v545h44v-545q0 -86 -30.5 -120.5t-93.5 -34.5h-36v42zM128 600q-15 0 -25 10t-10 25t10 25t25 10t25 -10t10 -25t-10 -25t-25 -10z" />
    <glyph glyph-name="k" unicode="k" horiz-adv-x="510" 
d="M235 250l-96 -110v-140h-44v700h44v-500l262 300h54l-192 -220l212 -280h-54z" />
    <glyph glyph-name="l" unicode="l" horiz-adv-x="285" 
d="M209 0q-56 0 -85 29.5t-29 89.5v581h44v-576q0 -43 18.5 -62.5t56.5 -19.5h31v-42h-36v0z" />
    <glyph glyph-name="m" unicode="m" horiz-adv-x="875" 
d="M95 500h36l4 -85q24 43 65 67t93 24q55 0 95.5 -27.5t59.5 -81.5q22 51 66 80t102 29q75 0 122 -50.5t47 -150.5v-305h-44v305q0 80 -36.5 119.5t-98.5 39.5q-29 0 -55 -12t-46 -33t-31.5 -50.5t-11.5 -63.5v-305h-44v305q0 80 -36.5 119.5t-98.5 39.5q-28 0 -53.5 -11.5
t-45.5 -31.5t-32 -48t-13 -61v-312h-44v500z" />
    <glyph glyph-name="n" unicode="n" horiz-adv-x="575" 
d="M95 500h36l4 -86q25 44 68.5 68t101.5 24q84 0 132 -50.5t48 -150.5v-305h-44v305q0 80 -37.5 119.5t-103.5 39.5q-35 0 -64 -11t-50 -31.5t-33.5 -48.5t-13.5 -61v-312h-44v500z" />
    <glyph glyph-name="o" unicode="o" horiz-adv-x="550" 
d="M275 -6q-47 0 -86 15.5t-66.5 45t-42.5 72.5t-15 98v50q0 55 15 98t43 72.5t66.5 45t85.5 15.5t86 -15.5t66.5 -45t42.5 -72.5t15 -98v-50q0 -55 -15 -98t-43 -72.5t-66.5 -45t-85.5 -15.5zM275 36q73 0 118.5 48.5t45.5 140.5v50q0 91 -46 140t-118 49
q-73 0 -118.5 -48.5t-45.5 -140.5v-50q0 -91 46 -140t118 -49z" />
    <glyph glyph-name="p" unicode="p" horiz-adv-x="560" 
d="M301 -6q-54 0 -95.5 23.5t-66.5 70.5v-288h-44v700h36l5 -94q24 50 66.5 75t96.5 25q43 0 79.5 -15t62 -44t40 -72t14.5 -100v-50q0 -57 -14.5 -100t-40 -72t-61 -44t-78.5 -15zM294 36q69 0 112 47.5t43 141.5v50q0 94 -43 141.5t-112 47.5q-32 0 -59.5 -12t-48.5 -35
t-33.5 -56.5t-13.5 -76.5v-59q0 -45 12 -80.5t33 -59.5t49 -36.5t61 -12.5z" />
    <glyph glyph-name="q" unicode="q" horiz-adv-x="560" 
d="M259 -6q-43 0 -78.5 15t-61 44t-40 72t-14.5 100v50q0 57 14.5 100t40 72t61.5 44t80 15q54 0 96 -25t67 -75l5 94h36v-700h-44v288q-25 -47 -67 -70.5t-95 -23.5zM266 36q33 0 61 12.5t49 36.5t33 59.5t12 80.5v50q0 45 -12 80.5t-33 59.5t-49 36.5t-61 12.5
q-69 0 -112 -47.5t-43 -141.5v-50q0 -94 43 -141.5t112 -47.5z" />
    <glyph glyph-name="r" unicode="r" horiz-adv-x="380" 
d="M95 500h36l4 -85q24 43 67 67t98 24h50v-42h-50q-35 0 -64 -11t-50 -31.5t-33.5 -48.5t-13.5 -61v-312h-44v500z" />
    <glyph glyph-name="s" unicode="s" horiz-adv-x="490" 
d="M245 -6q-87 0 -129.5 38.5t-50.5 107.5h46q8 -51 38 -77.5t96 -26.5q72 0 103 26t31 68q0 37 -22.5 57t-56.5 32t-73 20.5t-73 23.5t-56.5 40.5t-22.5 71.5q0 55 43 93t127 38q79 0 120.5 -37.5t49.5 -98.5h-46q-8 44 -36.5 69t-87.5 25q-65 0 -94.5 -25.5t-29.5 -63.5
q0 -35 22.5 -53.5t56.5 -30t73 -20t73 -24t56.5 -42.5t22.5 -75q0 -59 -44 -97.5t-136 -38.5z" />
    <glyph glyph-name="t" unicode="t" horiz-adv-x="360" 
d="M35 500h90v140h44v-140h136v-40h-136v-336q0 -45 19 -64.5t61 -19.5h66v-40h-70q-120 0 -120 119v341h-90v40z" />
    <glyph glyph-name="u" unicode="u" horiz-adv-x="565" 
d="M265 -6q-80 0 -127.5 50.5t-47.5 150.5v305h44v-305q0 -80 37 -119.5t100 -39.5q33 0 61.5 12t49.5 33t32.5 50t11.5 64v305h44v-500h-36l-5 88q-23 -45 -66 -69.5t-98 -24.5z" />
    <glyph glyph-name="v" unicode="v" horiz-adv-x="510" 
d="M35 500h48l177 -448l169 448h46l-190 -500h-50z" />
    <glyph glyph-name="w" unicode="w" horiz-adv-x="770" 
d="M385 450l-130 -450h-60l-150 500h48l133 -449l130 449h60l139 -449l124 449h46l-140 -500h-60z" />
    <glyph glyph-name="x" unicode="x" horiz-adv-x="500" 
d="M249 226l-162 -226h-52l187 261l-171 239h52l147 -204l148 204h51l-171 -238l187 -262h-53z" />
    <glyph glyph-name="y" unicode="y" horiz-adv-x="520" 
d="M245 -1l-210 501h48l185 -447l171 447h46l-270 -700h-46z" />
    <glyph glyph-name="z" unicode="z" horiz-adv-x="455" 
d="M55 500h360v-40l-322 -420h322v-40h-370v40l321 420h-311v40z" />
    <glyph glyph-name="braceleft" unicode="{" horiz-adv-x="400" 
d="M350 658h-50q-55 0 -84.5 -30t-29.5 -88v-160q0 -47 -16 -80t-58 -50q42 -17 58 -50t16 -80v-160q0 -58 29.5 -88t84.5 -30h50v-42h-50q-78 0 -119 41t-41 119v160q0 53 -23.5 78.5t-56.5 30.5v42q33 5 56.5 30.5t23.5 78.5v160q0 78 41 119t119 41h50v-42z" />
    <glyph glyph-name="bar" unicode="|" horiz-adv-x="300" 
d="M127 700h46v-900h-46v900z" />
    <glyph glyph-name="braceright" unicode="}" horiz-adv-x="400" 
d="M50.043 -157.92h49.9941q54.9932 0 84.4893 29.9961q29.4961 29.9971 29.4961 87.9902v159.98q0 46.9941 15.998 79.9902q15.998 32.9951 57.9932 49.9932q-41.9951 16.998 -57.9932 49.9941t-15.998 79.9902v159.98q0 57.9932 -29.4961 87.9893t-84.4893 29.9961
h-49.9941v41.9951h49.9941q77.9902 0 118.985 -40.9951t40.9951 -118.985v-159.98q0 -52.9932 23.4971 -78.4902t56.4932 -30.4961v-41.9951q-32.9961 -5 -56.4932 -30.4961q-23.4971 -25.4971 -23.4971 -78.4902v-159.98q0 -77.9912 -40.9951 -118.986
q-40.9951 -40.9941 -118.985 -40.9941h-49.9941v41.9941z" />
    <glyph glyph-name="asciitilde" unicode="~" 
d="M405 275q-40 0 -68 19.5t-51.5 43.5t-46.5 43.5t-54 19.5q-38 0 -61 -23t-23 -63h-46q0 59 35.5 94.5t94.5 35.5q40 0 68 -19.5t51.5 -43.5t46.5 -43.5t54 -19.5q38 0 61 23t23 63h46q0 -59 -35.5 -94.5t-94.5 -35.5z" />
    <glyph glyph-name="uni00A0" unicode="&#xa0;" horiz-adv-x="250" 
 />
    <glyph glyph-name="exclamdown" unicode="&#xa1;" horiz-adv-x="300" 
d="M150.019 505.999q16.998 0 28.4961 -11.498q11.499 -11.499 11.499 -28.4971t-11.499 -28.4961q-11.498 -11.499 -28.4961 -11.499t-28.4971 11.499q-11.498 11.498 -11.498 28.4961t11.498 28.4971q11.499 11.498 28.4971 11.498zM173.016 -199.914h-45.9941v499.938
h45.9941v-499.938z" />
    <glyph glyph-name="cent" unicode="&#xa2;" horiz-adv-x="505" 
d="M250 -5q-41 3 -75 20.5t-58.5 46.5t-38 70.5t-13.5 92.5v50q0 51 13.5 92t38 70.5t58.5 47t75 20.5v95h40v-95q33 -3 60.5 -15t48.5 -30.5t35 -41.5t21 -48h-48q-15 38 -48.5 66t-88.5 28q-34 0 -63 -12.5t-50.5 -36.5t-33.5 -59.5t-12 -80.5v-50q0 -45 12 -80.5
t33.5 -59.5t50.5 -36.5t63 -12.5q57 0 89.5 28.5t47.5 75.5h48q-14 -59 -55.5 -99.5t-109.5 -45.5v-95h-40v95z" />
    <glyph glyph-name="sterling" unicode="&#xa3;" horiz-adv-x="580" 
d="M65 350h90v165q0 41 14.5 76t39 60.5t58.5 40t73 14.5q40 0 73.5 -14t58 -39t38.5 -60.5t15 -77.5h-46q-2 68 -40.5 107.5t-98.5 39.5q-30 0 -55 -10.5t-44 -30t-29.5 -46.5t-10.5 -60v-165h189v-40h-189v-76q0 -40 -4.5 -69t-13.5 -51.5t-23 -39.5t-34 -32h389v-42h-450
v42q22 15 38.5 30.5t28 37.5t17.5 52t6 72v76h-90v40z" />
    <glyph glyph-name="currency" unicode="&#xa4;" 
d="M409 214q-23 -18 -52.5 -28.5t-61.5 -10.5q-33 0 -62.5 10.5t-52.5 29.5l-85 -85l-30 30l85 85q-19 23 -29.5 52.5t-10.5 62.5q0 66 39 114l-84 85l31 31l84 -85q24 19 53.5 29.5t61.5 10.5t61.5 -10.5t53.5 -29.5l85 85l30 -30l-85 -85q19 -24 29.5 -53.5t10.5 -61.5
q0 -33 -10.5 -62t-29.5 -53l85 -84l-31 -31zM295 217q28 0 53.5 11t44.5 30.5t30 45.5t11 56q0 29 -11 55t-30 45.5t-44.5 30.5t-53.5 11q-29 0 -54.5 -11t-44.5 -30.5t-30 -45.5t-11 -55q0 -30 11 -56t30 -45.5t44.5 -30.5t54.5 -11z" />
    <glyph glyph-name="yen" unicode="&#xa5;" horiz-adv-x="650" 
d="M105 320h172l-237 380h54l236 -380l228 380h52l-228 -380h173v-40h-202v-95h202v-40h-202v-145h-46v145h-202v40h202v95h-202v40z" />
    <glyph glyph-name="brokenbar" unicode="&#xa6;" horiz-adv-x="300" 
d="M127 170h46v-370h-46v370zM127 700h46v-370h-46v370z" />
    <glyph glyph-name="section" unicode="&#xa7;" horiz-adv-x="480" 
d="M240 706q69 0 110 -38t49 -98h-48q-6 41 -33.5 66t-77.5 25q-54 0 -83 -27t-29 -69q0 -38 21.5 -64t54 -46.5t70.5 -39.5t70.5 -42.5t54 -55t21.5 -77.5q0 -51 -28 -88.5t-82 -69.5q20 -12 38 -26t31.5 -30.5t21.5 -37t8 -45.5q0 -66 -44 -107.5t-125 -41.5
q-72 0 -117 40t-53 106h49q5 -47 37 -74t84 -27q59 0 90.5 29t31.5 75q0 34 -22.5 58t-56 43.5t-72.5 38t-72.5 42.5t-56 56t-22.5 79q0 51 28.5 89t84.5 70q-39 25 -66 59t-27 87q0 30 11 56t32 44.5t50.5 29.5t66.5 11zM108 260q0 -30 14 -52.5t36.5 -40.5t51 -33
t58.5 -30q53 31 79 61t26 75q0 30 -14 52t-36.5 40t-51.5 33t-58 31q-53 -31 -79 -61t-26 -75z" />
    <glyph glyph-name="dieresis" unicode="&#xa8;" horiz-adv-x="340" 
d="M70 600q-15 0 -25 10t-10 25t10 25.5t25 10.5t25 -10.5t10 -25.5t-10 -25t-25 -10zM270 600q-15 0 -25 10t-10 25t10 25.5t25 10.5t25 -10.5t10 -25.5t-10 -25t-25 -10z" />
    <glyph glyph-name="copyright" unicode="&#xa9;" horiz-adv-x="850" 
d="M425 -6q-75 0 -140 28t-113.5 76t-76.5 113t-28 139q0 73 28 138t76.5 113.5t114 76.5t139.5 28q75 0 140.5 -28t113.5 -76t76 -113t28 -139t-28 -138.5t-76.5 -113t-113.5 -76.5t-140 -28zM425 35q66 0 123.5 24.5t100.5 67t67.5 100t24.5 123.5t-24.5 123.5t-67.5 100
t-100.5 67t-123.5 24.5t-123 -24.5t-100 -67t-67.5 -100t-24.5 -123.5t24.5 -123.5t67.5 -100t100 -67t123 -24.5zM425 144q-73 0 -119 48.5t-46 137.5v40q0 44 12.5 78.5t34 58.5t52 36.5t66.5 12.5q33 0 59.5 -9.5t46 -24.5t31.5 -35t17 -41h-43q-10 26 -37.5 48.5
t-73.5 22.5q-54 0 -88.5 -37.5t-34.5 -109.5v-40q0 -71 35 -109t88 -38q48 0 75.5 23.5t37.5 58.5h41q-5 -25 -17.5 -47t-32 -38.5t-46 -26t-58.5 -9.5z" />
    <glyph glyph-name="ordfeminine" unicode="&#xaa;" horiz-adv-x="350" 
d="M145 374q-52 0 -78.5 24.5t-26.5 66.5q0 49 32.5 76.5t112.5 27.5h73v21q0 39 -18.5 57.5t-59.5 18.5q-38 0 -55 -14t-21 -37h-44q4 40 33 65.5t87 25.5q120 0 120 -116v-210h-32l-6 58q-18 -30 -48.5 -47t-68.5 -17zM145 414q24 0 45 8.5t36 23t23.5 33.5t8.5 41v11h-73
q-57 0 -78.5 -17.5t-21.5 -48.5q0 -23 15.5 -37t44.5 -14z" />
    <glyph glyph-name="guillemotleft" unicode="&#xab;" horiz-adv-x="505" 
d="M382 460h48l-121 -199l121 -201h-50l-120 199zM177 460h48l-121 -199l121 -201h-50l-120 199z" />
    <glyph glyph-name="logicalnot" unicode="&#xac;" 
d="M80 381h430v-230h-46v188h-384v42z" />
    <glyph glyph-name="uni00AD" unicode="&#xad;" horiz-adv-x="400" 
d="M55 281h290v-42h-290v42z" />
    <glyph glyph-name="registered" unicode="&#xae;" horiz-adv-x="650" 
d="M325 144q-59 0 -110.5 22t-90 60.5t-60.5 89.5t-22 109t22 109t60.5 89.5t90 60.5t110.5 22t110.5 -22t90 -60.5t60.5 -89.5t22 -109t-22 -109t-60.5 -89.5t-90 -60.5t-110.5 -22zM325 179q51 0 96 19.5t78 52.5t52.5 78t19.5 96t-19.5 96t-52.5 78t-78 52.5t-96 19.5
t-95.5 -19.5t-78 -52.5t-53 -78t-19.5 -96t19.5 -96t53 -78t78 -52.5t95.5 -19.5zM344 391h-70v-116h-36v300h94q57 0 83.5 -24t26.5 -68q0 -34 -16 -56.5t-49 -30.5l63 -121h-38zM274 542v-118h58q39 0 56 15.5t17 43.5t-17 43.5t-56 15.5h-58z" />
    <glyph glyph-name="macron" unicode="&#xaf;" horiz-adv-x="300" 
d="M20 654h260v-38h-260v38z" />
    <glyph glyph-name="degree" unicode="&#xb0;" horiz-adv-x="360" 
d="M180 415q-30 0 -56.5 11.5t-46 31t-31 46t-11.5 56.5t11.5 57t31 46.5t46 31t56.5 11.5t56.5 -11.5t46 -31t31 -46.5t11.5 -57t-11.5 -56.5t-31 -46t-46 -31t-56.5 -11.5zM180 454q21 0 40 8.5t33.5 23t22.5 33.5t8 41t-8 41.5t-22.5 34t-33.5 23t-40 8.5t-40 -8.5
t-33 -23t-22.5 -34t-8.5 -41.5t8.5 -41t22.5 -33.5t33 -23t40 -8.5z" />
    <glyph glyph-name="plusminus" unicode="&#xb1;" 
d="M80 426h192v193h46v-193h192v-43h-192v-143h-46v143h-192v43zM80 144h430v-43h-430v43z" />
    <glyph glyph-name="twosuperior" unicode="&#xb2;" horiz-adv-x="355" 
d="M30 418l162 159q25 24 40 43t23.5 34.5t11.5 29.5t3 29q0 35 -26 59t-71 24t-71 -24t-26 -59h-43q0 25 10 47.5t28 39t44 26.5t58 10q31 0 57 -10t44 -26.5t28 -39t10 -47.5q0 -20 -4.5 -38t-15 -37t-28 -40.5t-44.5 -47.5l-135 -132h230v-38h-285v38z" />
    <glyph glyph-name="threesuperior" unicode="&#xb3;" horiz-adv-x="370" 
d="M181 374q-72 0 -109 36t-42 102h43q5 -47 31 -72.5t77 -25.5q53 0 80 25t27 66q0 35 -28.5 61t-75.5 26h-57v37h57q44 0 70 24.5t26 59.5q0 37 -25 60t-74 23q-48 0 -72.5 -23.5t-29.5 -62.5h-42q4 56 41 91t103 35q68 0 105 -34t37 -85q0 -36 -19 -63.5t-55 -41.5
q38 -14 59.5 -43.5t21.5 -65.5q0 -58 -37.5 -93.5t-111.5 -35.5z" />
    <glyph glyph-name="acute" unicode="&#xb4;" horiz-adv-x="250" 
d="M155 710h60l-130 -150h-50z" />
    <glyph glyph-name="mu" unicode="&#xb5;" horiz-adv-x="570" 
d="M270 -6q-42 0 -75 15.5t-56 46.5v-256h-44v700h44v-305q0 -80 37 -119.5t100 -39.5q33 0 61.5 12t49.5 33t32.5 50t11.5 64v305h44v-500h-36l-5 88q-23 -45 -66 -69.5t-98 -24.5z" />
    <glyph glyph-name="paragraph" unicode="&#xb6;" horiz-adv-x="660" 
d="M491 657h-183v-857h-45v461q-42 4 -78 23t-62.5 48t-42 67t-15.5 81q0 45 17.5 85t47.5 70t70 47.5t85 17.5h340v-43h-89v-857h-45v857z" />
    <glyph glyph-name="periodcentered" unicode="&#xb7;" horiz-adv-x="250" 
d="M125 220q-17 0 -28.5 11.5t-11.5 28.5t11.5 28.5t28.5 11.5t28.5 -11.5t11.5 -28.5t-11.5 -28.5t-28.5 -11.5z" />
    <glyph glyph-name="cedilla" unicode="&#xb8;" horiz-adv-x="190" 
d="M77 7h38l-12 -52q32 -5 49.5 -25t17.5 -51q0 -35 -23 -57t-62 -22h-65v38h62q44 0 44 41t-44 41h-25z" />
    <glyph glyph-name="onesuperior" unicode="&#xb9;" horiz-adv-x="260" 
d="M30 753l119 77h41v-450h-41v404l-119 -77v46z" />
    <glyph glyph-name="ordmasculine" unicode="&#xba;" horiz-adv-x="360" 
d="M180 374q-32 0 -58.5 10.5t-46 30t-30 47t-10.5 60.5v36q0 33 10.5 60t30 46.5t46 30.5t58.5 11t58.5 -11t46 -30.5t30 -46.5t10.5 -60v-36q0 -33 -10.5 -60.5t-30 -47t-46 -30t-58.5 -10.5zM180 414q44 0 72.5 29t28.5 79v36q0 50 -28.5 79t-72.5 29t-72.5 -29
t-28.5 -79v-36q0 -50 28.5 -79t72.5 -29z" />
    <glyph glyph-name="guillemotright" unicode="&#xbb;" horiz-adv-x="505" 
d="M328.021 60.0566h-47.9941l120.985 198.976l-120.985 200.976h49.9941l119.985 -198.977zM123.021 60.0566h-47.9941l120.985 198.976l-120.985 200.976h49.9941l119.985 -198.977z" />
    <glyph glyph-name="onequarter" unicode="&#xbc;" horiz-adv-x="850" 
d="M607 700h48l-412 -700h-48zM60 631l110 69h40v-400h-40v355l-110 -70v46zM490 134l187 267h55v-267h58v-36h-58v-97h-39v97h-203v36zM693 134v228l-159 -228h159z" />
    <glyph glyph-name="onehalf" unicode="&#xbd;" horiz-adv-x="880" 
d="M607 700h48l-412 -700h-48zM60 631l110 69h40v-400h-40v355l-110 -70v46zM550 38l145 131q25 22 41.5 39.5t26 31.5t13 27t3.5 27q0 32 -24 53t-70 21q-47 0 -70 -21t-23 -53h-42q0 50 34 81.5t101 31.5q66 0 100.5 -31.5t34.5 -81.5q0 -19 -5 -36t-16 -35t-30 -38
t-46 -44l-117 -103h214v-37h-270v37z" />
    <glyph glyph-name="threequarters" unicode="&#xbe;" horiz-adv-x="900" 
d="M657 700h48l-412 -700h-48zM540 134l187 267h55v-267h58v-36h-58v-97h-39v97h-203v36zM743 134v228l-159 -228h159zM200 294q-66 0 -100.5 33t-39.5 90h42q5 -39 28.5 -61.5t69.5 -22.5q50 0 74 21.5t24 56.5q0 32 -23.5 54t-71.5 22h-56v37h56q45 0 66.5 20.5t21.5 52.5
q0 30 -22.5 50t-68.5 20q-43 0 -65 -20.5t-27 -53.5h-41q4 50 37 81.5t96 31.5q65 0 99 -31t34 -76q0 -31 -16 -55t-48 -36q35 -14 53 -40t18 -60q0 -51 -35 -82.5t-105 -31.5z" />
    <glyph glyph-name="questiondown" unicode="&#xbf;" horiz-adv-x="500" 
d="M278.027 326.021q0 -58.9932 -13.499 -97.4883q-13.498 -38.4951 -34.4951 -64.4922q-20.998 -25.9971 -44.4951 -43.9941q-23.4971 -17.998 -44.4941 -37.4961q-20.9971 -19.4971 -34.4961 -43.9941q-13.498 -24.4971 -13.498 -63.4922q0 -59.9932 40.4951 -97.4883
q40.4951 -37.4961 121.485 -37.4961q74.9902 0 116.485 39.4961q41.4951 39.4951 45.4941 105.486h47.9941q-3.99902 -86.9893 -58.4922 -138.982q-54.4941 -51.9941 -151.481 -51.9941q-50.9941 0 -89.9893 12.999q-38.9951 12.998 -65.9922 36.9951
q-26.9961 23.9971 -40.4951 57.4932q-13.498 33.4961 -13.498 73.4912q0 44.9941 13.998 73.9902q13.998 28.9971 34.4961 49.9941q20.4971 20.998 44.9941 39.4951q24.4971 18.498 44.9951 41.9951q20.4971 23.4971 34.4951 57.9932q13.999 34.4951 13.999 87.4893h45.9941
zM255.03 505.999q16.9971 0 28.4961 -11.498q11.499 -11.499 11.499 -28.4971t-11.499 -28.4961q-11.499 -11.499 -28.4961 -11.499q-16.998 0 -28.4971 11.499q-11.498 11.498 -11.498 28.4961t11.498 28.4971q11.499 11.498 28.4971 11.498z" />
    <glyph glyph-name="Agrave" unicode="&#xc0;" horiz-adv-x="650" 
d="M486 214h-324l-79 -214h-48l260 700h60l260 -700h-50zM177 256h293l-146 397l-65 -177zM171 910h62l118 -150h-52z" />
    <glyph glyph-name="Aacute" unicode="&#xc1;" horiz-adv-x="650" 
d="M486 214h-324l-79 -214h-48l260 700h60l260 -700h-50zM177 256h293l-146 397l-65 -177zM417 910h62l-128 -150h-52z" />
    <glyph glyph-name="Acircumflex" unicode="&#xc2;" horiz-adv-x="650" 
d="M486 214h-324l-79 -214h-48l260 700h60l260 -700h-50zM177 256h293l-146 397l-65 -177zM325 869l-93 -109h-52l118 150h54l118 -150h-52z" />
    <glyph glyph-name="Atilde" unicode="&#xc3;" horiz-adv-x="650" 
d="M486 214h-324l-79 -214h-48l260 700h60l260 -700h-50zM177 256h293l-146 397l-65 -177zM395 780q-26 0 -45 10.5t-34 23.5t-29.5 23.5t-31.5 10.5q-50 0 -50 -58h-40q0 50 24 75t66 25q26 0 45 -10.5t34 -23.5t29.5 -23.5t31.5 -10.5q50 0 50 58h40q0 -50 -24 -75
t-66 -25z" />
    <glyph glyph-name="Adieresis" unicode="&#xc4;" horiz-adv-x="650" 
d="M486 214h-324l-79 -214h-48l260 700h60l260 -700h-50zM177 256h293l-146 397l-65 -177zM215 800q-15 0 -25 10t-10 25t10 25t25 10t25 -10t10 -25t-10 -25t-25 -10zM435 800q-15 0 -25 10t-10 25t10 25t25 10t25 -10t10 -25t-10 -25t-25 -10z" />
    <glyph glyph-name="Aring" unicode="&#xc5;" horiz-adv-x="650" 
d="M486 214h-324l-79 -214h-48l260 700h60l260 -700h-50zM177 256h293l-146 397l-65 -177zM325 738q-44 0 -72 28t-28 69t28.5 69t71.5 28t71.5 -28t28.5 -69t-28.5 -69t-71.5 -28zM325 780q25 0 40.5 15.5t15.5 39.5t-15.5 39.5t-40.5 15.5t-40.5 -15.5t-15.5 -39.5
t15.5 -39.5t40.5 -15.5z" />
    <glyph glyph-name="AE" unicode="&#xc6;" horiz-adv-x="930" 
d="M450 700h425v-42h-359v-277h299v-42h-299v-297h359v-42h-405v214h-260l-128 -214h-52zM470 256v393l-235 -393h235z" />
    <glyph glyph-name="Ccedilla" unicode="&#xc7;" horiz-adv-x="670" 
d="M330 -5q-56 3 -102.5 26t-80.5 64t-53 98.5t-19 131.5v70q0 76 20.5 136t57.5 101t87.5 62.5t109.5 21.5q53 0 96.5 -16t76.5 -43t53.5 -61.5t28.5 -70.5h-50q-8 28 -25 54t-43 46.5t-60.5 33t-76.5 12.5q-49 0 -90.5 -18t-72 -53t-47.5 -86.5t-17 -118.5v-70
q0 -67 17 -118.5t47.5 -86.5t72 -53t90.5 -18q42 0 76.5 13t60.5 35.5t43 52.5t25 65h50q-8 -43 -27.5 -80.5t-50 -65.5t-71.5 -45.5t-91 -19.5l-9 -39q33 -5 51 -25t18 -51q0 -35 -23 -57t-62 -22h-65v36h62q46 0 46 43t-46 43h-24z" />
    <glyph glyph-name="Egrave" unicode="&#xc8;" horiz-adv-x="560" 
d="M100 700h405v-42h-359v-277h299v-42h-299v-297h359v-42h-405v700zM148 910h62l118 -150h-52z" />
    <glyph glyph-name="Eacute" unicode="&#xc9;" horiz-adv-x="560" 
d="M100 700h405v-42h-359v-277h299v-42h-299v-297h359v-42h-405v700zM394 910h62l-128 -150h-52z" />
    <glyph glyph-name="Ecircumflex" unicode="&#xca;" horiz-adv-x="560" 
d="M100 700h405v-42h-359v-277h299v-42h-299v-297h359v-42h-405v700zM302 869l-93 -109h-52l118 150h54l118 -150h-52z" />
    <glyph glyph-name="Edieresis" unicode="&#xcb;" horiz-adv-x="560" 
d="M100 700h405v-42h-359v-277h299v-42h-299v-297h359v-42h-405v700zM192 800q-15 0 -25 10t-10 25t10 25t25 10t25 -10t10 -25t-10 -25t-25 -10zM412 800q-15 0 -25 10t-10 25t10 25t25 10t25 -10t10 -25t-10 -25t-25 -10z" />
    <glyph glyph-name="Igrave" unicode="&#xcc;" horiz-adv-x="270" 
d="M112 700h46v-700h-46v700zM-18 910h62l118 -150h-52z" />
    <glyph glyph-name="Iacute" unicode="&#xcd;" horiz-adv-x="270" 
d="M112 700h46v-700h-46v700zM227 910h62l-128 -150h-52z" />
    <glyph glyph-name="Icircumflex" unicode="&#xce;" horiz-adv-x="270" 
d="M112 700h46v-700h-46v700zM136 869l-93 -109h-52l118 150h54l118 -150h-52z" />
    <glyph glyph-name="Idieresis" unicode="&#xcf;" horiz-adv-x="270" 
d="M112 700h46v-700h-46v700zM26 800q-15 0 -25 10t-10 25t10 25t25 10t25 -10t10 -25t-10 -25t-25 -10zM246 800q-15 0 -25 10t-10 25t10 25t25 10t25 -10t10 -25t-10 -25t-25 -10z" />
    <glyph glyph-name="Eth" unicode="&#xd0;" horiz-adv-x="705" 
d="M35 369h90v331h200q146 0 225.5 -80.5t79.5 -235.5v-68q0 -154 -79.5 -235t-225.5 -81h-200v331h-90v38zM171 658v-289h204v-38h-204v-289h154q125 0 191 68.5t66 205.5v68q0 137 -66.5 205.5t-190.5 68.5h-154z" />
    <glyph glyph-name="Ntilde" unicode="&#xd1;" horiz-adv-x="710" 
d="M204 550l-58 99v-649h-46v700h64l342 -550l58 -99v649h46v-700h-64zM425 780q-26 0 -45 10.5t-34 23.5t-29.5 23.5t-31.5 10.5q-50 0 -50 -58h-40q0 50 24 75t66 25q26 0 45 -10.5t34 -23.5t29.5 -23.5t31.5 -10.5q50 0 50 58h40q0 -50 -24 -75t-66 -25z" />
    <glyph glyph-name="Ograve" unicode="&#xd2;" horiz-adv-x="710" 
d="M355 -6q-60 0 -111 22t-88.5 63.5t-59 101t-21.5 134.5v70q0 75 21.5 134.5t59 101t89 63.5t110.5 22q60 0 111 -22t88.5 -63.5t59 -101t21.5 -134.5v-70q0 -75 -21.5 -134.5t-59 -101t-89 -63.5t-110.5 -22zM355 38q49 0 91 18.5t73.5 54t49.5 87t18 117.5v70
q0 65 -18 116.5t-49.5 87t-74 54.5t-90.5 19q-49 0 -91 -18.5t-73.5 -54t-49.5 -87t-18 -117.5v-70q0 -65 18 -116.5t49.5 -87t74 -54.5t90.5 -19zM201 910h62l118 -150h-52z" />
    <glyph glyph-name="Oacute" unicode="&#xd3;" horiz-adv-x="710" 
d="M355 -6q-60 0 -111 22t-88.5 63.5t-59 101t-21.5 134.5v70q0 75 21.5 134.5t59 101t89 63.5t110.5 22q60 0 111 -22t88.5 -63.5t59 -101t21.5 -134.5v-70q0 -75 -21.5 -134.5t-59 -101t-89 -63.5t-110.5 -22zM355 38q49 0 91 18.5t73.5 54t49.5 87t18 117.5v70
q0 65 -18 116.5t-49.5 87t-74 54.5t-90.5 19q-49 0 -91 -18.5t-73.5 -54t-49.5 -87t-18 -117.5v-70q0 -65 18 -116.5t49.5 -87t74 -54.5t90.5 -19zM447 910h62l-128 -150h-52z" />
    <glyph glyph-name="Ocircumflex" unicode="&#xd4;" horiz-adv-x="710" 
d="M355 -6q-60 0 -111 22t-88.5 63.5t-59 101t-21.5 134.5v70q0 75 21.5 134.5t59 101t89 63.5t110.5 22q60 0 111 -22t88.5 -63.5t59 -101t21.5 -134.5v-70q0 -75 -21.5 -134.5t-59 -101t-89 -63.5t-110.5 -22zM355 38q49 0 91 18.5t73.5 54t49.5 87t18 117.5v70
q0 65 -18 116.5t-49.5 87t-74 54.5t-90.5 19q-49 0 -91 -18.5t-73.5 -54t-49.5 -87t-18 -117.5v-70q0 -65 18 -116.5t49.5 -87t74 -54.5t90.5 -19zM355 869l-93 -109h-52l118 150h54l118 -150h-52z" />
    <glyph glyph-name="Otilde" unicode="&#xd5;" horiz-adv-x="710" 
d="M355 -6q-60 0 -111 22t-88.5 63.5t-59 101t-21.5 134.5v70q0 75 21.5 134.5t59 101t89 63.5t110.5 22q60 0 111 -22t88.5 -63.5t59 -101t21.5 -134.5v-70q0 -75 -21.5 -134.5t-59 -101t-89 -63.5t-110.5 -22zM355 38q49 0 91 18.5t73.5 54t49.5 87t18 117.5v70
q0 65 -18 116.5t-49.5 87t-74 54.5t-90.5 19q-49 0 -91 -18.5t-73.5 -54t-49.5 -87t-18 -117.5v-70q0 -65 18 -116.5t49.5 -87t74 -54.5t90.5 -19zM425 780q-26 0 -45 10.5t-34 23.5t-29.5 23.5t-31.5 10.5q-50 0 -50 -58h-40q0 50 24 75t66 25q26 0 45 -10.5t34 -23.5
t29.5 -23.5t31.5 -10.5q50 0 50 58h40q0 -50 -24 -75t-66 -25z" />
    <glyph glyph-name="Odieresis" unicode="&#xd6;" horiz-adv-x="710" 
d="M355 -6q-60 0 -111 22t-88.5 63.5t-59 101t-21.5 134.5v70q0 75 21.5 134.5t59 101t89 63.5t110.5 22q60 0 111 -22t88.5 -63.5t59 -101t21.5 -134.5v-70q0 -75 -21.5 -134.5t-59 -101t-89 -63.5t-110.5 -22zM355 38q49 0 91 18.5t73.5 54t49.5 87t18 117.5v70
q0 65 -18 116.5t-49.5 87t-74 54.5t-90.5 19q-49 0 -91 -18.5t-73.5 -54t-49.5 -87t-18 -117.5v-70q0 -65 18 -116.5t49.5 -87t74 -54.5t90.5 -19zM245 800q-15 0 -25 10t-10 25t10 25t25 10t25 -10t10 -25t-10 -25t-25 -10zM465 800q-15 0 -25 10t-10 25t10 25t25 10
t25 -10t10 -25t-10 -25t-25 -10z" />
    <glyph glyph-name="multiply" unicode="&#xd7;" 
d="M125 221l139 139l-139 139l31 31l139 -139l139 139l31 -31l-139 -139l139 -139l-31 -31l-139 139l-139 -139z" />
    <glyph glyph-name="Oslash" unicode="&#xd8;" horiz-adv-x="710" 
d="M75 20l62 81q-29 41 -45.5 94.5t-16.5 119.5v70q0 75 21.5 134.5t59 101t89 63.5t110.5 22q56 0 104 -19.5t86 -56.5l58 76l32 -26l-63 -81q30 -41 46.5 -94.5t16.5 -119.5v-70q0 -75 -21.5 -134.5t-59 -101t-89 -63.5t-110.5 -22q-115 0 -190 75l-58 -75zM355 38
q49 0 91 18.5t73.5 54t49.5 87t18 117.5v70q0 53 -12 96.5t-34 77.5l-347 -452q31 -34 72 -51.5t89 -17.5zM123 315q0 -53 11.5 -96.5t33.5 -77.5l348 452q-32 34 -73 51.5t-88 17.5q-49 0 -91 -18.5t-73.5 -54t-49.5 -87t-18 -117.5v-70z" />
    <glyph glyph-name="Ugrave" unicode="&#xd9;" horiz-adv-x="690" 
d="M345 -6q-57 0 -103 18t-79 53t-50.5 86.5t-17.5 118.5v430h46v-430q0 -114 55.5 -173t148.5 -59q94 0 149 58.5t55 173.5v430h46v-430q0 -66 -17.5 -117.5t-50.5 -87t-79 -53.5t-103 -18zM191 910h62l118 -150h-52z" />
    <glyph glyph-name="Uacute" unicode="&#xda;" horiz-adv-x="690" 
d="M345 -6q-57 0 -103 18t-79 53t-50.5 86.5t-17.5 118.5v430h46v-430q0 -114 55.5 -173t148.5 -59q94 0 149 58.5t55 173.5v430h46v-430q0 -66 -17.5 -117.5t-50.5 -87t-79 -53.5t-103 -18zM437 910h62l-128 -150h-52z" />
    <glyph glyph-name="Ucircumflex" unicode="&#xdb;" horiz-adv-x="690" 
d="M345 -6q-57 0 -103 18t-79 53t-50.5 86.5t-17.5 118.5v430h46v-430q0 -114 55.5 -173t148.5 -59q94 0 149 58.5t55 173.5v430h46v-430q0 -66 -17.5 -117.5t-50.5 -87t-79 -53.5t-103 -18zM345 869l-93 -109h-52l118 150h54l118 -150h-52z" />
    <glyph glyph-name="Udieresis" unicode="&#xdc;" horiz-adv-x="690" 
d="M345 -6q-57 0 -103 18t-79 53t-50.5 86.5t-17.5 118.5v430h46v-430q0 -114 55.5 -173t148.5 -59q94 0 149 58.5t55 173.5v430h46v-430q0 -66 -17.5 -117.5t-50.5 -87t-79 -53.5t-103 -18zM235 800q-15 0 -25 10t-10 25t10 25t25 10t25 -10t10 -25t-10 -25t-25 -10z
M455 800q-15 0 -25 10t-10 25t10 25t25 10t25 -10t10 -25t-10 -25t-25 -10z" />
    <glyph glyph-name="Yacute" unicode="&#xdd;" horiz-adv-x="650" 
d="M307 265l-267 435h54l236 -387l228 387h52l-257 -435v-265h-46v265zM418 910h62l-128 -150h-52z" />
    <glyph glyph-name="Thorn" unicode="&#xde;" horiz-adv-x="600" 
d="M100 700h46v-128h164q121 0 180.5 -56t59.5 -156q0 -99 -60 -155.5t-180 -56.5h-164v-148h-46v700zM146 530v-340h164q97 0 144.5 44.5t47.5 125.5q0 82 -46.5 126t-145.5 44h-164z" />
    <glyph glyph-name="germandbls" unicode="&#xdf;" horiz-adv-x="560" 
d="M95 500q0 47 14.5 85t40.5 65t61.5 41.5t78.5 14.5t77 -13t58 -36t37 -56.5t13 -73.5q0 -53 -25 -93t-70 -60q57 -17 86 -57t29 -97v-50q0 -79 -48.5 -124.5t-146.5 -45.5h-65v40h65q75 0 112 35t37 95v50q0 60 -37 95t-112 35h-65v40h55q64 0 101.5 37t37.5 100
t-37.5 100t-101.5 37q-67 0 -109 -44t-42 -120v-500h-44v500z" />
    <glyph glyph-name="agrave" unicode="&#xe0;" horiz-adv-x="520" 
d="M210 -6q-72 0 -111 37.5t-39 102.5q0 69 47 110t153 41h126v55q0 64 -30 94t-96 30q-63 0 -92.5 -25.5t-33.5 -68.5h-44q4 61 45.5 98.5t124.5 37.5q170 0 170 -166v-340h-36l-6 105q-26 -52 -73 -81.5t-105 -29.5zM210 36q35 0 66.5 13t55.5 36.5t38 54.5t16 67v38h-126
q-83 0 -118.5 -30t-35.5 -81q0 -45 27 -71.5t77 -26.5zM100 710h60l120 -150h-50z" />
    <glyph glyph-name="aacute" unicode="&#xe1;" horiz-adv-x="520" 
d="M210 -6q-72 0 -111 37.5t-39 102.5q0 69 47 110t153 41h126v55q0 64 -30 94t-96 30q-63 0 -92.5 -25.5t-33.5 -68.5h-44q4 61 45.5 98.5t124.5 37.5q170 0 170 -166v-340h-36l-6 105q-26 -52 -73 -81.5t-105 -29.5zM210 36q35 0 66.5 13t55.5 36.5t38 54.5t16 67v38h-126
q-83 0 -118.5 -30t-35.5 -81q0 -45 27 -71.5t77 -26.5zM350 710h60l-130 -150h-50z" />
    <glyph glyph-name="acircumflex" unicode="&#xe2;" horiz-adv-x="520" 
d="M210 -6q-72 0 -111 37.5t-39 102.5q0 69 47 110t153 41h126v55q0 64 -30 94t-96 30q-63 0 -92.5 -25.5t-33.5 -68.5h-44q4 61 45.5 98.5t124.5 37.5q170 0 170 -166v-340h-36l-6 105q-26 -52 -73 -81.5t-105 -29.5zM210 36q35 0 66.5 13t55.5 36.5t38 54.5t16 67v38h-126
q-83 0 -118.5 -30t-35.5 -81q0 -45 27 -71.5t77 -26.5zM255 670l-97 -110h-48l120 150h50l120 -150h-48z" />
    <glyph glyph-name="atilde" unicode="&#xe3;" horiz-adv-x="520" 
d="M210 -6q-72 0 -111 37.5t-39 102.5q0 69 47 110t153 41h126v55q0 64 -30 94t-96 30q-63 0 -92.5 -25.5t-33.5 -68.5h-44q4 61 45.5 98.5t124.5 37.5q170 0 170 -166v-340h-36l-6 105q-26 -52 -73 -81.5t-105 -29.5zM210 36q35 0 66.5 13t55.5 36.5t38 54.5t16 67v38h-126
q-83 0 -118.5 -30t-35.5 -81q0 -45 27 -71.5t77 -26.5zM320 580q-24 0 -42 11t-32 24t-27.5 24t-28.5 11q-21 0 -34 -14.5t-13 -45.5h-38q0 50 23.5 75t61.5 25q24 0 41.5 -11t31.5 -24t27.5 -24t29.5 -11q21 0 34 14.5t13 45.5h38q0 -50 -23.5 -75t-61.5 -25z" />
    <glyph glyph-name="adieresis" unicode="&#xe4;" horiz-adv-x="520" 
d="M210 -6q-72 0 -111 37.5t-39 102.5q0 69 47 110t153 41h126v55q0 64 -30 94t-96 30q-63 0 -92.5 -25.5t-33.5 -68.5h-44q4 61 45.5 98.5t124.5 37.5q170 0 170 -166v-340h-36l-6 105q-26 -52 -73 -81.5t-105 -29.5zM210 36q35 0 66.5 13t55.5 36.5t38 54.5t16 67v38h-126
q-83 0 -118.5 -30t-35.5 -81q0 -45 27 -71.5t77 -26.5zM155 600q-15 0 -25 10t-10 25t10 25.5t25 10.5t25 -10.5t10 -25.5t-10 -25t-25 -10zM355 600q-15 0 -25 10t-10 25t10 25.5t25 10.5t25 -10.5t10 -25.5t-10 -25t-25 -10z" />
    <glyph glyph-name="aring" unicode="&#xe5;" horiz-adv-x="520" 
d="M210 -6q-72 0 -111 37.5t-39 102.5q0 69 47 110t153 41h126v55q0 64 -30 94t-96 30q-63 0 -92.5 -25.5t-33.5 -68.5h-44q4 61 45.5 98.5t124.5 37.5q170 0 170 -166v-340h-36l-6 105q-26 -52 -73 -81.5t-105 -29.5zM210 36q35 0 66.5 13t55.5 36.5t38 54.5t16 67v38h-126
q-83 0 -118.5 -30t-35.5 -81q0 -45 27 -71.5t77 -26.5zM255 538q-44 0 -72 28t-28 69t28.5 69t71.5 28t71.5 -28t28.5 -69t-28.5 -69t-71.5 -28zM255 578q26 0 42 16t16 41t-16 41t-42 16t-42 -16t-16 -41t16 -41t42 -16z" />
    <glyph glyph-name="ae" unicode="&#xe6;" horiz-adv-x="855" 
d="M210 -6q-72 0 -111 37.5t-39 102.5q0 67 47.5 106.5t158.5 39.5h120v60q0 64 -30 94t-96 30q-63 0 -92.5 -25.5t-33.5 -68.5h-44q4 61 45.5 98.5t124.5 37.5q128 0 160 -95q26 45 69.5 70t97.5 25q45 0 82.5 -15.5t64 -44.5t41.5 -72.5t15 -98.5v-35h-360v-15
q0 -44 12.5 -79t33.5 -59.5t49.5 -37.5t61.5 -13q67 0 100.5 27.5t48.5 76.5h46q-15 -65 -62 -105.5t-133 -40.5q-63 0 -111.5 34.5t-71.5 96.5q-23 -60 -75 -95.5t-119 -35.5zM587 464q-33 0 -61.5 -12t-49.5 -35t-33 -56.5t-13 -76.5v-4h314q-2 91 -45.5 137.5
t-111.5 46.5zM210 36q33 0 63 12t54 33t39.5 50.5t19.5 64.5v44h-120q-44 0 -74 -8t-49.5 -22t-28 -33.5t-8.5 -42.5q0 -45 27 -71.5t77 -26.5z" />
    <glyph glyph-name="ccedilla" unicode="&#xe7;" horiz-adv-x="505" 
d="M249 -5q-41 3 -74.5 20.5t-58 46.5t-38 70.5t-13.5 92.5v50q0 54 15.5 97t42.5 73t64.5 45.5t82.5 15.5q38 0 69 -11t54 -30t38.5 -43.5t23.5 -51.5h-48q-15 38 -48.5 66t-88.5 28q-34 0 -63 -12.5t-50.5 -36.5t-33.5 -59.5t-12 -80.5v-50q0 -45 12 -80.5t33.5 -59.5
t50.5 -36.5t63 -12.5q57 0 89.5 28.5t47.5 75.5h48q-14 -60 -56 -100t-112 -45l-9 -40q32 -5 49.5 -25t17.5 -51q0 -35 -23 -57t-62 -22h-65v38h62q44 0 44 41t-44 41h-25z" />
    <glyph glyph-name="egrave" unicode="&#xe8;" horiz-adv-x="540" 
d="M270 -6q-46 0 -83.5 15.5t-64.5 44.5t-42 72t-15 99v50q0 55 15 98.5t42 72.5t64.5 44.5t83.5 15.5t83.5 -15.5t64.5 -44.5t42 -72.5t15 -98.5v-35h-364v-15q0 -94 44 -141.5t115 -47.5q69 0 102.5 27.5t48.5 76.5h46q-15 -65 -62 -105.5t-135 -40.5zM270 464
q-70 0 -113.5 -46.5t-45.5 -137.5h318q-2 91 -46 137.5t-113 46.5zM115 710h60l120 -150h-50z" />
    <glyph glyph-name="eacute" unicode="&#xe9;" horiz-adv-x="540" 
d="M270 -6q-46 0 -83.5 15.5t-64.5 44.5t-42 72t-15 99v50q0 55 15 98.5t42 72.5t64.5 44.5t83.5 15.5t83.5 -15.5t64.5 -44.5t42 -72.5t15 -98.5v-35h-364v-15q0 -94 44 -141.5t115 -47.5q69 0 102.5 27.5t48.5 76.5h46q-15 -65 -62 -105.5t-135 -40.5zM270 464
q-70 0 -113.5 -46.5t-45.5 -137.5h318q-2 91 -46 137.5t-113 46.5zM365 710h60l-130 -150h-50z" />
    <glyph glyph-name="ecircumflex" unicode="&#xea;" horiz-adv-x="540" 
d="M270 -6q-46 0 -83.5 15.5t-64.5 44.5t-42 72t-15 99v50q0 55 15 98.5t42 72.5t64.5 44.5t83.5 15.5t83.5 -15.5t64.5 -44.5t42 -72.5t15 -98.5v-35h-364v-15q0 -94 44 -141.5t115 -47.5q69 0 102.5 27.5t48.5 76.5h46q-15 -65 -62 -105.5t-135 -40.5zM270 464
q-70 0 -113.5 -46.5t-45.5 -137.5h318q-2 91 -46 137.5t-113 46.5zM269 670l-97 -110h-48l120 150h50l120 -150h-48z" />
    <glyph glyph-name="edieresis" unicode="&#xeb;" horiz-adv-x="540" 
d="M270 -6q-46 0 -83.5 15.5t-64.5 44.5t-42 72t-15 99v50q0 55 15 98.5t42 72.5t64.5 44.5t83.5 15.5t83.5 -15.5t64.5 -44.5t42 -72.5t15 -98.5v-35h-364v-15q0 -94 44 -141.5t115 -47.5q69 0 102.5 27.5t48.5 76.5h46q-15 -65 -62 -105.5t-135 -40.5zM270 464
q-70 0 -113.5 -46.5t-45.5 -137.5h318q-2 91 -46 137.5t-113 46.5zM170 600q-15 0 -25 10t-10 25t10 25.5t25 10.5t25 -10.5t10 -25.5t-10 -25t-25 -10zM370 600q-15 0 -25 10t-10 25t10 25.5t25 10.5t25 -10.5t10 -25.5t-10 -25t-25 -10z" />
    <glyph glyph-name="igrave" unicode="&#xec;" horiz-adv-x="256" 
d="M106 500h44v-500h-44v500zM-26 710h60l120 -150h-50z" />
    <glyph glyph-name="iacute" unicode="&#xed;" horiz-adv-x="256" 
d="M106 500h44v-500h-44v500zM223 710h60l-130 -150h-50z" />
    <glyph glyph-name="icircumflex" unicode="&#xee;" horiz-adv-x="256" 
d="M106 500h44v-500h-44v500zM129 670l-97 -110h-48l120 150h50l120 -150h-48z" />
    <glyph glyph-name="idieresis" unicode="&#xef;" horiz-adv-x="256" 
d="M106 500h44v-500h-44v500zM29 600q-15 0 -25 10t-10 25t10 25.5t25 10.5t25 -10.5t10 -25.5t-10 -25t-25 -10zM229 600q-15 0 -25 10t-10 25t10 25.5t25 10.5t25 -10.5t10 -25.5t-10 -25t-25 -10z" />
    <glyph glyph-name="eth" unicode="&#xf0;" horiz-adv-x="545" 
d="M175 581l75 40q-22 21 -44.5 40.5t-45.5 38.5h60q17 -14 33 -28.5t33 -31.5l89 48v-34l-67 -36q33 -35 63.5 -74t53.5 -83.5t36.5 -93t13.5 -102.5v-50q0 -49 -16 -89.5t-43.5 -70t-65 -45.5t-80.5 -16t-80.5 16t-65 45t-43.5 69.5t-16 90.5v50q0 49 15.5 89.5t42.5 70
t63 45.5t77 16q40 0 74 -15t60 -43q-21 45 -53.5 87.5t-71.5 82.5l-97 -52v35zM270 36q33 0 62 12.5t50.5 35.5t34 56.5t12.5 74.5v50q0 40 -12.5 72.5t-34 55.5t-50.5 35.5t-62 12.5t-62 -12.5t-50.5 -35.5t-34 -55.5t-12.5 -72.5v-50q0 -41 12.5 -74t34 -56.5t50.5 -36
t62 -12.5z" />
    <glyph glyph-name="ntilde" unicode="&#xf1;" horiz-adv-x="575" 
d="M95 500h36l4 -86q25 44 68.5 68t101.5 24q84 0 132 -50.5t48 -150.5v-305h-44v305q0 80 -37.5 119.5t-103.5 39.5q-35 0 -64 -11t-50 -31.5t-33.5 -48.5t-13.5 -61v-312h-44v500zM355 580q-24 0 -42 11t-32 24t-27.5 24t-28.5 11q-21 0 -34 -14.5t-13 -45.5h-38
q0 50 23.5 75t61.5 25q24 0 41.5 -11t31.5 -24t27.5 -24t29.5 -11q21 0 34 14.5t13 45.5h38q0 -50 -23.5 -75t-61.5 -25z" />
    <glyph glyph-name="ograve" unicode="&#xf2;" horiz-adv-x="550" 
d="M275 -6q-47 0 -86 15.5t-66.5 45t-42.5 72.5t-15 98v50q0 55 15 98t43 72.5t66.5 45t85.5 15.5t86 -15.5t66.5 -45t42.5 -72.5t15 -98v-50q0 -55 -15 -98t-43 -72.5t-66.5 -45t-85.5 -15.5zM275 36q73 0 118.5 48.5t45.5 140.5v50q0 91 -46 140t-118 49
q-73 0 -118.5 -48.5t-45.5 -140.5v-50q0 -91 46 -140t118 -49zM120 710h60l120 -150h-50z" />
    <glyph glyph-name="oacute" unicode="&#xf3;" horiz-adv-x="550" 
d="M275 -6q-47 0 -86 15.5t-66.5 45t-42.5 72.5t-15 98v50q0 55 15 98t43 72.5t66.5 45t85.5 15.5t86 -15.5t66.5 -45t42.5 -72.5t15 -98v-50q0 -55 -15 -98t-43 -72.5t-66.5 -45t-85.5 -15.5zM275 36q73 0 118.5 48.5t45.5 140.5v50q0 91 -46 140t-118 49
q-73 0 -118.5 -48.5t-45.5 -140.5v-50q0 -91 46 -140t118 -49zM370 710h60l-130 -150h-50z" />
    <glyph glyph-name="ocircumflex" unicode="&#xf4;" horiz-adv-x="550" 
d="M275 -6q-47 0 -86 15.5t-66.5 45t-42.5 72.5t-15 98v50q0 55 15 98t43 72.5t66.5 45t85.5 15.5t86 -15.5t66.5 -45t42.5 -72.5t15 -98v-50q0 -55 -15 -98t-43 -72.5t-66.5 -45t-85.5 -15.5zM275 36q73 0 118.5 48.5t45.5 140.5v50q0 91 -46 140t-118 49
q-73 0 -118.5 -48.5t-45.5 -140.5v-50q0 -91 46 -140t118 -49zM275 670l-97 -110h-48l120 150h50l120 -150h-48z" />
    <glyph glyph-name="otilde" unicode="&#xf5;" horiz-adv-x="550" 
d="M275 -6q-47 0 -86 15.5t-66.5 45t-42.5 72.5t-15 98v50q0 55 15 98t43 72.5t66.5 45t85.5 15.5t86 -15.5t66.5 -45t42.5 -72.5t15 -98v-50q0 -55 -15 -98t-43 -72.5t-66.5 -45t-85.5 -15.5zM275 36q73 0 118.5 48.5t45.5 140.5v50q0 91 -46 140t-118 49
q-73 0 -118.5 -48.5t-45.5 -140.5v-50q0 -91 46 -140t118 -49zM340 580q-24 0 -42 11t-32 24t-27.5 24t-28.5 11q-21 0 -34 -14.5t-13 -45.5h-38q0 50 23.5 75t61.5 25q24 0 41.5 -11t31.5 -24t27.5 -24t29.5 -11q21 0 34 14.5t13 45.5h38q0 -50 -23.5 -75t-61.5 -25z" />
    <glyph glyph-name="odieresis" unicode="&#xf6;" horiz-adv-x="550" 
d="M275 -6q-47 0 -86 15.5t-66.5 45t-42.5 72.5t-15 98v50q0 55 15 98t43 72.5t66.5 45t85.5 15.5t86 -15.5t66.5 -45t42.5 -72.5t15 -98v-50q0 -55 -15 -98t-43 -72.5t-66.5 -45t-85.5 -15.5zM275 36q73 0 118.5 48.5t45.5 140.5v50q0 91 -46 140t-118 49
q-73 0 -118.5 -48.5t-45.5 -140.5v-50q0 -91 46 -140t118 -49zM175 600q-15 0 -25 10t-10 25t10 25.5t25 10.5t25 -10.5t10 -25.5t-10 -25t-25 -10zM375 600q-15 0 -25 10t-10 25t10 25.5t25 10.5t25 -10.5t10 -25.5t-10 -25t-25 -10z" />
    <glyph glyph-name="divide" unicode="&#xf7;" 
d="M80 381h430v-42h-430v42zM295 490q-17 0 -28.5 11.5t-11.5 28.5t11.5 28.5t28.5 11.5t28.5 -11.5t11.5 -28.5t-11.5 -28.5t-28.5 -11.5zM295 150q-17 0 -28.5 11.5t-11.5 28.5t11.5 28.5t28.5 11.5t28.5 -11.5t11.5 -28.5t-11.5 -28.5t-28.5 -11.5z" />
    <glyph glyph-name="oslash" unicode="&#xf8;" horiz-adv-x="550" 
d="M65 16l44 55q-21 29 -32.5 67.5t-11.5 86.5v50q0 55 15 98t43 72.5t66.5 45t85.5 15.5q85 0 141 -51l41 51l28 -22l-44 -56q21 -29 32.5 -67t11.5 -86v-50q0 -55 -15 -98t-43 -72.5t-66.5 -45t-85.5 -15.5q-87 0 -142 50l-40 -50zM275 36q73 0 118.5 48.5t45.5 140.5v50
q0 69 -28 116l-250 -312q45 -43 114 -43zM111 225q0 -69 28 -116l249 311q-42 44 -113 44q-73 0 -118.5 -48.5t-45.5 -140.5v-50z" />
    <glyph glyph-name="ugrave" unicode="&#xf9;" horiz-adv-x="565" 
d="M265 -6q-80 0 -127.5 50.5t-47.5 150.5v305h44v-305q0 -80 37 -119.5t100 -39.5q33 0 61.5 12t49.5 33t32.5 50t11.5 64v305h44v-500h-36l-5 88q-23 -45 -66 -69.5t-98 -24.5zM125 710h60l120 -150h-50z" />
    <glyph glyph-name="uacute" unicode="&#xfa;" horiz-adv-x="565" 
d="M265 -6q-80 0 -127.5 50.5t-47.5 150.5v305h44v-305q0 -80 37 -119.5t100 -39.5q33 0 61.5 12t49.5 33t32.5 50t11.5 64v305h44v-500h-36l-5 88q-23 -45 -66 -69.5t-98 -24.5zM375 710h60l-130 -150h-50z" />
    <glyph glyph-name="ucircumflex" unicode="&#xfb;" horiz-adv-x="565" 
d="M265 -6q-80 0 -127.5 50.5t-47.5 150.5v305h44v-305q0 -80 37 -119.5t100 -39.5q33 0 61.5 12t49.5 33t32.5 50t11.5 64v305h44v-500h-36l-5 88q-23 -45 -66 -69.5t-98 -24.5zM280 670l-97 -110h-48l120 150h50l120 -150h-48z" />
    <glyph glyph-name="udieresis" unicode="&#xfc;" horiz-adv-x="565" 
d="M265 -6q-80 0 -127.5 50.5t-47.5 150.5v305h44v-305q0 -80 37 -119.5t100 -39.5q33 0 61.5 12t49.5 33t32.5 50t11.5 64v305h44v-500h-36l-5 88q-23 -45 -66 -69.5t-98 -24.5zM180 600q-15 0 -25 10t-10 25t10 25.5t25 10.5t25 -10.5t10 -25.5t-10 -25t-25 -10zM380 600
q-15 0 -25 10t-10 25t10 25.5t25 10.5t25 -10.5t10 -25.5t-10 -25t-25 -10z" />
    <glyph glyph-name="yacute" unicode="&#xfd;" horiz-adv-x="520" 
d="M245 -1l-210 501h48l185 -447l171 447h46l-270 -700h-46zM356 710h60l-130 -150h-50z" />
    <glyph glyph-name="thorn" unicode="&#xfe;" horiz-adv-x="560" 
d="M301 -6q-54 0 -95.5 23.5t-66.5 70.5v-288h-44v900h44v-288q25 47 66 70.5t94 23.5q43 0 79.5 -15t62 -44t40 -72t14.5 -100v-50q0 -57 -14.5 -100t-40 -72t-61 -44t-78.5 -15zM294 36q69 0 112 47.5t43 141.5v50q0 94 -43 141.5t-112 47.5q-33 0 -61 -12.5t-49 -36.5
t-33 -59.5t-12 -80.5v-50q0 -45 12 -80.5t33 -59.5t49 -36.5t61 -12.5z" />
    <glyph glyph-name="ydieresis" unicode="&#xff;" horiz-adv-x="520" 
d="M245 -1l-210 501h48l185 -447l171 447h46l-270 -700h-46zM161 600q-15 0 -25 10t-10 25t10 25.5t25 10.5t25 -10.5t10 -25.5t-10 -25t-25 -10zM361 600q-15 0 -25 10t-10 25t10 25.5t25 10.5t25 -10.5t10 -25.5t-10 -25t-25 -10z" />
    <glyph glyph-name="Amacron" unicode="&#x100;" horiz-adv-x="650" 
d="M486 214h-324l-79 -214h-48l260 700h60l260 -700h-50zM177 256h293l-146 397l-65 -177zM185 855h280v-40h-280v40z" />
    <glyph glyph-name="amacron" unicode="&#x101;" horiz-adv-x="520" 
d="M210 -6q-72 0 -111 37.5t-39 102.5q0 69 47 110t153 41h126v55q0 64 -30 94t-96 30q-63 0 -92.5 -25.5t-33.5 -68.5h-44q4 61 45.5 98.5t124.5 37.5q170 0 170 -166v-340h-36l-6 105q-26 -52 -73 -81.5t-105 -29.5zM210 36q35 0 66.5 13t55.5 36.5t38 54.5t16 67v38h-126
q-83 0 -118.5 -30t-35.5 -81q0 -45 27 -71.5t77 -26.5zM125 654h260v-38h-260v38z" />
    <glyph glyph-name="Abreve" unicode="&#x102;" horiz-adv-x="650" 
d="M486 214h-324l-79 -214h-48l260 700h60l260 -700h-50zM177 256h293l-146 397l-65 -177zM325 764q-68 0 -104 35.5t-36 100.5h44q0 -46 25 -71t71 -25q48 0 73 25t25 71h42q0 -65 -36 -100.5t-104 -35.5z" />
    <glyph glyph-name="abreve" unicode="&#x103;" horiz-adv-x="520" 
d="M210 -6q-72 0 -111 37.5t-39 102.5q0 69 47 110t153 41h126v55q0 64 -30 94t-96 30q-63 0 -92.5 -25.5t-33.5 -68.5h-44q4 61 45.5 98.5t124.5 37.5q170 0 170 -166v-340h-36l-6 105q-26 -52 -73 -81.5t-105 -29.5zM210 36q35 0 66.5 13t55.5 36.5t38 54.5t16 67v38h-126
q-83 0 -118.5 -30t-35.5 -81q0 -45 27 -71.5t77 -26.5zM255 564q-60 0 -95 35.5t-35 100.5h42q0 -48 24 -73t64 -25q42 0 66 25t24 73h40q0 -65 -35 -100.5t-95 -35.5z" />
    <glyph glyph-name="Aogonek" unicode="&#x104;" horiz-adv-x="650" 
d="M560 -200q-42 0 -63.5 20.5t-21.5 54.5q0 14 3 27t12.5 28t27 33t45.5 42l-77 209h-324l-79 -214h-48l260 700h60l260 -700q-31 -26 -49.5 -44t-28.5 -31t-13 -23.5t-3 -21.5q0 -18 11 -29t28 -11h55v-40h-55zM177 256h293l-81 220l-65 177l-65 -177z" />
    <glyph glyph-name="aogonek" unicode="&#x105;" horiz-adv-x="520" 
d="M375 -200q-42 0 -63.5 20.5t-21.5 54.5q0 15 3.5 29t15 30t31.5 36t53 47l-5 88q-26 -52 -73 -81.5t-105 -29.5q-72 0 -111 37.5t-39 102.5q0 69 47 110t153 41h126v55q0 64 -30 94t-96 30q-63 0 -92.5 -25.5t-33.5 -68.5h-44q4 61 45.5 98.5t124.5 37.5q170 0 170 -166
v-340q-31 -26 -49.5 -44t-29 -31t-14 -23.5t-3.5 -21.5q0 -19 11.5 -30.5t29.5 -11.5h55v-38h-55zM210 36q35 0 66.5 13t55.5 36.5t38 54.5t16 67v38h-126q-83 0 -118.5 -30t-35.5 -81q0 -45 27 -71.5t77 -26.5z" />
    <glyph glyph-name="Cacute" unicode="&#x106;" horiz-adv-x="670" 
d="M350 -6q-59 0 -109.5 21.5t-87.5 62.5t-57.5 100.5t-20.5 136.5v70q0 76 20.5 136t57.5 101t87.5 62.5t109.5 21.5q53 0 96.5 -16t76.5 -43t53.5 -61.5t28.5 -70.5h-50q-8 28 -25 54t-43 46.5t-60.5 33t-76.5 12.5q-49 0 -90.5 -18t-72 -53t-47.5 -86.5t-17 -118.5v-70
q0 -67 17 -118.5t47.5 -86.5t72 -53t90.5 -18q42 0 76.5 13t60.5 35.5t43 52.5t25 65h50q-8 -44 -28.5 -82.5t-53 -67t-76.5 -45t-97 -16.5zM442 910h62l-128 -150h-52z" />
    <glyph glyph-name="cacute" unicode="&#x107;" horiz-adv-x="505" 
d="M270 -6q-45 0 -82.5 15.5t-64.5 45.5t-42.5 73t-15.5 97v50q0 54 15.5 97t42.5 73t64.5 45.5t82.5 15.5q38 0 69 -11t54 -30t38.5 -43.5t23.5 -51.5h-48q-15 38 -48.5 66t-88.5 28q-34 0 -63 -12.5t-50.5 -36.5t-33.5 -59.5t-12 -80.5v-50q0 -45 12 -80.5t33.5 -59.5
t50.5 -36.5t63 -12.5q57 0 89.5 28.5t47.5 75.5h48q-15 -63 -61 -104.5t-124 -41.5zM365 710h60l-130 -150h-50z" />
    <glyph glyph-name="Ccircumflex" unicode="&#x108;" horiz-adv-x="670" 
d="M350 -6q-59 0 -109.5 21.5t-87.5 62.5t-57.5 100.5t-20.5 136.5v70q0 76 20.5 136t57.5 101t87.5 62.5t109.5 21.5q53 0 96.5 -16t76.5 -43t53.5 -61.5t28.5 -70.5h-50q-8 28 -25 54t-43 46.5t-60.5 33t-76.5 12.5q-49 0 -90.5 -18t-72 -53t-47.5 -86.5t-17 -118.5v-70
q0 -67 17 -118.5t47.5 -86.5t72 -53t90.5 -18q42 0 76.5 13t60.5 35.5t43 52.5t25 65h50q-8 -44 -28.5 -82.5t-53 -67t-76.5 -45t-97 -16.5zM350 869l-93 -109h-52l118 150h54l118 -150h-52z" />
    <glyph glyph-name="ccircumflex" unicode="&#x109;" horiz-adv-x="505" 
d="M270 -6q-45 0 -82.5 15.5t-64.5 45.5t-42.5 73t-15.5 97v50q0 54 15.5 97t42.5 73t64.5 45.5t82.5 15.5q38 0 69 -11t54 -30t38.5 -43.5t23.5 -51.5h-48q-15 38 -48.5 66t-88.5 28q-34 0 -63 -12.5t-50.5 -36.5t-33.5 -59.5t-12 -80.5v-50q0 -45 12 -80.5t33.5 -59.5
t50.5 -36.5t63 -12.5q57 0 89.5 28.5t47.5 75.5h48q-15 -63 -61 -104.5t-124 -41.5zM270 670l-97 -110h-48l120 150h50l120 -150h-48z" />
    <glyph glyph-name="Cdotaccent" unicode="&#x10a;" horiz-adv-x="670" 
d="M350 -6q-59 0 -109.5 21.5t-87.5 62.5t-57.5 100.5t-20.5 136.5v70q0 76 20.5 136t57.5 101t87.5 62.5t109.5 21.5q53 0 96.5 -16t76.5 -43t53.5 -61.5t28.5 -70.5h-50q-8 28 -25 54t-43 46.5t-60.5 33t-76.5 12.5q-49 0 -90.5 -18t-72 -53t-47.5 -86.5t-17 -118.5v-70
q0 -67 17 -118.5t47.5 -86.5t72 -53t90.5 -18q42 0 76.5 13t60.5 35.5t43 52.5t25 65h50q-8 -44 -28.5 -82.5t-53 -67t-76.5 -45t-97 -16.5zM350 800q-15 0 -25 10t-10 25q0 16 10 25.5t25 9.5t25 -10t10 -25t-10 -25t-25 -10z" />
    <glyph glyph-name="cdotaccent" unicode="&#x10b;" horiz-adv-x="505" 
d="M270 -6q-45 0 -82.5 15.5t-64.5 45.5t-42.5 73t-15.5 97v50q0 54 15.5 97t42.5 73t64.5 45.5t82.5 15.5q38 0 69 -11t54 -30t38.5 -43.5t23.5 -51.5h-48q-15 38 -48.5 66t-88.5 28q-34 0 -63 -12.5t-50.5 -36.5t-33.5 -59.5t-12 -80.5v-50q0 -45 12 -80.5t33.5 -59.5
t50.5 -36.5t63 -12.5q57 0 89.5 28.5t47.5 75.5h48q-15 -63 -61 -104.5t-124 -41.5zM270 600q-15 0 -25 10t-10 25t10 25t25 10t25 -10t10 -25t-10 -25t-25 -10z" />
    <glyph glyph-name="Ccaron" unicode="&#x10c;" horiz-adv-x="670" 
d="M350 -6q-59 0 -109.5 21.5t-87.5 62.5t-57.5 100.5t-20.5 136.5v70q0 76 20.5 136t57.5 101t87.5 62.5t109.5 21.5q53 0 96.5 -16t76.5 -43t53.5 -61.5t28.5 -70.5h-50q-8 28 -25 54t-43 46.5t-60.5 33t-76.5 12.5q-49 0 -90.5 -18t-72 -53t-47.5 -86.5t-17 -118.5v-70
q0 -67 17 -118.5t47.5 -86.5t72 -53t90.5 -18q42 0 76.5 13t60.5 35.5t43 52.5t25 65h50q-8 -44 -28.5 -82.5t-53 -67t-76.5 -45t-97 -16.5zM205 910h52l93 -109l93 109h52l-118 -150h-54z" />
    <glyph glyph-name="ccaron" unicode="&#x10d;" horiz-adv-x="505" 
d="M270 -6q-45 0 -82.5 15.5t-64.5 45.5t-42.5 73t-15.5 97v50q0 54 15.5 97t42.5 73t64.5 45.5t82.5 15.5q38 0 69 -11t54 -30t38.5 -43.5t23.5 -51.5h-48q-15 38 -48.5 66t-88.5 28q-34 0 -63 -12.5t-50.5 -36.5t-33.5 -59.5t-12 -80.5v-50q0 -45 12 -80.5t33.5 -59.5
t50.5 -36.5t63 -12.5q57 0 89.5 28.5t47.5 75.5h48q-15 -63 -61 -104.5t-124 -41.5zM125 710h48l97 -111l97 111h48l-120 -150h-50z" />
    <glyph glyph-name="Dcaron" unicode="&#x10e;" horiz-adv-x="680" 
d="M100 700h200q146 0 225.5 -80.5t79.5 -235.5v-68q0 -154 -79.5 -235t-225.5 -81h-200v700zM146 658v-616h154q125 0 191 68.5t66 205.5v68q0 137 -66.5 205.5t-190.5 68.5h-154zM175 910h52l93 -109l93 109h52l-118 -150h-54z" />
    <glyph glyph-name="dcaron" unicode="&#x10f;" horiz-adv-x="560" 
d="M545 700h44l-8 -180h-36v180zM261 -6q-44 0 -80 15t-61.5 44t-40 72t-14.5 100v50q0 57 14.5 100t40 72t61 44t78.5 15q53 0 95 -23.5t67 -70.5v288h44v-700h-36l-5 93q-25 -49 -67 -74t-96 -25zM266 36q33 0 61 12.5t49 36.5t33 59.5t12 80.5v59q-3 87 -47 133.5
t-108 46.5q-69 0 -112 -47.5t-43 -141.5v-50q0 -94 43 -141.5t112 -47.5z" />
    <glyph glyph-name="Dcroat" unicode="&#x110;" horiz-adv-x="705" 
d="M35 369h90v331h200q146 0 225.5 -80.5t79.5 -235.5v-68q0 -154 -79.5 -235t-225.5 -81h-200v331h-90v38zM171 658v-289h204v-38h-204v-289h154q125 0 191 68.5t66 205.5v68q0 137 -66.5 205.5t-190.5 68.5h-154z" />
    <glyph glyph-name="dcroat" unicode="&#x111;" horiz-adv-x="560" 
d="M255 579h166v121h44v-121h95v-38h-95v-541h-36l-5 90q-25 -47 -67 -71.5t-96 -24.5q-44 0 -80 14.5t-61.5 42.5t-40 68t-14.5 91v50q0 51 14.5 91t40 68t61 42.5t78.5 14.5q54 0 95.5 -23t66.5 -67v155h-166v38zM266 36q32 0 59.5 11.5t48.5 33t33 52.5t14 69v66
q-2 38 -14 68.5t-33 52.5t-48.5 33.5t-59.5 11.5q-69 0 -112 -45.5t-43 -128.5v-50q0 -83 43 -128.5t112 -45.5z" />
    <glyph glyph-name="Emacron" unicode="&#x112;" horiz-adv-x="560" 
d="M100 700h405v-42h-359v-277h299v-42h-299v-297h359v-42h-405v700zM162 855h280v-40h-280v40z" />
    <glyph glyph-name="emacron" unicode="&#x113;" horiz-adv-x="540" 
d="M270 -6q-46 0 -83.5 15.5t-64.5 44.5t-42 72t-15 99v50q0 55 15 98.5t42 72.5t64.5 44.5t83.5 15.5t83.5 -15.5t64.5 -44.5t42 -72.5t15 -98.5v-35h-364v-15q0 -94 44 -141.5t115 -47.5q69 0 102.5 27.5t48.5 76.5h46q-15 -65 -62 -105.5t-135 -40.5zM270 464
q-70 0 -113.5 -46.5t-45.5 -137.5h318q-2 91 -46 137.5t-113 46.5zM140 654h260v-38h-260v38z" />
    <glyph glyph-name="Ebreve" unicode="&#x114;" horiz-adv-x="560" 
d="M100 700h405v-42h-359v-277h299v-42h-299v-297h359v-42h-405v700zM302 764q-68 0 -104 35.5t-36 100.5h44q0 -46 25 -71t71 -25q48 0 73 25t25 71h42q0 -65 -36 -100.5t-104 -35.5z" />
    <glyph glyph-name="ebreve" unicode="&#x115;" horiz-adv-x="540" 
d="M270 -6q-46 0 -83.5 15.5t-64.5 44.5t-42 72t-15 99v50q0 55 15 98.5t42 72.5t64.5 44.5t83.5 15.5t83.5 -15.5t64.5 -44.5t42 -72.5t15 -98.5v-35h-364v-15q0 -94 44 -141.5t115 -47.5q69 0 102.5 27.5t48.5 76.5h46q-15 -65 -62 -105.5t-135 -40.5zM270 464
q-70 0 -113.5 -46.5t-45.5 -137.5h318q-2 91 -46 137.5t-113 46.5zM270 564q-60 0 -95 35.5t-35 100.5h42q0 -48 24 -73t64 -25q42 0 66 25t24 73h40q0 -65 -35 -100.5t-95 -35.5z" />
    <glyph glyph-name="Edotaccent" unicode="&#x116;" horiz-adv-x="560" 
d="M100 700h405v-42h-359v-277h299v-42h-299v-297h359v-42h-405v700zM302 800q-15 0 -25 10t-10 25q0 16 10 25.5t25 9.5t25 -10t10 -25t-10 -25t-25 -10z" />
    <glyph glyph-name="edotaccent" unicode="&#x117;" horiz-adv-x="540" 
d="M270 -6q-46 0 -83.5 15.5t-64.5 44.5t-42 72t-15 99v50q0 55 15 98.5t42 72.5t64.5 44.5t83.5 15.5t83.5 -15.5t64.5 -44.5t42 -72.5t15 -98.5v-35h-364v-15q0 -94 44 -141.5t115 -47.5q69 0 102.5 27.5t48.5 76.5h46q-15 -65 -62 -105.5t-135 -40.5zM270 464
q-70 0 -113.5 -46.5t-45.5 -137.5h318q-2 91 -46 137.5t-113 46.5zM270 600q-15 0 -25 10t-10 25t10 25t25 10t25 -10t10 -25t-10 -25t-25 -10z" />
    <glyph glyph-name="Eogonek" unicode="&#x118;" horiz-adv-x="560" 
d="M100 700h405v-42h-359v-277h299v-42h-299v-297h359v-42q-31 -26 -49.5 -44t-28.5 -31t-13 -23.5t-3 -21.5q0 -18 11 -29t28 -11h55v-40h-55q-42 0 -63.5 20.5t-21.5 54.5q0 13 3 26t12 27.5t25 32t42 39.5h-347v700z" />
    <glyph glyph-name="eogonek" unicode="&#x119;" horiz-adv-x="540" 
d="M390 -200q-42 0 -63.5 20.5t-21.5 54.5q0 13 2 25.5t8.5 28t18 35.5t29.5 48q-18 -10 -42.5 -14t-50.5 -4q-46 0 -83.5 15.5t-64.5 44.5t-42 72t-15 99v50q0 55 15 98.5t42 72.5t64.5 44.5t83.5 15.5t83.5 -15.5t64.5 -44.5t42 -72.5t15 -98.5v-35h-364v-15
q0 -94 44 -141.5t115 -47.5q69 0 102.5 27.5t48.5 76.5h46q-5 -17 -9.5 -30t-13.5 -30q-28 -48 -46 -80t-29 -54t-15.5 -37.5t-4.5 -28.5q0 -19 11.5 -30.5t29.5 -11.5h55v-38h-55zM270 464q-70 0 -113.5 -46.5t-45.5 -137.5h318q-2 91 -46 137.5t-113 46.5z" />
    <glyph glyph-name="Ecaron" unicode="&#x11a;" horiz-adv-x="560" 
d="M100 700h405v-42h-359v-277h299v-42h-299v-297h359v-42h-405v700zM157 910h52l93 -109l93 109h52l-118 -150h-54z" />
    <glyph glyph-name="ecaron" unicode="&#x11b;" horiz-adv-x="540" 
d="M270 -6q-46 0 -83.5 15.5t-64.5 44.5t-42 72t-15 99v50q0 55 15 98.5t42 72.5t64.5 44.5t83.5 15.5t83.5 -15.5t64.5 -44.5t42 -72.5t15 -98.5v-35h-364v-15q0 -94 44 -141.5t115 -47.5q69 0 102.5 27.5t48.5 76.5h46q-15 -65 -62 -105.5t-135 -40.5zM270 464
q-70 0 -113.5 -46.5t-45.5 -137.5h318q-2 91 -46 137.5t-113 46.5zM125 710h48l97 -111l97 111h48l-120 -150h-50z" />
    <glyph glyph-name="Gcircumflex" unicode="&#x11c;" horiz-adv-x="680" 
d="M340 331h265v-21q0 -79 -19 -138t-52.5 -98.5t-80.5 -59.5t-103 -20q-60 0 -110 21.5t-87 62.5t-57.5 100.5t-20.5 136.5v70q0 76 20.5 136t57.5 101t87.5 62.5t109.5 21.5q51 0 93.5 -15.5t74 -42t51.5 -61t28 -72.5h-48q-8 28 -24.5 55t-42 47t-59 32.5t-73.5 12.5
q-49 0 -90.5 -18t-72 -53t-47.5 -87t-17 -119v-70q0 -68 17 -119.5t47.5 -86.5t72 -53t90.5 -18q92 0 148.5 60t61.5 191h-220v42zM350 869l-93 -109h-52l118 150h54l118 -150h-52z" />
    <glyph glyph-name="gcircumflex" unicode="&#x11d;" horiz-adv-x="560" 
d="M259 14q-43 0 -78.5 14.5t-61 43t-40 69.5t-14.5 94v50q0 53 14.5 94t40 69.5t61.5 43t80 14.5q54 0 96 -24.5t67 -72.5l5 91h36v-500q0 -98 -50.5 -152t-141.5 -54q-88 0 -131.5 39.5t-51.5 106.5h44q8 -49 40.5 -76.5t98.5 -27.5q73 0 110.5 41.5t37.5 122.5v105
q-26 -45 -67.5 -68t-94.5 -23zM266 56q32 0 59.5 12t48.5 34t33 53.5t14 71.5v58q0 42 -12 75t-33 56t-49.5 35.5t-61.5 12.5q-68 0 -111 -46t-43 -133v-50q0 -87 43 -133t112 -46zM265 670l-97 -110h-48l120 150h50l120 -150h-48z" />
    <glyph glyph-name="Gbreve" unicode="&#x11e;" horiz-adv-x="680" 
d="M340 331h265v-21q0 -79 -19 -138t-52.5 -98.5t-80.5 -59.5t-103 -20q-60 0 -110 21.5t-87 62.5t-57.5 100.5t-20.5 136.5v70q0 76 20.5 136t57.5 101t87.5 62.5t109.5 21.5q51 0 93.5 -15.5t74 -42t51.5 -61t28 -72.5h-48q-8 28 -24.5 55t-42 47t-59 32.5t-73.5 12.5
q-49 0 -90.5 -18t-72 -53t-47.5 -87t-17 -119v-70q0 -68 17 -119.5t47.5 -86.5t72 -53t90.5 -18q92 0 148.5 60t61.5 191h-220v42zM350 764q-68 0 -104 35.5t-36 100.5h44q0 -46 25 -71t71 -25q48 0 73 25t25 71h42q0 -65 -36 -100.5t-104 -35.5z" />
    <glyph glyph-name="gbreve" unicode="&#x11f;" horiz-adv-x="560" 
d="M259 14q-43 0 -78.5 14.5t-61 43t-40 69.5t-14.5 94v50q0 53 14.5 94t40 69.5t61.5 43t80 14.5q54 0 96 -24.5t67 -72.5l5 91h36v-500q0 -98 -50.5 -152t-141.5 -54q-88 0 -131.5 39.5t-51.5 106.5h44q8 -49 40.5 -76.5t98.5 -27.5q73 0 110.5 41.5t37.5 122.5v105
q-26 -45 -67.5 -68t-94.5 -23zM266 56q32 0 59.5 12t48.5 34t33 53.5t14 71.5v58q0 42 -12 75t-33 56t-49.5 35.5t-61.5 12.5q-68 0 -111 -46t-43 -133v-50q0 -87 43 -133t112 -46zM265 564q-60 0 -95 35.5t-35 100.5h42q0 -48 24 -73t64 -25q42 0 66 25t24 73h40
q0 -65 -35 -100.5t-95 -35.5z" />
    <glyph glyph-name="Gdotaccent" unicode="&#x120;" horiz-adv-x="680" 
d="M340 331h265v-21q0 -79 -19 -138t-52.5 -98.5t-80.5 -59.5t-103 -20q-60 0 -110 21.5t-87 62.5t-57.5 100.5t-20.5 136.5v70q0 76 20.5 136t57.5 101t87.5 62.5t109.5 21.5q51 0 93.5 -15.5t74 -42t51.5 -61t28 -72.5h-48q-8 28 -24.5 55t-42 47t-59 32.5t-73.5 12.5
q-49 0 -90.5 -18t-72 -53t-47.5 -87t-17 -119v-70q0 -68 17 -119.5t47.5 -86.5t72 -53t90.5 -18q92 0 148.5 60t61.5 191h-220v42zM350 800q-15 0 -25 10t-10 25q0 16 10 25.5t25 9.5t25 -10t10 -25t-10 -25t-25 -10z" />
    <glyph glyph-name="gdotaccent" unicode="&#x121;" horiz-adv-x="560" 
d="M259 14q-43 0 -78.5 14.5t-61 43t-40 69.5t-14.5 94v50q0 53 14.5 94t40 69.5t61.5 43t80 14.5q54 0 96 -24.5t67 -72.5l5 91h36v-500q0 -98 -50.5 -152t-141.5 -54q-88 0 -131.5 39.5t-51.5 106.5h44q8 -49 40.5 -76.5t98.5 -27.5q73 0 110.5 41.5t37.5 122.5v105
q-26 -45 -67.5 -68t-94.5 -23zM266 56q32 0 59.5 12t48.5 34t33 53.5t14 71.5v58q0 42 -12 75t-33 56t-49.5 35.5t-61.5 12.5q-68 0 -111 -46t-43 -133v-50q0 -87 43 -133t112 -46zM265 600q-15 0 -25 10t-10 25t10 25t25 10t25 -10t10 -25t-10 -25t-25 -10z" />
    <glyph glyph-name="Gcommaaccent" unicode="&#x122;" horiz-adv-x="680" 
d="M340 331h265v-21q0 -79 -19 -138t-52.5 -98.5t-80.5 -59.5t-103 -20q-60 0 -110 21.5t-87 62.5t-57.5 100.5t-20.5 136.5v70q0 76 20.5 136t57.5 101t87.5 62.5t109.5 21.5q51 0 93.5 -15.5t74 -42t51.5 -61t28 -72.5h-48q-8 28 -24.5 55t-42 47t-59 32.5t-73.5 12.5
q-49 0 -90.5 -18t-72 -53t-47.5 -87t-17 -119v-70q0 -68 17 -119.5t47.5 -86.5t72 -53t90.5 -18q92 0 148.5 60t61.5 191h-220v42zM324 -50h52l-88 -150h-42z" />
    <glyph glyph-name="gcommaaccent" unicode="&#x123;" horiz-adv-x="560" 
d="M259 14q-43 0 -78.5 14.5t-61 43t-40 69.5t-14.5 94v50q0 53 14.5 94t40 69.5t61.5 43t80 14.5q54 0 96 -24.5t67 -72.5l5 91h36v-500q0 -98 -50.5 -152t-141.5 -54q-88 0 -131.5 39.5t-51.5 106.5h44q8 -49 40.5 -76.5t98.5 -27.5q73 0 110.5 41.5t37.5 122.5v105
q-26 -45 -67.5 -68t-94.5 -23zM266 56q32 0 59.5 12t48.5 34t33 53.5t14 71.5v58q0 42 -12 75t-33 56t-49.5 35.5t-61.5 12.5q-68 0 -111 -46t-43 -133v-50q0 -87 43 -133t112 -46zM290.014 549.994h-49.9932l89.9883 149.981h39.9951z" />
    <glyph glyph-name="Hcircumflex" unicode="&#x124;" horiz-adv-x="710" 
d="M564 339h-418v-339h-46v700h46v-319h418v319h46v-700h-46v339zM355 869l-93 -109h-52l118 150h54l118 -150h-52z" />
    <glyph glyph-name="hcircumflex" unicode="&#x125;" horiz-adv-x="575" 
d="M95 700h44v-283q25 42 68 65.5t100 23.5q82 0 130 -50.5t48 -150.5v-305h-44v305q0 80 -37.5 119.5t-103.5 39.5q-35 0 -64 -11t-50 -31.5t-33.5 -48.5t-13.5 -61v-312h-44v700zM118 870l-97 -110h-48l120 150h50l120 -150h-48z" />
    <glyph glyph-name="Hbar" unicode="&#x126;" horiz-adv-x="760" 
d="M20 580h105v120h46v-120h418v120h46v-120h105v-40h-105v-540h-46v339h-418v-339h-46v540h-105v40zM589 381v159h-418v-159h418z" />
    <glyph glyph-name="hbar" unicode="&#x127;" horiz-adv-x="575" 
d="M441 275q0 80 -37.5 119.5t-103.5 39.5q-35 0 -64 -11t-50 -31.5t-33.5 -48.5t-13.5 -61v-282h-44v541h-95v38h95v121h44v-121h166v-38h-166v-154q25 42 68 65.5t100 23.5q82 0 130 -50.5t48 -150.5v-275h-44v275z" />
    <glyph glyph-name="Itilde" unicode="&#x128;" horiz-adv-x="270" 
d="M112 700h46v-700h-46v700zM206 780q-26 0 -45 10.5t-34 23.5t-29.5 23.5t-31.5 10.5q-50 0 -50 -58h-40q0 50 24 75t66 25q26 0 45 -10.5t34 -23.5t29.5 -23.5t31.5 -10.5q50 0 50 58h40q0 -50 -24 -75t-66 -25z" />
    <glyph glyph-name="itilde" unicode="&#x129;" horiz-adv-x="256" 
d="M106 500h44v-500h-44v500zM194 580q-24 0 -42 11t-32 24t-27.5 24t-28.5 11q-21 0 -34 -14.5t-13 -45.5h-38q0 50 23.5 75t61.5 25q24 0 41.5 -11t31.5 -24t27.5 -24t29.5 -11q21 0 34 14.5t13 45.5h38q0 -50 -23.5 -75t-61.5 -25z" />
    <glyph glyph-name="Imacron" unicode="&#x12a;" horiz-adv-x="270" 
d="M112 700h46v-700h-46v700zM-4 855h280v-40h-280v40z" />
    <glyph glyph-name="imacron" unicode="&#x12b;" horiz-adv-x="256" 
d="M106 500h44v-500h-44v500zM-1 654h260v-38h-260v38z" />
    <glyph glyph-name="Ibreve" unicode="&#x12c;" horiz-adv-x="270" 
d="M112 700h46v-700h-46v700zM136 764q-68 0 -104 35.5t-36 100.5h44q0 -46 25 -71t71 -25q48 0 73 25t25 71h42q0 -65 -36 -100.5t-104 -35.5z" />
    <glyph glyph-name="ibreve" unicode="&#x12d;" horiz-adv-x="256" 
d="M106 500h44v-500h-44v500zM129 564q-60 0 -95 35.5t-35 100.5h42q0 -48 24 -73t64 -25q42 0 66 25t24 73h40q0 -65 -35 -100.5t-95 -35.5z" />
    <glyph glyph-name="Iogonek" unicode="&#x12e;" horiz-adv-x="270" 
d="M103 -200q-42 0 -63.5 20.5t-21.5 54.5q0 14 3.5 27.5t13.5 29t28.5 34t48.5 43.5v691h46v-700q-31 -26 -49.5 -44t-28.5 -31t-13 -23.5t-3 -21.5q0 -18 11 -29t28 -11h55v-40h-55z" />
    <glyph glyph-name="iogonek" unicode="&#x12f;" horiz-adv-x="256" 
d="M95 -200q-42 0 -63.5 20.5t-21.5 54.5q0 14 3.5 27.5t14 29.5t29 35t49.5 44v489h44v-500q-31 -26 -49.5 -44t-29 -31t-14 -23.5t-3.5 -21.5q0 -19 11.5 -30.5t29.5 -11.5h55v-38h-55zM128 600q-15 0 -25 10t-10 25t10 25t25 10t25 -10t10 -25t-10 -25t-25 -10z" />
    <glyph glyph-name="Idotaccent" unicode="&#x130;" horiz-adv-x="270" 
d="M112 700h46v-700h-46v700zM135 800q-15 0 -25 10t-10 25q0 16 10 25.5t25 9.5t25 -10t10 -25t-10 -25t-25 -10z" />
    <glyph glyph-name="dotlessi" unicode="&#x131;" horiz-adv-x="256" 
d="M106 500h44v-500h-44v500z" />
    <glyph glyph-name="IJ" unicode="&#x132;" horiz-adv-x="800" 
d="M112 700h46v-700h-46v700zM505 -6q-88 0 -140.5 54t-59.5 157h46q5 -84 45 -125.5t109 -41.5q36 0 64.5 11.5t48.5 37t30.5 66t10.5 97.5v450h46v-450q0 -67 -14 -115t-40 -79.5t-63 -46.5t-83 -15z" />
    <glyph glyph-name="ij" unicode="&#x133;" horiz-adv-x="492" 
d="M106 500h44v-500h-44v500zM226 -158h36q42 0 61 24t19 89v545h44v-545q0 -86 -30.5 -120.5t-93.5 -34.5h-36v42zM364 600q-15 0 -25 10t-10 25t10 25t25 10t25 -10t10 -25t-10 -25t-25 -10zM128 600q-15 0 -25 10t-10 25t10 25t25 10t25 -10t10 -25t-10 -25t-25 -10z" />
    <glyph glyph-name="Jcircumflex" unicode="&#x134;" horiz-adv-x="535" 
d="M240 -6q-88 0 -140.5 54t-59.5 157h46q5 -84 45 -125.5t109 -41.5q36 0 64.5 11.5t48.5 37t30.5 66t10.5 97.5v450h46v-450q0 -67 -14 -115t-40 -79.5t-63 -46.5t-83 -15zM417 869l-93 -109h-52l118 150h54l118 -150h-52z" />
    <glyph glyph-name="jcircumflex" unicode="&#x135;" horiz-adv-x="256" 
d="M-10 -158h36q42 0 61 24t19 89v545h44v-545q0 -86 -30.5 -120.5t-93.5 -34.5h-36v42zM129 670l-97 -110h-48l120 150h50l120 -150h-48z" />
    <glyph glyph-name="Kcommaaccent" unicode="&#x136;" horiz-adv-x="635" 
d="M264 356l-118 -132v-224h-46v700h46v-412l364 412h60l-274 -310l294 -390h-60zM312 -50h52l-88 -150h-42z" />
    <glyph glyph-name="kcommaaccent" unicode="&#x137;" horiz-adv-x="510" 
d="M235 250l-96 -110v-140h-44v700h44v-500l262 300h54l-192 -220l212 -280h-54zM255 -50h50l-90 -150h-40z" />
    <glyph glyph-name="kgreenlandic" unicode="&#x138;" horiz-adv-x="510" 
d="M235 250l-96 -110v-140h-44v500h44v-300l262 300h54l-192 -220l212 -280h-54z" />
    <glyph glyph-name="Lacute" unicode="&#x139;" horiz-adv-x="515" 
d="M100 700h46v-658h339v-42h-385v700zM215 910h62l-128 -150h-52z" />
    <glyph glyph-name="lacute" unicode="&#x13a;" horiz-adv-x="285" 
d="M209 0q-56 0 -85 29.5t-29 89.5v581h44v-576q0 -43 18.5 -62.5t56.5 -19.5h31v-42h-36v0zM212 910h60l-130 -150h-50z" />
    <glyph glyph-name="Lcommaaccent" unicode="&#x13b;" horiz-adv-x="515" 
d="M100 700h46v-658h339v-42h-385v700zM266 -50h52l-88 -150h-42z" />
    <glyph glyph-name="lcommaaccent" unicode="&#x13c;" horiz-adv-x="285" 
d="M209 0q-56 0 -85 29.5t-29 89.5v581h44v-576q0 -43 18.5 -62.5t56.5 -19.5h31v-42h-36v0zM155 -50h50l-90 -150h-40z" />
    <glyph glyph-name="Lcaron" unicode="&#x13d;" horiz-adv-x="515" 
d="M296 700h46l-10 -220h-36v220zM100 700h46v-658h339v-42h-385v700z" />
    <glyph glyph-name="lcaron" unicode="&#x13e;" horiz-adv-x="285" 
d="M219 700h44l-8 -180h-36v180zM209 0q-56 0 -85 29.5t-29 89.5v581h44v-576q0 -43 18.5 -62.5t56.5 -19.5h31v-42h-36z" />
    <glyph glyph-name="Ldot" unicode="&#x13f;" horiz-adv-x="515" 
d="M100 700h46v-658h339v-42h-385v700zM380 351q-15 0 -25 10t-10 25q0 16 10 25.5t25 9.5t25 -10t10 -25t-10 -25t-25 -10z" />
    <glyph glyph-name="ldot" unicode="&#x140;" horiz-adv-x="325" 
d="M209 0q-56 0 -85 29.5t-29 89.5v581h44v-576q0 -43 18.5 -62.5t56.5 -19.5h31v-42h-36v0zM279 336q-15 0 -25 10t-10 25t10 25t25 10t25 -10t10 -25t-10 -25t-25 -10z" />
    <glyph glyph-name="Lslash" unicode="&#x141;" horiz-adv-x="540" 
d="M20 288l105 68v344h46v-314l184 120v-46l-184 -120v-298h339v-42h-385v310l-105 -68v46z" />
    <glyph glyph-name="lslash" unicode="&#x142;" horiz-adv-x="305" 
d="M20 357l95 60v283h44v-255l95 61v-44l-95 -61v-277q0 -43 18.5 -62.5t56.5 -19.5h31v-42h-36q-56 0 -85 29.5t-29 89.5v254l-95 -60v44z" />
    <glyph glyph-name="Nacute" unicode="&#x143;" horiz-adv-x="710" 
d="M204 550l-58 99v-649h-46v700h64l342 -550l58 -99v649h46v-700h-64zM447 910h62l-128 -150h-52z" />
    <glyph glyph-name="nacute" unicode="&#x144;" horiz-adv-x="575" 
d="M95 500h36l4 -86q25 44 68.5 68t101.5 24q84 0 132 -50.5t48 -150.5v-305h-44v305q0 80 -37.5 119.5t-103.5 39.5q-35 0 -64 -11t-50 -31.5t-33.5 -48.5t-13.5 -61v-312h-44v500zM385 710h60l-130 -150h-50z" />
    <glyph glyph-name="Ncommaaccent" unicode="&#x145;" horiz-adv-x="710" 
d="M204 550l-58 99v-649h-46v700h64l342 -550l58 -99v649h46v-700h-64zM329 -50h52l-88 -150h-42z" />
    <glyph glyph-name="ncommaaccent" unicode="&#x146;" horiz-adv-x="575" 
d="M95 500h36l4 -86q25 44 68.5 68t101.5 24q84 0 132 -50.5t48 -150.5v-305h-44v305q0 80 -37.5 119.5t-103.5 39.5q-35 0 -64 -11t-50 -31.5t-33.5 -48.5t-13.5 -61v-312h-44v500zM265 -50h50l-90 -150h-40z" />
    <glyph glyph-name="Ncaron" unicode="&#x147;" horiz-adv-x="710" 
d="M204 550l-58 99v-649h-46v700h64l342 -550l58 -99v649h46v-700h-64zM210 910h52l93 -109l93 109h52l-118 -150h-54z" />
    <glyph glyph-name="ncaron" unicode="&#x148;" horiz-adv-x="575" 
d="M95 500h36l4 -86q25 44 68.5 68t101.5 24q84 0 132 -50.5t48 -150.5v-305h-44v305q0 80 -37.5 119.5t-103.5 39.5q-35 0 -64 -11t-50 -31.5t-33.5 -48.5t-13.5 -61v-312h-44v500zM145 710h48l97 -111l97 111h48l-120 -150h-50z" />
    <glyph glyph-name="napostrophe" unicode="&#x149;" horiz-adv-x="660" 
d="M180 500h36l4 -86q25 44 68.5 68t101.5 24q84 0 132 -50.5t48 -150.5v-305h-44v305q0 80 -37.5 119.5t-103.5 39.5q-35 0 -64 -11t-50 -31.5t-33.5 -48.5t-13.5 -61v-312h-44v500zM95 700h46l-78 -230h-42z" />
    <glyph glyph-name="Eng" unicode="&#x14a;" horiz-adv-x="710" 
d="M450 -156h36q40 0 59 24t19 87v45l-356 550l-62 101v-651h-46v700h64l338 -520l62 -101v621h46v-745q0 -86 -30.5 -120.5t-93.5 -34.5h-36v44z" />
    <glyph glyph-name="eng" unicode="&#x14b;" horiz-adv-x="575" 
d="M325 -158h36q42 0 61 24t19 89v350q0 80 -37.5 119.5t-103.5 39.5q-35 0 -64 -11t-50 -31.5t-33.5 -48.5t-13.5 -61v-312h-44v500h36l4 -86q25 44 68.5 68t101.5 24q84 0 132 -50.5t48 -150.5v-350q0 -86 -30.5 -120.5t-93.5 -34.5h-36v42z" />
    <glyph glyph-name="Omacron" unicode="&#x14c;" horiz-adv-x="710" 
d="M355 -6q-60 0 -111 22t-88.5 63.5t-59 101t-21.5 134.5v70q0 75 21.5 134.5t59 101t89 63.5t110.5 22q60 0 111 -22t88.5 -63.5t59 -101t21.5 -134.5v-70q0 -75 -21.5 -134.5t-59 -101t-89 -63.5t-110.5 -22zM355 38q49 0 91 18.5t73.5 54t49.5 87t18 117.5v70
q0 65 -18 116.5t-49.5 87t-74 54.5t-90.5 19q-49 0 -91 -18.5t-73.5 -54t-49.5 -87t-18 -117.5v-70q0 -65 18 -116.5t49.5 -87t74 -54.5t90.5 -19zM215 855h280v-40h-280v40z" />
    <glyph glyph-name="omacron" unicode="&#x14d;" horiz-adv-x="550" 
d="M275 -6q-47 0 -86 15.5t-66.5 45t-42.5 72.5t-15 98v50q0 55 15 98t43 72.5t66.5 45t85.5 15.5t86 -15.5t66.5 -45t42.5 -72.5t15 -98v-50q0 -55 -15 -98t-43 -72.5t-66.5 -45t-85.5 -15.5zM275 36q73 0 118.5 48.5t45.5 140.5v50q0 91 -46 140t-118 49
q-73 0 -118.5 -48.5t-45.5 -140.5v-50q0 -91 46 -140t118 -49zM145 654h260v-38h-260v38z" />
    <glyph glyph-name="Obreve" unicode="&#x14e;" horiz-adv-x="710" 
d="M355 -6q-60 0 -111 22t-88.5 63.5t-59 101t-21.5 134.5v70q0 75 21.5 134.5t59 101t89 63.5t110.5 22q60 0 111 -22t88.5 -63.5t59 -101t21.5 -134.5v-70q0 -75 -21.5 -134.5t-59 -101t-89 -63.5t-110.5 -22zM355 38q49 0 91 18.5t73.5 54t49.5 87t18 117.5v70
q0 65 -18 116.5t-49.5 87t-74 54.5t-90.5 19q-49 0 -91 -18.5t-73.5 -54t-49.5 -87t-18 -117.5v-70q0 -65 18 -116.5t49.5 -87t74 -54.5t90.5 -19zM355 764q-68 0 -104 35.5t-36 100.5h44q0 -46 25 -71t71 -25q48 0 73 25t25 71h42q0 -65 -36 -100.5t-104 -35.5z" />
    <glyph glyph-name="obreve" unicode="&#x14f;" horiz-adv-x="550" 
d="M275 -6q-47 0 -86 15.5t-66.5 45t-42.5 72.5t-15 98v50q0 55 15 98t43 72.5t66.5 45t85.5 15.5t86 -15.5t66.5 -45t42.5 -72.5t15 -98v-50q0 -55 -15 -98t-43 -72.5t-66.5 -45t-85.5 -15.5zM275 36q73 0 118.5 48.5t45.5 140.5v50q0 91 -46 140t-118 49
q-73 0 -118.5 -48.5t-45.5 -140.5v-50q0 -91 46 -140t118 -49zM275 564q-60 0 -95 35.5t-35 100.5h42q0 -48 24 -73t64 -25q42 0 66 25t24 73h40q0 -65 -35 -100.5t-95 -35.5z" />
    <glyph glyph-name="Ohungarumlaut" unicode="&#x150;" horiz-adv-x="710" 
d="M355 -6q-60 0 -111 22t-88.5 63.5t-59 101t-21.5 134.5v70q0 75 21.5 134.5t59 101t89 63.5t110.5 22q60 0 111 -22t88.5 -63.5t59 -101t21.5 -134.5v-70q0 -75 -21.5 -134.5t-59 -101t-89 -63.5t-110.5 -22zM355 38q49 0 91 18.5t73.5 54t49.5 87t18 117.5v70
q0 65 -18 116.5t-49.5 87t-74 54.5t-90.5 19q-49 0 -91 -18.5t-73.5 -54t-49.5 -87t-18 -117.5v-70q0 -65 18 -116.5t49.5 -87t74 -54.5t90.5 -19zM367 910h62l-118 -150h-52zM517 910h62l-128 -150h-52z" />
    <glyph glyph-name="ohungarumlaut" unicode="&#x151;" horiz-adv-x="550" 
d="M275 -6q-47 0 -86 15.5t-66.5 45t-42.5 72.5t-15 98v50q0 55 15 98t43 72.5t66.5 45t85.5 15.5t86 -15.5t66.5 -45t42.5 -72.5t15 -98v-50q0 -55 -15 -98t-43 -72.5t-66.5 -45t-85.5 -15.5zM275 36q73 0 118.5 48.5t45.5 140.5v50q0 91 -46 140t-118 49
q-73 0 -118.5 -48.5t-45.5 -140.5v-50q0 -91 46 -140t118 -49zM290 710h60l-120 -150h-50zM440 710h60l-130 -150h-50z" />
    <glyph glyph-name="OE" unicode="&#x152;" horiz-adv-x="960" 
d="M510 35q-25 -16 -61.5 -28.5t-85.5 -12.5q-63 0 -115.5 22t-91 63.5t-60 101t-21.5 134.5v70q0 75 21.5 134.5t60 101t91.5 63.5t115 22q49 0 85.5 -12.5t61.5 -28.5v35h395v-42h-349v-277h289v-42h-289v-297h349v-42h-395v35zM363 38q49 0 85.5 15t61.5 34v526
q-25 19 -61.5 34t-85.5 15q-52 0 -96 -18.5t-76 -54t-50 -87t-18 -117.5v-70q0 -65 18 -116.5t50.5 -87t76.5 -54.5t95 -19z" />
    <glyph glyph-name="oe" unicode="&#x153;" horiz-adv-x="910" 
d="M641 -6q-63 0 -110.5 31t-70.5 91q-24 -60 -72.5 -91t-113.5 -31q-47 0 -85.5 15.5t-66 45t-42.5 72.5t-15 98v50q0 55 15 98t43 72.5t66 45t85 15.5q66 0 114 -31.5t72 -90.5q23 60 70.5 91t110.5 31q45 0 82.5 -15.5t64.5 -44.5t42 -72.5t15 -98.5v-35h-362v-15
q0 -94 44 -141.5t114 -47.5q68 0 101.5 27.5t48.5 76.5h46q-15 -65 -62 -105.5t-134 -40.5zM274 36q72 0 117.5 48.5t45.5 140.5v50q0 45 -12 80.5t-34 59.5t-51.5 36.5t-65.5 12.5q-72 0 -117.5 -48.5t-45.5 -140.5v-50q0 -45 12 -80.5t34 -59.5t51.5 -36.5t65.5 -12.5z
M641 464q-69 0 -112.5 -46.5t-45.5 -137.5h316q-2 91 -45.5 137.5t-112.5 46.5z" />
    <glyph glyph-name="Racute" unicode="&#x154;" horiz-adv-x="620" 
d="M359 301q-23 -3 -49 -3h-164v-298h-46v700h210q121 0 180.5 -54.5t59.5 -146.5q0 -70 -36 -119.5t-108 -69.5l164 -310h-52zM146 658v-318h164q95 0 143.5 44.5t48.5 114.5q0 74 -47.5 116.5t-144.5 42.5h-164zM382 910h62l-128 -150h-52z" />
    <glyph glyph-name="racute" unicode="&#x155;" horiz-adv-x="380" 
d="M95 500h36l4 -85q24 43 67 67t98 24h50v-42h-50q-35 0 -64 -11t-50 -31.5t-33.5 -48.5t-13.5 -61v-312h-44v500zM317 710h60l-130 -150h-50z" />
    <glyph glyph-name="Rcommaaccent" unicode="&#x156;" horiz-adv-x="620" 
d="M359 301q-23 -3 -49 -3h-164v-298h-46v700h210q121 0 180.5 -54.5t59.5 -146.5q0 -70 -36 -119.5t-108 -69.5l164 -310h-52zM146 658v-318h164q95 0 143.5 44.5t48.5 114.5q0 74 -47.5 116.5t-144.5 42.5h-164zM306 -50h52l-88 -150h-42z" />
    <glyph glyph-name="rcommaaccent" unicode="&#x157;" horiz-adv-x="380" 
d="M95 500h36l4 -85q24 43 67 67t98 24h50v-42h-50q-35 0 -64 -11t-50 -31.5t-33.5 -48.5t-13.5 -61v-312h-44v500zM93 -50h50l-90 -150h-40z" />
    <glyph glyph-name="Rcaron" unicode="&#x158;" horiz-adv-x="620" 
d="M359 301q-23 -3 -49 -3h-164v-298h-46v700h210q121 0 180.5 -54.5t59.5 -146.5q0 -70 -36 -119.5t-108 -69.5l164 -310h-52zM146 658v-318h164q95 0 143.5 44.5t48.5 114.5q0 74 -47.5 116.5t-144.5 42.5h-164zM145 910h52l93 -109l93 109h52l-118 -150h-54z" />
    <glyph glyph-name="rcaron" unicode="&#x159;" horiz-adv-x="380" 
d="M95 500h36l4 -85q24 43 67 67t98 24h50v-42h-50q-35 0 -64 -11t-50 -31.5t-33.5 -48.5t-13.5 -61v-312h-44v500zM77 710h48l97 -111l97 111h48l-120 -150h-50z" />
    <glyph glyph-name="Sacute" unicode="&#x15a;" horiz-adv-x="610" 
d="M305 -6q-109 0 -168 54.5t-67 156.5h50q8 -82 54 -124.5t131 -42.5q96 0 141.5 40t45.5 102q0 52 -30.5 81.5t-76.5 48t-99 32.5t-99 35.5t-76.5 56.5t-30.5 96q0 37 14 69.5t42.5 56t70.5 37t98 13.5q106 0 161.5 -51.5t63.5 -139.5h-50q-8 69 -50 108t-125 39
q-45 0 -78.5 -10t-55 -28t-32.5 -42t-11 -52q0 -50 30.5 -77.5t76.5 -45t99 -31.5t99 -36.5t76.5 -59.5t30.5 -100q0 -41 -14.5 -75.5t-43.5 -59t-73 -38t-104 -13.5zM397 910h62l-128 -150h-52z" />
    <glyph glyph-name="sacute" unicode="&#x15b;" horiz-adv-x="490" 
d="M245 -6q-87 0 -129.5 38.5t-50.5 107.5h46q8 -51 38 -77.5t96 -26.5q72 0 103 26t31 68q0 37 -22.5 57t-56.5 32t-73 20.5t-73 23.5t-56.5 40.5t-22.5 71.5q0 55 43 93t127 38q79 0 120.5 -37.5t49.5 -98.5h-46q-8 44 -36.5 69t-87.5 25q-65 0 -94.5 -25.5t-29.5 -63.5
q0 -35 22.5 -53.5t56.5 -30t73 -20t73 -24t56.5 -42.5t22.5 -75q0 -59 -44 -97.5t-136 -38.5zM340 710h60l-130 -150h-50z" />
    <glyph glyph-name="Scircumflex" unicode="&#x15c;" horiz-adv-x="610" 
d="M305 -6q-109 0 -168 54.5t-67 156.5h50q8 -82 54 -124.5t131 -42.5q96 0 141.5 40t45.5 102q0 52 -30.5 81.5t-76.5 48t-99 32.5t-99 35.5t-76.5 56.5t-30.5 96q0 37 14 69.5t42.5 56t70.5 37t98 13.5q106 0 161.5 -51.5t63.5 -139.5h-50q-8 69 -50 108t-125 39
q-45 0 -78.5 -10t-55 -28t-32.5 -42t-11 -52q0 -50 30.5 -77.5t76.5 -45t99 -31.5t99 -36.5t76.5 -59.5t30.5 -100q0 -41 -14.5 -75.5t-43.5 -59t-73 -38t-104 -13.5zM305 869l-93 -109h-52l118 150h54l118 -150h-52z" />
    <glyph glyph-name="scircumflex" unicode="&#x15d;" horiz-adv-x="490" 
d="M245 -6q-87 0 -129.5 38.5t-50.5 107.5h46q8 -51 38 -77.5t96 -26.5q72 0 103 26t31 68q0 37 -22.5 57t-56.5 32t-73 20.5t-73 23.5t-56.5 40.5t-22.5 71.5q0 55 43 93t127 38q79 0 120.5 -37.5t49.5 -98.5h-46q-8 44 -36.5 69t-87.5 25q-65 0 -94.5 -25.5t-29.5 -63.5
q0 -35 22.5 -53.5t56.5 -30t73 -20t73 -24t56.5 -42.5t22.5 -75q0 -59 -44 -97.5t-136 -38.5zM245 670l-97 -110h-48l120 150h50l120 -150h-48z" />
    <glyph glyph-name="Scedilla" unicode="&#x15e;" horiz-adv-x="610" 
d="M285 -5q-100 5 -154 59t-61 151h50q8 -82 54 -124.5t131 -42.5q96 0 141.5 40t45.5 102q0 52 -30.5 81.5t-76.5 48t-99 32.5t-99 35.5t-76.5 56.5t-30.5 96q0 37 14 69.5t42.5 56t70.5 37t98 13.5q106 0 161.5 -51.5t63.5 -139.5h-50q-8 69 -50 108t-125 39
q-45 0 -78.5 -10t-55 -28t-32.5 -42t-11 -52q0 -50 30.5 -77.5t76.5 -45t99 -31.5t99 -36.5t76.5 -59.5t30.5 -100q0 -81 -54 -131.5t-166 -54.5l-9 -39q33 -5 51 -25t18 -51q0 -35 -23 -57t-62 -22h-65v36h62q46 0 46 43q0 41 -42 43h-28z" />
    <glyph glyph-name="scedilla" unicode="&#x15f;" horiz-adv-x="490" 
d="M224 -5q-76 5 -114 42.5t-45 102.5h46q8 -51 38 -77.5t96 -26.5q72 0 103 26t31 68q0 37 -22.5 57t-56.5 32t-73 20.5t-73 23.5t-56.5 40.5t-22.5 71.5q0 55 43 93t127 38q79 0 120.5 -37.5t49.5 -98.5h-46q-8 44 -36.5 69t-87.5 25q-65 0 -94.5 -25.5t-29.5 -63.5
q0 -35 22.5 -53.5t56.5 -30t73 -20t73 -24t56.5 -42.5t22.5 -75q0 -57 -39.5 -94t-123.5 -41l-9 -40q32 -5 49.5 -25t17.5 -51q0 -35 -23 -57t-62 -22h-65v38h62q44 0 44 41t-44 41h-25z" />
    <glyph glyph-name="Scaron" unicode="&#x160;" horiz-adv-x="610" 
d="M305 -6q-109 0 -168 54.5t-67 156.5h50q8 -82 54 -124.5t131 -42.5q96 0 141.5 40t45.5 102q0 52 -30.5 81.5t-76.5 48t-99 32.5t-99 35.5t-76.5 56.5t-30.5 96q0 37 14 69.5t42.5 56t70.5 37t98 13.5q106 0 161.5 -51.5t63.5 -139.5h-50q-8 69 -50 108t-125 39
q-45 0 -78.5 -10t-55 -28t-32.5 -42t-11 -52q0 -50 30.5 -77.5t76.5 -45t99 -31.5t99 -36.5t76.5 -59.5t30.5 -100q0 -41 -14.5 -75.5t-43.5 -59t-73 -38t-104 -13.5zM160 910h52l93 -109l93 109h52l-118 -150h-54z" />
    <glyph glyph-name="scaron" unicode="&#x161;" horiz-adv-x="490" 
d="M245 -6q-87 0 -129.5 38.5t-50.5 107.5h46q8 -51 38 -77.5t96 -26.5q72 0 103 26t31 68q0 37 -22.5 57t-56.5 32t-73 20.5t-73 23.5t-56.5 40.5t-22.5 71.5q0 55 43 93t127 38q79 0 120.5 -37.5t49.5 -98.5h-46q-8 44 -36.5 69t-87.5 25q-65 0 -94.5 -25.5t-29.5 -63.5
q0 -35 22.5 -53.5t56.5 -30t73 -20t73 -24t56.5 -42.5t22.5 -75q0 -59 -44 -97.5t-136 -38.5zM100 710h48l97 -111l97 111h48l-120 -150h-50z" />
    <glyph glyph-name="Tcedilla" unicode="&#x162;" horiz-adv-x="580" 
d="M271 0h-3v658h-238v42h520v-42h-238v-658h-5l-11 -45q33 -5 51 -25t18 -51q0 -35 -23 -57t-62 -22h-65v36h62q46 0 46 43t-46 43h-24z" />
    <glyph glyph-name="tcedilla" unicode="&#x163;" horiz-adv-x="360" 
d="M211 2q-86 16 -86 117v341h-90v40h90v140h44v-140h136v-40h-136v-336q0 -45 19 -64.5t61 -19.5h66v-40h-67l-10 -45q32 -5 49.5 -25t17.5 -51q0 -35 -23 -57t-62 -22h-65v38h62q44 0 44 41t-44 41h-25z" />
    <glyph glyph-name="Tcaron" unicode="&#x164;" horiz-adv-x="580" 
d="M30 700h520v-42h-238v-658h-44v658h-238v42zM145 910h52l93 -109l93 109h52l-118 -150h-54z" />
    <glyph glyph-name="tcaron" unicode="&#x165;" horiz-adv-x="360" 
d="M249 730h44l-8 -180h-36v180zM35 500h90v140h44v-140h136v-40h-136v-336q0 -45 19 -64.5t61 -19.5h66v-40h-70q-120 0 -120 119v341h-90v40z" />
    <glyph glyph-name="Tbar" unicode="&#x166;" horiz-adv-x="580" 
d="M30 700h520v-42h-238v-288h118v-40h-118v-330h-44v330h-118v40h118v288h-238v42z" />
    <glyph glyph-name="tbar" unicode="&#x167;" horiz-adv-x="380" 
d="M45 500h90v140h44v-140h136v-40h-136v-180h136v-40h-136v-116q0 -45 19 -64.5t61 -19.5h66v-40h-70q-120 0 -120 119v121h-90v40h90v180h-90v40z" />
    <glyph glyph-name="Utilde" unicode="&#x168;" horiz-adv-x="690" 
d="M345 -6q-57 0 -103 18t-79 53t-50.5 86.5t-17.5 118.5v430h46v-430q0 -114 55.5 -173t148.5 -59q94 0 149 58.5t55 173.5v430h46v-430q0 -66 -17.5 -117.5t-50.5 -87t-79 -53.5t-103 -18zM415 780q-26 0 -45 10.5t-34 23.5t-29.5 23.5t-31.5 10.5q-50 0 -50 -58h-40
q0 50 24 75t66 25q26 0 45 -10.5t34 -23.5t29.5 -23.5t31.5 -10.5q50 0 50 58h40q0 -50 -24 -75t-66 -25z" />
    <glyph glyph-name="utilde" unicode="&#x169;" horiz-adv-x="565" 
d="M265 -6q-80 0 -127.5 50.5t-47.5 150.5v305h44v-305q0 -80 37 -119.5t100 -39.5q33 0 61.5 12t49.5 33t32.5 50t11.5 64v305h44v-500h-36l-5 88q-23 -45 -66 -69.5t-98 -24.5zM345 580q-24 0 -42 11t-32 24t-27.5 24t-28.5 11q-21 0 -34 -14.5t-13 -45.5h-38
q0 50 23.5 75t61.5 25q24 0 41.5 -11t31.5 -24t27.5 -24t29.5 -11q21 0 34 14.5t13 45.5h38q0 -50 -23.5 -75t-61.5 -25z" />
    <glyph glyph-name="Umacron" unicode="&#x16a;" horiz-adv-x="690" 
d="M345 -6q-57 0 -103 18t-79 53t-50.5 86.5t-17.5 118.5v430h46v-430q0 -114 55.5 -173t148.5 -59q94 0 149 58.5t55 173.5v430h46v-430q0 -66 -17.5 -117.5t-50.5 -87t-79 -53.5t-103 -18zM205 855h280v-40h-280v40z" />
    <glyph glyph-name="umacron" unicode="&#x16b;" horiz-adv-x="565" 
d="M265 -6q-80 0 -127.5 50.5t-47.5 150.5v305h44v-305q0 -80 37 -119.5t100 -39.5q33 0 61.5 12t49.5 33t32.5 50t11.5 64v305h44v-500h-36l-5 88q-23 -45 -66 -69.5t-98 -24.5zM150 654h260v-38h-260v38z" />
    <glyph glyph-name="Ubreve" unicode="&#x16c;" horiz-adv-x="690" 
d="M345 -6q-57 0 -103 18t-79 53t-50.5 86.5t-17.5 118.5v430h46v-430q0 -114 55.5 -173t148.5 -59q94 0 149 58.5t55 173.5v430h46v-430q0 -66 -17.5 -117.5t-50.5 -87t-79 -53.5t-103 -18zM345 764q-68 0 -104 35.5t-36 100.5h44q0 -46 25 -71t71 -25q48 0 73 25t25 71h42
q0 -65 -36 -100.5t-104 -35.5z" />
    <glyph glyph-name="ubreve" unicode="&#x16d;" horiz-adv-x="565" 
d="M265 -6q-80 0 -127.5 50.5t-47.5 150.5v305h44v-305q0 -80 37 -119.5t100 -39.5q33 0 61.5 12t49.5 33t32.5 50t11.5 64v305h44v-500h-36l-5 88q-23 -45 -66 -69.5t-98 -24.5zM280 564q-60 0 -95 35.5t-35 100.5h42q0 -48 24 -73t64 -25q42 0 66 25t24 73h40
q0 -65 -35 -100.5t-95 -35.5z" />
    <glyph glyph-name="Uring" unicode="&#x16e;" horiz-adv-x="690" 
d="M345 -6q-57 0 -103 18t-79 53t-50.5 86.5t-17.5 118.5v430h46v-430q0 -114 55.5 -173t148.5 -59q94 0 149 58.5t55 173.5v430h46v-430q0 -66 -17.5 -117.5t-50.5 -87t-79 -53.5t-103 -18zM345 738q-44 0 -72 28t-28 69t28.5 69t71.5 28t71.5 -28t28.5 -69t-28.5 -69
t-71.5 -28zM345 780q25 0 40.5 15.5t15.5 39.5t-15.5 39.5t-40.5 15.5t-40.5 -15.5t-15.5 -39.5t15.5 -39.5t40.5 -15.5z" />
    <glyph glyph-name="uring" unicode="&#x16f;" horiz-adv-x="565" 
d="M265 -6q-80 0 -127.5 50.5t-47.5 150.5v305h44v-305q0 -80 37 -119.5t100 -39.5q33 0 61.5 12t49.5 33t32.5 50t11.5 64v305h44v-500h-36l-5 88q-23 -45 -66 -69.5t-98 -24.5zM280 538q-44 0 -72 28t-28 69t28.5 69t71.5 28t71.5 -28t28.5 -69t-28.5 -69t-71.5 -28z
M280 578q26 0 42 16t16 41t-16 41t-42 16t-42 -16t-16 -41t16 -41t42 -16z" />
    <glyph glyph-name="Uhungarumlaut" unicode="&#x170;" horiz-adv-x="690" 
d="M345 -6q-57 0 -103 18t-79 53t-50.5 86.5t-17.5 118.5v430h46v-430q0 -114 55.5 -173t148.5 -59q94 0 149 58.5t55 173.5v430h46v-430q0 -66 -17.5 -117.5t-50.5 -87t-79 -53.5t-103 -18zM357 910h62l-118 -150h-52zM507 910h62l-128 -150h-52z" />
    <glyph glyph-name="uhungarumlaut" unicode="&#x171;" horiz-adv-x="565" 
d="M265 -6q-80 0 -127.5 50.5t-47.5 150.5v305h44v-305q0 -80 37 -119.5t100 -39.5q33 0 61.5 12t49.5 33t32.5 50t11.5 64v305h44v-500h-36l-5 88q-23 -45 -66 -69.5t-98 -24.5zM295 710h60l-120 -150h-50zM445 710h60l-130 -150h-50z" />
    <glyph glyph-name="Uogonek" unicode="&#x172;" horiz-adv-x="690" 
d="M345 -6q-57 0 -103 18t-79 53t-50.5 86.5t-17.5 118.5v430h46v-430q0 -114 55.5 -173t148.5 -59q94 0 149 58.5t55 173.5v430h46v-430q0 -85 -27.5 -144.5t-78.5 -92.5q-63 -48 -90.5 -82.5t-27.5 -70.5q0 -18 11 -29t28 -11h55v-40h-55q-42 0 -63.5 20.5t-21.5 54.5
q0 33 15 61.5t48 60.5q-21 -3 -43 -3z" />
    <glyph glyph-name="uogonek" unicode="&#x173;" horiz-adv-x="565" 
d="M415 -200q-42 0 -63.5 20.5t-21.5 54.5q0 15 3.5 29t15 30t31.5 36t53 47l-4 71q-23 -45 -66 -69.5t-98 -24.5q-80 0 -127.5 50.5t-47.5 150.5v305h44v-305q0 -80 37 -119.5t100 -39.5q33 0 61.5 12t49.5 33t32.5 50t11.5 64v305h44v-500q-31 -26 -49.5 -44t-29 -31
t-14 -23.5t-3.5 -21.5q0 -19 11.5 -30.5t29.5 -11.5h55v-38h-55z" />
    <glyph glyph-name="Wcircumflex" unicode="&#x174;" horiz-adv-x="970" 
d="M485 639l-175 -639h-60l-200 700h48l182 -639l175 639h60l185 -641l174 641h46l-190 -700h-60zM485 869l-93 -109h-52l118 150h54l118 -150h-52z" />
    <glyph glyph-name="wcircumflex" unicode="&#x175;" horiz-adv-x="770" 
d="M385 450l-130 -450h-60l-150 500h48l133 -449l130 449h60l139 -449l124 449h46l-140 -500h-60zM385 670l-97 -110h-48l120 150h50l120 -150h-48z" />
    <glyph glyph-name="Ycircumflex" unicode="&#x176;" horiz-adv-x="650" 
d="M307 265l-267 435h54l236 -387l228 387h52l-257 -435v-265h-46v265zM326 869l-93 -109h-52l118 150h54l118 -150h-52z" />
    <glyph glyph-name="ycircumflex" unicode="&#x177;" horiz-adv-x="520" 
d="M245 -1l-210 501h48l185 -447l171 447h46l-270 -700h-46zM261 670l-97 -110h-48l120 150h50l120 -150h-48z" />
    <glyph glyph-name="Ydieresis" unicode="&#x178;" horiz-adv-x="650" 
d="M307 265l-267 435h54l236 -387l228 387h52l-257 -435v-265h-46v265zM216 800q-15 0 -25 10t-10 25t10 25t25 10t25 -10t10 -25t-10 -25t-25 -10zM436 800q-15 0 -25 10t-10 25t10 25t25 10t25 -10t10 -25t-10 -25t-25 -10z" />
    <glyph glyph-name="Zacute" unicode="&#x179;" horiz-adv-x="585" 
d="M65 700h470v-42l-429 -616h429v-42h-480v42l429 616h-419v42zM392 910h62l-128 -150h-52z" />
    <glyph glyph-name="zacute" unicode="&#x17a;" horiz-adv-x="455" 
d="M55 500h360v-40l-322 -420h322v-40h-370v40l321 420h-311v40zM330 710h60l-130 -150h-50z" />
    <glyph glyph-name="Zdotaccent" unicode="&#x17b;" horiz-adv-x="585" 
d="M65 700h470v-42l-429 -616h429v-42h-480v42l429 616h-419v42zM300 800q-15 0 -25 10t-10 25q0 16 10 25.5t25 9.5t25 -10t10 -25t-10 -25t-25 -10z" />
    <glyph glyph-name="zdotaccent" unicode="&#x17c;" horiz-adv-x="455" 
d="M55 500h360v-40l-322 -420h322v-40h-370v40l321 420h-311v40zM235 600q-15 0 -25 10t-10 25t10 25t25 10t25 -10t10 -25t-10 -25t-25 -10z" />
    <glyph glyph-name="Zcaron" unicode="&#x17d;" horiz-adv-x="585" 
d="M65 700h470v-42l-429 -616h429v-42h-480v42l429 616h-419v42zM155 910h52l93 -109l93 109h52l-118 -150h-54z" />
    <glyph glyph-name="zcaron" unicode="&#x17e;" horiz-adv-x="455" 
d="M55 500h360v-40l-322 -420h322v-40h-370v40l321 420h-311v40zM90 710h48l97 -111l97 111h48l-120 -150h-50z" />
    <glyph glyph-name="longs" unicode="&#x17f;" horiz-adv-x="305" 
d="M40 500h90v80q0 120 120 120h70v-42h-65q-42 0 -61.5 -19.5t-19.5 -63.5v-575h-44v458h-90v42z" />
    <glyph glyph-name="uni018F" unicode="&#x18f;" horiz-adv-x="710" 
d="M355 -6q-60 0 -111.5 21.5t-89 63t-58.5 101t-21 135.5v54h512v16q0 66 -17.5 118t-49 87t-74 53.5t-91.5 18.5q-48 0 -84.5 -14.5t-62 -36t-41.5 -47.5t-25 -49h-51q9 29 28 62.5t51 62t77.5 47.5t107.5 19q60 0 111.5 -21.5t89 -63t58.5 -101t21 -135.5v-70
q0 -76 -21.5 -135.5t-59 -101t-88.5 -63t-111 -21.5zM355 38q50 0 92.5 18t73.5 53.5t48.5 87t17.5 118.5v11h-464v-11q0 -66 18 -118t49 -87t73.5 -53.5t91.5 -18.5z" />
    <glyph glyph-name="florin" unicode="&#x192;" horiz-adv-x="480" 
d="M119 500h113l9 50q7 41 19 69.5t31.5 46.5t46.5 26t65 8h42l-7 -40h-42q-48 0 -73 -23t-36 -87l-9 -50h132l-7 -40h-132l-79 -460q-7 -41 -19 -69.5t-30.5 -46.5t-44 -26t-59.5 -8h-34l7 40h34q42 0 65.5 23.5t34.5 86.5l79 460h-113z" />
    <glyph glyph-name="uni01CF" unicode="&#x1cf;" horiz-adv-x="270" 
d="M112 700h46v-700h-46v700zM-9 910h52l93 -109l93 109h52l-118 -150h-54z" />
    <glyph glyph-name="uni01D0" unicode="&#x1d0;" horiz-adv-x="256" 
d="M106 500h44v-500h-44v500zM-16 710h48l97 -111l97 111h48l-120 -150h-50z" />
    <glyph glyph-name="uni01DD" unicode="&#x1dd;" horiz-adv-x="540" 
d="M270 -6q-46 0 -83.5 15.5t-64.5 44.5t-42 72t-15 99v35h364v15q0 94 -44 141.5t-115 47.5q-33 0 -58 -7.5t-43 -20.5t-30.5 -30t-19.5 -36h-46q7 27 23 51.5t40.5 43.5t58 30t75.5 11q46 0 83.5 -15.5t64.5 -44.5t42 -72.5t15 -98.5v-50q0 -56 -15 -99t-42 -72
t-64.5 -44.5t-83.5 -15.5zM270 36q69 0 113 46.5t46 137.5h-318q2 -91 45.5 -137.5t113.5 -46.5z" />
    <glyph glyph-name="Gcaron" unicode="&#x1e6;" horiz-adv-x="680" 
d="M340 331h265v-21q0 -79 -19 -138t-52.5 -98.5t-80.5 -59.5t-103 -20q-60 0 -110 21.5t-87 62.5t-57.5 100.5t-20.5 136.5v70q0 76 20.5 136t57.5 101t87.5 62.5t109.5 21.5q51 0 93.5 -15.5t74 -42t51.5 -61t28 -72.5h-48q-8 28 -24.5 55t-42 47t-59 32.5t-73.5 12.5
q-49 0 -90.5 -18t-72 -53t-47.5 -87t-17 -119v-70q0 -68 17 -119.5t47.5 -86.5t72 -53t90.5 -18q92 0 148.5 60t61.5 191h-220v42zM205 910h52l93 -109l93 109h52l-118 -150h-54z" />
    <glyph glyph-name="gcaron" unicode="&#x1e7;" horiz-adv-x="560" 
d="M259 14q-43 0 -78.5 14.5t-61 43t-40 69.5t-14.5 94v50q0 53 14.5 94t40 69.5t61.5 43t80 14.5q54 0 96 -24.5t67 -72.5l5 91h36v-500q0 -98 -50.5 -152t-141.5 -54q-88 0 -131.5 39.5t-51.5 106.5h44q8 -49 40.5 -76.5t98.5 -27.5q73 0 110.5 41.5t37.5 122.5v105
q-26 -45 -67.5 -68t-94.5 -23zM266 56q32 0 59.5 12t48.5 34t33 53.5t14 71.5v58q0 42 -12 75t-33 56t-49.5 35.5t-61.5 12.5q-68 0 -111 -46t-43 -133v-50q0 -87 43 -133t112 -46zM120 710h48l97 -111l97 111h48l-120 -150h-50z" />
    <glyph glyph-name="Aringacute" unicode="&#x1fa;" horiz-adv-x="650" 
d="M486 214h-324l-79 -214h-48l247 666q-26 11 -41.5 35t-15.5 54q0 41 28.5 69t71.5 28t71.5 -28t28.5 -69q0 -30 -16 -53.5t-42 -35.5l248 -666h-50zM177 256h293l-81 220l-65 177l-65 -177zM325 700q25 0 40.5 15.5t15.5 39.5t-15.5 39.5t-40.5 15.5t-40.5 -15.5
t-15.5 -39.5q0 -23 14 -38t37 -17h5zM395 991h70l-116 -101h-54z" />
    <glyph glyph-name="aringacute" unicode="&#x1fb;" horiz-adv-x="520" 
d="M350 900h60l-120 -130h-50zM210 -6q-72 0 -111 37.5t-39 102.5q0 69 47 110t153 41h126v55q0 64 -30 94t-96 30q-63 0 -92.5 -25.5t-33.5 -68.5h-44q4 61 45.5 98.5t124.5 37.5q170 0 170 -166v-340h-36l-6 105q-26 -52 -73 -81.5t-105 -29.5zM210 36q35 0 66.5 13
t55.5 36.5t38 54.5t16 67v38h-126q-83 0 -118.5 -30t-35.5 -81q0 -45 27 -71.5t77 -26.5zM265 538q-44 0 -72 28t-28 69t28.5 69t71.5 28t71.5 -28t28.5 -69t-28.5 -69t-71.5 -28zM265 578q26 0 42 16t16 41t-16 41t-42 16t-42 -16t-16 -41t16 -41t42 -16z" />
    <glyph glyph-name="AEacute" unicode="&#x1fc;" horiz-adv-x="930" 
d="M450 700h425v-42h-359v-277h299v-42h-299v-297h359v-42h-405v214h-260l-128 -214h-52zM470 256v393l-235 -393h235zM754 910h62l-128 -150h-52z" />
    <glyph glyph-name="aeacute" unicode="&#x1fd;" horiz-adv-x="855" 
d="M210 -6q-72 0 -111 37.5t-39 102.5q0 67 47.5 106.5t158.5 39.5h120v60q0 64 -30 94t-96 30q-63 0 -92.5 -25.5t-33.5 -68.5h-44q4 61 45.5 98.5t124.5 37.5q128 0 160 -95q26 45 69.5 70t97.5 25q45 0 82.5 -15.5t64 -44.5t41.5 -72.5t15 -98.5v-35h-360v-15
q0 -44 12.5 -79t33.5 -59.5t49.5 -37.5t61.5 -13q67 0 100.5 27.5t48.5 76.5h46q-15 -65 -62 -105.5t-133 -40.5q-63 0 -111.5 34.5t-71.5 96.5q-23 -60 -75 -95.5t-119 -35.5zM587 464q-33 0 -61.5 -12t-49.5 -35t-33 -56.5t-13 -76.5v-4h314q-2 91 -45.5 137.5
t-111.5 46.5zM210 36q33 0 63 12t54 33t39.5 50.5t19.5 64.5v44h-120q-44 0 -74 -8t-49.5 -22t-28 -33.5t-8.5 -42.5q0 -45 27 -71.5t77 -26.5zM520 710h60l-130 -150h-50z" />
    <glyph glyph-name="Oslashacute" unicode="&#x1fe;" horiz-adv-x="710" 
d="M75 20l62 81q-29 41 -45.5 94.5t-16.5 119.5v70q0 75 21.5 134.5t59 101t89 63.5t110.5 22q56 0 104 -19.5t86 -56.5l58 76l32 -26l-63 -81q30 -41 46.5 -94.5t16.5 -119.5v-70q0 -75 -21.5 -134.5t-59 -101t-89 -63.5t-110.5 -22q-115 0 -190 75l-58 -75zM355 38
q49 0 91 18.5t73.5 54t49.5 87t18 117.5v70q0 53 -12 96.5t-34 77.5l-347 -452q31 -34 72 -51.5t89 -17.5zM123 315q0 -53 11.5 -96.5t33.5 -77.5l348 452q-32 34 -73 51.5t-88 17.5q-49 0 -91 -18.5t-73.5 -54t-49.5 -87t-18 -117.5v-70zM447 910h62l-128 -150h-52z" />
    <glyph glyph-name="oslashacute" unicode="&#x1ff;" horiz-adv-x="550" 
d="M65 16l44 55q-21 29 -32.5 67.5t-11.5 86.5v50q0 55 15 98t43 72.5t66.5 45t85.5 15.5q85 0 141 -51l41 51l28 -22l-44 -56q21 -29 32.5 -67t11.5 -86v-50q0 -55 -15 -98t-43 -72.5t-66.5 -45t-85.5 -15.5q-87 0 -142 50l-40 -50zM275 36q73 0 118.5 48.5t45.5 140.5v50
q0 69 -28 116l-250 -312q45 -43 114 -43zM111 225q0 -69 28 -116l249 311q-42 44 -113 44q-73 0 -118.5 -48.5t-45.5 -140.5v-50zM370 710h60l-130 -150h-50z" />
    <glyph glyph-name="Scommaaccent" unicode="&#x218;" horiz-adv-x="610" 
d="M305 -6q-109 0 -168 54.5t-67 156.5h50q8 -82 54 -124.5t131 -42.5q96 0 141.5 40t45.5 102q0 52 -30.5 81.5t-76.5 48t-99 32.5t-99 35.5t-76.5 56.5t-30.5 96q0 37 14 69.5t42.5 56t70.5 37t98 13.5q106 0 161.5 -51.5t63.5 -139.5h-50q-8 69 -50 108t-125 39
q-45 0 -78.5 -10t-55 -28t-32.5 -42t-11 -52q0 -50 30.5 -77.5t76.5 -45t99 -31.5t99 -36.5t76.5 -59.5t30.5 -100q0 -41 -14.5 -75.5t-43.5 -59t-73 -38t-104 -13.5zM279 -50h52l-88 -150h-42z" />
    <glyph glyph-name="scommaaccent" unicode="&#x219;" horiz-adv-x="490" 
d="M245 -6q-87 0 -129.5 38.5t-50.5 107.5h46q8 -51 38 -77.5t96 -26.5q72 0 103 26t31 68q0 37 -22.5 57t-56.5 32t-73 20.5t-73 23.5t-56.5 40.5t-22.5 71.5q0 55 43 93t127 38q79 0 120.5 -37.5t49.5 -98.5h-46q-8 44 -36.5 69t-87.5 25q-65 0 -94.5 -25.5t-29.5 -63.5
q0 -35 22.5 -53.5t56.5 -30t73 -20t73 -24t56.5 -42.5t22.5 -75q0 -59 -44 -97.5t-136 -38.5zM220 -50h50l-90 -150h-40z" />
    <glyph glyph-name="Tcommaaccent" unicode="&#x21a;" horiz-adv-x="580" 
d="M30 700h520v-42h-238v-658h-44v658h-238v42zM264 -50h52l-88 -150h-42z" />
    <glyph glyph-name="tcommaaccent" unicode="&#x21b;" horiz-adv-x="360" 
d="M35 500h90v140h44v-140h136v-40h-136v-336q0 -45 19 -64.5t61 -19.5h66v-40h-70q-120 0 -120 119v341h-90v40zM205 -50h50l-90 -150h-40z" />
    <glyph glyph-name="uni0237" unicode="&#x237;" horiz-adv-x="256" 
d="M-10 -158h36q42 0 61 24t19 89v545h44v-545q0 -86 -30.5 -120.5t-93.5 -34.5h-36v42z" />
    <glyph glyph-name="uni0259" unicode="&#x259;" horiz-adv-x="540" 
d="M270 -6q-46 0 -83.5 15.5t-64.5 44.5t-42 72t-15 99v35h364v15q0 94 -44 141.5t-115 47.5q-33 0 -58 -7.5t-43 -20.5t-30.5 -30t-19.5 -36h-46q7 27 23 51.5t40.5 43.5t58 30t75.5 11q46 0 83.5 -15.5t64.5 -44.5t42 -72.5t15 -98.5v-50q0 -56 -15 -99t-42 -72
t-64.5 -44.5t-83.5 -15.5zM270 36q69 0 113 46.5t46 137.5h-318q2 -91 45.5 -137.5t113.5 -46.5z" />
    <glyph glyph-name="uni027C" unicode="&#x27c;" horiz-adv-x="370" 
d="M95 500h36l4 -85q24 43 67 67t98 24h50v-42h-50q-35 0 -64 -11t-50 -31.5t-33.5 -48.5t-13.5 -61v-512h-44v700z" />
    <glyph glyph-name="afii57929" unicode="&#x2bc;" horiz-adv-x="190" 
d="M109 700h46l-78 -230h-42z" />
    <glyph glyph-name="circumflex" unicode="&#x2c6;" horiz-adv-x="360" 
d="M180 670l-97 -110h-48l120 150h50l120 -150h-48z" />
    <glyph glyph-name="caron" unicode="&#x2c7;" horiz-adv-x="360" 
d="M35 710h48l97 -111l97 111h48l-120 -150h-50z" />
    <glyph glyph-name="breve" unicode="&#x2d8;" horiz-adv-x="300" 
d="M150 564q-60 0 -95 35.5t-35 100.5h42q0 -48 24 -73t64 -25q42 0 66 25t24 73h40q0 -65 -35 -100.5t-95 -35.5z" />
    <glyph glyph-name="dotaccent" unicode="&#x2d9;" horiz-adv-x="160" 
d="M80 600q-15 0 -25 10t-10 25t10 25t25 10t25 -10t10 -25t-10 -25t-25 -10z" />
    <glyph glyph-name="ring" unicode="&#x2da;" horiz-adv-x="240" 
d="M120 538q-44 0 -72 28t-28 69t28.5 69t71.5 28t71.5 -28t28.5 -69t-28.5 -69t-71.5 -28zM120 578q26 0 42 16t16 41t-16 41t-42 16t-42 -16t-16 -41t16 -41t42 -16z" />
    <glyph glyph-name="ogonek" unicode="&#x2db;" horiz-adv-x="180" 
d="M105 -200q-42 0 -63.5 20.5t-21.5 54.5q0 15 4 29.5t16 31.5t34.5 39t59.5 51l26 -26q-31 -26 -49.5 -44t-29 -31t-14 -23.5t-3.5 -21.5q0 -19 11.5 -30.5t29.5 -11.5h55v-38h-55z" />
    <glyph glyph-name="tilde" unicode="&#x2dc;" horiz-adv-x="340" 
d="M235 580q-24 0 -42 11t-32 24t-27.5 24t-28.5 11q-21 0 -34 -14.5t-13 -45.5h-38q0 50 23.5 75t61.5 25q24 0 41.5 -11t31.5 -24t27.5 -24t29.5 -11q21 0 34 14.5t13 45.5h38q0 -50 -23.5 -75t-61.5 -25z" />
    <glyph glyph-name="hungarumlaut" unicode="&#x2dd;" horiz-adv-x="390" 
d="M145 710h60l-120 -150h-50zM295 710h60l-130 -150h-50z" />
    <glyph glyph-name="acutecomb" unicode="&#x301;" horiz-adv-x="0" 
d="M-179 710h60l-130 -150h-50z" />
    <glyph glyph-name="uni039E" unicode="&#x39e;" horiz-adv-x="510" 
d="M55 42h400v-42h-400v42zM135 381h240v-42h-240v42zM55 700h400v-42h-400v42z" />
    <glyph glyph-name="pi" unicode="&#x3c0;" horiz-adv-x="620" 
d="M561 0q-115 0 -115 119v339h-272v-458h-44v458h-90v42h540v-42h-90v-334q0 -44 18.5 -63.5t56.5 -19.5h25v-41h-29v0z" />
    <glyph glyph-name="uni0400" unicode="&#x400;" horiz-adv-x="560" 
d="M100 700h405v-42h-359v-277h299v-42h-299v-297h359v-42h-405v700zM148 910h62l118 -150h-52z" />
    <glyph glyph-name="afii10023" unicode="&#x401;" horiz-adv-x="560" 
d="M100 700h405v-42h-359v-277h299v-42h-299v-297h359v-42h-405v700zM192 800q-15 0 -25 10t-10 25t10 25t25 10t25 -10t10 -25t-10 -25t-25 -10zM412 800q-15 0 -25 10t-10 25t10 25t25 10t25 -10t10 -25t-10 -25t-25 -10z" />
    <glyph glyph-name="afii10051" unicode="&#x402;" horiz-adv-x="740" 
d="M30 700h520v-42h-238v-256h138q120 0 180 -55t60 -146t-60 -146t-180 -55h-50v42h50q98 0 145 43t47 116t-47 116t-145 43h-138v-360h-44v658h-238v42z" />
    <glyph glyph-name="afii10052" unicode="&#x403;" horiz-adv-x="515" 
d="M100 700h385v-42h-339v-658h-46v700zM384 910h62l-128 -150h-52z" />
    <glyph glyph-name="afii10053" unicode="&#x404;" horiz-adv-x="670" 
d="M350 -6q-59 0 -109.5 21.5t-87.5 63t-57.5 102.5t-20.5 139v70q0 75 20.5 133.5t57.5 99t87.5 62t109.5 21.5q53 0 96.5 -16t76.5 -43t53.5 -61.5t28.5 -70.5h-50q-8 28 -25 54t-43 46.5t-60.5 33t-76.5 12.5q-49 0 -90.5 -18t-72 -52.5t-47.5 -85t-17 -115.5v-14h312
v-42h-312v-14q0 -69 17 -121.5t47.5 -88t72 -53.5t90.5 -18q42 0 76.5 13t60.5 35.5t43 52.5t25 65h50q-8 -44 -28.5 -82.5t-53 -67t-76.5 -45t-97 -16.5z" />
    <glyph glyph-name="afii10054" unicode="&#x405;" horiz-adv-x="610" 
d="M305 -6q-109 0 -168 54.5t-67 156.5h50q8 -82 54 -124.5t131 -42.5q96 0 141.5 40t45.5 102q0 52 -30.5 81.5t-76.5 48t-99 32.5t-99 35.5t-76.5 56.5t-30.5 96q0 37 14 69.5t42.5 56t70.5 37t98 13.5q106 0 161.5 -51.5t63.5 -139.5h-50q-8 69 -50 108t-125 39
q-45 0 -78.5 -10t-55 -28t-32.5 -42t-11 -52q0 -50 30.5 -77.5t76.5 -45t99 -31.5t99 -36.5t76.5 -59.5t30.5 -100q0 -41 -14.5 -75.5t-43.5 -59t-73 -38t-104 -13.5z" />
    <glyph glyph-name="afii10055" unicode="&#x406;" horiz-adv-x="270" 
d="M112 700h46v-700h-46v700z" />
    <glyph glyph-name="afii10056" unicode="&#x407;" horiz-adv-x="270" 
d="M112 700h46v-700h-46v700zM26 800q-15 0 -25 10t-10 25t10 25t25 10t25 -10t10 -25t-10 -25t-25 -10zM246 800q-15 0 -25 10t-10 25t10 25t25 10t25 -10t10 -25t-10 -25t-25 -10z" />
    <glyph glyph-name="afii10057" unicode="&#x408;" horiz-adv-x="535" 
d="M240 -6q-88 0 -140.5 54t-59.5 157h46q5 -84 45 -125.5t109 -41.5q36 0 64.5 11.5t48.5 37t30.5 66t10.5 97.5v450h46v-450q0 -67 -14 -115t-40 -79.5t-63 -46.5t-83 -15z" />
    <glyph glyph-name="afii10058" unicode="&#x409;" horiz-adv-x="1020" 
d="M25 38h20q25 0 46.5 11.5t36.5 47.5t23.5 102.5t8.5 175.5v325h407v-276h163q120 0 180 -56.5t60 -155.5q0 -101 -59.5 -156.5t-180.5 -55.5h-209v658h-315v-283q0 -121 -11 -195.5t-31.5 -116t-50.5 -55.5t-68 -14h-20v44zM567 382v-340h163q99 0 145.5 44t46.5 126
q0 81 -47.5 125.5t-144.5 44.5h-163z" />
    <glyph glyph-name="afii10059" unicode="&#x40a;" horiz-adv-x="1030" 
d="M544 359h-398v-359h-46v700h46v-299h398v299h46v-299h160q56 0 99 -14.5t72 -41t44 -63t15 -81.5q0 -93 -58 -147t-172 -54h-206v359zM590 359v-317h160q91 0 136.5 42.5t45.5 116.5q0 72 -46 115t-136 43h-160z" />
    <glyph glyph-name="afii10060" unicode="&#x40b;" horiz-adv-x="775" 
d="M30 700h520v-42h-238v-300q26 48 72 73t107 25q90 0 142 -56t52 -170v-230h-46v230q0 93 -41.5 137.5t-116.5 44.5q-76 0 -122 -47.5t-46 -134.5h-1v-230h-44v658h-238v42z" />
    <glyph glyph-name="afii10061" unicode="&#x40c;" horiz-adv-x="635" 
d="M275 339h-129v-339h-46v700h46v-319h130l236 319h58l-254 -338l274 -362h-60zM421 910h62l-128 -150h-52z" />
    <glyph glyph-name="uni040D" unicode="&#x40d;" horiz-adv-x="710" 
d="M564 649l-58 -99l-344 -550h-62v700h46v-649l58 99l344 550h62v-700h-46v649zM201 910h62l118 -150h-52z" />
    <glyph glyph-name="afii10062" unicode="&#x40e;" horiz-adv-x="610" 
d="M295 201l-255 499h54l226 -447l198 447h52l-313 -700h-52zM306 764q-68 0 -104 35.5t-36 100.5h46q0 -98 94 -98q96 0 96 98h44q0 -65 -36 -100.5t-104 -35.5z" />
    <glyph glyph-name="afii10145" unicode="&#x40f;" horiz-adv-x="700" 
d="M100 700h46v-658h408v658h46v-700h-227v-150h-46v150h-227v700z" />
    <glyph glyph-name="afii10017" unicode="&#x410;" horiz-adv-x="650" 
d="M486 214h-324l-79 -214h-48l260 700h60l260 -700h-50zM177 256h293l-146 397l-65 -177z" />
    <glyph glyph-name="afii10018" unicode="&#x411;" horiz-adv-x="610" 
d="M100 700h400v-43h-354v-253h174q112 0 171 -55.5t59 -146.5q0 -94 -58 -148t-172 -54h-220v700zM146 362v-320h174q91 0 136.5 42.5t45.5 117.5q0 73 -46 116.5t-136 43.5h-174z" />
    <glyph glyph-name="afii10019" unicode="&#x412;" horiz-adv-x="620" 
d="M100 700h210q113 0 166.5 -48.5t53.5 -132.5q0 -54 -26.5 -94.5t-80.5 -61.5q64 -18 95.5 -63t31.5 -109q0 -91 -53.5 -141t-166.5 -50h-230v700zM146 339v-296h184q89 0 130.5 38.5t41.5 109.5t-41.5 109.5t-130.5 38.5h-184zM146 657v-276h164q89 0 130.5 37.5
t41.5 100.5t-41.5 100.5t-130.5 37.5h-164z" />
    <glyph glyph-name="afii10020" unicode="&#x413;" horiz-adv-x="515" 
d="M100 700h385v-42h-339v-658h-46v700z" />
    <glyph glyph-name="afii10021" unicode="&#x414;" horiz-adv-x="690" 
d="M614 0h-543v-150h-46v192h63q27 38 43 79.5t25 91.5t11.5 110.5t2.5 136.5v240h405v-658h85v-192h-46v150zM216 460q0 -78 -2.5 -139t-11 -111t-23 -91t-38.5 -77h388v616h-313v-198z" />
    <glyph glyph-name="afii10022" unicode="&#x415;" horiz-adv-x="560" 
d="M100 700h405v-42h-359v-277h299v-42h-299v-297h359v-42h-405v700z" />
    <glyph glyph-name="afii10024" unicode="&#x416;" horiz-adv-x="920" 
d="M613 339h-130v-339h-46v339h-130l-207 -339h-55l222 360l-202 340h54l188 -319h130v319h46v-319h130l189 319h53l-202 -338l222 -362h-56z" />
    <glyph glyph-name="afii10025" unicode="&#x417;" horiz-adv-x="595" 
d="M300 -6q-105 0 -166 56.5t-69 154.5h48q8 -79 56 -123t131 -44q87 0 132 42t45 110q0 66 -44 107.5t-133 41.5h-85v42h85q39 0 69 11t50.5 29.5t31.5 44t11 55.5q0 64 -41 102.5t-121 38.5q-78 0 -120.5 -39t-51.5 -108h-48q8 88 63 139.5t157 51.5t156 -51t54 -134
q0 -53 -30 -95.5t-84 -63.5q64 -20 96.5 -65.5t32.5 -106.5q0 -43 -15 -79t-43.5 -62t-70.5 -40.5t-96 -14.5z" />
    <glyph glyph-name="afii10026" unicode="&#x418;" horiz-adv-x="710" 
d="M564 649l-58 -99l-344 -550h-62v700h46v-649l58 99l344 550h62v-700h-46v649z" />
    <glyph glyph-name="afii10027" unicode="&#x419;" horiz-adv-x="710" 
d="M564 649l-58 -99l-344 -550h-62v700h46v-649l58 99l344 550h62v-700h-46v649zM355 764q-68 0 -104 35.5t-36 100.5h46q0 -98 94 -98q96 0 96 98h44q0 -65 -36 -100.5t-104 -35.5z" />
    <glyph glyph-name="afii10028" unicode="&#x41a;" horiz-adv-x="635" 
d="M275 339h-129v-339h-46v700h46v-319h130l236 319h58l-254 -338l274 -362h-60z" />
    <glyph glyph-name="afii10029" unicode="&#x41b;" horiz-adv-x="680" 
d="M25 38h20q25 0 46.5 11.5t36.5 47.5t23.5 102.5t8.5 175.5v325h420v-700h-46v658h-328v-283q0 -121 -11 -195.5t-31.5 -116t-50.5 -55.5t-68 -14h-20v44z" />
    <glyph glyph-name="afii10030" unicode="&#x41c;" horiz-adv-x="810" 
d="M196 550l-50 91v-641h-46v700h64l242 -435l242 435h62v-700h-46v641l-50 -91l-186 -335h-46z" />
    <glyph glyph-name="afii10031" unicode="&#x41d;" horiz-adv-x="710" 
d="M564 339h-418v-339h-46v700h46v-319h418v319h46v-700h-46v339z" />
    <glyph glyph-name="afii10032" unicode="&#x41e;" horiz-adv-x="710" 
d="M355 -6q-60 0 -111 22t-88.5 63.5t-59 101t-21.5 134.5v70q0 75 21.5 134.5t59 101t89 63.5t110.5 22q60 0 111 -22t88.5 -63.5t59 -101t21.5 -134.5v-70q0 -75 -21.5 -134.5t-59 -101t-89 -63.5t-110.5 -22zM355 38q49 0 91 18.5t73.5 54t49.5 87t18 117.5v70
q0 65 -18 116.5t-49.5 87t-74 54.5t-90.5 19q-49 0 -91 -18.5t-73.5 -54t-49.5 -87t-18 -117.5v-70q0 -65 18 -116.5t49.5 -87t74 -54.5t90.5 -19z" />
    <glyph glyph-name="afii10033" unicode="&#x41f;" horiz-adv-x="700" 
d="M554 658h-408v-658h-46v700h500v-700h-46v658z" />
    <glyph glyph-name="afii10034" unicode="&#x420;" horiz-adv-x="600" 
d="M100 700h210q121 0 180.5 -56t59.5 -156q0 -99 -60 -155.5t-180 -56.5h-164v-276h-46v700zM146 658v-340h164q97 0 144.5 44.5t47.5 125.5q0 82 -46.5 126t-145.5 44h-164z" />
    <glyph glyph-name="afii10035" unicode="&#x421;" horiz-adv-x="670" 
d="M350 -6q-59 0 -109.5 21.5t-87.5 62.5t-57.5 100.5t-20.5 136.5v70q0 76 20.5 136t57.5 101t87.5 62.5t109.5 21.5q53 0 96.5 -16t76.5 -43t53.5 -61.5t28.5 -70.5h-50q-8 28 -25 54t-43 46.5t-60.5 33t-76.5 12.5q-49 0 -90.5 -18t-72 -53t-47.5 -86.5t-17 -118.5v-70
q0 -67 17 -118.5t47.5 -86.5t72 -53t90.5 -18q42 0 76.5 13t60.5 35.5t43 52.5t25 65h50q-8 -44 -28.5 -82.5t-53 -67t-76.5 -45t-97 -16.5z" />
    <glyph glyph-name="afii10036" unicode="&#x422;" horiz-adv-x="580" 
d="M30 700h520v-42h-238v-658h-44v658h-238v42z" />
    <glyph glyph-name="afii10037" unicode="&#x423;" horiz-adv-x="610" 
d="M295 201l-255 499h54l226 -447l198 447h52l-313 -700h-52z" />
    <glyph glyph-name="afii10038" unicode="&#x424;" horiz-adv-x="840" 
d="M775 325q0 -63 -20.5 -114t-59.5 -87t-96.5 -56t-132.5 -20h-23v-54h-46v54h-22q-75 0 -133 19.5t-97.5 55.5t-59.5 87.5t-20 114.5v50q0 63 20.5 114.5t60 87.5t97 56t132.5 20h22v53h46v-53h23q75 0 133 -19.5t97 -56t59 -88t20 -114.5v-50zM443 608v-515h23
q129 0 195 62.5t66 169.5v50q0 108 -66 170.5t-195 62.5h-23zM113 325q0 -107 66 -169.5t196 -62.5h22v515h-22q-129 0 -195.5 -63t-66.5 -170v-50z" />
    <glyph glyph-name="afii10039" unicode="&#x425;" horiz-adv-x="650" 
d="M324 328l-223 -328h-56l251 364l-231 336h56l204 -299l205 299h55l-231 -334l251 -366h-57z" />
    <glyph glyph-name="afii10040" unicode="&#x426;" horiz-adv-x="720" 
d="M100 700h46v-658h408v658h46v-658h90v-192h-46v150h-544v700z" />
    <glyph glyph-name="afii10041" unicode="&#x427;" horiz-adv-x="630" 
d="M484 293q-26 -7 -76.5 -15.5t-107.5 -8.5q-62 0 -105.5 13t-71 40.5t-40.5 71.5t-13 106v200h46v-200q0 -51 10 -87t32.5 -58.5t57 -33t84.5 -10.5q57 0 107 8.5t77 15.5v365h46v-700h-46v293z" />
    <glyph glyph-name="afii10042" unicode="&#x428;" horiz-adv-x="940" 
d="M100 700h46v-658h301v658h46v-658h301v658h46v-700h-740v700z" />
    <glyph glyph-name="afii10043" unicode="&#x429;" horiz-adv-x="960" 
d="M100 700h46v-658h301v658h46v-658h301v658h46v-658h90v-192h-46v150h-784v700z" />
    <glyph glyph-name="afii10044" unicode="&#x42a;" horiz-adv-x="715" 
d="M30 700h231v-276h164q120 0 180 -56.5t60 -155.5q0 -101 -59.5 -156.5t-180.5 -55.5h-210v658h-185v42zM261 382v-340h164q99 0 145.5 44t46.5 126q0 81 -47.5 125.5t-144.5 44.5h-164z" />
    <glyph glyph-name="afii10045" unicode="&#x42b;" horiz-adv-x="830" 
d="M100 700h46v-276h164q120 0 180 -56.5t60 -155.5q0 -101 -59.5 -156.5t-180.5 -55.5h-210v700zM146 382v-340h164q99 0 145.5 44t46.5 126q0 81 -47.5 125.5t-144.5 44.5h-164zM684 700h46v-700h-46v700z" />
    <glyph glyph-name="afii10046" unicode="&#x42c;" horiz-adv-x="600" 
d="M100 700h46v-276h164q120 0 180 -56.5t60 -155.5q0 -101 -59.5 -156.5t-180.5 -55.5h-210v700zM146 382v-340h164q99 0 145.5 44t46.5 126q0 81 -47.5 125.5t-144.5 44.5h-164z" />
    <glyph glyph-name="afii10047" unicode="&#x42d;" horiz-adv-x="670" 
d="M235 376h312v14q0 65 -17 115.5t-47.5 85t-72 52.5t-90.5 18q-42 0 -76.5 -12.5t-61 -33t-43.5 -46.5t-25 -54h-49q7 36 28 70.5t54 61.5t76.5 43t96.5 16q59 0 109.5 -21.5t87 -62t57.5 -99t21 -133.5v-70q0 -79 -20.5 -139.5t-57.5 -102t-87 -63t-110 -21.5
q-53 0 -97 16.5t-76.5 45t-53.5 67t-28 82.5h49q8 -35 25.5 -65t43.5 -52.5t60.5 -35.5t76.5 -13q49 0 90.5 18t72 53.5t47.5 88t17 121.5v14h-312v42z" />
    <glyph glyph-name="afii10048" unicode="&#x42e;" horiz-adv-x="905" 
d="M562 -6q-59 0 -108 21t-84.5 62t-55.5 103t-20 145v14h-148v-339h-46v700h46v-319h148v14q0 75 20 133t55.5 97.5t84.5 60t108 20.5t108 -20.5t84.5 -60t55.5 -97.5t20 -133v-70q0 -83 -20 -145t-55.5 -103t-84.5 -62t-108 -21zM562 38q48 0 88 17.5t69.5 53t46 89.5
t16.5 127v70q0 65 -16.5 115t-46 83.5t-69.5 51t-88 17.5t-88 -17.5t-69.5 -51t-46 -83.5t-16.5 -115v-70q0 -73 16.5 -127t46 -89.5t69.5 -53t88 -17.5z" />
    <glyph glyph-name="afii10049" unicode="&#x42f;" horiz-adv-x="620" 
d="M222 308q-76 19 -114 69.5t-38 122.5q0 91 59.5 145.5t180.5 54.5h210v-700h-46v298h-164h-21.5t-21.5 2l-167 -300h-50zM118 500q0 -71 48.5 -115.5t143.5 -44.5h164v318h-164q-97 0 -144.5 -42.5t-47.5 -115.5z" />
    <glyph glyph-name="afii10065" unicode="&#x430;" horiz-adv-x="520" 
d="M210 -6q-72 0 -111 37.5t-39 102.5q0 69 47 110t153 41h126v55q0 64 -30 94t-96 30q-63 0 -92.5 -25.5t-33.5 -68.5h-44q4 61 45.5 98.5t124.5 37.5q170 0 170 -166v-340h-36l-6 105q-26 -52 -73 -81.5t-105 -29.5zM210 36q35 0 66.5 13t55.5 36.5t38 54.5t16 67v38h-126
q-83 0 -118.5 -30t-35.5 -81q0 -45 27 -71.5t77 -26.5z" />
    <glyph glyph-name="afii10066" unicode="&#x431;" horiz-adv-x="550" 
d="M275 -6q-47 0 -85.5 16t-66 47.5t-43 78.5t-15.5 109v70q0 61 5.5 112t19 91.5t35.5 70.5t56 50q29 17 58.5 24t61.5 11.5t68.5 10.5t80.5 21v-41q-38 -14 -72 -19.5t-64.5 -10t-58.5 -10.5t-53 -21q-44 -26 -65 -75t-27 -132q26 48 69.5 73.5t100.5 25.5
q45 0 82.5 -15.5t64.5 -45t42.5 -71.5t15.5 -94v-50q0 -51 -16 -93t-44 -71.5t-66.5 -45.5t-83.5 -16zM275 454q-35 0 -64.5 -12t-51.5 -34.5t-34.5 -55t-13.5 -74.5v-58q0 -43 12.5 -77t34.5 -58t52 -36.5t65 -12.5q36 0 66 12.5t51.5 36.5t34 58t12.5 77v50q0 43 -12.5 77
t-34 58t-51.5 36.5t-66 12.5z" />
    <glyph glyph-name="afii10067" unicode="&#x432;" horiz-adv-x="520" 
d="M95 500h180q81 0 120.5 -36t39.5 -96q0 -35 -17 -63.5t-51 -45.5q44 -15 66 -46.5t22 -74.5q0 -65 -39.5 -101.5t-120.5 -36.5h-200v500zM139 235v-195h156q59 0 86.5 25.5t27.5 72.5q0 46 -27.5 71.5t-86.5 25.5h-156zM139 460v-185h136q59 0 86.5 25t27.5 68
q0 42 -27.5 67t-86.5 25h-136z" />
    <glyph glyph-name="afii10068" unicode="&#x433;" horiz-adv-x="430" 
d="M95 500h305v-40h-261v-460h-44v500z" />
    <glyph glyph-name="afii10069" unicode="&#x434;" horiz-adv-x="550" 
d="M481 0h-417v-130h-44v170h58q18 27 29.5 55.5t19 64.5t10.5 82t3 108v150h310v-460h75v-170h-44v130zM184 350q0 -62 -3 -108t-10 -82t-17 -64.5t-25 -55.5h277v420h-222v-110z" />
    <glyph glyph-name="afii10070" unicode="&#x435;" horiz-adv-x="540" 
d="M270 -6q-46 0 -83.5 15.5t-64.5 44.5t-42 72t-15 99v50q0 55 15 98.5t42 72.5t64.5 44.5t83.5 15.5t83.5 -15.5t64.5 -44.5t42 -72.5t15 -98.5v-35h-364v-15q0 -94 44 -141.5t115 -47.5q69 0 102.5 27.5t48.5 76.5h46q-15 -65 -62 -105.5t-135 -40.5zM270 464
q-70 0 -113.5 -46.5t-45.5 -137.5h318q-2 91 -46 137.5t-113 46.5z" />
    <glyph glyph-name="afii10072" unicode="&#x436;" horiz-adv-x="720" 
d="M491 240h-109v-240h-44v240h-110l-141 -240h-52l154 258l-134 242h53l120 -220h110v220h44v-220h109l123 220h51l-135 -239l155 -261h-54z" />
    <glyph glyph-name="afii10073" unicode="&#x437;" horiz-adv-x="485" 
d="M240 506q81 0 123 -38.5t42 -97.5q0 -37 -19 -66.5t-56 -46.5q45 -17 67.5 -49t22.5 -73q0 -61 -45 -101t-135 -40t-136.5 40.5t-53.5 105.5h46q8 -47 41.5 -75.5t102.5 -28.5t101.5 28t32.5 71t-32.5 71t-101.5 28h-55v42h55q60 0 89.5 26.5t29.5 67.5t-29.5 67.5
t-89.5 26.5t-90.5 -26.5t-38.5 -67.5h-46q8 59 51 97.5t124 38.5z" />
    <glyph glyph-name="afii10074" unicode="&#x438;" horiz-adv-x="580" 
d="M441 445l-61 -95l-229 -350h-56v500h44v-446l61 96l229 350h56v-500h-44v445z" />
    <glyph glyph-name="afii10075" unicode="&#x439;" horiz-adv-x="580" 
d="M441 445l-61 -95l-229 -350h-56v500h44v-446l61 96l229 350h56v-500h-44v445zM290 564q-60 0 -95 35.5t-35 100.5h44q0 -51 23 -75.5t63 -24.5q41 0 64.5 24.5t23.5 75.5h42q0 -65 -35 -100.5t-95 -35.5z" />
    <glyph glyph-name="afii10076" unicode="&#x43a;" horiz-adv-x="510" 
d="M250 240h-111v-240h-44v500h44v-220h110l152 220h54l-168 -240l188 -260h-54z" />
    <glyph glyph-name="afii10077" unicode="&#x43b;" horiz-adv-x="545" 
d="M25 36h15q19 0 35.5 9t28.5 35t19 73t7 123v224h320v-500h-44v460h-232v-184q0 -86 -9.5 -141t-27 -86.5t-42 -43t-55.5 -11.5h-15v42z" />
    <glyph glyph-name="afii10078" unicode="&#x43c;" horiz-adv-x="680" 
d="M194 352l-55 98v-450h-44v500h62l184 -321l184 321h60v-500h-44v450l-55 -98l-124 -217h-44z" />
    <glyph glyph-name="afii10079" unicode="&#x43d;" horiz-adv-x="580" 
d="M441 235h-302v-235h-44v500h44v-225h302v225h44v-500h-44v235z" />
    <glyph glyph-name="afii10080" unicode="&#x43e;" horiz-adv-x="550" 
d="M275 -6q-47 0 -86 15.5t-66.5 45t-42.5 72.5t-15 98v50q0 55 15 98t43 72.5t66.5 45t85.5 15.5t86 -15.5t66.5 -45t42.5 -72.5t15 -98v-50q0 -55 -15 -98t-43 -72.5t-66.5 -45t-85.5 -15.5zM275 36q73 0 118.5 48.5t45.5 140.5v50q0 91 -46 140t-118 49
q-73 0 -118.5 -48.5t-45.5 -140.5v-50q0 -91 46 -140t118 -49z" />
    <glyph glyph-name="afii10081" unicode="&#x43f;" horiz-adv-x="560" 
d="M421 458h-282v-458h-44v500h370v-500h-44v458z" />
    <glyph glyph-name="afii10082" unicode="&#x440;" horiz-adv-x="560" 
d="M301 -6q-54 0 -95.5 23.5t-66.5 70.5v-288h-44v700h36l5 -94q24 50 66.5 75t96.5 25q43 0 79.5 -15t62 -44t40 -72t14.5 -100v-50q0 -57 -14.5 -100t-40 -72t-61 -44t-78.5 -15zM294 36q69 0 112 47.5t43 141.5v50q0 94 -43 141.5t-112 47.5q-32 0 -59.5 -12t-48.5 -35
t-33.5 -56.5t-13.5 -76.5v-59q0 -45 12 -80.5t33 -59.5t49 -36.5t61 -12.5z" />
    <glyph glyph-name="afii10083" unicode="&#x441;" horiz-adv-x="505" 
d="M270 -6q-45 0 -82.5 15.5t-64.5 45.5t-42.5 73t-15.5 97v50q0 54 15.5 97t42.5 73t64.5 45.5t82.5 15.5q38 0 69 -11t54 -30t38.5 -43.5t23.5 -51.5h-48q-15 38 -48.5 66t-88.5 28q-34 0 -63 -12.5t-50.5 -36.5t-33.5 -59.5t-12 -80.5v-50q0 -45 12 -80.5t33.5 -59.5
t50.5 -36.5t63 -12.5q57 0 89.5 28.5t47.5 75.5h48q-15 -63 -61 -104.5t-124 -41.5z" />
    <glyph glyph-name="afii10084" unicode="&#x442;" horiz-adv-x="450" 
d="M30 500h390v-40h-173v-460h-44v460h-173v40z" />
    <glyph glyph-name="afii10085" unicode="&#x443;" horiz-adv-x="520" 
d="M245 -1l-210 501h48l185 -447l171 447h46l-270 -700h-46z" />
    <glyph glyph-name="afii10086" unicode="&#x444;" horiz-adv-x="700" 
d="M290 -6q-50 0 -91.5 16.5t-71 46.5t-46 72.5t-16.5 95.5v50q0 52 16.5 95t46 73t71 46.5t91.5 16.5h39v194h42v-194h39q50 0 91.5 -16.5t71 -46.5t46 -73t16.5 -95v-50q0 -53 -16.5 -95.5t-46 -72.5t-71 -46.5t-91.5 -16.5h-39v-194h-42v194h-39zM111 225q0 -89 49 -139
t130 -50h39v428h-39q-81 0 -130 -50t-49 -139v-50zM371 464v-428h39q81 0 130 50t49 139v50q0 89 -49 139t-130 50h-39z" />
    <glyph glyph-name="afii10087" unicode="&#x445;" horiz-adv-x="500" 
d="M249 226l-162 -226h-52l187 261l-171 239h52l147 -204l148 204h51l-171 -238l187 -262h-53z" />
    <glyph glyph-name="afii10088" unicode="&#x446;" horiz-adv-x="565" 
d="M95 500h44v-460h277v460h44v-460h80v-170h-44v130h-401v500z" />
    <glyph glyph-name="afii10089" unicode="&#x447;" horiz-adv-x="520" 
d="M381 198q-20 -6 -55 -12t-81 -6q-96 0 -138 40.5t-42 129.5v150h44v-150q0 -71 30.5 -100.5t105.5 -29.5q45 0 80.5 6t55.5 12v262h44v-500h-44v198z" />
    <glyph glyph-name="afii10090" unicode="&#x448;" horiz-adv-x="760" 
d="M95 500h44v-460h219v460h44v-460h219v460h44v-500h-570v500z" />
    <glyph glyph-name="afii10091" unicode="&#x449;" horiz-adv-x="770" 
d="M95 500h44v-460h219v460h44v-460h219v460h44v-460h80v-170h-44v130h-606v500z" />
    <glyph glyph-name="afii10092" unicode="&#x44a;" horiz-adv-x="575" 
d="M20 500h194v-190h126q98 0 144 -41.5t46 -113.5t-46 -113.5t-144 -41.5h-170v460h-150v40zM214 270v-230h126q77 0 110.5 30t33.5 85t-33.5 85t-110.5 30h-126z" />
    <glyph glyph-name="afii10093" unicode="&#x44b;" horiz-adv-x="710" 
d="M95 500h44v-190h126q98 0 144 -41.5t46 -113.5t-46 -113.5t-144 -41.5h-170v500zM139 270v-230h126q77 0 110.5 30t33.5 85t-33.5 85t-110.5 30h-126zM571 500h44v-500h-44v500z" />
    <glyph glyph-name="afii10094" unicode="&#x44c;" horiz-adv-x="500" 
d="M95 500h44v-190h126q98 0 144 -41.5t46 -113.5t-46 -113.5t-144 -41.5h-170v500zM139 270v-230h126q77 0 110.5 30t33.5 85t-33.5 85t-110.5 30h-126z" />
    <glyph glyph-name="afii10095" unicode="&#x44d;" horiz-adv-x="505" 
d="M180 275h214v5q0 42 -12 76t-33.5 58t-50.5 37t-63 13q-55 0 -88.5 -28t-48.5 -66h-48q7 27 23 51.5t39 43.5t54 30t69 11q45 0 82.5 -16.5t64.5 -46t42.5 -71t15.5 -92.5v-50q0 -56 -15.5 -100t-42.5 -74t-64.5 -46t-82.5 -16q-78 0 -124 41.5t-61 104.5h48
q15 -47 47.5 -75.5t89.5 -28.5q34 0 63 12.5t50.5 37t33.5 61t12 83.5v5h-214v40z" />
    <glyph glyph-name="afii10096" unicode="&#x44e;" horiz-adv-x="740" 
d="M467 -6q-45 0 -83 16t-66 46t-43.5 72.5t-15.5 96.5v10h-120v-235h-44v500h44v-225h120q0 54 15.5 96.5t43.5 72.5t66 46t83 16t83 -16t66 -46t43.5 -72.5t15.5 -96.5v-50q0 -54 -15.5 -96.5t-43.5 -72.5t-66 -46t-83 -16zM467 36q35 0 64.5 12.5t51.5 37t34 59.5t12 80
v50q0 45 -12 80t-34 59.5t-51.5 37t-64.5 12.5t-64.5 -12.5t-51.5 -37t-34 -59.5t-12 -80v-50q0 -45 12 -80t34 -59.5t51.5 -37t64.5 -12.5z" />
    <glyph glyph-name="afii10097" unicode="&#x44f;" horiz-adv-x="510" 
d="M65 347q0 72 46 112.5t149 40.5h155v-500h-44v195h-111q-28 0 -52 3l-113 -198h-50l120 207q-52 16 -76 52t-24 88zM111 347q0 -53 34 -82.5t115 -29.5h111v224h-111q-81 0 -115 -29.5t-34 -82.5z" />
    <glyph glyph-name="uni0450" unicode="&#x450;" horiz-adv-x="540" 
d="M270 -6q-46 0 -83.5 15.5t-64.5 44.5t-42 72t-15 99v50q0 55 15 98.5t42 72.5t64.5 44.5t83.5 15.5t83.5 -15.5t64.5 -44.5t42 -72.5t15 -98.5v-35h-364v-15q0 -94 44 -141.5t115 -47.5q69 0 102.5 27.5t48.5 76.5h46q-15 -65 -62 -105.5t-135 -40.5zM270 464
q-70 0 -113.5 -46.5t-45.5 -137.5h318q-2 91 -46 137.5t-113 46.5zM115 710h60l120 -150h-50z" />
    <glyph glyph-name="afii10071" unicode="&#x451;" horiz-adv-x="540" 
d="M270 -6q-46 0 -83.5 15.5t-64.5 44.5t-42 72t-15 99v50q0 55 15 98.5t42 72.5t64.5 44.5t83.5 15.5t83.5 -15.5t64.5 -44.5t42 -72.5t15 -98.5v-35h-364v-15q0 -94 44 -141.5t115 -47.5q69 0 102.5 27.5t48.5 76.5h46q-15 -65 -62 -105.5t-135 -40.5zM270 464
q-70 0 -113.5 -46.5t-45.5 -137.5h318q-2 91 -46 137.5t-113 46.5zM170 600q-15 0 -25 10t-10 25t10 25.5t25 10.5t25 -10.5t10 -25.5t-10 -25t-25 -10zM370 600q-15 0 -25 10t-10 25t10 25.5t25 10.5t25 -10.5t10 -25.5t-10 -25t-25 -10z" />
    <glyph glyph-name="afii10099" unicode="&#x452;" horiz-adv-x="575" 
d="M325 -158h36q42 0 61 24t19 89v320q0 80 -37.5 119.5t-103.5 39.5q-35 0 -64 -11t-50 -31.5t-33.5 -48.5t-13.5 -61v-282h-44v541h-95v38h95v121h44v-121h170v-38h-170v-154q25 42 68 65.5t100 23.5q82 0 130 -50.5t48 -150.5v-320q0 -86 -30.5 -120.5t-93.5 -34.5h-36
v42z" />
    <glyph glyph-name="afii10100" unicode="&#x453;" horiz-adv-x="430" 
d="M95 500h305v-40h-261v-460h-44v500zM343 710h60l-130 -150h-50z" />
    <glyph glyph-name="afii10101" unicode="&#x454;" horiz-adv-x="505" 
d="M270 -6q-45 0 -82.5 16t-64.5 46t-42.5 74t-15.5 100v50q0 51 15.5 92.5t42.5 71t64.5 46t82.5 16.5q38 0 69 -11t54 -30t38.5 -43.5t23.5 -51.5h-48q-15 38 -48.5 66t-88.5 28q-34 0 -63 -13t-50.5 -37t-33.5 -58t-12 -76v-5h214v-40h-214v-5q0 -47 12 -83.5t33.5 -61
t50.5 -37t63 -12.5q57 0 89.5 28.5t47.5 75.5h48q-15 -63 -61 -104.5t-124 -41.5z" />
    <glyph glyph-name="afii10102" unicode="&#x455;" horiz-adv-x="490" 
d="M245 -6q-87 0 -129.5 38.5t-50.5 107.5h46q8 -51 38 -77.5t96 -26.5q72 0 103 26t31 68q0 37 -22.5 57t-56.5 32t-73 20.5t-73 23.5t-56.5 40.5t-22.5 71.5q0 55 43 93t127 38q79 0 120.5 -37.5t49.5 -98.5h-46q-8 44 -36.5 69t-87.5 25q-65 0 -94.5 -25.5t-29.5 -63.5
q0 -35 22.5 -53.5t56.5 -30t73 -20t73 -24t56.5 -42.5t22.5 -75q0 -59 -44 -97.5t-136 -38.5z" />
    <glyph glyph-name="afii10103" unicode="&#x456;" horiz-adv-x="256" 
d="M106 500h44v-500h-44v500zM128 600q-15 0 -25 10t-10 25t10 25t25 10t25 -10t10 -25t-10 -25t-25 -10z" />
    <glyph glyph-name="afii10104" unicode="&#x457;" horiz-adv-x="256" 
d="M106 500h44v-500h-44v500zM29 600q-15 0 -25 10t-10 25t10 25.5t25 10.5t25 -10.5t10 -25.5t-10 -25t-25 -10zM229 600q-15 0 -25 10t-10 25t10 25.5t25 10.5t25 -10.5t10 -25.5t-10 -25t-25 -10z" />
    <glyph glyph-name="afii10105" unicode="&#x458;" horiz-adv-x="256" 
d="M-10 -158h36q42 0 61 24t19 89v545h44v-545q0 -86 -30.5 -120.5t-93.5 -34.5h-36v42zM128 600q-15 0 -25 10t-10 25t10 25t25 10t25 -10t10 -25t-10 -25t-25 -10z" />
    <glyph glyph-name="afii10106" unicode="&#x459;" horiz-adv-x="800" 
d="M25 36h15q19 0 35.5 9t28.5 35t19 73t7 123v224h315v-190h120q98 0 144 -41.5t46 -113.5t-46 -113.5t-144 -41.5h-164v460h-227v-184q0 -86 -9.5 -141t-27 -86.5t-42 -43t-55.5 -11.5h-15v42zM445 270v-230h120q77 0 110.5 30.5t33.5 84.5q0 55 -33.5 85t-110.5 30h-120z
" />
    <glyph glyph-name="afii10107" unicode="&#x45a;" horiz-adv-x="820" 
d="M426 255h-287v-255h-44v500h44v-205h287v205h44v-205h125q95 0 137.5 -38.5t42.5 -108.5t-43 -109t-137 -39h-169v255zM470 255v-215h125q73 0 103.5 27t30.5 81q0 52 -31 79.5t-103 27.5h-125z" />
    <glyph glyph-name="afii10108" unicode="&#x45b;" horiz-adv-x="575" 
d="M441 275q0 80 -37.5 119.5t-103.5 39.5q-35 0 -64 -11t-50 -31.5t-33.5 -48.5t-13.5 -61v-282h-44v541h-95v38h95v121h44v-121h166v-38h-166v-154q25 42 68 65.5t100 23.5q82 0 130 -50.5t48 -150.5v-275h-44v275z" />
    <glyph glyph-name="afii10109" unicode="&#x45c;" horiz-adv-x="510" 
d="M250 240h-111v-240h-44v500h44v-220h110l152 220h54l-168 -240l188 -260h-54zM365 710h60l-130 -150h-50z" />
    <glyph glyph-name="uni045D" unicode="&#x45d;" horiz-adv-x="565" 
d="M265 -6q-80 0 -127.5 50.5t-47.5 150.5v305h44v-305q0 -80 37 -119.5t100 -39.5q33 0 61.5 12t49.5 33t32.5 50t11.5 64v305h44v-500h-36l-5 88q-23 -45 -66 -69.5t-98 -24.5zM125 710h60l120 -150h-50z" />
    <glyph glyph-name="afii10110" unicode="&#x45e;" horiz-adv-x="520" 
d="M245 -1l-210 501h48l185 -447l171 447h46l-270 -700h-46zM261 564q-60 0 -95 35.5t-35 100.5h44q0 -51 23 -75.5t63 -24.5q41 0 64.5 24.5t23.5 75.5h42q0 -65 -35 -100.5t-95 -35.5z" />
    <glyph glyph-name="afii10193" unicode="&#x45f;" horiz-adv-x="560" 
d="M95 500h44v-460h282v460h44v-500h-163v-130h-44v130h-163v500z" />
    <glyph glyph-name="afii10146" unicode="&#x462;" horiz-adv-x="635" 
d="M20 580h115v120h46v-120h189v-40h-189v-116h164q120 0 180 -56.5t60 -155.5q0 -101 -59.5 -156.5t-180.5 -55.5h-210v540h-115v40zM181 382v-340h164q99 0 145.5 44t46.5 126q0 81 -47.5 125.5t-144.5 44.5h-164z" />
    <glyph glyph-name="afii10194" unicode="&#x463;" horiz-adv-x="540" 
d="M20 500h115v200h44v-200h171v-40h-171v-150h126q98 0 144 -41.5t46 -113.5t-46 -113.5t-144 -41.5h-170v460h-115v40zM179 270v-230h126q77 0 110.5 30t33.5 85t-33.5 85t-110.5 30h-126z" />
    <glyph glyph-name="afii10147" unicode="&#x472;" horiz-adv-x="710" 
d="M355 -6q-60 0 -111 22t-88.5 63.5t-59 101t-21.5 134.5v70q0 75 21.5 134.5t59 101t89 63.5t110.5 22q60 0 111 -22t88.5 -63.5t59 -101t21.5 -134.5v-70q0 -75 -21.5 -134.5t-59 -101t-89 -63.5t-110.5 -22zM355 38q49 0 91 18.5t73.5 54t49.5 87t18 117.5v11
q-2 -2 -12 -7.5t-25.5 -11.5t-34.5 -10.5t-39 -4.5q-41 0 -70.5 11t-55.5 24.5t-53 25t-62 11.5q-20 0 -39 -5t-34.5 -11.5t-26 -12.5t-12.5 -7v-13q0 -65 18 -116.5t49.5 -87t74 -54.5t90.5 -19zM476 336q19 0 38 5t34.5 11.5t25.5 12t13 7.5v13q0 65 -18 116.5t-49.5 87
t-74 54.5t-90.5 19q-49 0 -91 -18.5t-73.5 -54t-49.5 -87t-18 -117.5v-12q2 1 12 6.5t25.5 12t34.5 11.5t40 5q41 0 71 -11.5t56 -25t52.5 -24.5t61.5 -11z" />
    <glyph glyph-name="afii10195" unicode="&#x473;" horiz-adv-x="550" 
d="M275 -6q-47 0 -86 15.5t-66.5 45t-42.5 72.5t-15 98v50q0 55 15 98t43 72.5t66.5 45t85.5 15.5t86 -15.5t66.5 -45t42.5 -72.5t15 -98v-50q0 -55 -15 -98t-43 -72.5t-66.5 -45t-85.5 -15.5zM361 246q15 0 28 3.5t23.5 7.5t17.5 8t9 6v4q0 91 -46 140t-118 49
q-73 0 -118.5 -48.5t-45.5 -140.5v-2l25 12.5t53 10.5q29 0 50.5 -8t40.5 -17t38 -17t43 -8zM275 36q73 0 118.5 48.5t45.5 140.5v2q-4 -3 -25.5 -13t-52.5 -10q-29 0 -50.5 8t-40.5 17t-38 17t-43 8q-30 0 -51.5 -11t-26.5 -14v-4q0 -91 46 -140t118 -49z" />
    <glyph glyph-name="afii10148" unicode="&#x474;" horiz-adv-x="710" 
d="M40 700h52l252 -647l166 523q13 40 27 65.5t32 40t41.5 19.5t54.5 5h45v-43h-45q-23 0 -39.5 -4t-29 -13.5t-22 -26.5t-17.5 -43l-182 -576h-60z" />
    <glyph glyph-name="afii10196" unicode="&#x475;" horiz-adv-x="555" 
d="M35 500h48l176 -444l101 320q13 40 26.5 65.5t31 40t38.5 19.5t49 5h40v-41h-40q-20 0 -34.5 -4t-26.5 -13.5t-21.5 -27t-18.5 -44.5l-119 -376h-50z" />
    <glyph glyph-name="afii10050" unicode="&#x490;" horiz-adv-x="515" 
d="M100 700h339v120h46v-162h-339v-658h-46v700z" />
    <glyph glyph-name="afii10098" unicode="&#x491;" horiz-adv-x="430" 
d="M95 500h261v100h44v-140h-261v-460h-44v500z" />
    <glyph glyph-name="uni0492" unicode="&#x492;" horiz-adv-x="540" 
d="M20 355h105v345h385v-42h-339v-303h169v-40h-169v-315h-46v315h-105v40z" />
    <glyph glyph-name="uni0493" unicode="&#x493;" horiz-adv-x="450" 
d="M20 259h95v241h305v-40h-261v-201h131v-38h-131v-221h-44v221h-95v38z" />
    <glyph glyph-name="uni0496" unicode="&#x496;" horiz-adv-x="945" 
d="M613 339h-130v-339h-46v339h-130l-207 -339h-55l222 360l-202 340h54l188 -319h130v319h46v-319h130l189 319h53l-202 -338l196 -320h76v-192h-45v150h-61z" />
    <glyph glyph-name="uni0497" unicode="&#x497;" horiz-adv-x="760" 
d="M491 240h-109v-240h-44v240h-110l-141 -240h-52l154 258l-134 242h53l120 -220h110v220h44v-220h109l123 220h51l-135 -239l130 -220h80v-171h-44v130h-65z" />
    <glyph glyph-name="uni0498" unicode="&#x498;" horiz-adv-x="595" 
d="M272 -5q-93 8 -146.5 63.5t-60.5 146.5h48q8 -79 56 -123t131 -44q87 0 132 42t45 110q0 66 -44 107.5t-133 41.5h-85v42h85q39 0 69 11t50.5 29.5t31.5 44t11 55.5q0 64 -41 102.5t-121 38.5q-78 0 -120.5 -39t-51.5 -108h-48q8 88 63 139.5t157 51.5t156 -51t54 -134
q0 -53 -30 -95.5t-84 -63.5q64 -20 96.5 -65.5t32.5 -106.5q0 -83 -53.5 -136.5t-153.5 -58.5v-135h-46v135z" />
    <glyph glyph-name="uni0499" unicode="&#x499;" horiz-adv-x="485" 
d="M240 506q81 0 123 -38.5t42 -97.5q0 -37 -19 -66.5t-56 -46.5q45 -17 67.5 -49t22.5 -73q0 -58 -41 -97t-122 -43v-125h-44v125q-77 6 -116.5 45.5t-46.5 99.5h46q8 -47 41.5 -75.5t102.5 -28.5t101.5 28t32.5 71t-32.5 71t-101.5 28h-55v42h55q60 0 89.5 26.5t29.5 67.5
t-29.5 67.5t-89.5 26.5t-90.5 -26.5t-38.5 -67.5h-46q8 59 51 97.5t124 38.5z" />
    <glyph glyph-name="uni049A" unicode="&#x49a;" horiz-adv-x="655" 
d="M275 339h-129v-339h-46v700h46v-319h130l236 319h58l-254 -338l242 -320h77v-192h-45v150h-60z" />
    <glyph glyph-name="uni049B" unicode="&#x49b;" horiz-adv-x="545" 
d="M250 240h-111v-240h-44v500h44v-220h110l152 220h54l-168 -240l158 -219h80v-171h-44v130h-60z" />
    <glyph glyph-name="uni049C" unicode="&#x49c;" horiz-adv-x="705" 
d="M233 339h-87v-339h-46v700h46v-319h87v124h44v-124h69l236 319h58l-254 -338l274 -362h-60l-255 339h-68v-114h-44v114z" />
    <glyph glyph-name="uni049D" unicode="&#x49d;" horiz-adv-x="580" 
d="M218 240h-79v-240h-44v500h44v-220h79v100h42v-100h59l152 220h54l-168 -240l188 -260h-54l-171 240h-60v-90h-42v90z" />
    <glyph glyph-name="uni04A0" unicode="&#x4a0;" horiz-adv-x="750" 
d="M30 700h231v-319h130l236 319h58l-254 -338l274 -362h-60l-255 339h-129v-339h-46v658h-185v42z" />
    <glyph glyph-name="uni04A1" unicode="&#x4a1;" horiz-adv-x="585" 
d="M20 500h194v-220h110l152 220h54l-168 -240l188 -260h-54l-171 240h-111v-240h-44v460h-150v40z" />
    <glyph glyph-name="uni04A2" unicode="&#x4a2;" horiz-adv-x="735" 
d="M564 339h-418v-339h-46v700h46v-319h418v319h46v-658h95v-192h-45v150h-96v339z" />
    <glyph glyph-name="uni04A3" unicode="&#x4a3;" horiz-adv-x="595" 
d="M441 235h-302v-235h-44v500h44v-225h302v225h44v-459h85v-171h-44v130h-85v235z" />
    <glyph glyph-name="uni04A4" unicode="&#x4a4;" horiz-adv-x="975" 
d="M564 339h-418v-339h-46v700h46v-319h418v319h381v-42h-335v-658h-46v339z" />
    <glyph glyph-name="uni04A5" unicode="&#x4a5;" horiz-adv-x="770" 
d="M436 235h-297v-235h-44v500h44v-225h297v225h304v-40h-260v-460h-44v235z" />
    <glyph glyph-name="uni04AA" unicode="&#x4aa;" horiz-adv-x="670" 
d="M327 -5q-55 4 -101.5 27.5t-80 64t-52 98t-18.5 130.5v70q0 76 20.5 136t57.5 101t87.5 62.5t109.5 21.5q53 0 96.5 -16t76.5 -43t53.5 -61.5t28.5 -70.5h-50q-8 28 -25 54t-43 46.5t-60.5 33t-76.5 12.5q-49 0 -90.5 -18t-72 -53t-47.5 -86.5t-17 -118.5v-70
q0 -67 17 -118.5t47.5 -86.5t72 -53t90.5 -18q42 0 76.5 13t60.5 35.5t43 52.5t25 65h50q-7 -42 -26 -79t-48.5 -65t-69.5 -45.5t-88 -20.5v-145h-46v145z" />
    <glyph glyph-name="uni04AB" unicode="&#x4ab;" horiz-adv-x="505" 
d="M248 -5q-41 4 -74.5 21t-57.5 46.5t-37.5 70.5t-13.5 92v50q0 54 15.5 97t42.5 73t64.5 45.5t82.5 15.5q38 0 69 -11t54 -30t38.5 -43.5t23.5 -51.5h-48q-15 38 -48.5 66t-88.5 28q-34 0 -63 -12.5t-50.5 -36.5t-33.5 -59.5t-12 -80.5v-50q0 -45 12 -80.5t33.5 -59.5
t50.5 -36.5t63 -12.5q57 0 89.5 28.5t47.5 75.5h48q-14 -59 -54.5 -99t-108.5 -46v-125h-44v125z" />
    <glyph glyph-name="uni04AE" unicode="&#x4ae;" horiz-adv-x="650" 
d="M307 265l-267 435h54l236 -387l228 387h52l-257 -435v-265h-46v265z" />
    <glyph glyph-name="uni04AF" unicode="&#x4af;" horiz-adv-x="510" 
d="M239 0l-204 500h48l178 -443l168 443h46l-193 -500v-200h-43v200z" />
    <glyph glyph-name="uni04B0" unicode="&#x4b0;" horiz-adv-x="650" 
d="M150 265h157l-267 435h54l236 -387l228 387h52l-257 -435h147v-40h-147v-225h-46v225h-157v40z" />
    <glyph glyph-name="uni04B1" unicode="&#x4b1;" horiz-adv-x="510" 
d="M110 0h129l-204 500h48l178 -443l168 443h46l-193 -500h128v-38h-128v-162h-43v162h-129v38z" />
    <glyph glyph-name="uni04B2" unicode="&#x4b2;" horiz-adv-x="675" 
d="M324 328l-223 -328h-56l251 364l-231 336h56l204 -299l205 299h55l-231 -334l222 -324h79v-192h-45v150h-62z" />
    <glyph glyph-name="uni04B3" unicode="&#x4b3;" horiz-adv-x="535" 
d="M249 226l-162 -226h-52l187 261l-171 239h52l147 -204l148 204h51l-171 -238l157 -221h80v-171h-44v130h-59z" />
    <glyph glyph-name="uni04B6" unicode="&#x4b6;" horiz-adv-x="655" 
d="M484 293q-26 -7 -76.5 -15.5t-107.5 -8.5q-62 0 -105.5 13t-71 40.5t-40.5 71.5t-13 106v200h46v-200q0 -51 10 -87t32.5 -58.5t57 -33t84.5 -10.5q57 0 107 8.5t77 15.5v365h46v-658h95v-192h-45v150h-96v293z" />
    <glyph glyph-name="uni04B7" unicode="&#x4b7;" horiz-adv-x="535" 
d="M381 198q-20 -6 -55 -12t-81 -6q-96 0 -138 40.5t-42 129.5v150h44v-150q0 -71 30.5 -100.5t105.5 -29.5q45 0 80.5 6t55.5 12v262h44v-459h85v-171h-44v130h-85v198z" />
    <glyph glyph-name="uni04B8" unicode="&#x4b8;" horiz-adv-x="630" 
d="M484 293q-24 -6 -67.5 -14t-94.5 -10v-114h-44v114q-56 2 -95 16.5t-64.5 42t-37 70.5t-11.5 102v200h46v-200q0 -97 37.5 -141t124.5 -48v124h44v-124q51 2 94 10t68 14v365h46v-700h-46v293z" />
    <glyph glyph-name="uni04B9" unicode="&#x4b9;" horiz-adv-x="520" 
d="M381 198q-17 -5 -47 -10.5t-68 -7.5v-90h-42v90q-85 5 -122 45t-37 125v150h44v-150q0 -66 26 -96t89 -34v100h42v-100q38 2 67.5 7.5t47.5 10.5v262h44v-500h-44v198z" />
    <glyph glyph-name="uni04BA" unicode="&#x4ba;" horiz-adv-x="615" 
d="M479 230q0 93 -42 137.5t-120 44.5q-77 0 -123 -45.5t-48 -128.5v-238h-46v700h46v-341q26 47 72 72t109 25q93 0 145.5 -56t52.5 -170v-230h-46v230z" />
    <glyph glyph-name="uni04BB" unicode="&#x4bb;" horiz-adv-x="575" 
d="M95 700h44v-283q25 42 68 65.5t100 23.5q82 0 130 -50.5t48 -150.5v-305h-44v305q0 80 -37.5 119.5t-103.5 39.5q-35 0 -64 -11t-50 -31.5t-33.5 -48.5t-13.5 -61v-312h-44v700z" />
    <glyph glyph-name="uni04C0" unicode="&#x4c0;" horiz-adv-x="270" 
d="M112 700h46v-700h-46v700z" />
    <glyph glyph-name="uni04C1" unicode="&#x4c1;" horiz-adv-x="920" 
d="M613 339h-130v-339h-46v339h-130l-207 -339h-55l222 360l-202 340h54l188 -319h130v319h46v-319h130l189 319h53l-202 -338l222 -362h-56zM460 764q-68 0 -104 35.5t-36 100.5h46q0 -98 94 -98q96 0 96 98h44q0 -65 -36 -100.5t-104 -35.5z" />
    <glyph glyph-name="uni04C2" unicode="&#x4c2;" horiz-adv-x="720" 
d="M491 240h-109v-240h-44v240h-110l-141 -240h-52l154 258l-134 242h53l120 -220h110v220h44v-220h109l123 220h51l-135 -239l155 -261h-54zM360 564q-60 0 -95 35.5t-35 100.5h44q0 -51 23 -75.5t63 -24.5q41 0 64.5 24.5t23.5 75.5h42q0 -65 -35 -100.5t-95 -35.5z" />
    <glyph glyph-name="uni04C7" unicode="&#x4c7;" horiz-adv-x="710" 
d="M450 -156h36q40 0 59 24t19 87v384h-418v-339h-46v700h46v-319h418v319h46v-745q0 -86 -30.5 -120.5t-93.5 -34.5h-36v44z" />
    <glyph glyph-name="uni04C8" unicode="&#x4c8;" horiz-adv-x="580" 
d="M325 -158h36q42 0 61 24t19 89v280h-302v-235h-44v500h44v-225h302v225h44v-545q0 -86 -30.5 -120.5t-93.5 -34.5h-36v42z" />
    <glyph glyph-name="uni04CF" unicode="&#x4cf;" horiz-adv-x="256" 
d="M106 700h44v-700h-44v700z" />
    <glyph glyph-name="uni04D2" unicode="&#x4d2;" horiz-adv-x="650" 
d="M486 214h-324l-79 -214h-48l260 700h60l260 -700h-50zM177 256h293l-146 397l-65 -177zM215 800q-15 0 -25 10t-10 25t10 25t25 10t25 -10t10 -25t-10 -25t-25 -10zM435 800q-15 0 -25 10t-10 25t10 25t25 10t25 -10t10 -25t-10 -25t-25 -10z" />
    <glyph glyph-name="uni04D3" unicode="&#x4d3;" horiz-adv-x="520" 
d="M210 -6q-72 0 -111 37.5t-39 102.5q0 69 47 110t153 41h126v55q0 64 -30 94t-96 30q-63 0 -92.5 -25.5t-33.5 -68.5h-44q4 61 45.5 98.5t124.5 37.5q170 0 170 -166v-340h-36l-6 105q-26 -52 -73 -81.5t-105 -29.5zM210 36q35 0 66.5 13t55.5 36.5t38 54.5t16 67v38h-126
q-83 0 -118.5 -30t-35.5 -81q0 -45 27 -71.5t77 -26.5zM155 600q-15 0 -25 10t-10 25t10 25.5t25 10.5t25 -10.5t10 -25.5t-10 -25t-25 -10zM355 600q-15 0 -25 10t-10 25t10 25.5t25 10.5t25 -10.5t10 -25.5t-10 -25t-25 -10z" />
    <glyph glyph-name="uni04D4" unicode="&#x4d4;" horiz-adv-x="930" 
d="M450 700h425v-42h-359v-277h299v-42h-299v-297h359v-42h-405v214h-260l-128 -214h-52zM470 256v393l-235 -393h235z" />
    <glyph glyph-name="uni04D5" unicode="&#x4d5;" horiz-adv-x="855" 
d="M210 -6q-72 0 -111 37.5t-39 102.5q0 67 47.5 106.5t158.5 39.5h120v60q0 64 -30 94t-96 30q-63 0 -92.5 -25.5t-33.5 -68.5h-44q4 61 45.5 98.5t124.5 37.5q128 0 160 -95q26 45 69.5 70t97.5 25q45 0 82.5 -15.5t64 -44.5t41.5 -72.5t15 -98.5v-35h-360v-15
q0 -44 12.5 -79t33.5 -59.5t49.5 -37.5t61.5 -13q67 0 100.5 27.5t48.5 76.5h46q-15 -65 -62 -105.5t-133 -40.5q-63 0 -111.5 34.5t-71.5 96.5q-23 -60 -75 -95.5t-119 -35.5zM587 464q-33 0 -61.5 -12t-49.5 -35t-33 -56.5t-13 -76.5v-4h314q-2 91 -45.5 137.5
t-111.5 46.5zM210 36q33 0 63 12t54 33t39.5 50.5t19.5 64.5v44h-120q-44 0 -74 -8t-49.5 -22t-28 -33.5t-8.5 -42.5q0 -45 27 -71.5t77 -26.5z" />
    <glyph glyph-name="uni04D8" unicode="&#x4d8;" horiz-adv-x="710" 
d="M355 -6q-60 0 -111.5 21.5t-89 63t-58.5 101t-21 135.5v54h512v16q0 66 -17.5 118t-49 87t-74 53.5t-91.5 18.5q-48 0 -84.5 -14.5t-62 -36t-41.5 -47.5t-25 -49h-51q9 29 28 62.5t51 62t77.5 47.5t107.5 19q60 0 111.5 -21.5t89 -63t58.5 -101t21 -135.5v-70
q0 -76 -21.5 -135.5t-59 -101t-88.5 -63t-111 -21.5zM355 38q50 0 92.5 18t73.5 53.5t48.5 87t17.5 118.5v11h-464v-11q0 -66 18 -118t49 -87t73.5 -53.5t91.5 -18.5z" />
    <glyph glyph-name="afii10846" unicode="&#x4d9;" horiz-adv-x="540" 
d="M270 -6q-46 0 -83.5 15.5t-64.5 44.5t-42 72t-15 99v35h364v15q0 94 -44 141.5t-115 47.5q-33 0 -58 -7.5t-43 -20.5t-30.5 -30t-19.5 -36h-46q7 27 23 51.5t40.5 43.5t58 30t75.5 11q46 0 83.5 -15.5t64.5 -44.5t42 -72.5t15 -98.5v-50q0 -56 -15 -99t-42 -72
t-64.5 -44.5t-83.5 -15.5zM270 36q69 0 113 46.5t46 137.5h-318q2 -91 45.5 -137.5t113.5 -46.5z" />
    <glyph glyph-name="uni04E2" unicode="&#x4e2;" horiz-adv-x="710" 
d="M564 649l-58 -99l-344 -550h-62v700h46v-649l58 99l344 550h62v-700h-46v649zM215 855h280v-40h-280v40z" />
    <glyph glyph-name="uni04E3" unicode="&#x4e3;" horiz-adv-x="580" 
d="M441 445l-61 -95l-229 -350h-56v500h44v-446l61 96l229 350h56v-500h-44v445zM160 654h260v-38h-260v38z" />
    <glyph glyph-name="uni04E6" unicode="&#x4e6;" horiz-adv-x="710" 
d="M355 -6q-60 0 -111 22t-88.5 63.5t-59 101t-21.5 134.5v70q0 75 21.5 134.5t59 101t89 63.5t110.5 22q60 0 111 -22t88.5 -63.5t59 -101t21.5 -134.5v-70q0 -75 -21.5 -134.5t-59 -101t-89 -63.5t-110.5 -22zM355 38q49 0 91 18.5t73.5 54t49.5 87t18 117.5v70
q0 65 -18 116.5t-49.5 87t-74 54.5t-90.5 19q-49 0 -91 -18.5t-73.5 -54t-49.5 -87t-18 -117.5v-70q0 -65 18 -116.5t49.5 -87t74 -54.5t90.5 -19zM245 800q-15 0 -25 10t-10 25t10 25t25 10t25 -10t10 -25t-10 -25t-25 -10zM465 800q-15 0 -25 10t-10 25t10 25t25 10
t25 -10t10 -25t-10 -25t-25 -10z" />
    <glyph glyph-name="uni04E7" unicode="&#x4e7;" horiz-adv-x="550" 
d="M275 -6q-47 0 -86 15.5t-66.5 45t-42.5 72.5t-15 98v50q0 55 15 98t43 72.5t66.5 45t85.5 15.5t86 -15.5t66.5 -45t42.5 -72.5t15 -98v-50q0 -55 -15 -98t-43 -72.5t-66.5 -45t-85.5 -15.5zM275 36q73 0 118.5 48.5t45.5 140.5v50q0 91 -46 140t-118 49
q-73 0 -118.5 -48.5t-45.5 -140.5v-50q0 -91 46 -140t118 -49zM175 600q-15 0 -25 10t-10 25t10 25.5t25 10.5t25 -10.5t10 -25.5t-10 -25t-25 -10zM375 600q-15 0 -25 10t-10 25t10 25.5t25 10.5t25 -10.5t10 -25.5t-10 -25t-25 -10z" />
    <glyph glyph-name="uni04E8" unicode="&#x4e8;" horiz-adv-x="710" 
d="M355 -6q-60 0 -111 22t-88.5 63.5t-59 101t-21.5 134.5v70q0 75 21.5 134.5t59 101t89 63.5t110.5 22q60 0 111 -22t88.5 -63.5t59 -101t21.5 -134.5v-70q0 -75 -21.5 -134.5t-59 -101t-89 -63.5t-110.5 -22zM123 371h464v14q0 65 -18 116.5t-49.5 87t-74 54.5t-90.5 19
q-49 0 -91 -18.5t-73.5 -54t-49.5 -87t-18 -117.5v-14zM355 38q49 0 91 18.5t73.5 54t49.5 87t18 117.5v14h-464v-14q0 -65 18 -116.5t49.5 -87t74 -54.5t90.5 -19z" />
    <glyph glyph-name="uni04E9" unicode="&#x4e9;" horiz-adv-x="550" 
d="M275 -6q-47 0 -86 15.5t-66.5 45t-42.5 72.5t-15 98v50q0 55 15 98t43 72.5t66.5 45t85.5 15.5t86 -15.5t66.5 -45t42.5 -72.5t15 -98v-50q0 -55 -15 -98t-43 -72.5t-66.5 -45t-85.5 -15.5zM111 270h328v5q0 91 -46 140t-118 49q-73 0 -118.5 -48.5t-45.5 -140.5v-5z
M275 36q73 0 118.5 48.5t45.5 140.5v5h-328v-5q0 -91 46 -140t118 -49z" />
    <glyph glyph-name="uni04EE" unicode="&#x4ee;" horiz-adv-x="610" 
d="M295 201l-255 499h54l226 -447l198 447h52l-313 -700h-52zM166 855h280v-40h-280v40z" />
    <glyph glyph-name="uni04EF" unicode="&#x4ef;" horiz-adv-x="520" 
d="M245 -1l-210 501h48l185 -447l171 447h46l-270 -700h-46zM131 654h260v-38h-260v38z" />
    <glyph glyph-name="uni04F0" unicode="&#x4f0;" horiz-adv-x="610" 
d="M295 201l-255 499h54l226 -447l198 447h52l-313 -700h-52zM196 800q-15 0 -25 10t-10 25t10 25t25 10t25 -10t10 -25t-10 -25t-25 -10zM416 800q-15 0 -25 10t-10 25t10 25t25 10t25 -10t10 -25t-10 -25t-25 -10z" />
    <glyph glyph-name="uni04F1" unicode="&#x4f1;" horiz-adv-x="520" 
d="M245 -1l-210 501h48l185 -447l171 447h46l-270 -700h-46zM161 600q-15 0 -25 10t-10 25t10 25.5t25 10.5t25 -10.5t10 -25.5t-10 -25t-25 -10zM361 600q-15 0 -25 10t-10 25t10 25.5t25 10.5t25 -10.5t10 -25.5t-10 -25t-25 -10z" />
    <glyph glyph-name="uni1E9E" unicode="&#x1e9e;" horiz-adv-x="610" 
d="M95 500q0 46 14.5 84t41 65t62 42t77.5 15q82 0 133.5 -51t66.5 -133l-104 -112q52 -39 85 -69t51.5 -56.5t25.5 -52.5t7 -57q0 -37 -13.5 -69t-39 -55.5t-61.5 -37t-81 -13.5h-120v42h120q33 0 60.5 10t46.5 28t29.5 42.5t10.5 52.5q0 25 -5.5 47t-23 46t-50.5 52.5
t-88 66.5v36l99 108q-14 60 -51.5 95.5t-97.5 35.5q-65 0 -107 -43.5t-42 -118.5v-500h-46v500z" />
    <glyph glyph-name="Ygrave" unicode="&#x1ef2;" horiz-adv-x="650" 
d="M307 265l-267 435h54l236 -387l228 387h52l-257 -435v-265h-46v265zM172 910h62l118 -150h-52z" />
    <glyph glyph-name="ygrave" unicode="&#x1ef3;" horiz-adv-x="520" 
d="M245 -1l-210 501h48l185 -447l171 447h46l-270 -700h-46zM106 710h60l120 -150h-50z" />
    <glyph glyph-name="uni2010" unicode="&#x2010;" horiz-adv-x="400" 
d="M55 281h290v-42h-290v42z" />
    <glyph glyph-name="uni2011" unicode="&#x2011;" horiz-adv-x="400" 
d="M55 281h290v-42h-290v42z" />
    <glyph glyph-name="figuredash" unicode="&#x2012;" 
d="M55 341h480v-42h-480v42z" />
    <glyph glyph-name="endash" unicode="&#x2013;" 
d="M55 281h480v-42h-480v42z" />
    <glyph glyph-name="emdash" unicode="&#x2014;" horiz-adv-x="700" 
d="M55 281h590v-42h-590v42z" />
    <glyph glyph-name="afii00208" unicode="&#x2015;" horiz-adv-x="700" 
d="M55 281h590v-42h-590v42z" />
    <glyph glyph-name="quoteleft" unicode="&#x2018;" horiz-adv-x="250" 
d="M126 485h-56l71 215h39z" />
    <glyph glyph-name="quoteright" unicode="&#x2019;" horiz-adv-x="250" 
d="M124 701h56l-71 -215h-39z" />
    <glyph glyph-name="quotesinglbase" unicode="&#x201a;" horiz-adv-x="250" 
d="M109 65h56l-71 -215h-39z" />
    <glyph glyph-name="quotedblleft" unicode="&#x201c;" horiz-adv-x="420" 
d="M296 485h-56l71 215h39zM126 485h-56l71 215h39z" />
    <glyph glyph-name="quotedblright" unicode="&#x201d;" horiz-adv-x="420" 
d="M294 701h56l-71 -215h-39zM124 701h56l-71 -215h-39z" />
    <glyph glyph-name="quotedblbase" unicode="&#x201e;" horiz-adv-x="420" 
d="M279 65h56l-71 -215h-39zM109 65h56l-71 -215h-39z" />
    <glyph glyph-name="dagger" unicode="&#x2020;" horiz-adv-x="460" 
d="M35 500h172v200h46v-200h172v-42h-172v-658h-46v658h-172v42z" />
    <glyph glyph-name="daggerdbl" unicode="&#x2021;" horiz-adv-x="460" 
d="M35 500h172v200h46v-200h172v-42h-172v-416h172v-42h-172v-200h-46v200h-172v42h172v416h-172v42z" />
    <glyph glyph-name="bullet" unicode="&#x2022;" horiz-adv-x="450" 
d="M225 161q-20 0 -38 8t-31.5 21.5t-21.5 31.5t-8 38t8 38t21.5 31.5t31.5 21.5t38 8t38 -8t31.5 -21.5t21.5 -31.5t8 -38t-8 -38t-21.5 -31.5t-31.5 -21.5t-38 -8z" />
    <glyph glyph-name="uni2023" unicode="&#x2023;" horiz-adv-x="450" 
d="M138 386l203 -126l-203 -126v252z" />
    <glyph glyph-name="onedotenleader" unicode="&#x2024;" horiz-adv-x="250" 
d="M125 -6q-17 0 -28.5 11.5t-11.5 28.5t11.5 28.5t28.5 11.5t28.5 -11.5t11.5 -28.5t-11.5 -28.5t-28.5 -11.5z" />
    <glyph glyph-name="twodotenleader" unicode="&#x2025;" horiz-adv-x="555" 
d="M125 -6q-17 0 -28.5 11.5t-11.5 28.5t11.5 28.5t28.5 11.5t28.5 -11.5t11.5 -28.5t-11.5 -28.5t-28.5 -11.5zM430 -6q-17 0 -28.5 11.5t-11.5 28.5t11.5 28.5t28.5 11.5t28.5 -11.5t11.5 -28.5t-11.5 -28.5t-28.5 -11.5z" />
    <glyph glyph-name="ellipsis" unicode="&#x2026;" horiz-adv-x="860" 
d="M125 -6q-17 0 -28.5 11.5t-11.5 28.5t11.5 28.5t28.5 11.5t28.5 -11.5t11.5 -28.5t-11.5 -28.5t-28.5 -11.5zM430 -6q-17 0 -28.5 11.5t-11.5 28.5t11.5 28.5t28.5 11.5t28.5 -11.5t11.5 -28.5t-11.5 -28.5t-28.5 -11.5zM735 -6q-17 0 -28.5 11.5t-11.5 28.5t11.5 28.5
t28.5 11.5t28.5 -11.5t11.5 -28.5t-11.5 -28.5t-28.5 -11.5z" />
    <glyph glyph-name="uni2027" unicode="&#x2027;" horiz-adv-x="250" 
d="M125 220q-17 0 -28.5 11.5t-11.5 28.5t11.5 28.5t28.5 11.5t28.5 -11.5t11.5 -28.5t-11.5 -28.5t-28.5 -11.5z" />
    <glyph glyph-name="perthousand" unicode="&#x2030;" horiz-adv-x="1300" 
d="M215 344q-34 0 -62.5 11.5t-49 32.5t-32 51t-11.5 66v40q0 36 11.5 66t32 51t49 32.5t62.5 11.5t62.5 -11.5t49 -32.5t32 -51t11.5 -66v-40q0 -36 -11.5 -66t-32 -51t-49 -32.5t-62.5 -11.5zM215 386q49 0 80 32t31 87v40q0 55 -31 87t-80 32t-80 -32t-31 -87v-40
q0 -55 31 -87t80 -32zM685 -6q-34 0 -62.5 11.5t-49 32.5t-32 51t-11.5 66v40q0 36 11.5 66t32 51t49 32.5t62.5 11.5t62.5 -11.5t49 -32.5t32 -51t11.5 -66v-40q0 -36 -11.5 -66t-32 -51t-49 -32.5t-62.5 -11.5zM685 36q49 0 80 32t31 87v40q0 55 -31 87t-80 32t-80 -32
t-31 -87v-40q0 -55 31 -87t80 -32zM1085 -6q-34 0 -62.5 11.5t-49 32.5t-32 51t-11.5 66v40q0 36 11.5 66t32 51t49 32.5t62.5 11.5t62.5 -11.5t49 -32.5t32 -51t11.5 -66v-40q0 -36 -11.5 -66t-32 -51t-49 -32.5t-62.5 -11.5zM1085 36q49 0 80 32t31 87v40q0 55 -31 87
t-80 32t-80 -32t-31 -87v-40q0 -55 31 -87t80 -32zM632 700h48l-412 -700h-48z" />
    <glyph glyph-name="uni2031" unicode="&#x2031;" horiz-adv-x="1700" 
d="M215 344q-34 0 -62.5 11.5t-49 32.5t-32 51t-11.5 66v40q0 36 11.5 66t32 51t49 32.5t62.5 11.5t62.5 -11.5t49 -32.5t32 -51t11.5 -66v-40q0 -36 -11.5 -66t-32 -51t-49 -32.5t-62.5 -11.5zM215 386q49 0 80 32t31 87v40q0 55 -31 87t-80 32t-80 -32t-31 -87v-40
q0 -55 31 -87t80 -32zM685 -6q-34 0 -62.5 11.5t-49 32.5t-32 51t-11.5 66v40q0 36 11.5 66t32 51t49 32.5t62.5 11.5t62.5 -11.5t49 -32.5t32 -51t11.5 -66v-40q0 -36 -11.5 -66t-32 -51t-49 -32.5t-62.5 -11.5zM685 36q49 0 80 32t31 87v40q0 55 -31 87t-80 32t-80 -32
t-31 -87v-40q0 -55 31 -87t80 -32zM1085 -6q-34 0 -62.5 11.5t-49 32.5t-32 51t-11.5 66v40q0 36 11.5 66t32 51t49 32.5t62.5 11.5t62.5 -11.5t49 -32.5t32 -51t11.5 -66v-40q0 -36 -11.5 -66t-32 -51t-49 -32.5t-62.5 -11.5zM1085 36q49 0 80 32t31 87v40q0 55 -31 87
t-80 32t-80 -32t-31 -87v-40q0 -55 31 -87t80 -32zM1485 -6q-34 0 -62.5 11.5t-49 32.5t-32 51t-11.5 66v40q0 36 11.5 66t32 51t49 32.5t62.5 11.5t62.5 -11.5t49 -32.5t32 -51t11.5 -66v-40q0 -36 -11.5 -66t-32 -51t-49 -32.5t-62.5 -11.5zM1485 36q49 0 80 32t31 87v40
q0 55 -31 87t-80 32t-80 -32t-31 -87v-40q0 -55 31 -87t80 -32zM632 700h48l-412 -700h-48z" />
    <glyph glyph-name="guilsinglleft" unicode="&#x2039;" horiz-adv-x="300" 
d="M177 460h48l-121 -199l121 -201h-50l-120 199z" />
    <glyph glyph-name="guilsinglright" unicode="&#x203a;" horiz-adv-x="300" 
d="M123.021 60.0566h-47.9941l120.985 198.976l-120.985 200.976h49.9941l119.985 -198.977z" />
    <glyph glyph-name="exclamdbl" unicode="&#x203c;" horiz-adv-x="550" 
d="M400 -6q-17 0 -28.5 11.5t-11.5 28.5t11.5 28.5t28.5 11.5t28.5 -11.5t11.5 -28.5t-11.5 -28.5t-28.5 -11.5zM377 700h46v-500h-46v500zM150 -6q-17 0 -28.5 11.5t-11.5 28.5t11.5 28.5t28.5 11.5t28.5 -11.5t11.5 -28.5t-11.5 -28.5t-28.5 -11.5zM127 700h46v-500h-46
v500z" />
    <glyph glyph-name="uni203D" unicode="&#x203d;" horiz-adv-x="510" 
d="M227 576h46v-256q19 32 44 52.5t47.5 41t37.5 45.5t15 66q0 60 -41 97.5t-126 37.5q-79 0 -121 -39.5t-46 -105.5h-48q4 87 59 139t156 52q53 0 93 -13t67 -37t41 -57.5t14 -73.5q0 -46 -14 -75t-35.5 -50t-46.5 -39t-46.5 -41.5t-35.5 -58t-14 -87.5h-46v402zM250 -6
q-17 0 -28.5 11.5t-11.5 28.5t11.5 28.5t28.5 11.5t28.5 -11.5t11.5 -28.5t-11.5 -28.5t-28.5 -11.5z" />
    <glyph glyph-name="uni2043" unicode="&#x2043;" horiz-adv-x="450" 
d="M76 284h298v-48h-298v48z" />
    <glyph glyph-name="fraction" unicode="&#x2044;" horiz-adv-x="150" 
d="M257 700h48l-412 -700h-48z" />
    <glyph glyph-name="uni2047" unicode="&#x2047;" horiz-adv-x="990" 
d="M712 174q0 59 13.5 97.5t34.5 64.5t44.5 44t44.5 37.5t34.5 44t13.5 63.5q0 60 -40.5 97.5t-121.5 37.5q-75 0 -116.5 -39.5t-45.5 -105.5h-48q4 87 58.5 139t151.5 52q51 0 90 -13t66 -37t40.5 -57.5t13.5 -73.5q0 -45 -14 -74t-34.5 -50t-45 -39.5t-45 -42t-34.5 -58
t-14 -87.5h-46zM735 -6q-17 0 -28.5 11.5t-11.5 28.5t11.5 28.5t28.5 11.5t28.5 -11.5t11.5 -28.5t-11.5 -28.5t-28.5 -11.5zM222 174q0 59 13.5 97.5t34.5 64.5t44.5 44t44.5 37.5t34.5 44t13.5 63.5q0 60 -40.5 97.5t-121.5 37.5q-75 0 -116.5 -39.5t-45.5 -105.5h-48
q4 87 58.5 139t151.5 52q51 0 90 -13t66 -37t40.5 -57.5t13.5 -73.5q0 -45 -14 -74t-34.5 -50t-45 -39.5t-45 -42t-34.5 -58t-14 -87.5h-46zM245 -6q-17 0 -28.5 11.5t-11.5 28.5t11.5 28.5t28.5 11.5t28.5 -11.5t11.5 -28.5t-11.5 -28.5t-28.5 -11.5z" />
    <glyph glyph-name="uni2048" unicode="&#x2048;" horiz-adv-x="750" 
d="M600 -6q-17 0 -28.5 11.5t-11.5 28.5t11.5 28.5t28.5 11.5t28.5 -11.5t11.5 -28.5t-11.5 -28.5t-28.5 -11.5zM577 700h46v-500h-46v500zM222 174q0 59 13.5 97.5t34.5 64.5t44.5 44t44.5 37.5t34.5 44t13.5 63.5q0 60 -40.5 97.5t-121.5 37.5q-75 0 -116.5 -39.5
t-45.5 -105.5h-48q4 87 58.5 139t151.5 52q51 0 90 -13t66 -37t40.5 -57.5t13.5 -73.5q0 -45 -14 -74t-34.5 -50t-45 -39.5t-45 -42t-34.5 -58t-14 -87.5h-46zM245 -6q-17 0 -28.5 11.5t-11.5 28.5t11.5 28.5t28.5 11.5t28.5 -11.5t11.5 -28.5t-11.5 -28.5t-28.5 -11.5z" />
    <glyph glyph-name="uni2049" unicode="&#x2049;" horiz-adv-x="750" 
d="M150 -6q-17 0 -28.5 11.5t-11.5 28.5t11.5 28.5t28.5 11.5t28.5 -11.5t11.5 -28.5t-11.5 -28.5t-28.5 -11.5zM127 700h46v-500h-46v500zM472 174q0 59 13.5 97.5t34.5 64.5t44.5 44t44.5 37.5t34.5 44t13.5 63.5q0 60 -40.5 97.5t-121.5 37.5q-75 0 -116.5 -39.5
t-45.5 -105.5h-48q4 87 58.5 139t151.5 52q51 0 90 -13t66 -37t40.5 -57.5t13.5 -73.5q0 -45 -14 -74t-34.5 -50t-45 -39.5t-45 -42t-34.5 -58t-14 -87.5h-46zM495 -6q-17 0 -28.5 11.5t-11.5 28.5t11.5 28.5t28.5 11.5t28.5 -11.5t11.5 -28.5t-11.5 -28.5t-28.5 -11.5z" />
    <glyph glyph-name="uni2070" unicode="&#x2070;" horiz-adv-x="390" 
d="M195 374q-35 0 -62.5 11t-47 36t-30 64t-10.5 95v50q0 56 10.5 95t30 64t47 36t62.5 11q34 0 62 -11t47.5 -36t30 -64t10.5 -95v-50q0 -56 -10.5 -95t-30 -64t-47.5 -36t-62 -11zM195 414q25 0 45 8t33.5 27.5t21 51.5t7.5 79v50q0 47 -7.5 79t-21 51.5t-33.5 27.5t-45 8
t-45 -8t-33.5 -27.5t-21 -51.5t-7.5 -79v-50q0 -47 7.5 -79t21 -51.5t33.5 -27.5t45 -8z" />
    <glyph glyph-name="uni2074" unicode="&#x2074;" horiz-adv-x="370" 
d="M25 527l204 303h55v-303h61v-38h-61v-109h-40v109h-219v38zM244 527v264l-175 -264h175z" />
    <glyph glyph-name="uni2075" unicode="&#x2075;" horiz-adv-x="385" 
d="M74 830h239v-38h-201l-14 -163q39 44 100 44q31 0 57.5 -10.5t45 -30t29 -47t10.5 -61.5q0 -68 -41 -109t-108 -41q-62 0 -99.5 29.5t-51.5 73.5h46q9 -25 34 -44t71 -19t76.5 29.5t30.5 80.5t-30.5 80.5t-76.5 29.5q-33 0 -57 -15.5t-39 -35.5h-41z" />
    <glyph glyph-name="uni2076" unicode="&#x2076;" horiz-adv-x="390" 
d="M201 374q-73 0 -114.5 42.5t-41.5 125.5v71q0 60 11.5 102.5t31.5 69.5t48.5 39t63.5 12q31 0 54 -8t39 -21.5t25.5 -31t14.5 -35.5h-42q-4 10 -10.5 20t-17 18t-26 13t-37.5 5q-27 0 -48.5 -9t-36.5 -30.5t-23 -56.5t-8 -87l1 -2q18 28 47.5 44.5t67.5 16.5
q68 0 106.5 -38.5t38.5 -102.5v-15q0 -31 -10.5 -57t-29.5 -45t-45.5 -29.5t-58.5 -10.5zM195 632q-48 0 -76.5 -28t-30.5 -69v-14q0 -51 29 -79t84 -28q46 0 74 28t28 74v15q0 45 -28.5 73t-79.5 28z" />
    <glyph glyph-name="uni2077" unicode="&#x2077;" horiz-adv-x="330" 
d="M15 830h300v-38l-183 -412h-46l184 412h-255v38z" />
    <glyph glyph-name="uni2078" unicode="&#x2078;" horiz-adv-x="380" 
d="M190 374q-72 0 -111 36t-39 90q0 39 22 69.5t66 45.5q-37 15 -56 42t-19 61q0 50 36.5 84t100.5 34q65 0 101.5 -34t36.5 -84q0 -34 -19.5 -60.5t-57.5 -41.5q45 -16 67 -46t22 -70q0 -54 -39 -90t-111 -36zM190 413q51 0 80 26.5t29 61.5q0 40 -28 66.5t-81 30.5
q-52 -4 -80 -30.5t-28 -66.5q0 -35 29 -61.5t79 -26.5zM190 632q45 4 70.5 28.5t25.5 56.5t-25.5 56t-70.5 24t-70.5 -24t-25.5 -56t25.5 -56.5t70.5 -28.5z" />
    <glyph glyph-name="uni2079" unicode="&#x2079;" horiz-adv-x="390" 
d="M189 835q73 0 114.5 -42.5t41.5 -125.5v-71q0 -60 -11.5 -102.5t-31.5 -69.5t-49 -39t-63 -12q-31 0 -54 8t-39 21.5t-26 31t-14 35.5h42q7 -20 27 -38t64 -18q27 0 48.5 9t36.5 30.5t23 56.5t8 87l-1 2q-18 -28 -47.5 -44.5t-67.5 -16.5q-68 0 -106.5 38.5t-38.5 102.5
v15q0 31 10.5 57t29.5 45t45.5 29.5t58.5 10.5zM195 577q48 0 76.5 28t30.5 69v14q0 51 -29 79t-84 28q-46 0 -74 -28t-28 -74v-15q0 -45 28.5 -73t79.5 -28z" />
    <glyph glyph-name="uni207A" unicode="&#x207a;" horiz-adv-x="400" 
d="M60 624h120v121h40v-121h120v-38h-120v-121h-40v121h-120v38z" />
    <glyph glyph-name="uni207B" unicode="&#x207b;" horiz-adv-x="400" 
d="M60 624h280v-38h-280v38z" />
    <glyph glyph-name="uni207C" unicode="&#x207c;" horiz-adv-x="400" 
d="M60 691h280v-38h-280v38zM60 558h280v-38h-280v38z" />
    <glyph glyph-name="uni207D" unicode="&#x207d;" horiz-adv-x="240" 
d="M65 605q0 57 15.5 98.5t35.5 70.5q23 33 52 56h52q-32 -23 -57 -56q-22 -29 -39.5 -70.5t-17.5 -98.5t17.5 -99t38.5 -70q25 -33 57 -56h-55q-28 23 -50 56q-19 28 -34 70t-15 99z" />
    <glyph glyph-name="uni207E" unicode="&#x207e;" horiz-adv-x="240" 
d="M175.008 605.074q0 -56.9932 -15.498 -98.4883t-35.4961 -70.4912q-22.9971 -32.9961 -51.9932 -55.9932h-51.9932q31.9961 22.9971 56.9922 55.9932q21.998 28.9961 39.4951 70.4912q17.498 41.4951 17.498 98.4883q0 56.9922 -17.498 98.9873
q-17.4971 41.9951 -38.4951 69.9912q-24.9971 32.9961 -56.9932 55.9941h54.9932q27.9971 -22.998 49.9941 -55.9941q18.998 -27.9961 33.9961 -69.9912t14.998 -98.9873z" />
    <glyph glyph-name="uni207F" unicode="&#x207f;" horiz-adv-x="370" 
d="M50 700h33l4 -59q16 32 45 48.5t68 16.5q59 0 92 -35t33 -106v-185h-39v185q0 52 -24.5 77t-69.5 25q-47 0 -73.5 -26.5t-28.5 -71.5v-189h-40v320z" />
    <glyph glyph-name="uni2080" unicode="&#x2080;" horiz-adv-x="390" 
d="M195 -135q-35 0 -62.5 11t-47 36t-30 64t-10.5 95v50q0 56 10.5 95t30 64t47 36t62.5 11q34 0 62 -11t47.5 -36t30 -64t10.5 -95v-50q0 -56 -10.5 -95t-30 -64t-47.5 -36t-62 -11zM195 -95q25 0 45 8t33.5 27.5t21 51.5t7.5 79v50q0 47 -7.5 79t-21 51.5t-33.5 27.5
t-45 8t-45 -8t-33.5 -27.5t-21 -51.5t-7.5 -79v-50q0 -47 7.5 -79t21 -51.5t33.5 -27.5t45 -8z" />
    <glyph glyph-name="uni2081" unicode="&#x2081;" horiz-adv-x="260" 
d="M30 244l119 77h41v-450h-41v404l-119 -77v46z" />
    <glyph glyph-name="uni2082" unicode="&#x2082;" horiz-adv-x="355" 
d="M30 -91l162 159q25 24 40 43t23.5 34.5t11.5 29.5t3 29q0 35 -26 59t-71 24t-71 -24t-26 -59h-43q0 25 10 47.5t28 39t44 26.5t58 10q31 0 57 -10t44 -26.5t28 -39t10 -47.5q0 -20 -4.5 -38t-15 -37t-28 -40.5t-44.5 -47.5l-135 -132h230v-38h-285v38z" />
    <glyph glyph-name="uni2083" unicode="&#x2083;" horiz-adv-x="370" 
d="M181 -135q-72 0 -109 36t-42 102h43q5 -47 31 -72.5t77 -25.5q53 0 80 25t27 66q0 35 -28.5 61t-75.5 26h-57v37h57q44 0 70 24.5t26 59.5q0 37 -25 60t-74 23q-48 0 -72.5 -23.5t-29.5 -62.5h-42q4 56 41 91t103 35q68 0 105 -34t37 -85q0 -36 -19 -63.5t-55 -41.5
q38 -14 59.5 -43.5t21.5 -65.5q0 -58 -37.5 -93.5t-111.5 -35.5z" />
    <glyph glyph-name="uni2084" unicode="&#x2084;" horiz-adv-x="370" 
d="M25 18l204 303h55v-303h61v-38h-61v-109h-40v109h-219v38zM244 18v264l-175 -264h175z" />
    <glyph glyph-name="uni2085" unicode="&#x2085;" horiz-adv-x="385" 
d="M74 321h239v-38h-201l-14 -163q39 44 100 44q31 0 57.5 -10.5t45 -30t29 -47t10.5 -61.5q0 -68 -41 -109t-108 -41q-62 0 -99.5 29.5t-51.5 73.5h46q9 -25 34 -44t71 -19t76.5 29.5t30.5 80.5t-30.5 80.5t-76.5 29.5q-33 0 -57 -15.5t-39 -35.5h-41z" />
    <glyph glyph-name="uni2086" unicode="&#x2086;" horiz-adv-x="390" 
d="M201 -135q-73 0 -114.5 42.5t-41.5 125.5v71q0 60 11.5 102.5t31.5 69.5t48.5 39t63.5 12q31 0 54 -8t39 -21.5t25.5 -31t14.5 -35.5h-42q-4 10 -10.5 20t-17 18t-26 13t-37.5 5q-27 0 -48.5 -9t-36.5 -30.5t-23 -56.5t-8 -87l1 -2q18 28 47.5 44.5t67.5 16.5
q68 0 106.5 -38.5t38.5 -102.5v-15q0 -31 -10.5 -57t-29.5 -45t-45.5 -29.5t-58.5 -10.5zM195 123q-48 0 -76.5 -28t-30.5 -69v-14q0 -51 29 -79t84 -28q46 0 74 28t28 74v15q0 45 -28.5 73t-79.5 28z" />
    <glyph glyph-name="uni2087" unicode="&#x2087;" horiz-adv-x="330" 
d="M15 321h300v-38l-183 -412h-46l184 412h-255v38z" />
    <glyph glyph-name="uni2088" unicode="&#x2088;" horiz-adv-x="380" 
d="M190 -135q-72 0 -111 36t-39 90q0 39 22 69.5t66 45.5q-37 15 -56 42t-19 61q0 50 36.5 84t100.5 34q65 0 101.5 -34t36.5 -84q0 -34 -19.5 -60.5t-57.5 -41.5q45 -16 67 -46t22 -70q0 -54 -39 -90t-111 -36zM190 -96q51 0 80 26.5t29 61.5q0 40 -28 66.5t-81 30.5
q-52 -4 -80 -30.5t-28 -66.5q0 -35 29 -61.5t79 -26.5zM190 123q45 4 70.5 28.5t25.5 56.5t-25.5 56t-70.5 24t-70.5 -24t-25.5 -56t25.5 -56.5t70.5 -28.5z" />
    <glyph glyph-name="uni2089" unicode="&#x2089;" horiz-adv-x="390" 
d="M189 327q73 0 114.5 -42.5t41.5 -125.5v-71q0 -60 -11.5 -102.5t-31.5 -69.5t-49 -39t-63 -12q-31 0 -54 8t-39 21.5t-26 31t-14 35.5h42q7 -20 27 -38t64 -18q27 0 48.5 9t36.5 30.5t23 56.5t8 87l-1 2q-18 -28 -47.5 -44.5t-67.5 -16.5q-68 0 -106.5 38.5t-38.5 102.5
v15q0 31 10.5 57t29.5 45t45.5 29.5t58.5 10.5zM195 69q48 0 76.5 28t30.5 69v14q0 51 -29 79t-84 28q-46 0 -74 -28t-28 -74v-15q0 -45 28.5 -73t79.5 -28z" />
    <glyph glyph-name="uni208A" unicode="&#x208a;" horiz-adv-x="400" 
d="M60 115h120v121h40v-121h120v-38h-120v-121h-40v121h-120v38z" />
    <glyph glyph-name="uni208B" unicode="&#x208b;" horiz-adv-x="400" 
d="M60 115h280v-38h-280v38z" />
    <glyph glyph-name="uni208C" unicode="&#x208c;" horiz-adv-x="400" 
d="M60 182h280v-38h-280v38zM60 49h280v-38h-280v38z" />
    <glyph glyph-name="uni208D" unicode="&#x208d;" horiz-adv-x="240" 
d="M65 96q0 57 15.5 98.5t35.5 70.5q23 33 52 56h52q-32 -23 -57 -56q-22 -29 -39.5 -70.5t-17.5 -98.5t17.5 -99t38.5 -70q25 -33 57 -56h-55q-28 23 -50 56q-19 28 -34 70t-15 99z" />
    <glyph glyph-name="uni208E" unicode="&#x208e;" horiz-adv-x="240" 
d="M175.008 95.0742q0 -56.9932 -15.498 -98.4883t-35.4961 -70.4912q-22.9971 -32.9961 -51.9932 -55.9932h-51.9932q31.9961 22.9971 56.9922 55.9932q21.998 28.9961 39.4951 70.4912q17.498 41.4951 17.498 98.4883q0 56.9922 -17.498 98.9873
q-17.4971 41.9951 -38.4951 69.9912q-24.9971 32.9961 -56.9932 55.9941h54.9932q27.9971 -22.998 49.9941 -55.9941q18.998 -27.9961 33.9961 -69.9912t14.998 -98.9873z" />
    <glyph glyph-name="uni2090" unicode="&#x2090;" horiz-adv-x="350" 
d="M145 -135q-52 0 -78.5 24.5t-26.5 66.5q0 49 32.5 76.5t112.5 27.5h73v21q0 39 -18.5 57.5t-59.5 18.5q-38 0 -55 -14t-21 -37h-44q4 40 33 65.5t87 25.5q120 0 120 -116v-210h-32l-6 58q-18 -30 -48.5 -47t-68.5 -17zM145 -95q24 0 45 8.5t36 23t23.5 33.5t8.5 41v11
h-73q-57 0 -78.5 -17.5t-21.5 -48.5q0 -23 15.5 -37t44.5 -14z" />
    <glyph glyph-name="uni2091" unicode="&#x2091;" horiz-adv-x="360" 
d="M180 -135q-66 0 -105.5 40t-39.5 108v36q0 68 39.5 108t105.5 40q32 0 58.5 -11t46 -30.5t30 -46.5t10.5 -60v-34h-246v-2q0 -51 27.5 -79.5t73.5 -28.5q21 0 35.5 4t25.5 11t18.5 17.5t14.5 22.5h46q-14 -46 -50 -70.5t-90 -24.5zM180 157q-45 0 -72.5 -27.5
t-28.5 -76.5h202q-2 50 -28.5 77t-72.5 27z" />
    <glyph glyph-name="uni2092" unicode="&#x2092;" horiz-adv-x="360" 
d="M180 -135q-32 0 -58.5 10.5t-46 30t-30 47t-10.5 60.5v36q0 33 10.5 60t30 46.5t46 30.5t58.5 11t58.5 -11t46 -30.5t30 -46.5t10.5 -60v-36q0 -33 -10.5 -60.5t-30 -47t-46 -30t-58.5 -10.5zM180 -95q44 0 72.5 29t28.5 79v36q0 50 -28.5 79t-72.5 29t-72.5 -29
t-28.5 -79v-36q0 -50 28.5 -79t72.5 -29z" />
    <glyph glyph-name="uni2093" unicode="&#x2093;" horiz-adv-x="350" 
d="M174 5l-92 -134h-47l116 166l-106 154h47l83 -123l85 123h45l-106 -154l116 -166h-49z" />
    <glyph glyph-name="uni2094" unicode="&#x2094;" horiz-adv-x="360" 
d="M180.021 196.046q65.9922 0 105.487 -39.9951t39.4951 -107.987v-35.9951q0 -67.9922 -39.4951 -107.987t-105.487 -39.9951q-31.9961 0 -58.4922 10.999q-26.4971 10.999 -45.9941 30.4961q-19.498 19.498 -29.9971 46.4941q-10.498 26.9971 -10.498 59.9932v33.9961
h245.97v1.99902q0 50.9941 -27.4971 79.4902q-27.4961 28.4971 -73.4912 28.4971q-20.9971 0 -35.4951 -4q-14.498 -3.99902 -25.4971 -10.998q-10.998 -7 -18.498 -17.498q-7.49902 -10.499 -14.498 -22.4971h-45.9941q13.998 45.9941 49.9941 70.4912
q35.9951 24.4971 89.9883 24.4971zM180.021 -95.9189q44.9951 0 72.4912 27.4971q27.4971 27.4961 28.4971 76.4902h-201.976q2 -49.9941 28.4971 -76.9902q26.4961 -26.9971 72.4902 -26.9971z" />
    <glyph glyph-name="uni2095" unicode="&#x2095;" horiz-adv-x="370" 
d="M55 321h40v-184q16 29 43 44.5t62 15.5q55 0 87.5 -35t32.5 -106v-185h-39v185q0 52 -23.5 77t-65.5 25q-44 0 -70.5 -27t-26.5 -75v-185h-40v450z" />
    <glyph glyph-name="uni2096" unicode="&#x2096;" horiz-adv-x="340" 
d="M141 19l-46 -53v-95h-40v450h40v-303l151 173h49l-126 -144l136 -176h-50z" />
    <glyph glyph-name="uni2097" unicode="&#x2097;" horiz-adv-x="195" 
d="M137 -129q-87 0 -87 89v361h40v-358q0 -29 12.5 -42t39.5 -13h28v-37h-33v0z" />
    <glyph glyph-name="uni2098" unicode="&#x2098;" horiz-adv-x="570" 
d="M55 191h33l4 -56q31 62 101 62q36 0 62.5 -17t40.5 -52q29 69 109 69q54 0 84.5 -34t30.5 -107v-185h-40v185q0 54 -22 78t-60 24q-42 0 -66.5 -26t-24.5 -76v-185h-40v185q0 54 -21.5 78t-59.5 24q-42 0 -66.5 -26t-24.5 -76v-185h-40v320z" />
    <glyph glyph-name="uni2099" unicode="&#x2099;" horiz-adv-x="370" 
d="M50 191h33l4 -59q16 32 45 48.5t68 16.5q59 0 92 -35t33 -106v-185h-39v185q0 52 -24.5 77t-69.5 25q-47 0 -73.5 -26.5t-28.5 -71.5v-189h-40v320z" />
    <glyph glyph-name="uni209A" unicode="&#x209a;" horiz-adv-x="365" 
d="M199 -135q-38 0 -65.5 15t-43.5 46v-185h-40v450h33l4 -60q16 33 44.5 49.5t67.5 16.5q59 0 95 -39t36 -112v-30q0 -73 -36 -112t-95 -39zM190 -96q45 0 72 28.5t27 83.5v30q0 55 -27 83.5t-72 28.5q-46 0 -73 -28t-27 -84v-30q0 -56 27 -84t73 -28z" />
    <glyph glyph-name="uni209B" unicode="&#x209b;" horiz-adv-x="320" 
d="M160 -135q-60 0 -89.5 26t-35.5 70h41q6 -28 25.5 -44.5t58.5 -16.5q47 0 66 15.5t19 41.5q0 22 -15 33.5t-38 18.5t-49.5 12.5t-49.5 15t-38 26t-15 46.5q0 38 28.5 63t91.5 25q57 0 84.5 -24t33.5 -64h-41q-6 24 -23 38.5t-54 14.5q-42 0 -60.5 -15t-18.5 -37
q0 -20 15 -30.5t38 -17.5t49 -13t49 -16t38 -27.5t15 -47.5q0 -43 -29 -68t-96 -25z" />
    <glyph glyph-name="uni209C" unicode="&#x209c;" horiz-adv-x="240" 
d="M20 191h60v90h40v-90h90v-37h-90v-196q0 -27 11.5 -38.5t40.5 -11.5h48v-37h-48q-51 0 -71.5 19.5t-20.5 67.5v196h-60v37z" />
    <glyph glyph-name="franc" unicode="&#x20a3;" horiz-adv-x="565" 
d="M20 190h105v510h405v-42h-359v-277h299v-42h-299v-149h149v-40h-149v-150h-46v150h-105v40z" />
    <glyph glyph-name="Euro" unicode="&#x20ac;" horiz-adv-x="620" 
d="M31 445h102q7 63 29.5 110.5t57.5 80t82 48.5t103 16h175l-12 -42h-163q-94 0 -153 -52t-73 -161h329l-12 -40h-320v-20v-70v-20h289l-12 -40h-274q14 -109 73 -161t153 -52h165v-42h-165q-114 0 -186 64t-86 191h-113l11 40h99v20v70v20h-110z" />
    <glyph glyph-name="uni20B4" unicode="&#x20b4;" horiz-adv-x="580" 
d="M70 305h440v-40h-294q-26 -27 -42 -56t-16 -64q0 -50 31.5 -79.5t93.5 -29.5q57 0 92.5 28t45.5 76h46q-5 -31 -19.5 -58t-37.5 -46.5t-55 -30.5t-72 -11q-83 0 -126.5 41t-43.5 110q0 35 14 64.5t36 55.5h-93v40zM70 435h279q29 29 48.5 59.5t19.5 68.5q0 45 -30 73
t-87 28q-53 0 -86 -27t-41 -67h-45q4 29 18.5 54t36.5 43t51 28.5t63 10.5q81 0 123 -39t42 -104q0 -38 -16 -69.5t-40 -58.5h104v-40h-440v40z" />
    <glyph glyph-name="uni20BD" unicode="&#x20bd;" horiz-adv-x="620" 
d="M25 326h105v374h200q121 0 180.5 -55.5t59.5 -152.5q0 -98 -59.5 -153t-180.5 -55h-154v-95h244v-38h-244v-151h-46v151h-105v38h105v95h-105v42zM176 658v-332h154q99 0 145.5 43.5t46.5 122.5t-46.5 122.5t-145.5 43.5h-154z" />
    <glyph glyph-name="uni20BF" unicode="&#x20bf;" horiz-adv-x="620" 
d="M345 0h-15h-95v-100h-40v100h-95v700h95v100h40v-100h75q9 0 18 -0.5t17 -1.5v102h40v-107q74 -16 109.5 -61t35.5 -113q0 -54 -26.5 -94.5t-80.5 -61.5q64 -18 95.5 -63t31.5 -109q0 -79 -40 -127.5t-125 -60.5v-103h-40v100zM146 339v-296h184q89 0 130.5 38.5
t41.5 109.5t-41.5 109.5t-130.5 38.5h-184zM146 657v-276h164q89 0 130.5 37.5t41.5 100.5t-41.5 100.5t-130.5 37.5h-164z" />
    <glyph glyph-name="uni20F0" unicode="&#x20f0;" horiz-adv-x="250" 
d="M10 741h91l-46 81l23 14l47 -82l47 82l23 -14l-47 -81h92v-27h-92l47 -81l-23 -14l-47 81l-47 -81l-23 14l46 81h-91v27z" />
    <glyph glyph-name="uni2100" unicode="&#x2100;" horiz-adv-x="850" 
d="M632 700h48l-412 -700h-48zM650 -5q-65 0 -105 41t-40 110v30q0 69 40 110t105 41q57 0 93 -25.5t47 -67.5h-44q-10 24 -34 39t-62 15q-45 0 -74 -30t-29 -82v-30q0 -52 29 -82t74 -30q39 0 63.5 17.5t34.5 46.5h42q-10 -46 -46 -74.5t-94 -28.5zM165 374
q-52 0 -78.5 24.5t-26.5 66.5q0 49 32.5 76.5t112.5 27.5h73v21q0 39 -18.5 57.5t-59.5 18.5q-38 0 -55 -14t-21 -37h-44q4 40 33 65.5t87 25.5q120 0 120 -116v-210h-32l-6 58q-18 -30 -48.5 -47t-68.5 -17zM165 414q24 0 45 8.5t36 23t23.5 33.5t8.5 41v11h-73
q-57 0 -78.5 -17.5t-21.5 -48.5q0 -23 15.5 -37t44.5 -14z" />
    <glyph glyph-name="uni2101" unicode="&#x2101;" horiz-adv-x="850" 
d="M632 700h48l-412 -700h-48zM665 -5q-60 0 -89.5 26t-35.5 70h41q6 -28 25.5 -44.5t58.5 -16.5q47 0 66 15.5t19 41.5q0 22 -15 33.5t-38 18.5t-49.5 12.5t-49.5 15t-38 26t-15 46.5q0 38 28.5 63t91.5 25q57 0 84.5 -24t33.5 -64h-41q-6 24 -23 38.5t-54 14.5
q-42 0 -60.5 -15t-18.5 -37q0 -20 15 -30.5t38 -17.5t49 -13t49 -16t38 -27.5t15 -47.5q0 -43 -29 -68t-96 -25zM165 374q-52 0 -78.5 24.5t-26.5 66.5q0 49 32.5 76.5t112.5 27.5h73v21q0 39 -18.5 57.5t-59.5 18.5q-38 0 -55 -14t-21 -37h-44q4 40 33 65.5t87 25.5
q120 0 120 -116v-210h-32l-6 58q-18 -30 -48.5 -47t-68.5 -17zM165 414q24 0 45 8.5t36 23t23.5 33.5t8.5 41v11h-73q-57 0 -78.5 -17.5t-21.5 -48.5q0 -23 15.5 -37t44.5 -14z" />
    <glyph glyph-name="afii61248" unicode="&#x2105;" horiz-adv-x="850" 
d="M607 700h48l-412 -700h-48zM205 374q-65 0 -105 41t-40 110v30q0 69 40 110t105 41q57 0 93 -25.5t47 -67.5h-44q-10 24 -34 39t-62 15q-45 0 -74 -30t-29 -82v-30q0 -52 29 -82t74 -30q39 0 63.5 17.5t34.5 46.5h42q-10 -46 -46 -74.5t-94 -28.5zM645 -5
q-32 0 -58.5 10.5t-46 30t-30 47t-10.5 60.5v36q0 33 10.5 60t30 46.5t46 30.5t58.5 11t58.5 -11t46 -30.5t30 -46.5t10.5 -60v-36q0 -33 -10.5 -60.5t-30 -47t-46 -30t-58.5 -10.5zM645 35q44 0 72.5 29t28.5 79v36q0 50 -28.5 79t-72.5 29t-72.5 -29t-28.5 -79v-36
q0 -50 28.5 -79t72.5 -29z" />
    <glyph glyph-name="uni2106" unicode="&#x2106;" horiz-adv-x="870" 
d="M607 700h48l-412 -700h-48zM205 374q-65 0 -105 41t-40 110v30q0 69 40 110t105 41q57 0 93 -25.5t47 -67.5h-44q-10 24 -34 39t-62 15q-45 0 -74 -30t-29 -82v-30q0 -52 29 -82t74 -30q39 0 63.5 17.5t34.5 46.5h42q-10 -46 -46 -74.5t-94 -28.5zM669 -5
q-56 0 -87.5 34.5t-31.5 106.5v185h40v-185q0 -54 22 -78t64 -24t68 27t26 75v185h40v-320h-32l-5 57q-16 -30 -43 -46.5t-61 -16.5z" />
    <glyph glyph-name="afii61289" unicode="&#x2113;" horiz-adv-x="390" 
d="M251 0q-119 0 -119 119v127q-19 -17 -38 -33t-39 -31v55q39 31 77 68v296q0 49 28 77t73 28q44 0 73 -27.5t29 -77.5q0 -41 -12.5 -82t-34 -80.5t-50.5 -77t-63 -72.5v-165q0 -44 19.5 -63.5t61.5 -19.5h65v-41h-70zM175 350q51 58 83.5 121.5t32.5 129.5q0 29 -16 46
t-42 17t-42 -17t-16 -46v-251z" />
    <glyph glyph-name="afii61352" unicode="&#x2116;" horiz-adv-x="1070" 
d="M740 321h270v-42h-270v42zM204 550l-58 99v-649h-46v700h64l342 -550l58 -99v649h46v-700h-64zM875 374q-32 0 -58.5 10.5t-46 30t-30 47t-10.5 60.5v36q0 33 10.5 60t30 46.5t46 30.5t58.5 11t58.5 -11t46 -30.5t30 -46.5t10.5 -60v-36q0 -33 -10.5 -60.5t-30 -47
t-46 -30t-58.5 -10.5zM875 414q44 0 72.5 29t28.5 79v36q0 50 -28.5 79t-72.5 29t-72.5 -29t-28.5 -79v-36q0 -50 28.5 -79t72.5 -29z" />
    <glyph glyph-name="uni2117" unicode="&#x2117;" horiz-adv-x="850" 
d="M425 -6q-75 0 -140 28t-113.5 76t-76.5 113t-28 139q0 73 28 138t76.5 113.5t114 76.5t139.5 28q75 0 140.5 -28t113.5 -76t76 -113t28 -139t-28 -138.5t-76.5 -113t-113.5 -76.5t-140 -28zM425 35q66 0 123.5 24.5t100.5 67t67.5 100t24.5 123.5t-24.5 123.5t-67.5 100
t-100.5 67t-123.5 24.5t-123 -24.5t-100 -67t-67.5 -100t-24.5 -123.5t24.5 -123.5t67.5 -100t100 -67t123 -24.5zM310 550h120q73 0 106.5 -31t33.5 -92q0 -60 -34 -91.5t-106 -31.5h-80v-154h-40v400zM350 513v-172h80q54 0 76 20.5t22 65.5t-22 65.5t-76 20.5h-80z" />
    <glyph glyph-name="uni2120" unicode="&#x2120;" horiz-adv-x="850" 
d="M494 604l-23 49v-353h-40v400h53l124 -234l126 234h51v-400h-40v352l-23 -48l-93 -176h-41zM202 294q-67 0 -100 31.5t-37 91.5h42q4 -43 25.5 -63.5t69.5 -20.5q51 0 73 19t22 53q0 28 -16.5 43.5t-41.5 25t-54 17.5t-54 20.5t-41.5 33.5t-16.5 58q0 45 32 74t97 29
q62 0 94 -29.5t36 -78.5h-42q-4 32 -25 50.5t-63 18.5q-46 0 -67 -18.5t-21 -48.5q0 -27 16.5 -41t41.5 -23.5t54.5 -17.5t54.5 -21t41.5 -35t16.5 -60q0 -49 -33 -78.5t-104 -29.5z" />
    <glyph glyph-name="trademark" unicode="&#x2122;" horiz-adv-x="850" 
d="M494 604l-23 49v-353h-40v400h53l124 -234l126 234h51v-400h-40v352l-23 -48l-93 -176h-41zM65 700h310v-37h-135v-363h-40v363h-135v37z" />
    <glyph glyph-name="Omega" unicode="&#x2126;" horiz-adv-x="710" 
d="M75 42h130q-59 37 -94.5 105.5t-35.5 167.5v70q0 75 21.5 134.5t59 101t89 63.5t110.5 22q60 0 111 -22t88.5 -63.5t59 -101t21.5 -134.5v-70q0 -99 -36.5 -167.5t-96.5 -105.5h133v-42h-225v42q37 8 69.5 30.5t56.5 57.5t37.5 81.5t13.5 103.5v70q0 65 -18 116.5
t-49.5 87t-74 54.5t-90.5 19q-49 0 -91 -18.5t-73.5 -54t-49.5 -87t-18 -117.5v-70q0 -57 14 -103.5t38 -81.5t56 -57.5t69 -30.5v-42h-225v42z" />
    <glyph glyph-name="estimated" unicode="&#x212e;" horiz-adv-x="600" 
d="M300 -6q-53 0 -99.5 20t-81.5 55t-55 81.5t-20 99.5t20 99.5t55 81.5t81.5 55t99.5 20t99.5 -20t81.5 -55t55 -81.5t20 -99.5v-3.5v-2.5l-1 -6h-395v-173q29 -23 64.5 -35t75.5 -12q68 0 122 32t86 90h29q-36 -71 -99.5 -108.5t-137.5 -37.5zM300 482q-40 0 -75.5 -12.5
t-64.5 -34.5v-173h280v173q-29 22 -65 34.5t-75 12.5z" />
    <glyph glyph-name="uni2150" unicode="&#x2150;" horiz-adv-x="890" 
d="M607 700h48l-412 -700h-48zM60 631l110 69h40v-400h-40v355l-110 -70v46zM560 401h270v-37l-168 -363h-47l170 363h-225v37z" />
    <glyph glyph-name="uni2151" unicode="&#x2151;" horiz-adv-x="880" 
d="M607 700h48l-412 -700h-48zM60 631l110 69h40v-400h-40v355l-110 -70v46zM675 407q68 0 106.5 -39t38.5 -111v-71q0 -101 -39.5 -146t-105.5 -45q-56 0 -86.5 27t-38.5 66h39q8 -23 29 -40t59 -17q24 0 43.5 8t33 26.5t21.5 49.5t8 77q-16 -26 -43 -40t-63 -14
q-64 0 -100.5 35t-36.5 92v15q0 57 36 92t99 35zM680 174q46 0 71.5 24t26.5 63v14q0 45 -26 70t-77 25q-44 0 -69 -24.5t-25 -65.5v-15q0 -42 25.5 -66.5t73.5 -24.5z" />
    <glyph glyph-name="uni2152" unicode="&#x2152;" horiz-adv-x="1150" 
d="M607 700h48l-412 -700h-48zM560 332l110 69h40v-400h-40v355l-110 -70v46zM60 631l110 69h40v-400h-40v355l-110 -70v46zM945 -5q-66 0 -105.5 43.5t-39.5 137.5v50q0 94 39.5 137.5t105.5 43.5q67 0 106 -43.5t39 -137.5v-50q0 -94 -39 -137.5t-106 -43.5zM945 34
q48 0 76 32.5t28 109.5v50q0 77 -28 109.5t-76 32.5t-75.5 -32t-27.5 -110v-50q0 -78 27.5 -110t75.5 -32z" />
    <glyph glyph-name="onethird" unicode="&#x2153;" horiz-adv-x="890" 
d="M607 700h48l-412 -700h-48zM60 631l110 69h40v-400h-40v355l-110 -70v46zM690 -5q-66 0 -100.5 33t-39.5 90h42q5 -39 28.5 -61.5t69.5 -22.5q50 0 74 21.5t24 56.5q0 32 -23.5 54t-71.5 22h-56v37h56q45 0 66.5 20.5t21.5 52.5q0 30 -22.5 50t-68.5 20q-43 0 -65 -20.5
t-27 -53.5h-41q4 50 37 81.5t96 31.5q65 0 99 -31t34 -76q0 -31 -16 -55t-48 -36q35 -14 53 -40t18 -60q0 -51 -35 -82.5t-105 -31.5z" />
    <glyph glyph-name="twothirds" unicode="&#x2154;" horiz-adv-x="960" 
d="M677 700h48l-412 -700h-48zM60 337l145 131q25 22 41.5 39.5t26 31.5t13 27t3.5 27q0 32 -24 53t-70 21q-47 0 -70 -21t-23 -53h-42q0 50 34 81.5t101 31.5q66 0 100.5 -31.5t34.5 -81.5q0 -19 -5 -36t-16 -35t-30 -38t-46 -44l-117 -103h214v-37h-270v37zM760 -5
q-66 0 -100.5 33t-39.5 90h42q5 -39 28.5 -61.5t69.5 -22.5q50 0 74 21.5t24 56.5q0 32 -23.5 54t-71.5 22h-56v37h56q45 0 66.5 20.5t21.5 52.5q0 30 -22.5 50t-68.5 20q-43 0 -65 -20.5t-27 -53.5h-41q4 50 37 81.5t96 31.5q65 0 99 -31t34 -76q0 -31 -16 -55t-48 -36
q35 -14 53 -40t18 -60q0 -51 -35 -82.5t-105 -31.5z" />
    <glyph glyph-name="uni2155" unicode="&#x2155;" horiz-adv-x="900" 
d="M607 700h48l-412 -700h-48zM60 631l110 69h40v-400h-40v355l-110 -70v46zM596 401h220v-37h-184l-12 -139q34 36 92 36q56 0 92 -36.5t36 -96.5q0 -59 -37.5 -96t-99.5 -37q-56 0 -90 26t-48 69h45q10 -23 31.5 -39.5t61.5 -16.5q44 0 70 26t26 68q0 43 -26 69t-70 26
q-55 0 -85 -39h-40z" />
    <glyph glyph-name="uni2156" unicode="&#x2156;" horiz-adv-x="970" 
d="M677 700h48l-412 -700h-48zM60 337l145 131q25 22 41.5 39.5t26 31.5t13 27t3.5 27q0 32 -24 53t-70 21q-47 0 -70 -21t-23 -53h-42q0 50 34 81.5t101 31.5q66 0 100.5 -31.5t34.5 -81.5q0 -19 -5 -36t-16 -35t-30 -38t-46 -44l-117 -103h214v-37h-270v37zM666 401h220
v-37h-184l-12 -139q34 36 92 36q56 0 92 -36.5t36 -96.5q0 -59 -37.5 -96t-99.5 -37q-56 0 -90 26t-48 69h45q10 -23 31.5 -39.5t61.5 -16.5q44 0 70 26t26 68q0 43 -26 69t-70 26q-55 0 -85 -39h-40z" />
    <glyph glyph-name="uni2157" unicode="&#x2157;" horiz-adv-x="950" 
d="M657 700h48l-412 -700h-48zM646 401h220v-37h-184l-12 -139q34 36 92 36q56 0 92 -36.5t36 -96.5q0 -59 -37.5 -96t-99.5 -37q-56 0 -90 26t-48 69h45q10 -23 31.5 -39.5t61.5 -16.5q44 0 70 26t26 68q0 43 -26 69t-70 26q-55 0 -85 -39h-40zM200 294q-66 0 -100.5 33
t-39.5 90h42q5 -39 28.5 -61.5t69.5 -22.5q50 0 74 21.5t24 56.5q0 32 -23.5 54t-71.5 22h-56v37h56q45 0 66.5 20.5t21.5 52.5q0 30 -22.5 50t-68.5 20q-43 0 -65 -20.5t-27 -53.5h-41q4 50 37 81.5t96 31.5q65 0 99 -31t34 -76q0 -31 -16 -55t-48 -36q35 -14 53 -40
t18 -60q0 -51 -35 -82.5t-105 -31.5z" />
    <glyph glyph-name="uni2158" unicode="&#x2158;" horiz-adv-x="970" 
d="M677 700h48l-412 -700h-48zM666 401h220v-37h-184l-12 -139q34 36 92 36q56 0 92 -36.5t36 -96.5q0 -59 -37.5 -96t-99.5 -37q-56 0 -90 26t-48 69h45q10 -23 31.5 -39.5t61.5 -16.5q44 0 70 26t26 68q0 43 -26 69t-70 26q-55 0 -85 -39h-40zM60 433l187 267h55v-267h58
v-36h-58v-97h-39v97h-203v36zM263 433v228l-159 -228h159z" />
    <glyph glyph-name="uni2159" unicode="&#x2159;" horiz-adv-x="880" 
d="M607 700h48l-412 -700h-48zM60 631l110 69h40v-400h-40v355l-110 -70v46zM685 -5q-68 0 -106.5 39t-38.5 111v71q0 101 39.5 146t105.5 45q56 0 86.5 -27t38.5 -66h-39q-8 23 -29 40t-59 17q-24 0 -43.5 -8t-33 -27t-21.5 -49.5t-8 -76.5q16 26 43 40t63 14
q64 0 100.5 -35t36.5 -92v-15q0 -57 -36 -92t-99 -35zM680 228q-46 0 -71.5 -24t-26.5 -63v-14q0 -45 26 -70t77 -25q44 0 69 24.5t25 65.5v15q0 42 -25.5 66.5t-73.5 24.5z" />
    <glyph glyph-name="uni215A" unicode="&#x215a;" horiz-adv-x="930" 
d="M657 700h48l-412 -700h-48zM735 -5q-68 0 -106.5 39t-38.5 111v71q0 101 39.5 146t105.5 45q56 0 86.5 -27t38.5 -66h-39q-8 23 -29 40t-59 17q-24 0 -43.5 -8t-33 -27t-21.5 -49.5t-8 -76.5q16 26 43 40t63 14q64 0 100.5 -35t36.5 -92v-15q0 -57 -36 -92t-99 -35z
M730 228q-46 0 -71.5 -24t-26.5 -63v-14q0 -45 26 -70t77 -25q44 0 69 24.5t25 65.5v15q0 42 -25.5 66.5t-73.5 24.5zM91 700h220v-37h-184l-12 -139q34 36 92 36q56 0 92 -36.5t36 -96.5q0 -59 -37.5 -96t-99.5 -37q-56 0 -90 26t-48 69h45q10 -23 31.5 -39.5t61.5 -16.5
q44 0 70 26t26 68q0 43 -26 69t-70 26q-55 0 -85 -39h-40z" />
    <glyph glyph-name="oneeighth" unicode="&#x215b;" horiz-adv-x="890" 
d="M607 700h48l-412 -700h-48zM60 631l110 69h40v-400h-40v355l-110 -70v46zM690 -5q-68 0 -104 32t-36 79q0 35 19.5 62t61.5 41q-35 13 -51.5 37t-16.5 55q0 45 33.5 75.5t93.5 30.5t94 -30.5t34 -75.5q0 -32 -17.5 -55.5t-52.5 -36.5q42 -14 62 -41t20 -62
q0 -47 -35.5 -79t-104.5 -32zM690 33q48 0 73.5 22t25.5 54t-25.5 55t-73.5 27q-48 -4 -73 -27t-25 -55t25 -54t73 -22zM690 226q42 4 64 24.5t22 47.5q0 30 -22 50.5t-64 20.5t-64 -20.5t-22 -50.5q0 -27 22.5 -47.5t63.5 -24.5z" />
    <glyph glyph-name="threeeighths" unicode="&#x215c;" horiz-adv-x="940" 
d="M657 700h48l-412 -700h-48zM740 -5q-68 0 -104 32t-36 79q0 35 19.5 62t61.5 41q-35 13 -51.5 37t-16.5 55q0 45 33.5 75.5t93.5 30.5t94 -30.5t34 -75.5q0 -32 -17.5 -55.5t-52.5 -36.5q42 -14 62 -41t20 -62q0 -47 -35.5 -79t-104.5 -32zM740 33q48 0 73.5 22t25.5 54
t-25.5 55t-73.5 27q-48 -4 -73 -27t-25 -55t25 -54t73 -22zM740 226q42 4 64 24.5t22 47.5q0 30 -22 50.5t-64 20.5t-64 -20.5t-22 -50.5q0 -27 22.5 -47.5t63.5 -24.5zM200 294q-66 0 -100.5 33t-39.5 90h42q5 -39 28.5 -61.5t69.5 -22.5q50 0 74 21.5t24 56.5
q0 32 -23.5 54t-71.5 22h-56v37h56q45 0 66.5 20.5t21.5 52.5q0 30 -22.5 50t-68.5 20q-43 0 -65 -20.5t-27 -53.5h-41q4 50 37 81.5t96 31.5q65 0 99 -31t34 -76q0 -31 -16 -55t-48 -36q35 -14 53 -40t18 -60q0 -51 -35 -82.5t-105 -31.5z" />
    <glyph glyph-name="fiveeighths" unicode="&#x215d;" horiz-adv-x="940" 
d="M657 700h48l-412 -700h-48zM91 700h220v-37h-184l-12 -139q34 36 92 36q56 0 92 -36.5t36 -96.5q0 -59 -37.5 -96t-99.5 -37q-56 0 -90 26t-48 69h45q10 -23 31.5 -39.5t61.5 -16.5q44 0 70 26t26 68q0 43 -26 69t-70 26q-55 0 -85 -39h-40zM740 -5q-68 0 -104 32t-36 79
q0 35 19.5 62t61.5 41q-35 13 -51.5 37t-16.5 55q0 45 33.5 75.5t93.5 30.5t94 -30.5t34 -75.5q0 -32 -17.5 -55.5t-52.5 -36.5q42 -14 62 -41t20 -62q0 -47 -35.5 -79t-104.5 -32zM740 33q48 0 73.5 22t25.5 54t-25.5 55t-73.5 27q-48 -4 -73 -27t-25 -55t25 -54t73 -22z
M740 226q42 4 64 24.5t22 47.5q0 30 -22 50.5t-64 20.5t-64 -20.5t-22 -50.5q0 -27 22.5 -47.5t63.5 -24.5z" />
    <glyph glyph-name="seveneighths" unicode="&#x215e;" horiz-adv-x="860" 
d="M577 700h48l-412 -700h-48zM660 -5q-68 0 -104 32t-36 79q0 35 19.5 62t61.5 41q-35 13 -51.5 37t-16.5 55q0 45 33.5 75.5t93.5 30.5t94 -30.5t34 -75.5q0 -32 -17.5 -55.5t-52.5 -36.5q42 -14 62 -41t20 -62q0 -47 -35.5 -79t-104.5 -32zM660 33q48 0 73.5 22t25.5 54
t-25.5 55t-73.5 27q-48 -4 -73 -27t-25 -55t25 -54t73 -22zM660 226q42 4 64 24.5t22 47.5q0 30 -22 50.5t-64 20.5t-64 -20.5t-22 -50.5q0 -27 22.5 -47.5t63.5 -24.5zM60 700h270v-37l-168 -363h-47l170 363h-225v37z" />
    <glyph glyph-name="uni215F" unicode="&#x215f;" horiz-adv-x="500" 
d="M607 700h48l-412 -700h-48zM60 631l110 69h40v-400h-40v355l-110 -70v46z" />
    <glyph glyph-name="uni2189" unicode="&#x2189;" horiz-adv-x="930" 
d="M647 700h48l-412 -700h-48zM205 294q-66 0 -105.5 43.5t-39.5 137.5v50q0 94 39.5 137.5t105.5 43.5q67 0 106 -43.5t39 -137.5v-50q0 -94 -39 -137.5t-106 -43.5zM205 333q48 0 76 32.5t28 109.5v50q0 77 -28 109.5t-76 32.5t-75.5 -32t-27.5 -110v-50q0 -78 27.5 -110
t75.5 -32zM730 -5q-66 0 -100.5 33t-39.5 90h42q5 -39 28.5 -61.5t69.5 -22.5q50 0 74 21.5t24 56.5q0 32 -23.5 54t-71.5 22h-56v37h56q45 0 66.5 20.5t21.5 52.5q0 30 -22.5 50t-68.5 20q-43 0 -65 -20.5t-27 -53.5h-41q4 50 37 81.5t96 31.5q65 0 99 -31t34 -76
q0 -31 -16 -55t-48 -36q35 -14 53 -40t18 -60q0 -51 -35 -82.5t-105 -31.5z" />
    <glyph glyph-name="arrowleft" unicode="&#x2190;" horiz-adv-x="800" 
d="M44 250l224 224h58l-202 -202h626v-44h-626l202 -202h-58z" />
    <glyph glyph-name="arrowup" unicode="&#x2191;" horiz-adv-x="600" 
d="M76 382l224 224l224 -224v-58l-202 202v-626h-44v626l-202 -202v58z" />
    <glyph glyph-name="arrowright" unicode="&#x2192;" horiz-adv-x="800" 
d="M50 272h626l-202 202h58l224 -224l-224 -224h-58l202 202h-626v44z" />
    <glyph glyph-name="arrowdown" unicode="&#x2193;" horiz-adv-x="600" 
d="M76 118v58l202 -202v626h44v-626l202 202v-58l-224 -224z" />
    <glyph glyph-name="arrowboth" unicode="&#x2194;" horiz-adv-x="900" 
d="M776 228h-652l202 -202h-58l-224 224l224 224h58l-202 -202h652l-202 202h58l224 -224l-224 -224h-58z" />
    <glyph glyph-name="arrowupdn" unicode="&#x2195;" horiz-adv-x="600" 
d="M76 432l224 224l224 -224v-58l-202 202v-652l202 202v-58l-224 -224l-224 224v58l202 -202v652l-202 -202v58z" />
    <glyph glyph-name="uni2196" unicode="&#x2196;" horiz-adv-x="600" 
d="M60 182v318h318l42 -42h-287l433 -433l-31 -31l-433 433v-287z" />
    <glyph glyph-name="uni2197" unicode="&#x2197;" horiz-adv-x="600" 
d="M34 24l434 434h-288l42 42h318v-318l-42 -42v288l-434 -434z" />
    <glyph glyph-name="uni2198" unicode="&#x2198;" horiz-adv-x="600" 
d="M180 42h287l-433 433l31 31l433 -433v287l42 -42v-318h-318z" />
    <glyph glyph-name="uni2199" unicode="&#x2199;" horiz-adv-x="600" 
d="M60 318l42 42v-288l434 434l30 -30l-434 -434h288l-42 -42h-318v318z" />
    <glyph glyph-name="partialdiff" unicode="&#x2202;" horiz-adv-x="550" 
d="M219 -6q-39 0 -71.5 12.5t-56.5 36t-37.5 57.5t-13.5 77q0 7 0.5 13.5t1.5 17t3.5 26.5t7.5 41q9 52 30.5 95t53.5 73t72 46.5t87 16.5q60 0 104 -28.5t61 -81.5q5 29 6 45t1 30q0 98 -46 142.5t-131 44.5h-96v42h101q101 0 157.5 -54.5t56.5 -169.5q0 -12 -1 -25.5
t-4 -36t-8.5 -57t-15.5 -88.5q-23 -137 -91 -206t-171 -69zM438 275h1q1 10 1.5 20.5t0.5 19.5q0 71 -39 110t-101 39q-39 0 -72.5 -13.5t-60.5 -38.5t-45.5 -59.5t-25.5 -77.5q-4 -24 -6.5 -39.5t-4 -25t-2 -15.5t-0.5 -12q0 -69 40 -108t100 -39q39 0 73 14.5t61.5 41
t46.5 64t27 84.5z" />
    <glyph glyph-name="Delta" unicode="&#x2206;" horiz-adv-x="650" 
d="M295 700h60l260 -700h-580zM98 42h451l-225 612z" />
    <glyph glyph-name="product" unicode="&#x220f;" horiz-adv-x="680" 
d="M534 658h-388v-858h-46v900h480v-900h-46v858z" />
    <glyph glyph-name="summation" unicode="&#x2211;" horiz-adv-x="570" 
d="M55 -158l220 417l-220 399v42h480v-42h-427l217 -397l-220 -419h430v-42h-480v42z" />
    <glyph glyph-name="minus" unicode="&#x2212;" 
d="M80 381h430v-42h-430v42z" />
    <glyph glyph-name="uni2215" unicode="&#x2215;" 
d="M440 700h50l-340 -700h-50z" />
    <glyph glyph-name="uni2219" unicode="&#x2219;" horiz-adv-x="350" 
d="M175 185q-31 0 -53 22t-22 53t22 53t53 22t53 -22t22 -53t-22 -53t-53 -22z" />
    <glyph glyph-name="radical" unicode="&#x221a;" horiz-adv-x="585" 
d="M35 371h128l143 -410l217 839h47l-235 -900h-55l-152 429h-93v42z" />
    <glyph glyph-name="infinity" unicode="&#x221e;" horiz-adv-x="780" 
d="M580 191q-29 0 -53 6.5t-47 21.5t-45 39.5t-46 59.5q-24 -35 -46 -59t-44.5 -39t-46.5 -22t-52 -7q-34 0 -64 13t-52.5 36t-35.5 53.5t-13 66.5t13 66.5t35.5 53.5t52.5 36t64 13q56 0 99 -28.5t91 -98.5q24 35 46 59t44.5 39t47 22t52.5 7q34 0 64 -13t52.5 -36
t35.5 -53.5t13 -66.5t-13 -66.5t-35.5 -53.5t-52.5 -36t-64 -13zM580 485q-21 0 -40 -5.5t-38.5 -19.5t-40 -38t-44.5 -61q25 -38 45.5 -62t39.5 -38.5t38 -20t40 -5.5q24 0 45.5 9.5t37.5 26.5t25.5 39.5t9.5 49.5t-9.5 49.5t-25.5 39.5t-37.5 26.5t-45.5 9.5zM200 235
q21 0 40 5.5t38 19.5t39.5 38t44.5 61q-24 37 -44.5 61.5t-39.5 39t-38 20t-40 5.5q-24 0 -45 -9.5t-37 -26.5t-25.5 -39.5t-9.5 -49.5t9.5 -49.5t25.5 -39.5t37 -26.5t45 -9.5z" />
    <glyph glyph-name="integral" unicode="&#x222b;" 
d="M110 -200v43h60q53 0 77.5 25t24.5 79v611q0 142 143 142h65v-43h-60q-53 0 -77.5 -25t-24.5 -79v-611q0 -142 -143 -142h-65z" />
    <glyph glyph-name="similar" unicode="&#x223c;" 
d="M405 275q-40 0 -68 19.5t-51.5 43.5t-46.5 43.5t-54 19.5q-38 0 -61 -23t-23 -63h-46q0 59 35.5 94.5t94.5 35.5q40 0 68 -19.5t51.5 -43.5t46.5 -43.5t54 -19.5q38 0 61 23t23 63h46q0 -59 -35.5 -94.5t-94.5 -35.5z" />
    <glyph glyph-name="approxequal" unicode="&#x2248;" 
d="M405 375q-40 0 -68 19.5t-51.5 43.5t-46.5 43.5t-54 19.5q-38 0 -61 -23t-23 -63h-46q0 59 35.5 94.5t94.5 35.5q40 0 68 -19.5t51.5 -43.5t46.5 -43.5t54 -19.5q38 0 61 23t23 63h46q0 -59 -35.5 -94.5t-94.5 -35.5zM405 175q-40 0 -68 19.5t-51.5 43.5t-46.5 43.5
t-54 19.5q-38 0 -61 -23t-23 -63h-46q0 59 35.5 94.5t94.5 35.5q40 0 68 -19.5t51.5 -43.5t46.5 -43.5t54 -19.5q38 0 61 23t23 63h46q0 -59 -35.5 -94.5t-94.5 -35.5z" />
    <glyph glyph-name="notequal" unicode="&#x2260;" 
d="M80 481h245l49 109h46l-49 -109h139v-42h-157l-70 -158h227v-42h-246l-48 -109h-46l48 109h-138v42h157l70 158h-227v42z" />
    <glyph glyph-name="equivalence" unicode="&#x2261;" 
d="M80 172h430v-42h-430v42zM80 372h430v-42h-430v42zM80 571h430v-42h-430v42z" />
    <glyph glyph-name="lessequal" unicode="&#x2264;" 
d="M132 420l378 -170v-49l-430 194v50l430 194v-48zM80 131h430v-42h-430v42z" />
    <glyph glyph-name="greaterequal" unicode="&#x2265;" 
d="M80 639l430 -194v-50l-430 -194v48l378 170l-378 171v49zM80 131h430v-42h-430v42z" />
    <glyph glyph-name="uni228D" unicode="&#x228d;" horiz-adv-x="820" 
d="M410 -6q-74 0 -138.5 28t-112.5 76t-75.5 113t-27.5 139v350h42v-350q0 -65 24.5 -122t66.5 -99.5t99 -67t122 -24.5t122 24.5t99 67t66.5 99.5t24.5 122v350h42v-350q0 -74 -28 -139t-76 -113t-112.5 -76t-137.5 -28zM410 311q-17 0 -28 11.5t-11 27.5t11 27.5t28 11.5
t28 -11.5t11 -27.5t-11 -27.5t-28 -11.5z" />
    <glyph glyph-name="uni2299" unicode="&#x2299;" horiz-adv-x="820" 
d="M410 -6q-74 0 -138.5 28t-112.5 76t-75.5 113t-27.5 139t27.5 139t75.5 113t112.5 76t138.5 28q73 0 137.5 -28t112.5 -76t76 -113t28 -139t-28 -139t-76 -113t-112.5 -76t-137.5 -28zM410 37q65 0 122 24.5t99 67t66.5 99.5t24.5 122t-24.5 122t-66.5 99.5t-99 67
t-122 24.5t-122 -24.5t-99 -67t-66.5 -99.5t-24.5 -122t24.5 -122t66.5 -99.5t99 -67t122 -24.5zM410 311q-17 0 -28 11.5t-11 27.5t11 27.5t28 11.5t28 -11.5t11 -27.5t-11 -27.5t-28 -11.5z" />
    <glyph glyph-name="dotmath" unicode="&#x22c5;" 
d="M295 311q-17 0 -28.5 11.5t-11.5 28.5t11.5 28.5t28.5 11.5t28.5 -11.5t11.5 -28.5t-11.5 -28.5t-28.5 -11.5z" />
    <glyph glyph-name="uni2300" unicode="&#x2300;" horiz-adv-x="600" 
d="M176 138q-55 32 -88 88t-33 124q0 51 19.5 95.5t52.5 77.5t77.5 52.5t95.5 19.5q45 0 84 -15l56 120h49l-66 -139q55 -32 88.5 -87.5t33.5 -123.5q0 -51 -19.5 -95.5t-52.5 -77.5t-77.5 -52.5t-95.5 -19.5q-44 0 -84 14l-56 -119h-49zM98 350q0 -55 26 -100.5t70 -72.5
l171 364q-31 11 -65 11q-42 0 -79 -16t-64 -43t-43 -64t-16 -79zM300 148q42 0 79 16t64 43t43 64t16 79q0 55 -26.5 100.5t-70.5 71.5l-171 -363q33 -11 66 -11z" />
    <glyph glyph-name="angleleft" unicode="&#x2329;" horiz-adv-x="400" 
d="M70 250l220 450h50l-220 -450l220 -450h-52z" />
    <glyph glyph-name="angleright" unicode="&#x232a;" horiz-adv-x="400" 
d="M330.009 250.03l-219.974 -449.944h-49.9941l219.974 449.944l-219.974 449.945h51.9941z" />
    </font>
</defs>
</svg>
